<?xml version="1.0" standalone="no"?>
<!DOCTYPE svg PUBLIC "-//W3C//DTD SVG 1.1//EN" "http://www.w3.org/Graphics/SVG/1.1/DTD/svg11.dtd" >
<svg xmlns="http://www.w3.org/2000/svg">
<metadata></metadata>
<defs>
<font id="baron_neuenormal_50" horiz-adv-x="608" >
<font-face units-per-em="1000" ascent="750" descent="-250" />
<missing-glyph horiz-adv-x="440" />
<glyph unicode=" "  horiz-adv-x="440" />
<glyph unicode="&#x09;" horiz-adv-x="440" />
<glyph unicode="&#xa0;" horiz-adv-x="440" />
<glyph unicode="!" horiz-adv-x="258" d="M0 700h117v-496h-117v496zM58 117q25 0 42 -17.5t17 -41.5t-17 -41t-42 -17q-24 0 -41 17t-17 41t17 41.5t41 17.5z" />
<glyph unicode="&#x22;" horiz-adv-x="495" d="M0 527v173h116v-173h-116zM217 527v173h116v-173h-116z" />
<glyph unicode="#" horiz-adv-x="696" d="M555 408h-88v-146h88v-117h-88v-146h-116v146h-147v-146h-116v146h-88v117h88v146h-88v117h88v175h116v-175h147v175h116v-175h88v-117zM351 262v146h-147v-146h147z" />
<glyph unicode="$" horiz-adv-x="578" d="M276 401q69 -13 115 -68.5t46 -128.5q0 -91 -65 -147.5t-153 -56.5q-92 0 -155 57t-64 147h117q1 -50 45 -73v168q-69 13 -115.5 68t-46.5 129q0 90 65.5 147t153.5 57q91 0 154 -57.5t64 -146.5h-116q-1 51 -45 74v-169zM117 496q0 -51 45 -74v148q-45 -23 -45 -74z M276 130q44 26 44 73t-44 74v-147z" />
<glyph unicode="%" horiz-adv-x="797" d="M174 394q-63 0 -108 45t-45 108t45 108t108 45t108 -45t45 -108t-45 -108t-108 -45zM174 613q-27 0 -46 -19.5t-19 -46.5t19 -46t46 -19t46 19t19 46t-19 46.5t-46 19.5zM479 2q-63 0 -107.5 44.5t-44.5 107.5q0 64 44.5 108.5t107.5 44.5q64 0 108.5 -44.5t44.5 -108.5 q0 -63 -44.5 -107.5t-108.5 -44.5zM479 220q-27 0 -46 -19t-19 -47q0 -27 19 -46t46 -19q28 0 47 19t19 46q0 28 -19 47t-47 19zM111 2h-111l543 698h111z" />
<glyph unicode="&#x26;" horiz-adv-x="697" d="M567 70l-83 -83l-83 83q-69 -71 -168 -71q-96 0 -164.5 68.5t-68.5 165.5q0 91 62 158q-62 52 -62 134q0 72 51.5 123.5t123.5 51.5q73 0 124 -51.5t51 -123.5q0 -48 -23.5 -88t-63.5 -64l87 -87v122h205v-117h-88v-58q0 -32 -7 -57zM175 583q-24 0 -41 -17t-17 -41 t17 -41.5t41 -17.5t41 17.5t17 41.5t-17 41t-41 17zM233 116q51 0 85 37l-164 165q-37 -34 -37 -85q0 -49 34 -83t82 -34z" />
<glyph unicode="'" horiz-adv-x="257" d="M0 527v173h116v-173h-116z" />
<glyph unicode="(" horiz-adv-x="366" d="M89 0q-45 86 -66 171q-23 92 -23 181q0 178 90 347h135q-109 -170 -109 -346q0 -75 20 -153q28 -111 88 -200h-135z" />
<glyph unicode=")" horiz-adv-x="366" d="M136 699q43 -82 66 -171q23 -90 23 -180q0 -179 -90 -348h-135q109 170 109 346q0 75 -20 153q-26 104 -88 200h135z" />
<glyph unicode="*" horiz-adv-x="445" d="M304 573v-51h-91l71 -71l-36 -35l-70 70v-91h-51v91l-71 -70l-36 35l71 71h-91v51h91l-71 71l36 36l71 -71v91h51v-91l70 71l36 -36l-71 -71h91z" />
<glyph unicode="+" horiz-adv-x="606" d="M465 291v-117h-174v-174h-116v174h-175v117h175v174h116v-174h174z" />
<glyph unicode="," horiz-adv-x="258" d="M58 116q25 0 42 -17t17 -41q0 -29 -6 -49.5t-14.5 -30t-17.5 -15t-15 -5.5l-6 -1v43q-24 0 -41 17t-17 41t17 41t41 17z" />
<glyph unicode="-" horiz-adv-x="604" d="M464 405v-116h-462v116h462z" />
<glyph unicode="." horiz-adv-x="258" d="M58 117q25 0 42 -17.5t17 -41.5t-17 -41t-42 -17q-24 0 -41 17t-17 41t17 41.5t41 17.5z" />
<glyph unicode="/" horiz-adv-x="625" d="M325 700h129l-325 -701h-129z" />
<glyph unicode="0" horiz-adv-x="549" d="M204 0q-85 0 -144.5 59.5t-59.5 144.5v291q0 84 59.5 144t144.5 60q84 0 144 -60t60 -144v-291q0 -85 -60 -144.5t-144 -59.5zM204 582q-36 0 -61.5 -25.5t-25.5 -61.5v-291q0 -37 25.5 -62.5t61.5 -25.5t61.5 25.5t25.5 62.5v291q0 36 -25.5 61.5t-61.5 25.5z" />
<glyph unicode="1" horiz-adv-x="396" d="M255 700v-700h-117v567l-95 -38l-43 108l156 63h99z" />
<glyph unicode="2" horiz-adv-x="550" d="M408 117v-117h-408v106l290 406q-6 31 -30 51t-56 20q-36 0 -61.5 -25.5t-25.5 -61.5h-117q0 84 60 144t144 60q85 0 144.5 -60t59.5 -144v-19l-257 -360h257z" />
<glyph unicode="3" horiz-adv-x="549" d="M204 1q-85 0 -144.5 59.5t-59.5 144.5h117q0 -37 25.5 -62.5t61.5 -25.5t61.5 25.5t25.5 62.5q0 32 -21.5 57t-53.5 29l-16 1v116l16 1q32 5 53.5 29.5t21.5 57.5q0 36 -25.5 61.5t-61.5 25.5t-61.5 -25.5t-25.5 -61.5h-117q0 84 59.5 144t144.5 60q84 0 144 -60t60 -144 q0 -87 -61 -146q61 -59 61 -145q0 -85 -60 -144.5t-144 -59.5z" />
<glyph unicode="4" horiz-adv-x="547" d="M405 700v-700h-116v262h-289v110l289 328h116zM289 523l-127 -144h127v144z" />
<glyph unicode="5" horiz-adv-x="547" d="M204 2q-85 0 -144.5 59.5t-59.5 144.5h116q0 -37 25.5 -62.5t62.5 -25.5q36 0 61.5 25.5t25.5 62.5q0 36 -25.5 61.5t-61.5 25.5h-204v407h407v-116h-291v-175h88q84 0 143.5 -59.5t59.5 -143.5q0 -85 -59.5 -144.5t-143.5 -59.5z" />
<glyph unicode="6" horiz-adv-x="549" d="M19 119q-19 41 -19 86q0 35 9 59l155 436h124l-104 -292q3 0 9.5 0.5t10.5 0.5q84 0 144 -60t60 -144q0 -85 -60 -144.5t-144 -59.5q-85 0 -144 59q-26 26 -41 59zM120 228q-3 -10 -3 -23q0 -37 25.5 -62.5t61.5 -25.5t61.5 25.5t25.5 62.5q0 36 -25.5 61.5t-61.5 25.5 q-27 0 -48.5 -14.5t-31.5 -38.5q-2 -3 -4 -11z" />
<glyph unicode="7" horiz-adv-x="545" d="M18 0l218 582h-236v117h405l-263 -699h-124z" />
<glyph unicode="8" horiz-adv-x="551" d="M347 351q62 -60 62 -146q0 -85 -60 -145t-145 -60q-84 0 -144 60t-60 145t61 146q-61 61 -61 146q0 84 60 144t144 60q85 0 145 -60t60 -144q0 -86 -62 -146zM117 497q0 -37 25.5 -62.5t61.5 -25.5q37 0 62.5 25.5t25.5 62.5q0 36 -25.5 61.5t-62.5 25.5 q-36 0 -61.5 -25.5t-25.5 -61.5zM204 117q37 0 62.5 25.5t25.5 62.5q0 36 -25.5 61.5t-62.5 25.5q-36 0 -61.5 -25.5t-25.5 -61.5q0 -37 25.5 -62.5t61.5 -25.5z" />
<glyph unicode="9" horiz-adv-x="549" d="M389 582q19 -41 19 -86q0 -36 -9 -60l-156 -435h-123l104 292q-7 -1 -20 -1q-85 0 -144.5 59.5t-59.5 144.5q0 84 59.5 144t144.5 60q84 0 144 -60q26 -26 41 -58zM288 472q3 12 3 24q0 36 -25.5 61.5t-61.5 25.5t-61.5 -25.5t-25.5 -61.5t25.5 -61.5t61.5 -25.5 q27 0 48.5 14.5t31.5 37.5q2 5 4 11z" />
<glyph unicode=":" horiz-adv-x="258" d="M58 116q25 0 42 -17t17 -41t-17 -41t-42 -17q-24 0 -41 17t-17 41t17 41t41 17zM58 408q25 0 42 -17t17 -41t-17 -41t-42 -17q-24 0 -41 17t-17 41t17 41t41 17z" />
<glyph unicode=";" horiz-adv-x="258" d="M58 408q25 0 42 -17t17 -41t-17 -41t-42 -17q-24 0 -41 17t-17 41t17 41t41 17zM58 116q25 0 42 -17t17 -41q0 -29 -6 -49.5t-14.5 -30t-17.5 -15t-15 -5.5l-6 -1v43q-24 0 -41 17t-17 41t17 41t41 17z" />
<glyph unicode="&#x3c;" horiz-adv-x="483" d="M263 556l80 -83l-185 -195l185 -194l-80 -84l-263 278z" />
<glyph unicode="=" horiz-adv-x="602" d="M462 406v-116h-462v116h462zM462 174v-116h-462v116h462z" />
<glyph unicode="&#x3e;" horiz-adv-x="483" d="M79 0l-79 84l184 194l-184 195l79 83l264 -278z" />
<glyph unicode="?" horiz-adv-x="572" d="M204 700q84 0 144 -60t60 -144q0 -68 -41 -122t-105 -73v-96h-116v200l70 5q32 4 53.5 29t21.5 57q0 36 -25.5 61.5t-61.5 25.5t-62 -25.5t-26 -61.5h-116q0 84 59.5 144t144.5 60zM204 117q24 0 41 -17t17 -41t-17 -41t-41 -17t-41 17t-17 41t17 41t41 17z" />
<glyph unicode="@" horiz-adv-x="895" d="M350 525q72 0 123.5 -51.5t51.5 -123.5q0 -28 -10 -58h68v58q0 97 -68 165t-165 68t-165 -68t-68 -165t68 -165t165 -68h350v-117h-350q-145 0 -247.5 102.5t-102.5 247.5t102.5 247.5t247.5 102.5t247.5 -102.5t102.5 -247.5v-175h-350q-73 0 -124 51t-51 124 q0 72 51 123.5t124 51.5zM292 350q0 -24 17 -41t41 -17t41 17t17 41t-17 41t-41 17t-41 -17t-17 -41z" />
<glyph unicode="A" horiz-adv-x="700" d="M279 700l280 -700h-126l-23 58h-261l-23 -58h-126zM196 175h167l-84 210z" />
<glyph unicode="B" horiz-adv-x="607" d="M349 349q52 0 81 -36.5t32 -72.5l4 -36q0 -57 -24 -99t-58.5 -61.5t-68.5 -30.5t-58 -12l-24 -1h-233v699h233q5 0 13.5 -0.5t32.5 -4.5t46 -11t49 -22.5t46 -36t32.5 -54t13.5 -75.5q0 -41 -12 -71t-29 -43.5t-34.5 -21.5t-29.5 -9zM116 583v-175h117q5 0 12.5 0.5 t27.5 5t35.5 13t28 26.5t12.5 42q0 39 -29 61t-58 24l-29 3h-117zM233 116q5 0 12.5 0.5t27.5 5.5t35.5 13t28 26t12.5 43q0 39 -29 60.5t-58 23.5l-29 3h-117v-175h117z" />
<glyph unicode="C" horiz-adv-x="738" d="M350 117q97 0 165 68l82 -83q-102 -102 -247 -102t-247.5 102.5t-102.5 247.5t102.5 247.5t247.5 102.5q146 0 247 -103l-82 -82q-68 68 -165 68t-165 -68t-68 -165t68 -165t165 -68z" />
<glyph unicode="D" horiz-adv-x="665" d="M117 699q9 0 23.5 -1t56.5 -7.5t80.5 -18.5t85.5 -38.5t81 -61.5t57 -93t23 -129t-22.5 -129t-58.5 -93.5t-79.5 -62t-86.5 -38.5t-79 -18.5t-58 -7.5l-23 -1h-117v699h117zM117 117q6 0 16.5 0.5t40.5 5t57.5 12.5t61.5 25.5t58 41t40.5 62t16.5 86.5q0 65 -30 113 t-72.5 70t-85.5 34.5t-73 14.5l-30 1v-466z" />
<glyph unicode="E" d="M467 583h-350v-175h291v-116h-291v-175h350v-117h-467v700h467v-117z" />
<glyph unicode="F" d="M467 583h-350v-175h291v-116h-291v-292h-117v700h467v-117z" />
<glyph unicode="G" horiz-adv-x="783" d="M408 408h234v-408h-117v47q-81 -47 -175 -47q-145 0 -247.5 102.5t-102.5 247.5t102.5 247.5t247.5 102.5q146 0 247 -103l-82 -82q-68 68 -165 68t-165 -68t-68 -165t68 -165t165 -68q106 0 175 79v96h-117v116z" />
<glyph unicode="H" horiz-adv-x="666" d="M408 700h117v-700h-117v292h-291v-292h-117v700h117v-290h291v290z" />
<glyph unicode="I" horiz-adv-x="374" d="M233 583h-58v-466h58v-117h-233v117h58v466h-58v117h233v-117z" />
<glyph unicode="J" horiz-adv-x="427" d="M0 701h263v-497q0 -57 -21 -99t-51.5 -61.5t-60.5 -30.5t-51 -12l-21 -1h-58v117h58q25 0 43 9t26 21.5t13 25.5t6 22v9v380h-146v117z" />
<glyph unicode="K" horiz-adv-x="722" d="M580 700l-319 -356l291 -344h-153l-216 256l-66 -74v-182h-117v700h117v-343l307 343h156z" />
<glyph unicode="L" horiz-adv-x="517" d="M117 117h259v-117h-376v700h117v-583z" />
<glyph unicode="M" horiz-adv-x="900" d="M759 701v-701h-117v430l-201 -430h-110l-214 439v-439h-117v701h119l266 -545l255 545h119z" />
<glyph unicode="N" horiz-adv-x="724" d="M583 700v-700h-118l-348 498v-498h-117v700h118l349 -498v498h116z" />
<glyph unicode="O" horiz-adv-x="662" d="M260 180q-107 0 -183.5 76.5t-76.5 183.5t76.5 183.5t183.5 76.5t183.5 -76.5t76.5 -183.5t-76.5 -183.5t-183.5 -76.5zM260 584q-60 0 -102 -42t-42 -102t42 -102t102 -42t102 42t42 102t-42 102t-102 42zM488 116v-116h-462v116h462z" />
<glyph unicode="P" horiz-adv-x="607" d="M233 700q5 0 13.5 -0.5t32.5 -4.5t46 -11t49 -22.5t46 -36t32.5 -54t13.5 -75.5q0 -57 -24 -99t-58.5 -61.5t-68.5 -30.5t-58 -12l-24 -1h-116v-292h-117v408h111l-111 175v117h233zM248 409q102 13 102 87q0 39 -29 60.5t-59 23.5l-29 3h-94z" />
<glyph unicode="Q" horiz-adv-x="842" d="M640 152l75 -79l-85 -80l-72 75q-92 -68 -207 -68q-145 0 -248 103t-103 249t103 248.5t248 102.5q146 0 249 -103t103 -248q0 -110 -63 -200zM585 352q0 97 -68.5 165.5t-165.5 68.5q-53 0 -101 -23l307 -323q28 51 28 112zM351 117q68 0 126 37l-317 333 q-43 -61 -43 -135q0 -97 68.5 -166t165.5 -69z" />
<glyph unicode="R" horiz-adv-x="612" d="M503 0h-137l-182 292h-67v-292h-117v408h111l-111 175v117h233q5 0 13.5 -0.5t32.5 -4.5t46.5 -11t49.5 -22.5t46 -36t32.5 -54t13.5 -75.5q0 -44 -14 -79t-38 -57t-48.5 -35t-53.5 -21zM139 583l109 -174q21 2 41 8t40.5 26.5t20.5 52.5q0 39 -29 60.5t-59 23.5l-29 3 h-94z" />
<glyph unicode="S" horiz-adv-x="578" d="M219 0q-93 2 -155.5 58t-63.5 146h117q1 -41 30.5 -64t71.5 -23t72 23.5t30 63.5q0 41 -31 63.5t-71 24.5q-54 0 -105 23q-114 53 -114 181q0 90 65.5 147t153.5 57q91 0 154 -57.5t64 -146.5h-116q-1 42 -30.5 64.5t-71.5 22.5q-43 0 -72.5 -23.5t-29.5 -63.5 q0 -41 30 -64.5t72 -23.5q54 0 104 -23q114 -52 114 -181q0 -91 -65 -147.5t-153 -56.5z" />
<glyph unicode="T" horiz-adv-x="491" d="M350 700v-117h-117v-583h-116v583h-117v117h350z" />
<glyph unicode="U" horiz-adv-x="723" d="M0 700h582v-408q0 -72 -35 -142q-36 -72 -102 -110.5t-154 -38.5t-154 38.5t-102 110.5q-35 70 -35 142v408zM441 199q25 47 25 94v290h-350v-291q1 -48 25 -93q43 -81 150 -81q109 0 150 81z" />
<glyph unicode="V" horiz-adv-x="700" d="M0 700h559l-279 -700zM172 584l108 -269l107 269h-215z" />
<glyph unicode="W" horiz-adv-x="1137" d="M997 700l-280 -700l-219 548l-219 -548l-279 700h126l153 -385l154 385h130l154 -385l154 385h126z" />
<glyph unicode="X" horiz-adv-x="784" d="M0 0l250 350l-250 350h143l179 -250l178 250h143l-250 -350l250 -350h-143l-178 250l-179 -250h-143z" />
<glyph unicode="Y" horiz-adv-x="784" d="M500 700h143l-263 -369v-331h-117v331l-263 369h143l179 -250z" />
<glyph unicode="Z" horiz-adv-x="548" d="M408 117v-117h-407l234 583h-235v117h407l-233 -583h234z" />
<glyph unicode="[" horiz-adv-x="397" d="M0 700h233v-117h-116v-466h116v-117h-233v700z" />
<glyph unicode="\" horiz-adv-x="627" d="M129 700l325 -701h-129l-325 701h129z" />
<glyph unicode="]" horiz-adv-x="398" d="M233 700v-700h-233v117h117v466h-117v117h233z" />
<glyph unicode="^" horiz-adv-x="594" d="M430 496l-65 -61l-150 143l-150 -143l-65 61l215 204z" />
<glyph unicode="_" horiz-adv-x="597" d="M462 116v-116h-462v116h462z" />
<glyph unicode="`" horiz-adv-x="278" d="M49 503l-49 166l111 33l49 -166z" />
<glyph unicode="a" horiz-adv-x="700" d="M433 0l-35 88h-237l-35 -88h-126l279 700l280 -700h-126zM207 204h145l-73 181z" />
<glyph unicode="b" horiz-adv-x="607" d="M349 349q52 0 81 -36.5t32 -72.5l4 -36q0 -57 -24 -99t-58.5 -61.5t-68.5 -30.5t-58 -12l-24 -1h-233v699h233q5 0 13.5 -0.5t32.5 -4.5t46 -11t49 -22.5t46 -36t32.5 -54t13.5 -75.5q0 -41 -12 -71t-29 -43.5t-34.5 -21.5t-29.5 -9zM116 583v-175h117q5 0 12.5 0.5 t27.5 5t35.5 13t28 26.5t12.5 42q0 39 -29 61t-58 24l-29 3h-117zM233 116q5 0 12.5 0.5t27.5 5.5t35.5 13t28 26t12.5 43q0 39 -29 60.5t-58 23.5l-29 3h-117v-175h117z" />
<glyph unicode="c" horiz-adv-x="738" d="M350 117q97 0 165 68l82 -83q-102 -102 -247 -102t-247.5 102.5t-102.5 247.5t102.5 247.5t247.5 102.5q146 0 247 -103l-82 -82q-68 68 -165 68t-165 -68t-68 -165t68 -165t165 -68z" />
<glyph unicode="d" horiz-adv-x="665" d="M117 699q9 0 23.5 -1t56.5 -7.5t80.5 -18.5t85.5 -38.5t81 -61.5t57 -93t23 -129t-22.5 -129t-58.5 -93.5t-79.5 -62t-86.5 -38.5t-79 -18.5t-58 -7.5l-23 -1h-117v699h117zM117 117q6 0 16.5 0.5t40.5 5t57.5 12.5t61.5 25.5t58 41t40.5 62t16.5 86.5q0 65 -30 113 t-72.5 70t-85.5 34.5t-73 14.5l-30 1v-466z" />
<glyph unicode="e" d="M467 583h-350v-175h350v-116h-350v-175h350v-117h-467v700h467v-117z" />
<glyph unicode="f" d="M467 583h-350v-175h350v-116h-350v-292h-117v700h467v-117z" />
<glyph unicode="g" horiz-adv-x="783" d="M321 408h321v-408h-117v47q-81 -47 -175 -47q-145 0 -247.5 102.5t-102.5 247.5t102.5 247.5t247.5 102.5q146 0 247 -103l-82 -82q-68 68 -165 68t-165 -68t-68 -165t68 -165t165 -68q106 0 175 79v96h-204v116z" />
<glyph unicode="h" horiz-adv-x="666" d="M408 700h117v-700h-117v292h-291v-292h-117v700h117v-290h291v290z" />
<glyph unicode="i" horiz-adv-x="259" d="M0 0v700h117v-700h-117z" />
<glyph unicode="j" horiz-adv-x="404" d="M146 701h117v-497q0 -57 -21 -99t-51.5 -61.5t-60.5 -30.5t-51 -12l-21 -1h-58v117h58q25 0 43 9t26 21.5t13 25.5t6 22v9v497z" />
<glyph unicode="k" horiz-adv-x="721" d="M580 700l-319 -356l291 -344h-153l-216 256l-66 -74v-182h-117v700h117v-343l307 343h156z" />
<glyph unicode="l" horiz-adv-x="517" d="M117 117h259v-117h-376v700h117v-583z" />
<glyph unicode="m" horiz-adv-x="900" d="M759 701v-701h-117v430l-201 -430h-110l-214 439v-439h-117v701h119l266 -545l255 545h119z" />
<glyph unicode="n" horiz-adv-x="725" d="M583 700v-700h-118l-348 498v-498h-117v700h118l349 -498v498h116z" />
<glyph unicode="o" horiz-adv-x="841" d="M349 700q145 0 247.5 -102.5t102.5 -247.5t-102.5 -247t-247.5 -102t-247 102t-102 247t102 247.5t247 102.5zM349 117q97 0 165 68.5t68 164.5q0 97 -68 165t-165 68q-96 0 -164.5 -68t-68.5 -165q0 -96 68.5 -164.5t164.5 -68.5z" />
<glyph unicode="p" horiz-adv-x="607" d="M234 700q5 0 13.5 -0.5t32.5 -4.5t46.5 -11t49.5 -22.5t46 -36t32.5 -54.5t13.5 -76t-13 -76t-33.5 -54.5t-45.5 -36t-50 -22.5t-45.5 -11t-33.5 -5h-13h-117v-292h-117v702h234zM234 407q5 0 13 0.5t28 5.5t35.5 13t28 26t12.5 43q0 39 -29 61t-58 24l-30 3h-117v-176 h117z" />
<glyph unicode="q" horiz-adv-x="841" d="M711 73l-82 -82l-75 74q-90 -65 -204 -65q-145 0 -247.5 102.5t-102.5 247.5t102.5 247.5t247.5 102.5t247.5 -102.5t102.5 -247.5q0 -113 -64 -202zM350 116q63 0 120 34l-75 74l83 83l74 -74q32 54 32 117q0 97 -68.5 165t-165.5 68t-165 -68t-68 -165t68 -165.5 t165 -68.5z" />
<glyph unicode="r" horiz-adv-x="606" d="M346 0l-134 292h-95v-292h-117v700h233q5 0 13.5 -0.5t32.5 -4.5t46.5 -11t49.5 -22.5t46 -36t32.5 -54t13.5 -75.5q0 -137 -135 -186l143 -310h-129zM117 583v-175h116q5 0 13 0.5t28 5.5t35.5 13t28 26t12.5 43q0 39 -29 60.5t-59 23.5l-29 3h-116z" />
<glyph unicode="s" horiz-adv-x="578" d="M219 0q-93 2 -155.5 58t-63.5 146h117q1 -41 30.5 -64t71.5 -23t72 23.5t30 63.5q0 41 -31 63.5t-71 24.5q-54 0 -105 23q-114 53 -114 181q0 90 65.5 147t153.5 57q91 0 154 -57.5t64 -146.5h-116q-1 42 -30.5 64.5t-71.5 22.5q-43 0 -72.5 -23.5t-29.5 -63.5 q0 -41 30 -64.5t72 -23.5q54 0 104 -23q114 -52 114 -181q0 -91 -65 -147.5t-153 -56.5z" />
<glyph unicode="t" horiz-adv-x="607" d="M467 700v-117h-175v-583h-117v583h-175v117h467z" />
<glyph unicode="u" horiz-adv-x="665" d="M262 0q-113 5 -187.5 67.5t-74.5 166.5v466h117v-466q4 -58 45 -87.5t100 -29.5t102.5 31t43.5 86v466h117v-466q0 -107 -76.5 -170t-186.5 -64z" />
<glyph unicode="v" horiz-adv-x="700" d="M433 700h126l-280 -700l-279 700h126l153 -385z" />
<glyph unicode="w" horiz-adv-x="1137" d="M997 700l-280 -700l-219 548l-219 -548l-279 700h126l153 -385l154 385h130l154 -385l154 385h126z" />
<glyph unicode="x" horiz-adv-x="784" d="M0 0l250 350l-250 350h143l179 -250l178 250h143l-250 -350l250 -350h-143l-178 250l-179 -250h-143z" />
<glyph unicode="y" horiz-adv-x="784" d="M500 700h143l-263 -369v-331h-117v331l-263 369h143l179 -250z" />
<glyph unicode="z" horiz-adv-x="708" d="M567 0h-567l359 583h-359v117h567l-358 -583h358v-117z" />
<glyph unicode="{" horiz-adv-x="470" d="M130 415v285h175v-117h-58v-466h58v-117h-175v285l-130 65z" />
<glyph unicode="|" horiz-adv-x="281" d="M0 700h117v-700h-117v700z" />
<glyph unicode="}" horiz-adv-x="470" d="M175 285v-285h-175v117h58v466h-58v117h175v-285l130 -65z" />
<glyph unicode="~" horiz-adv-x="618" d="M115 297h-114q0 80 43 116q40 32 101 32q21 0 56 -6t52 -6q32 0 32 34h114q0 -80 -44 -115q-38 -32 -103 -32q-20 0 -54.5 5.5t-50.5 5.5q-32 0 -32 -34z" />
<glyph unicode="&#xa1;" horiz-adv-x="280" d="M117 0h-117v496h117v-496zM58 583q-24 0 -41 17t-17 42q0 24 17 41t41 17q25 0 42 -17t17 -41q0 -25 -17 -42t-42 -17z" />
<glyph unicode="&#xa2;" horiz-adv-x="738" d="M393 121q71 14 121 65l83 -83q-102 -102 -247 -102t-247.5 102t-102.5 247t102.5 247.5t247.5 102.5t247 -102l-83 -83q-50 52 -121 64v-458zM116 350q0 -76 44.5 -136.5t115.5 -84.5v443q-71 -24 -115.5 -85t-44.5 -137z" />
<glyph unicode="&#xa3;" horiz-adv-x="681" d="M170 243q-13 -61 -16 -121h363v-122h-487v61q0 92 16 182h-46v122h79q11 30 24 57q60 122 167 195q54 37 118 57.5t89 23t41 2.5v-122q-9 0 -28.5 -2.5t-67.5 -18.5t-88 -44q-77 -53 -123 -148h93v-122h-134z" />
<glyph unicode="&#xa5;" horiz-adv-x="808" d="M644 701l-229 -321h142v-117h-176v-29h176v-117h-176v-117h-117v117h-175v117h175v29h-175v117h140l-229 321h644zM417 584h-190l95 -133z" />
<glyph unicode="&#xa7;" horiz-adv-x="472" d="M228 477q79 -35 81 -128q0 -64 -43 -102q43 -40 43 -104q0 -91 -81 -127q-37 -17 -74 -17q-36 0 -73 17q-81 36 -81 127h82q0 -38 33 -52q18 -9 39 -9q23 0 42 10q31 15 31 51q0 39 -33 53q-19 9 -40 9q-36 0 -73 17q-79 35 -81 128q0 63 43 103q-43 38 -43 103 q0 91 81 127q37 17 73 17q37 0 74 -17q81 -36 81 -127h-82q0 38 -33 52q-8 4 -17.5 6t-15.5 3l-6 1l-7 -1q-7 -1 -17 -3t-18 -6q-31 -16 -31 -52q0 -39 33 -53q8 -4 18 -6.5t15 -2.5h6q37 0 74 -17zM196 298q31 15 31 52q0 38 -33 52q-20 9 -39 9q-21 0 -42 -10 q-31 -15 -31 -51q0 -39 33 -53q20 -9 39 -9q21 0 42 10z" />
<glyph unicode="&#xa8;" horiz-adv-x="362" d="M116 797q0 -23 -17 -40t-41 -17q-23 0 -40 17t-17 40q0 24 17 41t40 17q24 0 41 -17t17 -41zM334 797q0 -23 -17 -40t-41 -17q-23 0 -40 17t-17 40q0 24 17 41t40 17q24 0 41 -17t17 -41z" />
<glyph unicode="&#xa9;" horiz-adv-x="745" d="M299 700q125 0 212.5 -88t87.5 -213q0 -124 -87.5 -211t-212.5 -87q-124 0 -211.5 87t-87.5 211q0 125 87.5 213t211.5 88zM299 200q83 0 141.5 58.5t58.5 140.5q0 83 -58.5 142t-141.5 59q-82 0 -141 -59t-59 -142q0 -82 59 -140.5t141 -58.5zM298 294q43 0 76 31 l38 -37q-47 -47 -114 -47q-65 0 -112 47t-47 112q0 67 47 114t112 47q67 0 114 -47l-38 -38q-32 32 -76 32t-75 -31.5t-31 -76.5q0 -44 31 -75t75 -31z" />
<glyph unicode="&#xab;" horiz-adv-x="657" d="M236 499l72 -74l-166 -175l166 -175l-72 -75l-236 250zM445 499l72 -74l-166 -175l166 -175l-72 -75l-236 250z" />
<glyph unicode="&#xae;" horiz-adv-x="745" d="M299 700q125 0 212.5 -88t87.5 -213q0 -124 -87.5 -211t-212.5 -87q-124 0 -211.5 87t-87.5 211q0 125 87.5 213t211.5 88zM299 200q83 0 141.5 58.5t58.5 140.5q0 83 -58.5 142t-141.5 59q-82 0 -141 -59t-59 -142q0 -82 59 -140.5t141 -58.5zM352 254l-58 120h-40v-120 h-50v289h99q4 0 11 -0.5t24 -5t30 -12.5t24 -25t11 -41q0 -58 -58 -77l61 -128h-54zM254 494v-71h49h5.5t12 2t15 5.5t12 11t5.5 17.5q0 16 -12.5 24.5t-24.5 9.5l-13 1h-49z" />
<glyph unicode="&#xb0;" horiz-adv-x="455" d="M174 394q-63 0 -108 45t-45 108t45 108t108 45t108 -45t45 -108t-45 -108t-108 -45zM174 613q-27 0 -46 -19.5t-19 -46.5t19 -46t46 -19t46 19t19 46t-19 46.5t-46 19.5z" />
<glyph unicode="&#xb1;" horiz-adv-x="630" d="M465 452v-117h-174v-174h-116v174h-175v117h175v174h116v-174h174zM462 0v116h-462v-116h462z" />
<glyph unicode="&#xb2;" horiz-adv-x="400" d="M235 365v-67h-235v60l167 234q-4 18 -18 29.5t-32 11.5q-20 0 -35 -15t-15 -35h-67q0 48 34.5 82.5t82.5 34.5q49 0 83.5 -34.5t34.5 -82.5v-11l-148 -207h148z" />
<glyph unicode="&#xb3;" horiz-adv-x="399" d="M117 299q-49 0 -83 34t-34 83h67q0 -21 14.5 -35.5t35.5 -14.5t35.5 14.5t14.5 35.5q0 19 -12 33t-31 16l-9 1v67h9q19 3 31 17t12 33q0 21 -14.5 35.5t-35.5 14.5t-35.5 -14.5t-14.5 -35.5h-67q0 48 34 82.5t83 34.5q48 0 82.5 -34.5t34.5 -82.5q0 -51 -35 -84 q35 -33 35 -83q0 -49 -34.5 -83t-82.5 -34z" />
<glyph unicode="&#xb4;" horiz-adv-x="571" d="M387 924l21 -111l-387 -73l-21 111z" />
<glyph unicode="&#xb7;" horiz-adv-x="258" d="M58 323q25 0 42 -17.5t17 -41.5t-17 -41t-42 -17q-24 0 -41 17t-17 41t17 41.5t41 17.5z" />
<glyph unicode="&#xb8;" horiz-adv-x="568" d="M204 -292q-85 0 -144.5 60t-59.5 145h116q0 -37 25.5 -62.5t62.5 -25.5q36 0 61.5 25.5t25.5 62.5q0 36 -25.5 61.5t-61.5 25.5v117q84 0 144 -60t60 -144q0 -85 -60 -145t-144 -60z" />
<glyph unicode="&#xb9;" horiz-adv-x="312" d="M147 700v-403h-68v326l-54 -21l-25 62l90 36h57z" />
<glyph unicode="&#xbb;" horiz-adv-x="659" d="M281 0l-71 75l166 175l-166 174l71 76l237 -250zM72 0l-72 75l166 175l-166 174l72 76l236 -250z" />
<glyph unicode="&#xbf;" horiz-adv-x="573" d="M204 1q-85 0 -144.5 59.5t-59.5 144.5q0 68 41 122t105 73v96h116v-200l-70 -5q-32 -5 -54 -29.5t-22 -56.5q0 -36 26 -62t62 -26t61.5 26t25.5 62h117q0 -85 -60 -144.5t-144 -59.5zM204 583q-24 0 -41 17.5t-17 41.5t17 41t41 17t41 -17t17 -41t-17 -41.5t-41 -17.5z " />
<glyph unicode="&#xc0;" horiz-adv-x="723" d="M433 0l-35 88h-237l-35 -88h-126l279 700l280 -700h-126zM207 204h145l-73 181zM79 813l21 111l387 -73l-21 -111z" />
<glyph unicode="&#xc1;" horiz-adv-x="723" d="M433 0l-35 88h-237l-35 -88h-126l279 700l280 -700h-126zM207 204h145l-73 181zM460 924l21 -111l-387 -73l-21 111z" />
<glyph unicode="&#xc2;" horiz-adv-x="723" d="M433 0l-35 88h-237l-35 -88h-126l279 700l280 -700h-126zM207 204h145l-73 181zM154 748l-34 112l163 55l163 -55l-34 -112l-129 44z" />
<glyph unicode="&#xc3;" horiz-adv-x="723" d="M433 0l-35 88h-237l-35 -88h-126l279 700l280 -700h-126zM207 204h145l-73 181zM192 740h-114q0 80 43 116q40 32 101 32q21 0 56 -6t52 -6q32 0 32 34h114q0 -80 -44 -115q-38 -32 -103 -32q-20 0 -54.5 5.5t-50.5 5.5q-32 0 -32 -34z" />
<glyph unicode="&#xc4;" horiz-adv-x="700" d="M433 0l-35 88h-237l-35 -88h-126l279 700l280 -700h-126zM207 204h145l-73 181zM227 797q0 -23 -17 -40t-41 -17q-23 0 -40 17t-17 40q0 24 17 41t40 17q24 0 41 -17t17 -41zM445 797q0 -23 -17 -40t-41 -17q-23 0 -40 17t-17 40q0 24 17 41t40 17q24 0 41 -17t17 -41z " />
<glyph unicode="&#xc5;" horiz-adv-x="701" d="M342 542l217 -542h-126l-35 87h-237l-35 -87h-126l257 644q-36 7 -59 35t-23 65q0 42 30 72t72 30t72 -30t30 -72q0 -36 -22 -63.5t-56 -35.5zM233 744q0 -18 13 -31t31 -13t31 13t13 31t-13 31t-31 13t-31 -13t-13 -31zM207 204h144l-72 181z" />
<glyph unicode="&#xc6;" horiz-adv-x="916" d="M513 116h188v-116h-268l-35 87h-237l-35 -87h-126l280 700h304v-117h-258l70 -175h246v-117h-199zM207 204h145l-72 181z" />
<glyph unicode="&#xc7;" horiz-adv-x="738" d="M515 185l82 -82q-49 -49 -108 -74q36 -54 36 -116q0 -85 -60 -145t-144 -60q-85 0 -144.5 60t-59.5 145h116q0 -37 25.5 -62.5t62.5 -25.5q36 0 61.5 25.5t25.5 62.5q0 36 -25.5 61.5t-61.5 26.5q-135 11 -228 111.5t-93 237.5q0 145 102.5 247.5t247.5 102.5 q146 0 247 -103l-82 -82q-68 68 -165 68t-165 -68t-68 -165t68 -165t165 -68t165 68z" />
<glyph unicode="&#xc8;" d="M467 583h-350v-175h350v-116h-350v-175h350v-117h-467v700h467v-117zM31 813l21 111l387 -73l-21 -111z" />
<glyph unicode="&#xc9;" d="M467 583h-350v-175h350v-116h-350v-175h350v-117h-467v700h467v-117zM417 924l21 -111l-387 -73l-21 111z" />
<glyph unicode="&#xca;" d="M467 583h-350v-175h350v-116h-350v-175h350v-117h-467v700h467v-117zM106 748l-34 112l163 55l163 -55l-34 -112l-129 44z" />
<glyph unicode="&#xcb;" d="M467 583h-350v-175h350v-116h-350v-175h350v-117h-467v700h467v-117zM186 797q0 -23 -17 -40t-41 -17q-23 0 -40 17t-17 40q0 24 17 41t40 17q24 0 41 -17t17 -41zM404 797q0 -23 -17 -40t-41 -17q-23 0 -40 17t-17 40q0 24 17 41t40 17q24 0 41 -17t17 -41z" />
<glyph unicode="&#xcc;" horiz-adv-x="501" d="M156 0v700h117v-700h-117zM11 813l21 111l387 -73l-21 -111z" />
<glyph unicode="&#xcd;" horiz-adv-x="501" d="M156 0v700h117v-700h-117zM387 924l21 -111l-387 -73l-21 111z" />
<glyph unicode="&#xce;" horiz-adv-x="464" d="M160 0v700h117v-700h-117zM90 748l-34 112l163 55l163 -55l-34 -112l-129 44z" />
<glyph unicode="&#xcf;" horiz-adv-x="362" d="M112 0v700h117v-700h-117zM116 797q0 -23 -17 -40t-41 -17q-23 0 -40 17t-17 40q0 24 17 41t40 17q24 0 41 -17t17 -41zM334 797q0 -23 -17 -40t-41 -17q-23 0 -40 17t-17 40q0 24 17 41t40 17q24 0 41 -17t17 -41z" />
<glyph unicode="&#xd0;" horiz-adv-x="805" d="M233 700q9 0 23.5 -1t57 -7.5t81 -18.5t86 -38.5t81 -62t57 -93.5t23.5 -129t-22.5 -129t-58.5 -93.5t-79.5 -62t-87.5 -38.5t-80 -18.5t-58 -7.5l-23 -1h-116v292h-117v116h117v292h116zM233 117q6 0 16.5 0.5t41 5t58 12.5t61 25.5t58 41t41 62t16.5 86.5q0 65 -30 113 t-73 70t-86 34.5t-73 14.5l-30 1v-175h117v-116h-117v-175zM233 700q9 0 23.5 -1t57 -7.5t81 -18.5t86 -38.5t81 -62t57 -93.5t23.5 -129t-22.5 -129t-58.5 -93.5t-79.5 -62t-87.5 -38.5t-80 -18.5t-58 -7.5l-23 -1h-116v292h-117v116h117v292h116zM233 117q6 0 16.5 0.5 t41 5t58 12.5t61 25.5t58 41t41 62t16.5 86.5q0 65 -30 113t-73 70t-86 34.5t-73 14.5l-30 1v-175h117v-116h-117v-175z" />
<glyph unicode="&#xd1;" horiz-adv-x="726" d="M583 700v-700h-118l-348 498v-498h-117v700h118l349 -498v498h116zM211 740h-114q0 80 43 116q40 32 101 32q21 0 56 -6t52 -6q32 0 32 34h114q0 -80 -44 -115q-38 -32 -103 -32q-20 0 -54.5 5.5t-50.5 5.5q-32 0 -32 -34z" />
<glyph unicode="&#xd2;" horiz-adv-x="864" d="M349 700q146 0 248.5 -102.5t102.5 -248.5q0 -145 -102.5 -247t-248.5 -102q-145 0 -247 102t-102 247q0 146 102 248.5t247 102.5zM349 116q97 0 165.5 68.5t68.5 164.5q0 97 -68.5 165.5t-165.5 68.5q-96 0 -164.5 -68.5t-68.5 -165.5q0 -96 68.5 -164.5t164.5 -68.5z M145 813l21 111l387 -73l-21 -111z" />
<glyph unicode="&#xd3;" horiz-adv-x="864" d="M349 700q146 0 248.5 -102.5t102.5 -248.5q0 -145 -102.5 -247t-248.5 -102q-145 0 -247 102t-102 247q0 146 102 248.5t247 102.5zM349 116q97 0 165.5 68.5t68.5 164.5q0 97 -68.5 165.5t-165.5 68.5q-96 0 -164.5 -68.5t-68.5 -165.5q0 -96 68.5 -164.5t164.5 -68.5z M527 924l21 -111l-387 -73l-21 111z" />
<glyph unicode="&#xd4;" horiz-adv-x="864" d="M349 700q145 0 247.5 -102.5t102.5 -247.5t-102.5 -247t-247.5 -102t-247 102t-102 247t102 247.5t247 102.5zM349 117q97 0 165 68.5t68 164.5q0 97 -68 165t-165 68q-96 0 -164.5 -68t-68.5 -165q0 -96 68.5 -164.5t164.5 -68.5zM217 748l-34 112l163 55l163 -55 l-34 -112l-129 44z" />
<glyph unicode="&#xd5;" horiz-adv-x="864" d="M349 700q146 0 248.5 -102.5t102.5 -248.5q0 -145 -102.5 -247t-248.5 -102q-145 0 -247 102t-102 247q0 146 102 248.5t247 102.5zM349 116q97 0 165.5 68.5t68.5 164.5q0 97 -68.5 165.5t-165.5 68.5q-96 0 -164.5 -68.5t-68.5 -165.5q0 -96 68.5 -164.5t164.5 -68.5z M258 740h-114q0 80 43 116q40 32 101 32q21 0 56 -6t52 -6q32 0 32 34h114q0 -80 -44 -115q-38 -32 -103 -32q-20 0 -54.5 5.5t-50.5 5.5q-32 0 -32 -34z" />
<glyph unicode="&#xd6;" horiz-adv-x="840" d="M349 700q146 0 248.5 -102.5t102.5 -248.5q0 -145 -102.5 -247t-248.5 -102q-145 0 -247 102t-102 247q0 146 102 248.5t247 102.5zM349 116q97 0 165.5 68.5t68.5 164.5q0 97 -68.5 165.5t-165.5 68.5q-96 0 -164.5 -68.5t-68.5 -165.5q0 -96 68.5 -164.5t164.5 -68.5z M296 797q0 -23 -17 -40t-41 -17q-23 0 -40 17t-17 40q0 24 17 41t40 17q24 0 41 -17t17 -41zM514 797q0 -23 -17 -40t-41 -17q-23 0 -40 17t-17 40q0 24 17 41t40 17q24 0 41 -17t17 -41z" />
<glyph unicode="&#xd7;" horiz-adv-x="577" d="M412 82l-83 -82l-123 123l-123 -123l-82 82l123 123l-124 123l83 83l124 -124l123 123l82 -82l-123 -123z" />
<glyph unicode="&#xd8;" horiz-adv-x="837" d="M0 69l74 73q-63 88 -63 199q0 143 100.5 243.5t243.5 100.5q110 0 198 -63l78 78l81 -81l-77 -78q65 -89 65 -200q0 -143 -101 -244t-244 -101q-111 0 -201 65l-73 -74zM470 539q-51 31 -115 31q-95 0 -162 -67t-67 -162q0 -63 31 -116zM237 144q55 -33 118 -33 q95 0 162.5 67.5t67.5 162.5q0 63 -33 118z" />
<glyph unicode="&#xd9;" horiz-adv-x="743" d="M291 0q88 0 154.5 38.5t102.5 110.5q35 71 35 143v408h-117v-408q-1 -48 -25 -94q-42 -81 -150 -81q-107 0 -150 81q-11 20 -17 43.5t-6 36.5l-1 14v408h-117v-408q0 -72 35 -143q36 -72 102 -110.5t154 -38.5zM83 813l21 111l387 -73l-21 -111z" />
<glyph unicode="&#xda;" horiz-adv-x="743" d="M291 0q-88 0 -154 38.5t-102 110.5q-35 71 -35 143v408h117v-408q0 -48 24 -94q43 -81 150 -81q108 0 150 81q11 20 17 43.5t7 36.5l1 14v408h117v-408q0 -72 -35 -143q-36 -72 -102.5 -110.5t-154.5 -38.5zM467 924l21 -111l-387 -73l-21 111z" />
<glyph unicode="&#xdb;" horiz-adv-x="743" d="M291 0q-88 0 -154 38.5t-102 110.5q-35 71 -35 143v408h117v-408q0 -48 24 -94q43 -81 150 -81q108 0 150 81q11 20 17 43.5t7 36.5l1 14v408h117v-408q0 -72 -35 -143q-36 -72 -102.5 -110.5t-154.5 -38.5zM158 748l-34 112l163 55l163 -55l-34 -112l-129 44z" />
<glyph unicode="&#xdc;" horiz-adv-x="724" d="M291 0q-88 0 -154 38.5t-102 110.5q-35 71 -35 143v408h117v-408q0 -48 24 -94q43 -81 150 -81q108 0 150 81q11 20 17 43.5t7 36.5l1 14v408h117v-408q0 -72 -35 -143q-36 -72 -102.5 -110.5t-154.5 -38.5zM246 797q0 -23 -17 -40t-41 -17q-23 0 -40 17t-17 40 q0 24 17 41t40 17q24 0 41 -17t17 -41zM464 797q0 -23 -17 -40t-41 -17q-23 0 -40 17t-17 40q0 24 17 41t40 17q24 0 41 -17t17 -41z" />
<glyph unicode="&#xdd;" horiz-adv-x="808" d="M500 700h143l-263 -369v-331h-117v331l-263 369h143l179 -250zM497 924l21 -111l-387 -73l-21 111z" />
<glyph unicode="&#xdf;" horiz-adv-x="628" d="M124 585l-8 -585h-116v699h233q5 0 13.5 -0.5t32.5 -4.5t46 -11t49 -22.5t46 -36t32.5 -54t13.5 -75.5q0 -41 -12 -71t-29 -43.5t-34 -21.5t-29 -9l-12 -1q32 0 56 -15t35 -36.5t17.5 -42.5t7.5 -36v-15q0 -57 -24 -99t-58.5 -61.5t-68.5 -30.5t-58 -12l-24 -1v116 q5 0 13 0.5t28 5.5t35.5 13t28 26t12.5 43q0 39 -29 60.5t-59 23.5l-29 3v117q5 0 13 0.5t28 5t35.5 13t28 26.5t12.5 42t-12 42t-29 26.5t-34.5 13.5t-29.5 7l-12 1h-109z" />
<glyph unicode="&#xf7;" horiz-adv-x="604" d="M464 174v116h-462v-116h462zM236 116q25 0 42 -17t17 -41t-17 -41t-42 -17q-24 0 -41 17t-17 41t17 41t41 17zM236 460q25 0 42 -17t17 -41t-17 -41t-42 -17q-24 0 -41 17t-17 41t17 41t41 17z" />
<glyph unicode="&#xf8;" horiz-adv-x="837" d="M635 145l73 -72l-81 -82l-72 74q-90 -65 -200 -65q-142 0 -242 100.5t-100 242.5q0 109 64 199l-77 77l81 81l77 -78q88 63 197 63q142 0 242 -100t100 -242q0 -109 -62 -198zM355 571q-63 0 -114 -31l312 -312q31 54 31 115q0 94 -67.5 161t-161.5 67zM355 114 q65 0 117 33l-313 313q-32 -52 -32 -117q0 -95 67 -162t161 -67z" />
<glyph unicode="&#x152;" horiz-adv-x="973" d="M467 583v-175h350v-116h-350v-175h350v-117h-467q-145 0 -247.5 102.5t-102.5 247.5t102.5 247.5t247.5 102.5h467v-117h-350zM121 350q0 -96 67 -163.5t162 -69.5v466q-95 -1 -162 -69.5t-67 -163.5z" />
<glyph unicode="&#x161;" horiz-adv-x="601" d="M219 0q-93 2 -155.5 58t-63.5 146h117q1 -41 30.5 -64t71.5 -23t72 23.5t30 63.5q0 41 -31 63.5t-71 24.5q-54 0 -105 23q-114 53 -114 181q0 90 65.5 147t153.5 57q91 0 154 -57.5t64 -146.5h-116q-1 42 -30.5 64.5t-71.5 22.5q-43 0 -72.5 -23.5t-29.5 -63.5 q0 -41 30 -64.5t72 -23.5q54 0 104 -23q114 -52 114 -181q0 -91 -65 -147.5t-153 -56.5zM349 909l34 -112l-163 -55l-163 55l34 112l129 -44z" />
<glyph unicode="&#x178;" horiz-adv-x="808" d="M500 700h143l-263 -369v-331h-117v331l-263 369h143l179 -250zM271 797q0 -23 -17 -40t-41 -17q-23 0 -40 17t-17 40q0 24 17 41t40 17q24 0 41 -17t17 -41zM489 797q0 -23 -17 -40t-41 -17q-23 0 -40 17t-17 40q0 24 17 41t40 17q24 0 41 -17t17 -41z" />
<glyph unicode="&#x2c6;" horiz-adv-x="489" d="M34 748l-34 112l163 55l163 -55l-34 -112l-129 44z" />
<glyph unicode="&#x2c7;" horiz-adv-x="510" d="M292 909l34 -112l-163 -55l-163 55l34 112l129 -44z" />
<glyph unicode="&#x2d9;" horiz-adv-x="273" d="M116 797q0 -23 -17 -40t-41 -17q-23 0 -40 17t-17 40q0 24 17 41t40 17q24 0 41 -17t17 -41z" />
<glyph unicode="&#x2dc;" horiz-adv-x="550" d="M114 740h-114q0 80 43 116q40 32 101 32q21 0 56 -6t52 -6q32 0 32 34h114q0 -80 -44 -115q-38 -32 -103 -32q-20 0 -54.5 5.5t-50.5 5.5q-32 0 -32 -34z" />
<glyph unicode="&#x3c0;" horiz-adv-x="630" d="M0 700h467v-146h-87v-554h-118v554h-58v-554h-117v554h-87v146z" />
<glyph unicode="&#x2013;" horiz-adv-x="560" d="M425 290v-116h-423v116h423z" />
<glyph unicode="&#x2014;" horiz-adv-x="626" d="M483 290v-116h-481v116h481z" />
<glyph unicode="&#x201e;" horiz-adv-x="350" d="M58 116q25 0 42 -17t17 -41q0 -29 -6 -49.5t-14.5 -30t-17.5 -15t-15 -5.5l-6 -1v43q-24 0 -41 17t-17 41t17 41t41 17zM218 116q25 0 42 -17t17 -41q0 -29 -6 -49.5t-14.5 -30t-17.5 -15t-15 -5.5l-6 -1v43q-24 0 -41 17t-17 41t17 41t41 17z" />
<glyph unicode="&#x2020;" horiz-adv-x="630" d="M292 525h175v-117h-175v-408h-117v408h-175v117h175v175h117v-175z" />
<glyph unicode="&#x2021;" horiz-adv-x="630" d="M292 525h175v-117h-175v-103h175v-117h-175v-188h-117v188h-175v117h175v103h-175v117h175v175h117v-175z" />
<glyph unicode="&#x2022;" horiz-adv-x="357" d="M216 350q0 -44 -31.5 -76t-76.5 -32q-44 0 -76 32t-32 76q0 45 32 76.5t76 31.5q45 0 76.5 -31.5t31.5 -76.5z" />
<glyph unicode="&#x2026;" horiz-adv-x="521" d="M58 117q25 0 42 -17.5t17 -41.5t-17 -41t-42 -17q-24 0 -41 17t-17 41t17 41.5t41 17.5zM203 117q25 0 42 -17.5t17 -41.5t-17 -41t-42 -17q-24 0 -41 17t-17 41t17 41.5t41 17.5zM351 117q25 0 42 -17.5t17 -41.5t-17 -41t-42 -17q-24 0 -41 17t-17 41t17 41.5t41 17.5z " />
<glyph unicode="&#x2030;" horiz-adv-x="1133" d="M174 394q-63 0 -108 45t-45 108t45 108t108 45t108 -45t45 -108t-45 -108t-108 -45zM174 613q-27 0 -46 -19.5t-19 -46.5t19 -46t46 -19t46 19t19 46t-19 46.5t-46 19.5zM479 0q-63 0 -107.5 44.5t-44.5 107.5q0 64 44.5 108.5t107.5 44.5q64 0 108.5 -44.5t44.5 -108.5 q0 -63 -44.5 -107.5t-108.5 -44.5zM479 218q-27 0 -46 -19t-19 -47q0 -27 19 -46t46 -19q28 0 47 19t19 46q0 28 -19 47t-47 19zM111 2h-111l543 698h111zM827 0q-63 0 -107.5 44.5t-44.5 107.5q0 64 44.5 108.5t107.5 44.5q64 0 108.5 -44.5t44.5 -108.5 q0 -63 -44.5 -107.5t-108.5 -44.5zM827 218q-27 0 -46 -19t-19 -47q0 -27 19 -46t46 -19q28 0 47 19t19 46q0 28 -19 47t-47 19z" />
<glyph unicode="&#x2039;" horiz-adv-x="448" d="M236 499l72 -74l-166 -175l166 -175l-72 -75l-236 250z" />
<glyph unicode="&#x203a;" horiz-adv-x="446" d="M72 0l-72 75l166 175l-166 174l72 76l236 -250z" />
<glyph unicode="&#x20ac;" horiz-adv-x="738" d="M350 117q97 0 164 69l83 -83q-102 -102 -247 -102t-247.5 102t-102.5 247t102.5 247.5t247.5 102.5t247 -102l-83 -83q-68 68 -164 68q-87 0 -155 -58h242v-146h-319q-2 -18 -2 -29q0 -7 2 -29h319v-145h-242q67 -59 155 -59z" />
<glyph unicode="&#x2122;" horiz-adv-x="672" d="M148 700v-49h-49v-248h-50v248h-49v49h148zM507 403v297h-51l-108 -231l-112 231h-50v-297h49v186l91 -186h46l85 182v-182h50z" />
<glyph unicode="&#x2212;" horiz-adv-x="604" d="M464 300v-116h-462v116h462z" />
<glyph unicode="&#x221e;" horiz-adv-x="889" d="M521 110h-22l-135 135l-134 -135h-22q-51 0 -101 25q-107 54 -107 184q0 129 107 183q50 25 101 25h22l134 -135l135 135h22q50 0 101 -25q107 -54 107 -183q0 -130 -107 -184q-51 -25 -101 -25zM540 420l-102 -101l102 -102q21 4 38 13q47 25 47 89t-47 89q-14 8 -38 12 zM291 319l-102 101q-24 -4 -38 -12q-47 -25 -47 -89t47 -89q17 -9 38 -13z" />
<glyph unicode="&#x2260;" horiz-adv-x="623" d="M462 390h-152l-54 -116h206v-116h-260l-73 -158h-129l73 158h-73v116h127l54 116h-181v116h234l91 195h129l-91 -195h99v-116z" />
<glyph unicode="&#x25ca;" d="M468 349l-234 -351l-234 351l234 351zM234 499l-100 -150l100 -150l100 150z" />
<glyph unicode="&#x25fc;" horiz-adv-x="700" d="M0 700h700v-700h-700v700z" />
<glyph horiz-adv-x="784" d="M0 700h642l-263 -368v-331h-116v331zM321 451l95 132h-190z" />
<glyph horiz-adv-x="1141" d="M0 700l1000 -1l-281 -701l-219 549l-220 -549zM173 583l107 -270l108 270h-215zM612 583l107 -270l108 270h-215z" />
<glyph horiz-adv-x="665" d="M491 584q34 -58 34 -117v-467h-117v117h-291v-117h-117v467q0 59 33 117q68 116 229 116t229 -116zM117 233h291v233q0 31 -19 62q-36 55 -127 55q-94 0 -128 -58q-7 -13 -11.5 -27.5t-4.5 -22.5l-1 -8v-234z" />
<glyph horiz-adv-x="491" d="M350 117v-117q-145 0 -247.5 102.5t-102.5 247.5t102.5 247.5t247.5 102.5v-117q-97 0 -165 -68t-68 -165t68 -165t165 -68z" />
<glyph horiz-adv-x="701" d="M559 0h-559l279 700zM387 116l-108 269l-107 -269h215z" />
<glyph horiz-adv-x="314" d="M146 291h-117v409h117v-409zM88 175q36 0 61.5 -26t25.5 -62t-25.5 -62t-61.5 -26q-37 0 -62.5 26t-25.5 62t25.5 62t62.5 26z" />
<glyph horiz-adv-x="300" d="M365 496l-65 -61l-150 143l-150 -143l-65 61l215 204z" />
<glyph d="M0 700h467v-117h-467v117zM0 0v408h467v-116h-350v-292h-117z" />
<glyph horiz-adv-x="669" d="M117 702q9 0 23.5 -1t57 -7.5t81.5 -18.5t86 -38.5t81 -62t57.5 -93.5t23.5 -130t-22.5 -130t-59 -93.5t-80 -62t-87 -38.5t-80 -18.5t-58.5 -7.5l-23 -1h-117v702h117zM410 351q0 64 -28 111t-73.5 71t-82 35t-74.5 15l235 -333q23 46 23 101zM117 430v-313q12 0 31 1.5 t69 13.5t87 34z" />
<glyph d="M467 583h-350v-87h350v-117h-350v-58h350v-117h-350v-87h350v-117h-467v700h467v-117z" />
<glyph horiz-adv-x="784" d="M643 700l-250 -350l250 -349h-643l250 349l-250 350h643zM226 583l95 -132l95 132h-190zM416 117l-95 133l-95 -133h190z" />
<glyph horiz-adv-x="723" d="M584 700v-469h-115v224l-125 -218h-93l-135 225v-231h-116v469h108l188 -314l180 314h108zM584 116v-116h-584v116h584z" />
<glyph horiz-adv-x="699" d="M126 0h-126l279 700l280 -700h-126l-154 385z" />
<glyph horiz-adv-x="607" d="M467 583h-175v-117h175v-116h-175v-350h-117v350h-175v116h175v117h-175v117h467v-117z" />
<glyph horiz-adv-x="838" d="M698 700v-698h-698v698h698zM116 584v-466h466v466h-466z" />
<glyph horiz-adv-x="550" d="M292 700h116v-467h-116v175h-175v-175h-117v467h117v-175h175v175zM408 0v117h-408v-117h408z" />
<glyph horiz-adv-x="842" d="M350 700q145 0 247.5 -102.5t102.5 -247.5t-102.5 -247.5t-247.5 -102.5t-247.5 102.5t-102.5 247.5t102.5 247.5t247.5 102.5zM350 116q97 0 165 68.5t68 165.5t-68 165t-165 68t-165 -68t-68 -165t68 -165.5t165 -68.5zM433 350l-83 82l-82 -82l82 -83z" />
<glyph horiz-adv-x="551" d="M205 702q85 0 144.5 -60t59.5 -145v-292q0 -85 -59.5 -145t-144.5 -60t-145 60t-60 145v292q0 85 60 145t145 60zM205 585q-37 0 -62.5 -25.5t-25.5 -62.5v-182l143 250q-23 20 -55 20zM205 117q36 0 61.5 25.5t25.5 62.5v182l-142 -250q23 -20 55 -20z" />
<glyph horiz-adv-x="842" d="M349 699q145 0 247.5 -102.5t102.5 -247.5t-102.5 -247t-247.5 -102t-247 102t-102 247t102 247.5t247 102.5zM116 349q0 -80 49.5 -142.5t125.5 -82.5v451q-76 -20 -125.5 -82.5t-49.5 -143.5zM408 124q76 20 125 82.5t49 142.5q0 81 -49 143.5t-125 82.5v-451z" />
<glyph horiz-adv-x="577" d="M218 0q-50 0 -100 22q-112 48 -118 169v38l101 92q-101 54 -101 173q0 91 65 147.5t153 56.5q52 0 104 -23q114 -52 114 -181v-25l-100 -92q100 -54 100 -173q0 -91 -65 -147.5t-153 -56.5zM238 289l-119 -109q7 -31 36.5 -47.5t62.5 -16.5q43 0 72.5 24t29.5 64 q0 68 -82 85zM116 494q0 -68 82 -85l120 109q-9 35 -44 51q-25 11 -57 11q-42 0 -71.5 -22.5t-29.5 -63.5z" />
<glyph horiz-adv-x="739" d="M350 117q97 0 165 68l82 -83q-102 -102 -247 -102t-247.5 102.5t-102.5 247.5t102.5 247.5t247.5 102.5q146 0 247 -103l-82 -82q-68 68 -165 68t-165 -68t-68 -165t68 -165t165 -68zM457 350q0 45 -31.5 76.5t-76.5 31.5q-44 0 -76 -31.5t-32 -76.5q0 -44 32 -76t76 -32 q45 0 76.5 32t31.5 76z" />
<glyph horiz-adv-x="1163" d="M419 0h-127l-292 701h126l229 -549l93 223l-135 326h126l73 -174l72 174h127l-136 -326l93 -223l229 549h126l-292 -701h-126l-93 224z" />
<glyph horiz-adv-x="875" d="M551 253l43 -253l-227 120l-227 -120l44 253l-184 179l254 37l113 230l114 -230l254 -37zM332 361l-77 -12l56 -55l-13 -77l69 36l70 -36l-13 77l56 55l-78 12l-35 70z" />
<glyph horiz-adv-x="722" d="M467 700h116v-700h-118l-172 247l-176 -247h-117v700h118l349 -498v498zM117 201l105 147l-105 150v-297z" />
<glyph horiz-adv-x="629" d="M296 700l-121 -291h315l-170 -408h-126l122 291h-316l170 408h126z" />
<glyph d="M467 700v-117h-467v117h467zM467 0h-467v117h467v-117zM467 408v-116h-467v116h467z" />
<glyph horiz-adv-x="666" d="M408 700h117v-700h-117v175h-291v-175h-117v700h117v-175h291v175zM117 292h291v116h-291v-116z" />
<glyph horiz-adv-x="609" d="M467 233h-350v-116h350v-117h-467v700h117v-350h350v-117z" />
<glyph horiz-adv-x="1165" d="M604 701h127l292 -701h-126l-229 549l-93 -223l135 -326h-126l-73 174l-72 -174h-127l136 326l-93 223l-229 -549h-126l292 701h126l93 -224z" />
<glyph horiz-adv-x="839" d="M349 111q-100 0 -170.5 70.5t-70.5 169.5h48q0 -79 56.5 -135.5t136.5 -56.5q79 0 135.5 56.5t56.5 135.5h48q0 -99 -70.5 -169.5t-169.5 -70.5zM349 2q-145 0 -247 102.5t-102 246.5t102 246.5t247 102.5q144 0 246 -102.5t102 -246.5t-102 -246.5t-246 -102.5zM349 652 q-125 0 -213 -88t-88 -213q0 -124 88 -212t213 -88q124 0 212 88t88 212t-88 212.5t-212 88.5zM213 459q0 56 11.5 96t28.5 40q16 0 27.5 -39.5t11.5 -96.5q0 -56 -11.5 -95.5t-27.5 -39.5t-28 39.5t-12 95.5zM407 459q0 57 11.5 96.5t27.5 39.5t27 -40t11 -96t-11 -95.5 t-27 -39.5t-27.5 39.5t-11.5 95.5z" />
<glyph horiz-adv-x="951" d="M809 351l-202 -351h-405l-202 351l202 350h405zM134 351l135 -235h271l135 235l-135 234h-271z" />
<glyph horiz-adv-x="701" d="M448 278l111 -278h-126l-48 121l-48 -121h-115l-48 121l-48 -121h-126l279 700zM279 171l43 107l-43 107l-42 -107z" />
<glyph horiz-adv-x="701" d="M559 700v-117h-233l233 -583h-126l-154 385l-153 -385h-126l233 583h-233v117h559z" />
<glyph horiz-adv-x="840" d="M349 699q145 0 247.5 -102t102.5 -247t-102.5 -247.5t-247.5 -102.5t-247 102.5t-102 247.5t102 247t247 102zM582 350q0 96 -68 164.5t-165 68.5q-63 0 -117 -32l309 -334q41 60 41 133zM116 350q0 -97 68.5 -165t164.5 -68q54 0 104 24l-304 328q-33 -55 -33 -119z" />
<glyph horiz-adv-x="1161" d="M670 700q145 0 247.5 -102.5t102.5 -247.5t-102.5 -247.5t-247.5 -102.5q-85 0 -160 39q-75 -39 -160 -39q-145 0 -247.5 102.5t-102.5 247.5t102.5 247.5t247.5 102.5q85 0 160 -39q75 39 160 39zM583 350q0 101 -73 169q-73 -68 -73 -169t73 -169q73 68 73 169z M117 350q0 -97 68 -165t165 -68q28 0 54 6q-83 99 -83 227q0 130 83 227q-26 6 -54 6q-97 0 -165 -68t-68 -165zM670 117q97 0 165 68t68 165t-68 165t-165 68q-28 0 -54 -6q83 -97 83 -227q0 -128 -83 -227q26 -6 54 -6z" />
<glyph horiz-adv-x="607" d="M467 583h-59v-466h59v-117h-467v117h58v466h-58v117h467v-117zM292 117v466h-117v-466h117z" />
<glyph horiz-adv-x="1075" d="M934 584h-58v-467h58v-117h-934v117h58v467h-58v117h934v-117zM175 117h117v467h-117v-467zM409 117h117v467h-117v-467zM759 117v467h-117v-467h117z" />
<glyph horiz-adv-x="705" d="M568 71l-83 -83l-83 83q-71 -71 -168 -71t-165.5 68.5t-68.5 165.5q0 90 62 159q-62 52 -62 134q0 72 51.5 123.5t123.5 51.5q73 0 124.5 -51.5t51.5 -123.5q0 -48 -24 -88.5t-64 -63.5l88 -87v122h117v-176q0 -24 -7 -56zM175 585q-24 0 -41 -17t-17 -41q0 -25 17 -42 t41 -17q25 0 42 17t17 42q0 24 -17 41t-42 17zM234 117q51 0 85 37l-165 165q-37 -34 -37 -85q0 -48 34 -82.5t83 -34.5z" />
<glyph horiz-adv-x="895" d="M490 83l-236 5l-35 -88h-126l61 154q-71 50 -112.5 128.5t-41.5 169.5q0 151 107 258t258 107t258 -107t107 -258h-117q0 101 -70 173t-170 75l279 -700h-126zM117 452q0 -110 83 -185l172 433h-7q-103 0 -175.5 -72.5t-72.5 -175.5zM351 204h94l-72 181l-70 -173 q25 -7 48 -8z" />
<glyph horiz-adv-x="839" d="M349 700q145 0 247.5 -102.5t102.5 -247.5t-102.5 -247t-247.5 -102t-247 102t-102 247t102 247.5t247 102.5zM349 117q97 0 165 68.5t68 164.5q0 97 -68 165t-165 68q-96 0 -164.5 -68t-68.5 -165q0 -96 68.5 -164.5t164.5 -68.5zM457 350q0 45 -31.5 76.5t-76.5 31.5 q-44 0 -76 -31.5t-32 -76.5q0 -44 32 -76t76 -32q45 0 76.5 32t31.5 76z" />
<glyph horiz-adv-x="699" d="M559 700l-140 -350l140 -350h-126l-154 385l-153 -385h-126l140 350l-140 350h126l77 -193l76 193l77 -193l77 193h126z" />
</font>
</defs>
</svg>
