<?xml version="1.0" standalone="no"?>
<!DOCTYPE svg PUBLIC "-//W3C//DTD SVG 1.1//EN" "http://www.w3.org/Graphics/SVG/1.1/DTD/svg11.dtd" >
<svg xmlns="http://www.w3.org/2000/svg" xmlns:xlink="http://www.w3.org/1999/xlink" version="1.1">
<metadata></metadata>
<defs>
<font id="chalkdustregular" horiz-adv-x="623" >
<font-face units-per-em="1000" ascent="800" descent="-200" />
<missing-glyph horiz-adv-x="400" />
<glyph unicode="&#xd;" horiz-adv-x="400" />
<glyph unicode=" "  horiz-adv-x="400" />
<glyph unicode="&#x09;" horiz-adv-x="400" />
<glyph unicode="&#xa0;" horiz-adv-x="400" />
<glyph unicode="!" horiz-adv-x="295" d="M213 666h-15v18h15v-18zM267 577l-35 36l-8 -14l10 -2l2 -14q0 -15 -17 -36l-18 -4l1 -4l-3 -9l15 16q3 -23 3 -25q0 -26 -15.5 -77t-15.5 -77l7 -18l-10 -20l13 -9l-14 -22l-13 7l13 -14q1 -6 9 -60q-5 -8 -19 -14.5t-19 -19.5l-9 17l-3 -3l-10 16l-16 -11v-6 q-8 13 -18 43v-5l-27 22l-4 -10h-20l4 12l-4 10q-18 3 -18 20q0 2 8 37l14 10q-3 12 -4 23q-11 3 -10 33v5l14 -11l12 2l-15 2l3 11h-12v21l18 -6v-5l7 9l-4 4h-13l-4 20q0 30 32 103q35 79 38 107q14 9 43 23q8 -3 18 -11l14 5l-3 -22l25 -7v4l8 8l10 -3q17 -49 40 -87z M80 147l-12 -3l-1 7l11 3zM167 121q-3 -11 -3 -64l-4 2q2 -6 2 -8q0 -5 -14 -31.5t-19 -33.5q-3 20 -6 20t-8 -1.5t-8 -1.5q-8 0 -13 5q-2 -7 -14 -7h-2q0 12 -9 21t-9 13q0 8 12 21q-6 7 -6 19q0 1 1 12q12 -1 12 9v7q-1 4 -1 6q-6 5 -18 13q-3 -2 -14 -14v16q0 13 14 15 q20 3 21 3v3q0 19 13 19q49 0 73 -43zM224 621l-10 11l3 -8zM108 312l-1 2q-1 -2 -3 -5zM80 340q-1 1 -2 1h-2q-1 0 -3 -1l2 -4q2 1 5 4zM104 289l-4 14q-6 -8 -17 -24q-4 -2 -5 -2q-8 0 -8 5q0 -1 2 5q0 5 -9 11q4 -8 9 -23v-1h23q-1 5 -5 14h12zM118 238l-3 -4v-6z" />
<glyph unicode="&#x22;" horiz-adv-x="346" d="M322 607q0 -8 -14 -20q-3 6 -10 15q-2 -43 -60 -68q-10 8 -21 16q-5 -8 -17 -20l-9 6l-1 6l-4 -1q-12 0 -12 12q0 20 19 32q17 9 34 19l2 8l-2 7l-4 -3q-10 6 -18 22.5t-16 19.5l-9 14l-2 -1v5l-1 1h1q-1 13 -1 18q0 13 4 28q-4 -6 -7 -14l-12 3l5 18h17l8 21q4 0 32 14 q4 -7 13 -18l4 2q17 -3 19 -31q4 -3 9 -7q5 5 12 5q11 0 11 -13q-3 -5 -8 -9h-2q6 -5 14 -5q2 -5 14 -42.5t12 -39.5zM184 624q0 -8 -14 -20q-3 6 -10 15q-2 -43 -61 -68q-9 8 -20 16q-5 -7 -18 -20l-8 6l-1 6l-4 -1q-12 0 -12 13q0 19 18 30t35 20l1 8l-1 7l-4 -3 q-10 6 -18 22.5t-16 19.5l-9 14l-2 -1v5l-1 1h1q-2 13 -2 18q0 13 5 28q-4 -6 -8 -14l-11 3l5 18h17l8 21q3 0 32 14q4 -7 13 -18l3 2q17 -3 20 -31q4 -3 8 -7q6 5 12 5q12 0 12 -13q-3 -4 -8 -9h-2q5 -5 13 -5q2 -5 14.5 -42.5t12.5 -39.5zM196 678l-1 1h-1zM57 695l-1 1v0 z" />
<glyph unicode="#" horiz-adv-x="550" d="M540 372q-63 -26 -113 -25l3 -9q-26 0 -31 -14q6 -10 15 -32l-13 -3l6 -8l31 45l10 -5l-2 -4q21 -29 39 -32l1 1l4 47l10 -42l-8 -28q20 -4 20 -22q0 -5 -1.5 -15t-1.5 -15l29 -20q-56 -26 -108 -26q-25 0 -48 6q-10 -13 -26 -13l-5 -5h-12l-3 -2l4 -10l29 7 q-8 -19 -17 -25q-5 -4 -28 -13l-17 12l6 15l-22 1l-1 8l21 20l7 -4l9 6l-1 2l-8 3l-22 -6l-3 23l-13 6l-10 -10l-26 8l-10 -11l-57 2l16 -2q-12 -28 -29 -28q-8 0 -22 3l-1 -11l3 -10l29 7q-8 -18 -17 -24q-4 -4 -27 -12l-16 11l5 14l-20 1l-2 8l21 19l6 -3l11 6l-11 3 l-21 -6q-3 18 -4 33l-10 3l7 20l-6 14l-8 -13l1 1l4 -7q-9 -20 -22 -20l-9 2v23l-18 -5l-13 17q10 23 15 29.5t27 13.5l-9 -29l20 -5h8l-7 25l10 18l23 13l-6 20l10 11l-7 16l11 6q-13 20 -40 20l-4 5l7 19l-5 13l-7 -11l4 -7q-11 -18 -23 -18l-9 2l-1 20l-18 -5l-13 16 q9 21 15 27t28 13l-9 -27l17 -4h11l-7 22l11 17l20 7q7 41 34 86q5 -24 19 -24q2 0 10.5 1t13.5 1l19 -7l2 -10l12 3q27 0 59 -6l-49 -5q5 -16 26 -32l4 2l4 -7l7 -2l5 1q10 13 15 25l14 -4q7 42 35 89q6 -25 19 -25q3 0 11.5 1t14.5 1l19 -7l3 -11l20 4q18 0 51 -7l-50 -5 q9 -16 19 -25l24 12l-12 -19l15 8l-8 -19q11 -10 32 -18l3 21l13 -22l-8 -19q20 -3 20 -22q0 -1 -4 -25q7 -12 32 -18zM489 380q-7 6 -11 11q-10 -6 -10 -10t6 -9q7 3 15 8zM342 513l-5 5l-5 5q-2 0 -11 -13q5 -4 9 -4q6 0 12 7zM412 394v2q-2 -2 -2 -4zM490 200q0 2 -11 13 q-10 -6 -10 -12q0 -5 7 -10q14 7 14 9zM145 490q-3 3 -10 9q-1 0 -9 -11q4 -5 8 -5q6 0 11 7zM415 216v3q-2 -3 -2 -5zM315 362q-4 6 -15 13l-7 -9l-20 8l-11 -10q-9 3 -27 7l-5 -5l2 -4l-11 -4l10 -34q-15 0 -29 -10l-1 -3l2 -5v0l22 -14v0l4 13q4 -1 18.5 -9.5t17.5 -8.5 q2 0 4 1q12 13 12 29l24 -8q-2 6 -5 19q4 7 10 11l-7 16z" />
<glyph unicode="$" horiz-adv-x="456" d="M437 238q-8 -19 -16 -59q-15 6 -24 20q-5 -15 -12 -31q-20 -10 -61 -27q-9 -15 -25 -30l-10 8q-33 -40 -33 -67q0 -4 17 -31l-5 -17q-9 -6 -20 -23l10 -23l-12 -23q-19 5 -38 11q-22 9 -22 28l14 39l-9 17l7 26l-2 40q-7 6 -18 4l-18 -4q-28 0 -52 14.5t-33 38.5l-7 5 l-14 -13q-36 53 -36 82l7 37l19 -23v0l-1 9l10 16l18 -13q24 10 28 12q9 6 20 25q0 -50 13 -79l-6 -6l31 -9q18 0 37 8l-3 25q0 23 13 72l-3 -1q-13 6 -41 18l-5 -1q-37 27 -63 30q-3 3 -20 34q-11 20 -28 24l11 25l-14 -1q9 30 18 47l-2 8l34 4l-5 18l19 18h11l6 10l17 -4 q-2 0 39 10l-2 6l2 11v-1q-28 1 -28 24l17 20q14 0 16 -11v-22q13 21 11 33l9 14l-4 23l10 17l13 2l16 -4q21 -18 25 -22q13 -14 17 -29q-11 -15 -21 -27l5 -7l13 3q5 0 43 -11l16 8q54 -37 54 -88q-16 6 -50 17l-12 -4q-17 3 -55 -7q4 -13 20 -31l8 -19l-19 -38 q-14 -26 -14 -37l1 -2l20 -13l5 4q19 -7 45.5 -39.5t43.5 -40.5l16 2q3 -30 2 -44l11 9l-3 27l22 -4zM74 259h-16v18h16v-18zM200 370q0 1 -5.5 18t-5.5 30q0 18 5 30q-9 -7 -18 -13q-10 -9 -19 -7q-1 -5 -7.5 -15.5t-6.5 -15.5q0 -12 6 -12q2 0 8 2t9 2q9 0 17.5 -7.5 t15.5 -14.5q1 1 1 3zM318 238q0 4 -5 15q-8 15 -12.5 18t-24.5 5q0 -27 -10 -39q6 -4 9 -13q43 4 43 14z" />
<glyph unicode="%" horiz-adv-x="603" d="M598 707q-56 -101 -167 -247q-145 -192 -177 -239q-52 -81 -160 -239l-18 -6l1 24l-17 -23l-20 11l2 19l-33 -4l-5 8l19 26l-1 3l9 7l2 -1q21 65 72 112v11q17 9 33 21l-11 1l-8 8q2 20 22 44.5t41 33.5q-1 21 12 51q-1 2 -23 4l-4 -9l-12 -2l-19 17l-19 -6l-14 9l-5 -2 q-14 5 -36 21q-20 11 -20 52q0 13 8 60l-1 2q0 12 11 25q16 18 18 22l-3 11l13 5q3 14 16 36l10 -3q27 23 26 46l18 2l1 10q19 8 37 10l4 -10l-3 -7l3 1q4 37 22 37q6 0 37 -19.5t55 -19.5q18 0 52 10q26 8 52 15l-1 5q23 22 64 69l10 -23l6 1l28 29l24 -16l38 22zM540 132 q0 -18 -10 -50q-12 -35 -23 -46h-12l-3 -10l-14 -12l-10 2q-9 -8 -17.5 -15.5t-24.5 -4.5l-5 -11l-9 6l-15 -4l-5 6l-4 -9l-12 -2q-4 2 -21 19q-8 -6 -17 -8l-14 9l-5 -2q-15 4 -37 21q-19 11 -19 52q0 12 8 60l-1 2q0 13 11 25q15 17 18 22l-3 11l13 5q3 13 16 36l10 -4 q1 8 21 27q4 9 5 19l18 3l1 3v7q20 8 37 9l4 -9l-3 -7l2 1q6 37 23 37l12 -4q3 -8 19.5 -14t19.5 -13l7 3q6 -6 8 -14.5t5 -12.5l11 3l-7 -21l7 -16v13h13v-22h-9l3 -5q-4 -9 -11 -26l13 -10l2 -11l-6 -4l3 -5l-4 -10q11 -10 11 -19zM349 549q-21 -7 -48 -20q4 -6 12 -9 l2 -10q16 19 34 39zM313 508l-4 -3l1 -1zM248 535q0 35 -12 60l-36 -18l1 -6q0 -8 -15 -21q-7 -5 -11 -18.5t-17 -25.5q-9 -9 -11 -13q-2 -8 -3 -16q-3 -12 -20 -19l3 -9l-3 -6q2 -5 5 -11q0 -7 -11 -16q-1 -13 -8 -23q8 -2 17 -5t13 -10q108 42 108 157zM107 518l-1 -1v0z M205 346l-1 1v-1h1zM469 196q0 35 -12 60l-36 -18l1 -6q0 -9 -15 -21q-7 -5 -11 -18.5t-15.5 -24t-12.5 -14.5q-2 -8 -3 -16q-3 -12 -20 -19l3 -9l-3 -6q2 -5 5 -11q0 -7 -11 -16q-1 -13 -8 -23q8 -2 17 -5t13 -10q108 41 108 157zM427 5q-1 2 -2 3l2 -4v1zM189 249l-1 3 q-19 -10 -26 -26l2 -9q11 13 25 32z" />
<glyph unicode="&#x26;" horiz-adv-x="1249" d="M1021 604l-28 49l28 -21v-28zM1170 265l-12 -1l-1 9l12 1zM1223 118l-5 -26q-10 0 -18 8t-8 18q0 11 15 11q11 0 16 -11zM1216 77h-16v15h16v-15zM1184 109q0 -26 -14 -65l-29 29l-22 -30l-23 15l-18 -19l-11 14l-6 1l-32 -10l-15 20l-11 4l-7 -30l-22 30l-14 -9 q-29 8 -36 11q-20 8 -32 19l-14 -6q-15 11 -18 36l-4 42l-15 9l-5 -7l17 -41q-23 20 -29 27q-15 17 -20 33l7 14l-6 23l-34 -7q-13 0 -43 4q-28 36 -56 71q-36 47 -43 76l-13 -11l-22 25l15 15l-2 2l-17 -14q12 -23 12 -46q0 -29 -12 -57q6 -7 7 -19.5t2 -23.5l13 -8 q-9 -48 -40 -74l-10 15q-18 5 -34.5 9t-39.5 2l-11 29l-7 -10q-39 34 -39 60q0 13 7 30l-26 5l-2 17q13 10 35 33l-16 23l13 6l-14 15l-13 -8l-7 30l7 12h22l-8 15l-3 -12q-22 36 -20 84l-22 12l24 3q10 0 34 -7q21 -6 35 -4l20 -22l22 4l12 -7l19 32l8 -26l17 10l17 -22 l19 13l12 -2l9 -32l22 21q19 -11 28 -33l13 9l7 -4q11 -32 11 -37v0l-1 2q27 -5 45 -32q4 -5 26 -51l10 6l12 -5l1 -21l30 -15l-4 -7l2 -1l5 15q23 6 46 8l6 15l20 9l32 -7l4 2l3 17q17 9 37 10q29 2 35 3v65q0 105 -15 200q22 -36 32 -57q-15 34 -2 90l-16 -21l-12 11 l23 15q3 30 14 36l6 -30l-8 -6l15 -13l-4 35l22 -29l-15 -8l15 -12l-5 -9l6 -8l13 34l10 -19h8q40 0 49 -17q4 -8 4 -54q0 -5 4 -17.5t4 -20.5l9 -4l4 -17l-4 -13q-41 -33 -42 -81l3 2l17 27l-5 11l26 25q-5 -28 -13 -84l-7 -9l4 -6l-12 -9q0 -11 -4 -41q-4 -26 -4 -42 q0 -77 24 -133l-9 -19l4 -4l21 2zM436 346q0 -2 -1 -6t-1 -7h-18l7 27q13 -5 13 -14zM497 62q-28 16 -28 26q0 2 1 6t1 6q0 5 -10 12q8 6 16 9l1 2l11 1q1 -4 1 -6q0 -5 -3.5 -14.5t-3.5 -14.5q0 -4 14 -27zM459 58l-11 2q-17 -7 -39 -28q-7 11 -7 23q0 6 1 12l-4 4 q-11 -14 -37 -38q-4 10 -18 28q-11 -15 -30 -24l-9 8l-27 -16q-8 9 -35 14l-12 -11q-23 0 -84 11q-9 20 -32 16l-38 28l-2 -1l-7 -7q-36 18 -36 75q0 19 12 36l14 -8l24 17l8 -2q8 0 19 12q9 9 17 18q14 -4 31 -16l1 1l-6 12l16 16l16 -1l9 15l17 -11q4 11 19.5 27t19.5 26 h5q-10 20 -10 33l8 25q-4 5 -3.5 22t-7.5 20q-11 -7 -36 -19l-5 2l-12 -24l-18 -10l-6 1q-32 -22 -39 -28q-20 -19 -25 -40l-24 -18l4 27l-1 1l-5 -7l-18 18v-27q-12 21 -13 33q1 -8 1 33l-2 6l-16 4q1 26 24 42l12 -9q14 13 35 44l19 10l5 -14q2 1 31 40q28 36 57 43 q6 -11 7 -27l3 -1l1 3l-11 44l22 -8q10 9 29 28q10 -9 31 -23q6 -16 14 -21l-13 31h18v-34q20 -6 20 -48h18v-27l-18 23l-1 -13q0 -11 5 -28l6 2q23 -9 22 -31l-1 -15l-9 2l-1 -1q-8 -9 -23 -30l6 -5l17 2h7q13 -15 22 -31q-3 -10 -3 -43q0 -91 21 -114h2q7 13 6 38l30 -41 l10 20zM1119 491v3q-8 -7 -8 -16v-3q8 2 8 14v2zM1028 331l-1 2v-1v0v-1v0h1zM1121 188q0 5 -3 30q-1 -3 -1 -6q0 -8 4 -24zM1037 245l-8 5q2 11 2 12q0 2 -9 8.5t-11 8.5q-2 -2 -12 -15q-6 -10 -16 -10q-6 0 -16 5v2q-8 -16 -25 -35q5 -7 5.5 -18t1.5 -22l5 5q19 -8 18 -30 q21 -12 64 -30l-5 95q0 3 3 9.5t3 9.5zM935 232q-2 4 -8 12q-3 -5 -3 -8q1 0 11 -4zM834 204l-1 2q-1 -1 -1 -2h2zM443 404q-1 7 -5 16q-4 -3 -11 -10q5 -11 5 -17zM460 355l-9 15l5 -12zM490 224l-2 5l-6 -1l-2 -1l1 -6zM266 262q0 7 -3 13q-4 -10 -13 -29l8 -6q8 11 8 22z M312 140q-10 5 -14 14l-5 -7h-9q-5 6 -5 10q0 9 15 12h1v17q-12 -6 -36.5 -8.5t-34.5 -6.5q-4 -1 -11 -40q12 -2 20 -13q6 1 16.5 14t26.5 13l2 -6l11 6q2 -4 5 -13q5 0 10.5 1.5t7.5 6.5zM202 131v2q0 7 -4 7h-4h-4q-11 0 -17 9q0 1 -1 1q-4 0 -10 -5q2 -14 17 -14h7h7.5 h8.5zM67 142h-1v-4q1 2 1 4z" />
<glyph unicode="'" horiz-adv-x="211" d="M180 625q-3 -9 -14 -19q-5 7 -10 13v-4q1 -35 -62 -62q-9 5 -21 16q-4 -8 -17 -20l-9 6l-1 6l-6 -2l-9 10q0 23 18 35q18 9 36 19l1 6l-3 8l-4 -2q-10 5 -18 21.5t-15 19.5l-9 15l-2 -1q-4 35 5 58l8 22q5 0 34 14q3 -7 12 -19l4 3q15 -5 18 -31q4 -3 8 -7l13 5l11 -8v-4 q-4 -7 -8 -11h-2q6 -5 14 -5q8 -27 28 -82zM51 697h-1v0h1z" />
<glyph unicode="(" horiz-adv-x="357" d="M352 690l-26 -19q25 -23 25 -58l-6 -10h-17q-13 -1 -35.5 7.5t-34.5 8.5l-13 -3l-13 -15q-35 -5 -49 -74q-2 -6 -17 -132q-10 -78 -31 -96l6 -7q-1 -14 11 -33q-4 -12 -10 -38q13 -13 13 -60q0 -43 -8 -66q30 -30 85 -43q22 -5 96 -13l-11 -41q7 -10 11 -32l-12 -17 q-28 2 -81 17l18 -21l-16 -3q-10 0 -21.5 8t-21.5 15l-12 -6l-20 5l-24 -15l3 13l-39 14q-10 34 -12 37q-10 18 -32 15q-19 12 -14 42q-22 12 -22 59q0 12 1.5 34t1.5 28l-8 27l15 8l8 -6l-13 23l-4 -14l1 19l-4 8q6 9 7 31l12 -1l-2 -14l3 -2l12 27q0 9 -3.5 42.5 t-3.5 41.5q0 6 3 40l8 -4l-6 13l8 17l23 -18l5 12q0 6 -3 25q-3 15 -1 25l-26 20l22 -2l-6 17l22 26q13 17 12 31q23 15 27 57q4 50 13 64l10 3l15 -9l2 2v16l19 -1l6 3v48q7 -18 27 -50l4 7l-6 15l20 -5q13 9 41 23q16 -6 44 -34l9 4zM60 463q0 -7 -7 -11h-11v51 q18 -36 18 -40zM61 -1h-19v32q14 -5 14 -16q1 -4 5 -16zM33 20l-28 27h28v-27zM101 518l-7 4l-6 -14q2 1 10 3z" />
<glyph unicode=")" horiz-adv-x="358" d="M350 317q0 -7 -2.5 -21t-2.5 -21q0 -5 2 -14h-16q-3 8 -3 14q0 4 1 12v11q0 16 -12 34h31q2 -8 2 -15zM342 212l-25 -16l-11 19h-10l-4 -6l14 1q0 -16 -12 -28l-23 -23l4 -13q4 24 30 22l6 26v-27l4 -1q-5 -10 -5 -28q0 -9 19 -35l-21 5l-14 -11l-12 1v20l13 6l6 27l-8 1 l2 -10h-19l8 -18l-13 -14l7 -19l-14 -17l-15 2l-3 -10q-14 -3 -32 -22l-5 -26l-27 4q1 -10 -7 -29l-33 -17q-4 1 -23 9t-23 8l-4 -1q-9 -32 -41 -40l-19 7l-18 -6l19 31l-14 10q2 21 0 40q9 8 40 8q58 0 97 70q25 60 49 120l-7 4q2 10 2 23q0 58 -25 130q-26 78 -60 102 l13 2l-19 26l2 8q-20 3 -47 20q-11 -1 -34 -4l-18 10l7 20l-11 39l15 40q-8 19 -11 39l7 10q14 -11 38 -36l5 2l-3 12l13 16l14 -15l-11 -15v0l11 -4l13 8l-1 3l14 2l12 -3q16 -15 20 -43v14l11 15l21 -14l15 6q8 -14 26 -32l5 10l20 -38l-6 -15l18 -32l-7 -11l7 -6l12 27 l17 -20q10 -75 10 -76q8 -44 26 -73l-6 -10l15 -25q-21 -26 -21 -52q0 -9 7 -22q10 -17 11 -20l-3 -17v-2l14 11zM211 607v0l-2 -1l-1 -1l1 -1q1 1 2 3zM274 488q-8 12 -8 28l-8 4q6 -9 6 -18q0 -6 -2 -14l3 -8h2l2 1zM108 645l-5 13l2 -15zM272 433v6q0 3 -1 7l-6 -27l6 4 q1 13 1 10zM288 364l-2 14l-3 -9zM140 494l-1 2l-6 -3z" />
<glyph unicode="*" horiz-adv-x="410" d="M391 614q0 -7 -5 -20q-3 -5 -39 -16q-31 -9 -45 -12l-3 4q-4 3 -9 4l2 -2q0 -9 -4 -13q-7 -9 -20 7l1 9q-6 0 -11 2q-6 -4 -10 -5q7 -18 31 -21q5 -2 12 -3q9 -11 27 -37q20 -32 20 -38q0 -4 -3.5 -6.5t-4.5 -3.5q-4 0 -14 3l-20 4q-31 6 -44 6q-3 0 -8.5 6t-7.5 3 q-10 2 -34 11q-4 -3 -14.5 -15.5t-23.5 -14.5q-6 10 -12 10t-17 -3.5t-16 -4.5l2 -1l-22 -5l-11 5q-5 -3 -13 -12q-9 12 -9 18t20 38q18 27 27 37h5q4 0 9 3h-2q-6 7 -6 12q0 9 13 9h3q-17 8 -37 -8q2 2 2 3t-5.5 -3.5t-6.5 -5.5q-14 1 -45 8q-37 8 -41 12q0 3 -2 13 q3 0 6.5 3t6.5 4l16 12q12 8 36 27q2 2 11 2q3 1 7 2q8 7 31 17q2 5 0 23q-1 15 6 25q11 -3 16 2q5 10 18 29l-4 -1l13 19l11 5q2 5 1 17q7 -1 20 -7q0 -1 4 -9v-1l13 -16q9 -11 31 -33q2 -2 2.5 -10t2.5 -7q7 -8 20 -30q6 -1 16.5 1t14.5 2q9 0 17 -4q-2 -12 3 -16 q11 -4 31 -15l-2 3l20 -11l6 -11q6 -1 17 1zM272 574l-1 1v0zM147 566l-6 3l3 -5q2 1 3 2zM142 562h-1h1v0z" />
<glyph unicode="+" horiz-adv-x="524" d="M497 376q0 -10 -7 -17v2h-11l1 -3q-3 3 -3 6q0 12 20 12zM451 355q0 -10 -11 -19l-15 3q-1 -3 -1 -17l-7 -5q-17 4 -21 16l3 7q-4 3 -11 16h10q16 0 23 7l-8 27q36 -11 37 -34zM258 518q0 -11 -18 -17l-7 3q-4 -4 -18 -11l1 9q0 16 -7 22l-28 -7q12 37 39 37q7 0 17 -11 l-3 -15q2 -1 20 -1q4 -4 4 -9zM391 376q0 -7 -6.5 -18.5t-4.5 -28.5q-5 -2 -119 -21q26 -16 44 -19v-5l-5 -5l7 -9h-16l-7 -7q18 -35 16 -83l3 -2q-6 -13 -9 -30l-6 5l-5 -2q-7 5 -18 4q-23 -2 -18 -2l-9 4l-8 17q-16 -4 -16 -7q-5 -5 -20 -12l3 10l17 3q-5 20 -35 38l47 30 l-38 15l16 17l-25 27l-7 -22h-1h-1l-7 6l-9 -7v15l-8 7q-35 -17 -86 -16l-4 -4q-5 4 -30 11l5 6l-1 4q6 10 2 34l4 9l18 7l-6 17l-6 -2l-7 8l-1 12h11l-1 -5l4 -13q21 8 38 33l32 -45l16 35l17 -14l29 23l-6 9q6 11 16 35l-11 11q9 8 22 26q-3 5 -18 15l15 7q7 0 19 -6.5 t31 -4.5q6 -19 11 -50q7 -49 8 -51q19 6 27 14q12 -5 35 -15l12 10q8 -7 27 -21q5 3 16 18zM91 408l-10 -6l-3 5l10 5zM171 200l-5 -2l-6 9l5 3zM296 280l-8 8q-1 0 -4 -1h-4q-4 -3 -14 -12q3 -2 5 -4h17zM278 237h-5.5h-3.5q-1 1 -2 1q-19 0 -22 -18l21 -8q12 12 12 25z M172 289q0 6 -12 24q-2 -3 -5 -6v-17l9 -8q8 6 8 7zM296 185q-11 9 -20 9q-14 0 -23 -20q5 -5 17 -14q8 1 14 -3q3 5 10 13q1 7 2 15zM161 321q-3 8 -8 8q-6 0 -11 -7q-8 -10 -23 -30q17 1 34 19v13l5 -7zM120 310q0 18 -19 22l-7 -21q12 -12 26 -12q-1 5 -1 7q0 1 1 2v2z M73 299q0 13 -21 22q-5 -5 -14 -16q-1 -7 -4 -13q10 -11 29 -13q10 11 10 20z" />
<glyph unicode="," horiz-adv-x="207" d="M182 6q-3 -9 -14 -20q-5 7 -10 13h-2q-5 -32 -18 -44q-9 -8 -42 -22q-10 6 -21 16q-5 -8 -17 -20l-9 6l-1 6l-4 -1q-11 0 -11 11q0 21 19 33q17 9 35 18l1 7l-3 8l-4 -2q-10 5 -18 21.5t-15 19.5l-9 15l-2 -2q-2 18 -2 24q0 12 4 26q-4 -8 -9 -16l-5 25h17l8 21 q5 0 34 14q3 -7 12 -18l4 2q15 -4 18 -30q4 -3 8 -8l13 6l11 -8v-4q-4 -7 -8 -11h-2q6 -5 14 -5q8 -27 28 -81zM53 77h-1v0h1z" />
<glyph unicode="-" horiz-adv-x="538" d="M519 431q0 -9 -4.5 -13t-15.5 -23v8q0 29 20 28zM472 412q-6 -12 -12 -16l-15 3q-2 -5 -1 -20l-11 -1l-17 16l3 6l-5 8l-4 -11l6 -17q-33 -11 -129 -23l-9 9q-7 -3 -22 -9l-10 8l-17 -9l-6 9q-12 -8 -15 -18l-7 -22l-17 -1l-20 16q-33 -13 -65 -13q-36 0 -80 16 q24 9 24 20q0 2 -1 10t-1 14q0 17 18 22q-6 15 -6 21q0 1 9 44l5 -45q15 5 33 30l-1 3l10 5l27 -38l13 30l24 -18l32 25l5 -10l36 15q0 -15 10 -25h2q18 12 33 18l4 -10q6 5 19 13q11 -6 35 -14l9 11q5 -2 30 -23q7 7 5 19l22 -7q9 -11 9 -21l-5 -15q15 0 22 6l-7 24 q20 -5 24 -9.5t14 -25.5zM129 373v1h-1zM80 357q0 5 -8 9q-9 -11 -9 -12q3 -2 11 -6q6 5 6 9z" />
<glyph unicode="." horiz-adv-x="207" d="M167 109q4 -17 4 -25q0 -5 -1 -23l-2 1l-8 -14q-9 -3 -17 -19.5t-19 -21.5l-12 8q-12 -6 -33 -15l3 -1l-20 -9l-13 2q-4 -4 -9 -14q-14 12 -14 20q0 5 12 39q11 31 15 41q8 0 14 5h-3q-4 3 -8 10v4q0 8 18 8l6 -6q4 5 8 7q3 27 18 30l5 -1q3 2 11 17q28 -13 34 -13l8 -21 h17zM155 68h-1l-1 -1zM79 97h-1h1v0z" />
<glyph unicode="/" horiz-adv-x="598" d="M596 722q-56 -100 -167 -246q-145 -191 -178 -240q-51 -80 -159 -238l-18 -6l1 24l-17 -24l-21 12l2 19l-33 -5l-4 9l19 26l-2 2l10 7h2q21 64 71 112v11l33 21h-10l-9 8q4 22 23 45t40 33q-2 24 15 58l32 54l12 4l10 -8l14 27l-11 7q17 58 167 206l-3 26q23 21 63 69 l11 -24l6 2l28 29l23 -16l39 22zM186 265l-1 2q-18 -10 -25 -26l2 -8q10 12 24 32z" />
<glyph unicode="0" horiz-adv-x="599" d="M578 467h-15v30h15v-30zM582 288q0 -32 -21 -94q-23 -66 -44 -85h-29v-2l-5 -20l-26 -20l-19 4q-7 -4 -31 -25q-20 -17 -32 -17l-20 2l4 14q-5 11 -26 23l15 -34l-10 -20l-16 9l-30 -7l-12 14l-13 -21l-19 -3q-8 0 -24 15l-22 22l-32 -16l-31 17l-12 -4q-19 8 -39 15 q-23 9 -32 24q-40 18 -40 96q0 20 18 112l10 -8l1 1l-13 15q0 23 25 47q30 31 36 42l-6 18q12 7 49 7l17 4l-5 3l-36 -5q5 24 32 66l18 -6q12 7 35 42t24 47l35 4l6 10l-1 11q37 13 67 17l6 -13l-9 -19l6 -1l14 4q10 69 41 69l21 -5q5 -16 43 -27.5t39 -31.5l2 4l14 6 q8 -8 14 -26.5t12 -24.5l16 4l-11 -33q0 -10 12 -29q14 -23 16 -29q-8 -16 -21 -50q9 -16 27 -21l3 -15l-15 -10l9 -11l-10 -19q25 -21 25 -36zM447 410q0 72 -29 123q-15 -7 -85 -39l3 -14q0 -15 -22 -31q-25 -18 -29 -31q-8 -28 -11 -33q-5 -9 -26 -26.5t-24 -25.5 q-4 -17 -8 -35t-43 -33l2 -1l6 -19l-8 -12l13 -20q-1 -12 -23 -29q-1 -26 -16 -43l-15 14l-3 -2q1 -16 38.5 -24t43.5 -26q119 40 177.5 113.5t58.5 193.5zM168 225q-5 -10 -5 -29z" />
<glyph unicode="1" horiz-adv-x="259" d="M223 723q0 -116 -30 -303q-11 -73 -18 -203q-8 -144 -15 -203l-15 -8q-7 12 -17 25l-4 -25q-30 11 -40 36l-39 -5l-5 13l6 19l-10 17h7q2 26 3 52q2 30 -3 51l13 20l-9 17q16 11 26 27l-26 3l-7 14q0 24 6 71l16 9q-9 18 -25 54q10 20 3 76l12 7l16 -9q0 11 -3 32l-19 7 l-8 29q0 26 25 60v12q7 0 10 2t5 3q-5 14 -21 28q2 8 17 40q10 22 9 44l29 -29q10 3 18 37q23 -13 39 -19h1l28 24zM125 519q-1 4 -12 14l-11 -14h23zM89 318l-4 6q-16 -24 -16 -25q0 -6 14 -22q4 15 6 41z" />
<glyph unicode="2" horiz-adv-x="579" d="M564 75q-14 -44 -81 -44q-11 0 -31 1t-28 1q-59 0 -170.5 -33.5t-169.5 -33.5l-4 8l-30 -14l-23 15l3 11l-16 28q19 29 56 61q33 27 65 54v2l112 142q67 90 74 159q20 21 20 47q0 6 -1.5 21t-1.5 24q0 23 17 40l-23 20l5 10q-21 17 -40 24q-12 -7 -38 -43 q-22 -32 -40 -35l-27 -55l4 -20q-66 -21 -87 -21l-24 3q-15 9 -42 33q17 64 76 101q4 16 31 33.5t34 32.5q85 30 106 30q2 0 99 -12q1 -13 18 -21q14 -6 27 -13l19 8q8 -15 10 -21q1 -4 -1 -12q-2 -11 -2 -22l5 -17l8 -3l7 8l22 2l9 -23l-8 -41l-17 -14l-9 4l-1 -1l14 -35 l-32 4q9 -41 9 -55l-5 -29l-14 1l-20 -5q27 -4 34 -28q-9 -7 -31 -14t-31 -15l2 -15l-10 -6q11 -6 25 -22q0 -12 -17 -20q-13 -5 -27 -10l10 -23q0 -19 -30 -47l-30 -7l-10 -11l2 -15l-16 -5l11 -13l-13 -34l1 -4q25 6 77 14v3q0 14 80 45q77 29 100 29l-6 -18q0 5 10 -41 q-11 -23 -41 -16q20 -9 26 -13q14 -8 20 -19z" />
<glyph unicode="3" horiz-adv-x="523" d="M513 554l-10 -33l-6 3l-13 -25l1 -11q0 -17 -11.5 -34t-22.5 -32l-14 3l1 -19l-5 -18l-12 -5q-15 -22 -42 -49q14 -6 22 -28q9 -26 17 -33q-9 17 -9 40v7q47 -29 65 -70q14 -34 14 -94l-4 -4l4 -10l-12 -38q-10 -19 -32 -19l-2 8q-10 -15 -19 -30q-12 -16 -25 -24l-16 7 l-19 -26q-11 -4 -48 -9l-9 -9q-15 2 -39 -1q-30 -3 -39 -3l-20 9l-19 -14h-11l-8 13q-62 15 -73 47l-16 84l14 19l17 -23l9 35q22 -18 33 -31l1 36l22 -15q3 -8 3 -49q0 -15 22 -28.5t39 -13.5q52 0 85.5 35t33.5 87q0 26 -11 46q-13 24 -37 24q-10 0 -26.5 -9t-26.5 -9 l-13 1l-7 10q-6 -5 -29 -28l-13 18l-21 4l-7 22l9 31q60 26 93 75q18 0 31.5 28.5t29.5 30.5q16 37 31 74q16 43 16 77q0 35 -20 61q-10 -4 -25 -2q-23 3 -26 3q-44 0 -105 -31q-79 -42 -99 -48q-5 -9 -17 -18.5t-22 -9.5l-19 5q-13 18 -35 56l13 22q25 4 101 41 q64 32 100 28l1 1v15h26l-5 -19q28 19 65 19q34 0 67 -16l15 8q16 -12 49 -30l-2 -13q21 -17 33 -30l-18 -15l24 -24l16 64q1 -11 10 -48q7 -30 7 -49zM158 269l-2 -6q1 -1 -15 -16v34q6 -2 11.5 -4.5t5.5 -7.5z" />
<glyph unicode="4" horiz-adv-x="604" d="M587 456l-36 -46q-16 17 -33 28q-16 -8 -47 -21q-4 -10 -4 -22q0 -10 3.5 -30t3.5 -30q0 -16 -13 -35q-18 -25 -21 -31l3 -12q9 19 20 37q0 12 -4 -211l-15 -7q-5 -14 7 -39l-14 -19l-23 -6l-7 13l1 1q-14 -21 -33 -21q-6 8 -13 17.5t-15 9.5l-6 -20l-15 -9h-16 q-9 40 -9 66q0 111 36 313l-13 3q-30 -13 -89 -26q-62 -14 -89 -24l-24 12l-27 -12q-11 0 -59 18l-19 44l4 16q25 10 25 25q0 3 -1 5l18 34l6 -14q7 48 76 115q7 30 29 72q32 63 36 70l27 -12l30 4l18 -6l5 -14l12 15l22 -12l8 -15q-6 -25 -21 -58q-14 -28 -27 -56l-17 6 q-14 -87 -63 -119l1 -15h2q12 0 30 6q23 8 30 9q15 13 48.5 18t46.5 13q1 28 10.5 85.5t9.5 86.5l25 15l13 -5l4 -9l25 -1q7 -9 30 -23t29 -27l-13 -30l8 -29l-6 -13l-13 -3l4 -24l6 -4l18 3l6 6l26 -13l16 15z" />
<glyph unicode="5" horiz-adv-x="611" d="M560 694q-14 -1 -18 -1q-6 0 -12 8l12 22q9 -13 18 -12v-17zM586 677l-8 -31h-17l-8 5l-25 -8l-7 3q-60 -25 -317 -27l-1 -1q3 -51 3 -54q0 -41 -23 -64l6 -33l-13 -25l7 -17l-12 -38l11 -8q17 7 47 28l16 -6l37 19l12 -6l15 16l32 -12l17 9l28 -24l18 8q11 -18 40 -47 q4 -14 10 -63q4 -39 15 -62l-5 -19h-16l3 -22l-3 -23l-13 1l-4 -1q-2 -14 -4 -42q-8 -8 -33 -26q-21 -16 -29 -30q-11 -3 -41 -25l3 -8l-5 -15l-15 -12q-16 -1 -101 -16l-6 20l-5 4l-16 -24l-21 11l-26 -4q-38 21 -38 46q0 7 3 15l-6 4h-15q4 24 16 61q-11 14 -16 44 q31 -18 44 -28q26 -21 26 -41l-5 -8q8 -3 35 -17q21 -11 37 -11q22 0 45 31.5t40 35.5q3 20 22 64q18 40 18 65q0 64 -53 80l-10 -3q-8 -12 -38 -22.5t-35 -27.5q-24 -11 -44 -23l-12 4q-10 -9 -61 -35q-16 5 -40 29l-21 -10q5 18 5 48q0 40 1 49l10 12l-11 66l23 -51l9 8 l-10 5l-6 38l21 1v40l5 3l-6 28q18 10 18 30q0 6 -2.5 19.5t-2.5 20.5l6 21q19 9 31 35q13 -10 31 -19l2 7l-24 14l28 66l3 -47q13 3 5 15l5 22l24 -5l12 8q26 0 77.5 3.5t77.5 3.5l14 -11l18 17l19 -3l1 -4l21 10l12 -18l29 12l15 -7l27 9l5 -14l20 -3l16 -14l22 22z M78 119l-12 -1q-1 3 -4 9.5t-3 10.5q0 6 6 13h13v-32zM446 229q0 5 -2 10q-1 -2 -4 -3l6 -10v3z" />
<glyph unicode="6" horiz-adv-x="550" d="M537 202l-20 -38l4 -16q-14 1 -24 -12t-19 -24l-13 4q-14 -11 -28 -21q-18 -14 -15 -28q-26 -20 -57 -30l-6 15q-25 -16 -60 -21q-9 -1 -65 -4l-4 -15l-24 11l-13 -12q-17 0 -46 10.5t-54 7.5l-3 26l-8 -10h-9l-21 36v7l-12 -12l-27 32q4 14 4 48q0 30 9 49l9 -16 q-8 22 -8 39q0 29 17 75q18 50 38 64l44 96l13 -2l-2 -3l10 -8q39 78 49 121l16 12l13 -5q6 5 13 22q6 14 16 20l11 -4l4 30l19 12q17 0 35 22q23 30 28 34l15 -10l11 5l12 22l15 -13l3 -12l22 -6l27 26l6 -25l12 13l-6 -53q-15 -3 -32.5 -13t-33.5 -20q-11 -19 -34 -48 q-28 -34 -37 -47q-11 -5 -18.5 -20t-13.5 -28l-12 7l-4 -32q-4 -19 -16 -27l-18 4q-9 -16 -23 -83q-10 -45 -49 -75l-5 -20l13 -14q-15 -6 -28 -21l12 -3q11 18 35 51l17 -5q19 0 45 21h19q51 0 82 15q8 -9 43 -9l19 -5l7 -10h4l25 -7l6 -21l12 -2l12 16q38 -26 42 -63z M383 193q-4 9 -22 9q-9 11 -28 10q-26 0 -31 1q-21 -18 -47 -20q-2 -21 -30 -38q-9 7 -14 7q-1 0 -11.5 -20.5t-23.5 -16.5q5 -26 60 -49q16 6 47 25l4 -3q23 15 96 95zM63 114l-13 10l-1 -2l7 -25q3 5 7 17z" />
<glyph unicode="7" horiz-adv-x="488" d="M469 649q-17 0 -25 -21q-8 -24 -21 -27l5 -26q0 -18 -10 -61h-15l-7 -4v-25l-17 -13l3 -9q-12 -51 -24 -103q-17 -61 -42 -95l2 -18q0 -45 -28 -131q-33 -99 -65 -105q-14 13 -30 19l-18 -25q-15 17 -27 47l-20 -20l-7 17l-9 -3l-8 2l-7 22q0 84 49 186q48 87 95 174 q53 103 60 183l-17 6l-15 -3q-89 0 -132 7q-73 11 -120 49q13 20 28 35l12 -4q28 0 59 21l23 -11l25 1l14 -7l27 15q11 -7 33 -19l23 12l25 -8l16 7q8 -9 25 -9h11q8 1 11 1q13 0 17 -7l15 20q10 -15 31 -29h2l14 13l18 -24l8 8l13 -20v-18z" />
<glyph unicode="8" horiz-adv-x="615" d="M606 668v-10l-25 -4v-7q0 -13 5.5 -39.5t5.5 -40.5q0 -30 -18 -50q-18 1 -23 -25q-9 -42 -60 -87q-53 -48 -64 -81l-16 -12l-5 -14q0 -12 5 -29q7 -23 8 -29h3l5 7l-4 22l18 23l15 -43q0 -24 -13 -49l3 -3l11 35h14v-62q0 -32 19 -47l-3 -38l-30 38l-16 -19l-15 8 q-18 -12 -16 -56l-14 -2l-24 16l-8 33l-1 -1l-2 -10q0 -10 12 -26t12 -27l-3 -20l-15 18l-9 2q-4 0 -18 -2q-10 -2 -18 0q-13 -13 -36 -13q-7 0 -21 1.5t-21 1.5l-15 -3l-22 -25q-1 19 -7 37l-25 -15q-13 0 -27.5 9.5t-28.5 18.5l-10 -4l-5 26q-18 -13 -31 -55l-4 36 q0 17 13 37l24 32l17 -21l4 -1l6 12l-3 4l-11 -9l-22 33l16 31l-3 22l10 30l19 -12l6 -15l-2 -3l7 9q-4 24 10.5 53.5t37.5 37.5l3 -20l11 33q-19 7 -39 14q-23 10 -28 27l-6 -1q-22 0 -46 25q-31 35 -38 39l2 10q0 18 -24 43.5t-24 42.5q0 22 19 49q-5 19 -14 40 q16 7 35 26v19l15 7q16 -22 33 -21h4l-16 16q31 1 48 19l23 -11q5 2 28 14q17 9 30 9l19 -4l6 -11l11 5l37 -10l19 9q5 -15 34 -21q25 -6 26 -29l16 -11l7 1l8 -11q32 27 45 106l18 13l8 41l13 -28l-2 -13l3 -1q11 16 29 26l10 -2q6 -17 48 -25q38 -7 37 -39zM453 68h-31 l16 28q15 -15 15 -23v-5zM493 674q-1 1 -4 3v-7q3 2 4 4zM547 584q-2 4 -4 12q-1 -2 -1 -5v-3q2 -3 5 -4zM392 515q-10 25 -15 32q-10 13 -32 13q-8 15 -34 17q-30 1 -39 8q-77 -16 -130 -68q19 -32 16 -40l6 1q21 0 26 -29q5 -33 18 -38q4 15 16 29q1 0 20 -30 q15 -22 22 -22q5 0 16 25q13 29 15 32q7 -3 22 -9l-2 8h7q6 0 12 5q0 4 -2.5 12t-2.5 12q0 38 61 42zM115 609q-5 7 -11 13l-2 -10q0 -1 3 -8zM439 154q-3 3 -14 9q1 -2 14 -9zM311 179q0 16 -3 32l-1 -2q-11 -5 -23.5 -27.5t-25.5 -27.5q-18 -25 -33 -48q1 -9 17 -9t62 35 q7 23 7 47z" />
<glyph unicode="9" horiz-adv-x="477" d="M468 590l-13 -18l-10 9l-2 -3v-13q0 -11 7 -32t8 -32l-10 2l-9 -7l-8 -37l-23 32l-1 -5q0 -12 10 -33t10 -31q0 -23 -12 -55q-10 -26 -20 -53v22q0 34 -10 51l-8 -5l14 -16q0 -23 -19 -78q-17 -51 -14 -75q-8 -13 -33 -80q-3 25 -12 51l-15 -28l8 -12l-9 -10q6 -20 6 -34 q0 -16 -12 -37.5t-12 -42.5l-24 -12q2 -2 -2.5 -15.5t-4.5 -15.5q0 -17 14 -51l-40 52l-4 -8l-18 -7l-16 23l-10 -7q-20 -2 -26 -4q-14 -3 -24 -9l-19 39q0 44 23 56l-3 14q4 10 23 34q16 19 16 35q0 5 -1 10q92 193 128 312l-10 3q-15 -4 -59 -29q-33 -18 -63 -18 q-5 0 -41 3l-14 11l-11 1l-10 8l-10 -3q-14 10 -44 28q0 24 -8 60q-12 56 -12 60l9 -14v19l20 -9l-16 -16l6 -9q13 29 26 57q16 34 35 52q2 29 40 46q30 14 64 14q40 0 151 -34h3q20 0 57 -29l6 -29h7q15 0 42 -17zM394 418q-4 8 -4 16q-3 -1 -3 -6q0 -3 7 -10zM326 610 q0 16 -5 34q-7 24 -19 24q-2 0 -21 -2q-13 -2 -22 1q-9 -7 -37 -6q-2 -3 -20 -14q-14 -8 -14 -18q-8 -7 -21 -41q-11 -29 -29 -33q3 -6 3 -13q0 -13 -11 -35q17 -1 44 -14h4q3 35 16 35q7 0 16 -4q3 17 26 29q31 16 36 22l9 -19q5 4 5 20q15 18 38 22q2 5 2 12zM248 49v8 q-1 -2 -1 -4v-1q0 -2 1 -3v0z" />
<glyph unicode=":" horiz-adv-x="196" d="M162 378l-10 2l1 -5v-21q-11 0 -15 -11t-7 -21l-12 11q-3 -6 -7 -19l7 -10l-12 -11q-4 2 -13 5q-2 -3 -24 -30q-15 -18 -31 -23q-15 30 -15 48q0 68 39 87q7 -2 12 -7v7q11 0 28.5 9.5t26.5 9.5t14 -4v28zM178 110l-11 -3q-4 9 -8 14q5 -15 5 -28q0 -5 -2 -18h1l-1 -1v-5 l-2 1l-9 -14q-8 -3 -15.5 -20.5t-19.5 -23.5l-12 10q-12 -7 -33 -16l4 -2l-22 -9l-12 3q-3 -4 -9 -15q-14 13 -14 21q0 1 12.5 39.5t14.5 43.5q7 0 13 5h-2q-5 5 -8 9v4q0 1 2 4h-1q2 6 12 6h6l5 -6q4 5 8 8q3 28 20 31l3 -2q4 6 13 18q29 -14 32 -14l8 -22h17zM146 76v1 l-1 -2z" />
<glyph unicode=";" horiz-adv-x="200" d="M176 374l-9 2v-5v-21q-11 0 -15 -11t-7 -21l-11 11q-4 -6 -8 -19l7 -10l-11 -11q-5 2 -14 5q-2 -3 -24 -30q-15 -18 -31 -24q-14 31 -14 49q0 68 39 87q6 -1 11 -7v7q11 0 28.5 9.5t26.5 9.5t15 -4l-1 28zM180 -1q0 -9 -14 -21q-3 6 -10 15q-2 -44 -61 -69l-20 16 q-5 -8 -18 -21l-9 7v6l-4 -1q-13 0 -13 13q0 19 18.5 30t35.5 21l1 8l-2 7l-3 -2q-11 5 -19 22.5t-15 20.5l-9 14l-2 -1l-1 5v1v0q-1 13 -1 19q0 12 5 28q-4 -6 -8 -15l-11 4l5 18h16l9 22q3 0 32 13q4 -6 13 -17l3 1q17 -3 20 -31q4 -3 8 -8q6 6 12 6q12 0 12 -14 q-4 -4 -8 -9h-2q5 -5 13 -5q2 -5 14.5 -43.5t12.5 -39.5zM53 71l-1 1l-1 -1h2z" />
<glyph unicode="&#x3c;" horiz-adv-x="521" d="M285 561l-28 -41q-7 -10 -17 -10q-11 0 -29 12q11 16 28 21q2 0 46 18zM492 172q-18 4 -25 4l-4 -1q-4 -3 -16 -24q-9 -15 -23 -15q-4 0 -9 1q-4 -19 -41 -55l23 41l-12 1q-26 1 -49 -13l-3 53l-30 -19l-11 28l-44 -2l2 10l-40 8l3 23q1 6 -4 8q-8 -1 -26 0h-12l2 12 l-17 -1l-8 1q-8 11 -25 32l-16 -3q-2 2 -13 36l-16 -12q-19 18 -18 31l-10 4l-1 -3q-20 21 -20 36l5 15l15 10l-1 1q15 10 28 2l3 3l9 -3l-10 10q26 22 121 72l13 -5l19 17l13 -4l23 26l-1 -16l2 -1q16 25 6 49l16 7l28 -7q59 52 149 54q-14 -12 -20 -21q1 -6 8.5 -18.5 t7.5 -20.5l-11 -21q14 -14 24 -64l-23 42q-23 -23 -24 -55l-46 28l-2 -35l-30 8l-23 -36l-8 8l-29 -27q-10 10 -23 18l-4 -1l-14 -19q15 -34 15 -39q0 -11 -23 -20l-4 14q0 9 5 23q6 19 7 21l-9 -10l-9 9l-14 -21h-29h-13l-2 -3l62 -30l3 -12l26 -5l4 -13l35 -3l-14 -8l1 -3 q30 2 44 24l16 -9l10 -26q78 -17 131 -86zM427 558q-1 1 -4 1h-5q-9 0 -9 -9t10 -10q2 8 8 18zM368 507v3h-2q1 -2 2 -3zM448 189q0 2 -3.5 7t-5.5 5q-13 0 -13 -10q0 -3 2 -6q10 -1 20 4zM373 208v2l-2 -4zM78 338q-4 2 -7 4q-2 -2 -3 -4l4 -4z" />
<glyph unicode="=" horiz-adv-x="538" d="M519 421q0 -10 -8 -16l1 1h-11l1 -2q-3 2 -3 6q0 11 20 11zM519 274q0 -9 -8 -16l1 2h-11l1 -2l-3 2q0 14 20 14zM472 403q0 -9 -12 -18l-15 3l-1 -17l-6 -5q-14 3 -22 16l3 7l-5 7l-4 -11l6 -17q-28 -11 -127 -24l-9 9q-8 -3 -22 -8l-9 7l-18 -9l-6 8q-11 -8 -14.5 -19 t-7.5 -22l-17 -2l-21 19q-52 -21 -102 -11l5 -44q19 9 33 30l-2 4l10 5l28 -38l14 30l22 -19l32 26l5 -11l36 17q0 -15 10 -26l3 -1q10 7 32 19l4 -11q6 6 19 15q11 -7 35 -18l9 12q3 -1 31 -21l4 17l22 -4q13 -13 4 -39q15 0 22 6l-7 25q20 -5 24.5 -10t13.5 -26l-12 -17 l-15 4l-1 -16l-6 -6l10 -1q-26 2 -33 21l5 2l-6 8l-4 -11l6 -17q-25 -9 -63 -15q-32 -4 -64 -9l-10 9q-7 -3 -21 -7l-9 7l-18 -10l-6 9q-12 -8 -15 -19q-7 -22 -7 -23l-17 -1l-21 17q-35 -13 -66 -13q-34 0 -80 17q21 9 23 17q-1 -4 -1 29q0 17 19 22q-6 15 -6 22q0 1 9 43 q-20 4 -44 14q21 8 23 17q-1 -5 -1 28q0 16 19 23q-6 15 -6 21q0 1 9 52l5 -53q19 9 33 31l-2 3l10 6l28 -39l14 30l22 -18l32 25l5 -10l36 16q0 -15 10 -26l3 -1q10 7 32 19l4 -10q6 5 19 14q11 -6 35 -16l9 11q6 -2 31 -21q4 6 14 17q20 -7 20 -23q0 -8 -4 -21q16 0 22 6 l-7 27q35 -11 37 -34zM80 344q0 5 -7 8q-5 -5 -10 -11q2 -1 6 -2l6 -4q5 5 5 9zM80 198q0 4 -7 8q-5 -6 -10 -11q3 -3 12 -7q5 6 5 10z" />
<glyph unicode="&#x3e;" horiz-adv-x="505" d="M303 514q-19 -12 -30 -12q-10 0 -17 10l-28 41q21 -8 41 -15q23 -10 34 -24zM484 345q0 -15 -20 -36v3l-11 -4v-2q1 -12 -18 -29l-16 12q-3 -13 -13 -36l-16 3q-8 -11 -25 -33l-25 1l2 -12h-25l-13 -1l-4 -3q-1 -14 3 -28l-40 -7l2 -11l-44 3l-11 -28l-30 18l-3 -53 q-23 15 -48 14l-13 -1l23 -41q-13 12 -25 25t-16 30l-10 -1q-13 0 -23 15q-8 12 -15 24q-10 1 -29 -3q53 69 131 86l10 26l16 8q14 -22 44 -23l1 3l-14 7l35 4l4 13l26 4l3 13l62 30l-2 3q-9 -1 -26 -1l-16 1l-14 20l-9 -9l-9 11q11 -48 11 -44l-3 -14q-23 9 -23 20 q0 4 15 39l-14 18l-4 2q-13 -8 -23 -18l-29 27l-8 -8l-23 36l-30 -8l-2 35l-46 -28q-1 31 -24 55l-23 -42l8 34t16 30l-11 20q6 13 16 40q-5 8 -20 20q90 -1 149 -53l28 7l16 -8l-3 -23l9 -25l2 1l-1 16l23 -27l13 5l19 -18l13 6q31 -17 62 -33q36 -20 59 -40l-9 -10l8 4 l3 -3l12 5l16 -7l-1 -2q20 -11 20 -24zM445 330q-1 2 -3 4q-2 -2 -7 -5q4 -1 6 -3zM147 502l-2 -1v-2q1 1 2 3zM104 542q0 9 -9 9h-5q-3 0 -4 -1q3 -6 8 -18q10 1 10 10zM142 198q-1 2 -2 3v-2zM87 183q0 10 -13 10q-1 0 -5 -5t-4 -7v0q6 -1 20 -5q2 4 2 7z" />
<glyph unicode="?" horiz-adv-x="343" d="M335 532l-10 -28l-12 3v-1l4 -6h14l1 -2l1 2q2 0 2 -4q-1 -6 -1 -7l-1 -2v-22h-22l5 8l-7 -1l-7 -17l10 -13l-8 -17l5 -6q-3 -14 -20 -25q-26 -16 -28 -18l-6 2l8 -10q-7 -27 -26 -34l-8 5l-4 -1l-7 -17l2 -5h-4q-10 -21 -24 -22l-6 -5l-7 3l-8 -5l4 -10l-16 -11l1 -13 q-8 -3 -21 -22q1 -17 26 -36q20 -15 39 -30l-15 -23h-5q-10 0 -29 11t-31 8q-10 3 -27 13q-21 3 -71 52q2 13 11 38l11 -4q10 5 21 19v1l-11 -9l-51 -6q35 17 39 30q8 22 17 32q11 0 34 8l-3 8q6 10 6 26h9q10 22 23 28l6 -4q32 50 34 90l12 -22l1 17l13 13v12l14 -6 q5 16 16 29l-5 15l8 14l9 -2l9 12h-23l5 8l-9 8l-10 -7l-6 11l-9 -10l-7 3l-2 -20l-19 11q-10 -7 -31 -18l-8 4l-7 -11q-33 15 -55 48l-12 -11v26l6 16l14 -5l34 13q18 26 64 26q50 0 76.5 -11.5t58.5 -48.5l8 1q1 -7 11 -32q7 -21 7 -34zM155 232l-11 -2l-1 5l11 2zM200 17 q-10 0 -12 -3q-3 -6 -5 -11q-12 0 -32 12t-32 12q-11 0 -24 -14q-8 11 -8 16t11 18l-5 -2h-20q3 9 3 12q-10 3 -10 10q0 9 34 22l9 -10v-4q12 2 24 2q19 0 35 -8q21 -9 21 -26q0 -3 -2 -6zM256 576l-16 4l-1 2h-1q6 -7 12 -17q2 4 6 11zM254 379l-3 1l-3 -6zM180 403v3l-1 1 l-3 -10zM121 361l-4 2l2 -2h2zM149 290v2v-1q-1 0 -1 -2z" />
<glyph unicode="@" horiz-adv-x="996" d="M936 261l-13 10l-42 -39l-40 59l-49 9q6 7 7.5 19.5t6.5 19.5q0 10 -4 57l-12 6q3 22 -17.5 58t-20.5 54q0 6 1 12l-14 -4l-51 59l31 105q17 -19 53 -55l2 -18l30 11q-2 -8 -2 -17q0 -37 41 -69q-2 -31 1 -53q15 -5 38 -19l-1 -15q32 -47 32 -57q0 -2 -4 -37h9 q14 22 19 22q3 0 3 -8q0 -6 -3 -26.5t-2 -27.5l-18 -2zM368 766q-1 -22 -12 -22h-25q5 4 12 13.5t17 9.5l1 -1h7zM737 169l-11 1q-17 -6 -39 -27q-8 10 -8 23q0 6 2 11l-5 5q-10 -14 -36 -38q-5 10 -18 27q-12 -14 -30 -24l-10 9l-26 -16q-9 8 -35 13l-12 -10q-23 0 -84 11 q-9 20 -32 15l-39 28h-1l-7 -8q-36 19 -36 75q0 20 12 37l14 -8l24 17l8 -2q8 0 19 12q8 9 17 17q14 -4 31 -16v1l-6 13l17 16l16 -2l9 16l17 -12q3 12 19 28t20 25h5q-10 21 -10 34l8 25q-5 5 -4.5 22t-6.5 20q-11 -7 -36 -19l-5 1l-12 -23l-18 -10l-6 1q-32 -22 -39 -29 q-20 -18 -25 -40l-24 -17l4 27h-1l-6 -6l-18 18v-27q-11 21 -12 33q0 -9 0 33l-2 6l-15 4q1 26 23 42l13 -9q14 13 35 43l18 11l6 -14q1 0 30 38t58 45q5 -12 7 -28l3 -1l1 4l-12 44l23 -8q10 9 29 28q10 -9 31 -24q6 -15 14 -20l-13 31h18v-34q20 -6 19 -49h19v-26l-19 23 v-13q0 -11 5 -28l6 2q23 -10 21 -31l-1 -15l-8 2l-1 -1q-8 -10 -23 -30l6 -5l17 2h7q13 -15 21 -31q-2 -10 -2 -43q0 -91 21 -115h1q8 14 7 38l29 -40l11 20zM875 128q0 -26 -22 -62q-27 -43 -32 -59l-37 9l12 10l-7 5l-29 -17l6 -21l-33 2l-9 8l-31 -18l-12 4l-8 -26 l-43 26l-34 -21q-29 6 -88 11l-16 15l-20 -32q-21 51 -99 51q-22 29 -41 46q-17 -6 -49 -10l-11 14q-17 6 -43 20q-18 10 -35 10q-14 0 -34 -4l14 33l-9 12v-15h-18v26h10l-19 29l-8 -7l3 -23l-7 -22q-11 10 -21.5 35t-19.5 35l15 14l-32 5q-1 6 -1 13q0 9 4 26.5t4 26.5 l-3 14l-17 17l6 15l-2 14l-17 20l5 29q-10 -9 -30 -52l-8 35l25 50l-1 7l12 8l10 44l23 18l1 8l-6 5l-32 -7q19 25 55 76l-6 24h22l2 -33l15 -16q21 26 21 38q0 9 -8 30l5 15l14 -4l-2 -6q8 -21 30 -35q21 19 28 48l-28 25l24 4l24 -17l20 23l2 -3l2 3l-4 24l25 24l5 -48 l3 3l6 20l37 4l5 6l-4 15l44 28l11 -17h1l5 27l7 -2l11 9v10l40 -14l29 43l9 -36l8 4l33 -9h3q30 46 60 44l18 -15l2 -17l9 9l54 -23q-9 -27 -19 -45l18 2l9 -19l-34 -25h-17l-11 13l-21 -13q-16 7 -31 13q-19 8 -33 8q-87 0 -186 -68q-108 -74 -108 -155l-20 3 q-15 -9 -15 -32q0 -8 2 -21.5t2 -18.5q0 -14 -8 -41t-8 -41q0 -11 10.5 -28.5t10.5 -27.5q27 -33 86 -94l15 3q13 -23 63.5 -42t62.5 -44l11 14q41 -11 82 -21q48 -13 78 -29q27 24 69 24q3 0 8 -1h8q30 0 43 15q19 21 25 84q-23 13 -23 22q0 2 1 6.5t1 6.5q0 5 -10 11 q7 7 16 10v1l12 2q1 -4 1 -7q0 -5 -3.5 -14t-3.5 -14t10 -21l19 -10q30 38 51 60q34 -72 34 -101zM69 274l-7 -7q-8 0 -18 13t-13 23zM62 242l-15 4l-3 13l12 -1zM829 140l-1 1q-6 -4 -6 -10q0 -1 1 -2q2 3 6 11zM543 372q0 7 -2 14q-5 -10 -14 -29l9 -6q7 11 7 21zM590 251 q-10 4 -14 14l-5 -7h-9q-5 6 -5 10q0 9 15 12h1q0 2 -1 17q-11 -6 -35.5 -8.5t-35.5 -6.5q-3 -2 -10 -41q12 -2 20 -12q5 0 16 13.5t26 13.5l3 -6l11 6q2 -5 5 -14q5 1 10.5 2t7.5 7zM480 242v2q0 7 -4 7h-4h-5q-10 0 -16 9h-2q-3 0 -10 -4q3 -15 17 -15h8q2 0 8 1h8z M345 252h-1l-1 -3q2 1 2 3z" />
<glyph unicode="A" d="M422 393q0 -17 -13 -23l-7 40q6 -6 20 -17zM597 -11l-26 -35l-14 34l-15 -24l-15 -4q-13 6 -28 23.5t-11 30.5q-6 15 -15 46q-10 8 -19.5 30.5t-19.5 30.5q0 21 -14 44q-1 1 -28 37h-5l-20 11q-17 -3 -49 -3q-35 1 -50 -1l-5 13q-23 -9 -32 -46q-5 -29 -9 -59l-26 51 l-7 -31l19 -30q-15 -42 -18 -47q-11 -26 -26 -43l-15 14l-28 -14l-12 7l-7 -10h-15v3l-8 -3q-18 19 -23 45l8 4l-17 26l11 27l19 11l10 -4l5 7l-14 33q5 23 9 45q7 27 24 35l-15 25l5 12l-19 29l2 13q18 5 47 31v16l25 -5l6 5l4 17q0 13 -9 33q-7 15 -14 31l19 -3l-4 12 l6 11l10 6l-21 13v10q0 8 8 22t16 13q5 33 1 59l19 3l10 -13l2 4q0 45 -3 58l-2 3l-23 -7q12 21 25 42q17 24 38 30l9 13l34 -6q14 -17 48 -11l-7 -19l14 -7q11 -41 -4 -72l2 -4l15 -8l16 -27l-3 -21q0 -34 12 -71l3 -3l19 12l-9 -31q0 -8 4 -32q3 -19 1 -31q5 -8 9.5 -26.5 t9.5 -26.5l22 9l2 -19l-16 -26q18 -2 28 -13.5t21 -22.5l16 17q4 -8 23 -32q15 -19 19 -36q-5 2 -41 29l-8 -6l14 -23l-13 -13h-3l14 -15l-7 -18l2 -2l4 8l12 2q7 -35 29 -67l-2 -2q9 -16 18 -33q11 -20 26 -26q8 -21 20 -64zM144 400q0 -4 -5 -14l-8 -4q-8 4 -8 10 q0 1 5 14q1 1 1 20q15 -22 15 -26zM78 186q-6 -9 -28 -10l20 24q8 -8 8 -14zM211 68q0 -27 -12 -41q-10 6 -10 12q0 14 22 29zM70 130l-1 -1v-5h-28l6 26h1v18h14v-23h-3q11 -4 11 -15zM54 57q0 -5 -5 -10t-6 -7q-17 0 -17 12q0 8 8 14q20 0 20 -9zM51 31q0 -14 -10 -14h-11 v20h21v-3v-3zM373 444l-1 11q-6 3 -10 9q4 -18 11 -20zM263 531v7q0 -2 -2 -7v0h2zM206 538l-21 -10l-7 4l-3 -9l5 -2q11 3 15 5q9 5 11 12zM200 497q0 2 -3 5v-5l2 1l1 -1v0zM342 314q0 21 -17 60q-22 52 -25 61q-3 17 -11 35q-12 -13 -12 -24q20 0 20 -23q0 -8 -15 -11 l5 -5q0 -15 -12 -16.5t-13 -4.5q16 -16 16 -19q0 -8 -10 -12q5 -3 11 -15q-10 0 -23 -11q1 -13 10 -20q52 0 74 -11q2 8 2 16zM216 414q0 12 -3 12t-3 -4v-2v-4q2 -2 6 -2v0zM161 336q-4 -5 -6 -13l2 -2q1 5 4 15zM179 242q0 1 -2.5 2t-3.5 2q1 -2 5 -6zM214 166 q-6 20 -18 40l16 15v1l-6 -2l-10 -13q4 -14 4 -19t-2 -12l14 -12zM118 203q0 8 -3 17q-3 -3 -3 -6t6 -11zM144 92q-1 4 -1 9q-2 -5 -2 -7v-2h3z" />
<glyph unicode="B" horiz-adv-x="536" d="M465 638q-10 -7 -16 -7q-9 0 -40 29h29q1 -7 10 -11q13 -6 17 -11zM474 339q0 -10 -17 -10v19h3q9 0 14 -7v-2zM517 558q1 0 -2 -7l-5 -16l-14 -4l5 -9q-10 -5 -22 -14l21 -22q-28 -15 -68 -52l-2 -6l17 -3l-50 -37l-9 19h-2h-1l-9 -12h11l2 -11q-8 -12 -22 -38l11 -17 q4 8 10 41h24q3 -25 17 -73l-2 -16l3 -4l1 26l19 18l33 -14l-20 -15l-3 -27l2 -13l8 -7l16 20l10 -14v-17l-19 4l-12 -21l7 1l12 11v-48l-14 8l6 -14q-17 -11 -19 -37h7q-3 -24 -15 -28l-10 28h8q-7 15 -3 44l-10 8l-11 -17l17 -10q-1 -5 -22 -49l8 -18l-24 -39v-25 q-22 0 -28 21l24 6l4 45l-4 3l-7 -13l-19 -13q-4 -23 -7 -34q-5 -18 -13 -32l-11 19l-9 -17l-8 8l-24 -28l-10 2q-6 -5 -27 -13q-16 -7 -24 -19l-10 14l2 13l-5 4l-32 -22l-5 35v1l-31 -10l-10 14l-24 -18l4 17l-20 22l-5 -5l3 -17l-15 -18q-8 14 -26 42l-6 -14l-19 -8 q-7 51 -7 48l4 13l12 9l-1 8l1 9l-7 12h-17l8 21l6 5q-3 20 -12 59l14 7l7 18l-16 43h17l-8 8l9 17l-15 35l5 9l-9 -11v30l11 6l4 8l-10 18l16 29l-9 13l-24 -7q9 19 27 42l-9 12q0 14 -2 43t-2 43q0 38 24 67q17 8 51 23l18 -11q12 12 28 24l14 -7q16 11 30 26l14 -4l6 6 l15 -6l20 5l33 -9l17 6v-25h2q2 1 32 26l19 -14q33 3 73 10l-52 -26l15 -6l14 5q10 -16 62 -42q44 -21 47 -54h2zM502 557q-21 10 -35 24l-2 -1q7 -15 10 -29l5 4zM339 655v4h-7q1 -3 7 -4zM424 560v9l-2 -10zM260 663l-15 11l-2 -7l5 -5q3 -1 7 -2h3zM370 395q-10 0 -10 5 q0 2 1 3q-3 0 -9 3l-1 -1l8 -17l5 -2zM350 518q1 24 -15 34q-27 16 -31 21l-6 -12q-7 30 -20 30l-11 -9q-17 7 -47 24q-2 -1 -11 -10q-5 -5 -12 -5q-9 0 -33 22q-6 -11 -22 -29l1 -9q0 2 -4 -22q12 13 12 36q16 -16 21 -28q-10 -6 -14 -15q0 -1 11 -19q6 -12 6 -19l-4 -9 q17 -18 10 -60q7 -4 13 -32q5 12 27 13t25 16l12 -3q4 0 16 15.5t29 15.5q0 -9 2 -24q1 -18 1 -24q4 4 11 7q1 2 2 5q0 7 -11 8q-4 14 -4 16q0 12 29 53q4 -7 16 -17zM303 365v30l-6 -30h6zM147 452q-1 2 -2 2q-2 0 -7 -8q5 4 9 6zM225 368q-2 -2 -4 -5q3 2 4 5zM139 431 q-1 3 -4 8v-2q2 -2 4 -6zM226 340v1q0 6 -6 13q1 -8 6 -17v3zM166 386h-1l-4 2q0 -1 -1 -3q1 -1 3 -1h1q2 0 2 2zM362 202q0 16 -10 40q-11 28 -13 39l-13 -1q-11 0 -25 10v9q-5 -4 -17 -12q-15 3 -24 20q-14 -6 -29 -9l-9 12l1 5l-17 -2q-6 -1 -11 -14q-11 14 -16 24l-4 -4 l6 -13q-8 -8 -21 -26q8 -2 29 -1v-16q0 -9 -10 -13q8 -7 8 -16q0 -5 -4 -15t-4 -16q0 -3 4 -9.5t4 -10.5q0 -1 -10 -23q4 -6 13 -11q-5 -4 -16 -14q13 -12 8 -44q11 -3 13 -14.5t4 -21.5q13 -2 18 -2q38 0 61 16q14 10 33 38q22 32 38 46l-1 5q0 8 7 22.5t7 21.5zM88 356v3 h-3l-3 -3h6zM82 355h-1v0h1zM94 239q0 -1 -1 13q-2 -8 -2 -13q0 -3 2 -7q1 4 1 7zM147 185q-1 0 -3 -1v-3zM52 256v6v-19v13zM93 134q0 6 -3 6q-7 -6 -7 -15l1 -1h8q1 4 1 10z" />
<glyph unicode="C" horiz-adv-x="767" d="M321 650q0 -19 -10 -19h-21q4 4 10 12t15 8l1 -1h5zM749 108q0 -22 -18 -52q-23 -37 -27 -51l-31 8l10 9l-6 3l-25 -13l6 -18l-29 1l-7 7l-26 -15l-11 3l-6 -22l-37 22l-28 -18q-25 5 -75 10l-13 13l-17 -28q-18 43 -84 43q-18 25 -34 40q-14 -5 -41 -9l-9 12 q-16 5 -37 17q-15 8 -30 8q-11 0 -29 -3l13 28l-8 11v-13h-15v22h8l-16 24l-7 -6l3 -19l-6 -19q-9 9 -18 30t-17 29l13 12l-27 5q-2 11 1 28q5 21 5 27l-3 12l-14 15l5 12l-2 13l-14 17l4 25q-9 -9 -25 -45l-7 30l21 43l-1 5l11 7l8 37l19 16l1 7l-5 3l-27 -6q16 22 47 65 l-5 21h18l2 -28l12 -14q18 22 18 32q0 8 -7 26l5 12l11 -3l-1 -5q6 -18 25 -29q18 16 24 40l-24 21l20 4l20 -15l17 20l3 -2l1 2l-3 20l21 20l4 -40l2 2l5 17l32 3l4 6l-3 12l37 24l9 -14h1l4 23l6 -2l9 7v9l34 -11l25 36l7 -31l7 3l28 -7h2q25 39 51 38l15 -14l2 -14l7 8 l46 -20q-7 -23 -16 -38l15 2l8 -16l-29 -22h-14l-10 12l-17 -11q-14 5 -28 11t-26 6q-74 0 -158 -58q-90 -62 -91 -131l-16 2q-13 -7 -13 -27q0 -6 1.5 -17.5t1.5 -16.5q0 -12 -7 -34.5t-7 -34.5q0 -9 9 -24t10 -24q23 -28 72 -80l13 3q11 -20 53.5 -36t52.5 -37l9 12 q35 -9 69 -18q42 -11 67 -25q22 20 58 20h6.5h6.5q26 0 37 13q16 19 21 74l16 -9q26 32 44 51q28 -61 28 -86zM69 232l-6 -6q-12 0 -22 33zM63 205h-16v15h16v-15zM711 118l-2 1q-4 -3 -4 -8q0 -1 1 -2q1 3 5 9z" />
<glyph unicode="D" horiz-adv-x="658" d="M648 280l-18 7l-10 -22l3 -8q-9 -4 -11 -9t-1 -12q1 -12 1 -14l-12 -41l-5 44l-11 -22l1 1l8 -16l-9 -27h-9q-39 1 -41 -43l-12 -17q-23 2 -44 10v-15q1 -28 -20 -47q-13 8 -26 26q-4 -17 -22 -49l-19 10l-6 -11l-17 -5l-29 6l-7 -2l-12 -20q-11 12 -34 14q-19 3 -38 5 l-9 -6l11 -31l-10 -24l-14 22l-8 -3v-28l-17 23h-2l-19 -27l-8 50l-25 -12l-12 1l-16 15l-4 -13l-12 8l-9 -10l-12 15l14 14l-16 30l3 9q-4 9 -4.5 27t-3.5 26l23 17l5 -4l1 4l-14 8l-21 -11l7 25l-5 15l6 12l-7 31l6 13l-4 12q7 10 9 25t3 29l17 9l-14 1q13 49 -3 101 l16 11h6l13 31q0 11 -8 21t-16 19q8 20 28 58l-28 -16q-17 5 -23 24q0 1 -5 35h13l-13 7l-53 -15l-4 11q11 8 55 5l-16 13l19 23h-4v15h19v-15h-12l17 -16q9 17 24 53l22 -13q7 0 20 4t20 4q4 0 8 -1q20 9 36 12l13 -16l4 8l-2 20q45 -28 73 -28q11 0 27 1l21 -17l28 3 l16 -11l3 -17h13l-3 -10l12 -13l8 5l-5 23l30 -14l-3 -10l3 -7l10 -7l9 3q27 -8 47 -37l-3 -10l6 -9l22 12l-2 -22l17 -10l-2 -9l39 -64q-19 -19 -19 -48l3 -16l6 -6l1 24h16l-9 23q2 12 15 37q0 -25 10 -51l-9 -16l-4 4l-3 -23q0 -8 18 -48l10 -4zM63 526q-18 7 -18 14 q0 2 3 8.5t3 9.5l12 -1v-31zM599 292q-7 12 -7 18q-1 0 -2 -1v-12q0 -5 3 -10q6 3 6 5zM176 532q-4 5 -7 8q-4 -2 -4 -9v-3zM473 320q-15 16 -20 44q-3 25 -5 49q-2 9 -10 22q-11 17 -12 21l2 10q-4 5 -24 14q0 35 -59 75q-56 37 -93 37q-8 0 -21.5 -4.5t-20.5 -4.5l-18 6 q-4 -9 -13 -26l8 1l10 -12l-6 -19l2 -4q9 15 4 34h19l13 -5l-1 -14l1 1l12 -11l2 -9l-12 -10l11 -10q-4 -14 -4 -30q0 -17 8 -73l-11 -13l-2 -1l16 -10l1 -17l-1 -14l-12 -17l-4 3q7 -19 22 -56q-16 -66 -14 -109l-11 -10q10 -9 10 -44l4 -15l3 -2q29 5 58 11q36 7 58 6 q38 27 43 31q23 19 33 41l10 -6l7 20h-8v22h15v-4l2 5q-7 11 -19 18q11 7 24 27q-3 16 -9 46zM93 547v2h-2l-1 -1q2 -1 3 -1zM224 282v0h-1v0v0h1zM226 276v7l-2 -1v-1q0 -2 2 -5zM218 223q0 3 -2 5q0 -4 -2.5 -13t-2.5 -13q0 -2 1 -3q6 23 6 24zM115 267q-8 -2 -8 -8v-3 l2 -4t4 -2zM187 171l-3 -2l1 -1q1 2 2 3zM135 209q-2 4 -6 4h-2q-3 0 -3 -2v0zM211 117q-7 3 -9 3h-2l-2 -5q0 -4 3 -4q2 0 10 6zM152 67q-1 2 -3 3l-1 -3h4z" />
<glyph unicode="E" horiz-adv-x="615" d="M552 624h-21v21q21 0 21 -9v-12zM533 328q0 -10 -4.5 -14t-15.5 -25v10q0 29 20 29zM598 41l-17 -9q-8 10 -8 36l-6 1l-5 -19l-36 4l-33 -19l-26 17q-4 -11 -9.5 -23t-14.5 -17l-16 3l-4 20l-2 -14l-21 -25l-17 8l-8 -16l-19 7l-8 -2l3 -15l-7 -13h-19l14 27l-8 -2 q-34 -53 -75 -53l-81 20l-6 -2l-11 -17q-18 22 -41 29l-18 -21q-18 21 -33 28l-10 -8l-11 14l5 14l-33 41l48 -30l3 17l-22 25l-8 -1l-21 35l31 -12l2 2q-4 21 -11 62l11 25l-17 19q9 14 24 43l-2 4l-17 10q20 13 20 27q0 6 -2 21l7 17l12 5l-6 28l11 2l1 -8l1 4l1 7l-17 34 l24 24l-4 -1q1 3 37 68l-7 18l8 13l19 -19l7 21q0 5 -3 27q-2 17 0 28l-13 20l-15 -6l-21 4l-6 15l-10 -4l-17 42l2 14l23 11l-3 -14l8 -13l11 7v13q20 -4 40.5 -10t28.5 -25q13 24 32 30v23q18 -12 34 -47l1 32l35 8v-16l1 -1l31 16l12 -6l8 6q18 -11 30 -24l30 31l9 -14 l7 11q20 -25 39 -25l14 5l14 23l13 -14l25 8l14 -31l32 2l31 -42l-38 26h-9l-11 -25l13 -30l-37 30l-9 -24l-25 13l-8 -10l-156 2q-30 -25 -37.5 -101.5t-40.5 -103.5l27 13l15 -26h2l31 20l4 -12l20 15l35 -16l12 10q10 -6 28 -19l16 18l20 -30l-7 -17l23 6l-7 27 q31 -9 37 -38l-10 -16l-16 3v-17l-7 -6l11 -1q-22 0 -32 17l2 8l-5 6l-4 -10l6 -18q-34 -12 -128 -23l-8 8l-21 -8l-10 8l-19 -10l-5 8l-17 -18l3 -21q0 -15 -5.5 -45.5t-5.5 -45.5q0 -23 9 -41l-12 -21l21 -13l23 6q9 12 31 21q27 11 35 17l7 -2l40 20l9 -3q106 40 150 40 q15 0 35 -16l4 3q20 -14 26 -29q4 -11 4 -39q0 -16 2 -28zM208 526q-4 4 -10 8q0 2 -1 5v-6q4 -2 9 -9q2 1 2 2zM193 545q-10 11 -21 11h-2q9 -16 12 -16q2 0 11 5zM113 396l-4 2l-15 -2l3 -31l8 -7q4 8 8 38zM144 265l-1 2v-1zM94 245v0q0 6 -3 10l-1 -2v-7q0 -2 3 -5v1v0 q0 1 1 3zM267 41l-3 1v0l1 -1h1h1zM121 149l-2 -2v0h1l1 2v0z" />
<glyph unicode="F" horiz-adv-x="656" d="M640 592l-12 -3l-2 9l12 2zM556 338q-15 1 -19 1q-9 0 -15 -15q-12 14 -12 19q0 7 10.5 12.5t10.5 13.5q25 0 25 -13v-18zM232 487q0 -8 -11 -27q-11 9 -11 16q0 2 11 27q11 -10 11 -16zM633 572l-22 -7l-20 11q-2 -26 -20 -43l-9 21q-19 -18 -19 -19q-12 -10 -23 -13 l-12 6l-25 -11l-11 5l-19 -7q-135 0 -148 12l-34 -14l-8 25h-1l-7 -3l-14 -19l-8 22l-1 1q-5 -30 -29 -49l-1 -11l5 -16q22 -3 48 -27l-5 -2v-39l-11 4q-4 -11 -11 -33l3 -8l16 15l26 -23l19 21l24 -15l20 1l3 7l31 -13l14 24l16 -4l-1 -19l3 -4l4 16l16 -5q7 2 45 24 l23 -23l13 4l5 -24q0 -2 -10 -54h-9l-21 23h-2l-8 -17l-43 -5l-4 -5l6 -19l-21 -15l4 28l-2 2q-32 -9 -43 -23l-19 6l-19 -14l-14 6l-7 -15q-16 6 -49 16q-5 -18 -5 -38q0 -34 28 -118l-14 16q0 -16 4 -49l7 -3l12 2l8 -35q0 -21 -14 -42l-14 8q-17 -4 -45 -22l-10 -3l-22 7 l-11 -9l-14 6l-18 -4l-9 -17q-14 13 -22 48q-6 29 -5 53v11l12 -1l-1 -10l3 -3l5 10l-13 33l6 24l-18 20l10 19q0 33 -10 86l-10 11l-28 -8l1 18l-18 -31v38l-13 -2l-13 39l9 15l14 -3l3 3v17q44 5 67 19l-3 28l18 -4l1 3l-13 28q0 35 12 105t12 106l22 -4l17 29l12 -6 l39 15q13 -25 21 -49l2 2l-6 36l31 -24l25 2l6 25q8 -12 23 -43q18 12 31 17l13 -2l13 -15l14 -3l20 24l12 -25l5 -2l35 24l15 -9l17 10l5 -26l12 5l7 -8l8 13l27 10q11 -11 36 -25.5t35 -23.5zM266 188l-12 -2l-1 11l11 2zM562 592q0 1 -1 1v0q0 -1 1 -1zM474 590 q-1 -2 -0.5 -1.5t0.5 1.5zM474 588v2v-2q0 6 -6 13q-3 -8 -7 -24h3q4 3 10 11v0zM240 431h-2l-2 -3zM382 299l-5 4q-9 -7 -21 -21q6 3 11 3h3q2 0 6 -3zM225 236q0 3 -4 6v-2q0 -3 -3 -16q2 5 7 12zM181 181v3q0 1 -1 2v-9zM253 117l-17 19l-10 -20q6 -5 10 -8zM67 293 q-2 -3 -2 -6q2 3 2 6zM222 121l-5 17l-6 -6q2 -3 11 -11zM246 45l-3 2q-10 -24 -10 -18q1 -1 1 -2h2q1 7 10 18z" />
<glyph unicode="G" horiz-adv-x="707" d="M483 572h-18v14h18v-14zM466 555q0 -5 -18 -15q-2 -1 -14 -20v34q10 0 14.5 7t15.5 6q2 -10 2 -12zM678 260l-35 -18l-9 2l-5 11l-17 -9l8 -15l-6 -11l-22 2l-7 -3l-10 -22q0 -10 8 -29t7 -29l-1 -26l-10 -3l-12 11v15l-2 3l-13 -6q1 -3 29 -44l-34 -27l6 13l-20 -19 l7 -18l-34 -35l14 37l-6 6q-8 -10 -16 -34q-50 -21 -74 -41l-4 16l-18 -21l-11 -4l-11 15l-12 -9v-10q-11 0 -33.5 2t-31.5 2q-21 0 -37 -7l-104 38q-65 26 -72 72q-24 25 -30 53q-16 17 -20 50q-4 39 -11 52l2 1v72l11 -8l4 4l-7 5l-5 14q7 24 30 28q14 16 24 46l-21 12v13 l28 5l11 -11l-9 27l2 18l17 -14l10 40q15 -16 36 -53v1q-5 13 -14 39l32 28l7 -5l2 2l-3 16l-13 8l-10 -2v51l20 -7l19 16l5 -6v2l-1 14l-10 -12l-11 16l8 11l8 -1q-7 10 -23 27l36 -7l12 5q5 -10 0 -42l2 -6l7 6l4 13q0 19 -17 41l8 39q8 -26 18 -47q5 14 2 50l21 -25 l26 10l8 -24h3l9 6l-5 11l15 31l20 -24l4 -2l30 9l20 -16l-7 -22l2 -4l12 5l-8 10l9 17l8 3l29 -27l15 8l16 -22q-9 -22 -24 -41l-23 -4l-9 -13l2 -7l-12 -20v-1l-11 -3l-8 22l2 5l-8 1l-6 -64l-11 68l6 15l17 5h-1l-15 5l-5 -1q-8 -11 -16.5 -23t-19.5 -17l-10 4 q-5 -29 -15 -42l1 -7q0 -13 -26.5 -48t-28.5 -52q-11 -4 -20 -21.5t-17 -22.5l2 -2l11 5l2 -17l-14 -32l-13 4h-2q9 -22 12 -74l-18 -1l-11 -14v0l45 -119l-10 -23l-22 24l-3 -4q13 -11 35 -36l10 6q32 -38 112 -38q30 0 75 28q49 31 49 61q0 5 -2 10l7 34q-10 10 -12 31 q-2 17 -4 35l-4 2l2 -11l-20 -18q-10 9 -29 11q-23 3 -30 6l-9 -6h-16l-6 11q-19 -12 -47 -13l-9 28l-23 -6l-28 2q16 15 20 36h26l3 2q4 25 43 33l10 -4l28 9l12 -7l12 7l-5 20q17 -5 35 -20l3 9l30 5l20 -21v0v11l16 11l17 -13v1q14 -2 34 0q27 2 33 2l23 -2q4 -14 30 -26 q30 -13 39 -28zM161 487l-10 -16l-10 6q2 3 2 7q0 7 -5.5 21t-5.5 22q0 6 6 21q11 -21 23 -61zM88 432q-6 -9 -20 -9h-3v21h17q0 -7 6 -12zM79 364l-12 -1l-2 21l12 1zM64 350q-5 -14 -21 -14v24h5q7 0 16 -10zM280 618v2l-6 4v-1q1 -2 6 -5zM518 312l-7 -11l3 -2zM507 213 l-1 -1q-2 -3 -2 -6v-1q3 3 3 8zM559 87l-3 1l-8 -2v-1l9 -3zM122 390h-1l-1 -1q1 0 2 1zM172 310v1v0v-1zM169 313l-2 -1l2 -1v2zM88 252q-1 2 -10 4v-10q1 0 10 6zM200 120q-4 14 -13 26l9 -19l-1 -2zM46 234l-3 2l-10 -12z" />
<glyph unicode="H" horiz-adv-x="635" d="M465 586l-10 -5q-2 3 -19 19q-11 10 -11 25q21 1 29 -10q2 -3 11 -29zM457 559h-16v21h16v-21zM462 478q0 -7 -15 -25v18q0 1 1 3q0 5 -6.5 12t-10.5 7q-6 -7 -18 -22q8 43 26 43q12 0 17.5 -16.5t5.5 -19.5zM609 619q-8 -10 -10 -24q-2 -10 0 -26q1 -21 1 -26 q0 -34 -23 -54q0 -10 4.5 -29.5t4.5 -30.5l-2 -17l-10 -14l5 -28l-9 -14q4 -19 4 -36q0 -34 -16 -56l14 -21l-28 -2l-3 -4l4 -10l12 8l11 -22l-20 -28q14 -33 14 -68q0 -23 -7 -45l5 -2l12 2l2 -16l-5 -25l-20 -21l-39 25l-30 -12l-7 12l-15 -13l-16 6l-2 3v-19 q-19 2 -34 17h9q-7 5 -16 25q-7 17 -19 22l10 40l-1 3h-19l16 18l1 6l-11 37l10 19l-7 10l19 11l-2 3l-20 -3l-8 22l-16 -8l-11 3l-1 -1q-108 0 -76 0q-48 -1 -72 -12q27 -6 27 -77l-1 -17l-15 -7l-2 -9l14 9l8 -15l-9 -23l9 -13l-20 -4l15 -3q6 -16 14 -50l-8 -16l5 -6 l25 -2l-36 -23l-15 9l-6 -11l-14 16l-16 -19l-11 4l-5 15l-15 4l-23 -17q-13 8 -21 24q-12 24 -15 29l-3 -31q-21 33 -36 49l23 38l-1 3l-10 7l-4 13l5 10l16 6q0 9 -11 76l-10 3l-20 -13l5 70l11 8l-8 7l25 44q0 21 -14 46l20 15l-1 3l16 22q-10 1 -35 18q10 19 19 37 q11 22 12 40l-19 26l3 12l14 9l1 4l-10 -2l-2 14l12 1l1 -10l3 12l-16 14q11 15 20 44l-19 36q38 -4 67 -1q15 -16 56 -12l-2 -21q5 -20 6 -62l12 -19l-1 -17h-22l-3 -3q10 -10 26 -33l-3 -13l-8 4q5 -12 14 -36l-2 -6l9 -15l-3 -42l-25 23l-16 -22l4 -6l15 23l14 -17 l-11 -22l4 -25q4 -14 12 -21q53 8 74 6l3 8q38 2 72 10l20 -10l6 5v4q0 21 7 34h21l1 -5l-7 67l15 -40l16 17l14 -4l1 1l-15 11l-8 32q17 4 32 17l25 25l-25 4q9 16 17 52l-14 -31q-12 19 -35 31h28l6 6l2 21l15 -18q5 22 15 32l-14 -5l-13 6q2 35 29 58l-5 10l25 8l3 19 q13 -4 37 -14l10 9h16l17 -9l-5 -14zM215 335h-10q-9 0 -9 10q0 8 19 26v-36zM67 467q0 -14 -11 -22h-25q7 5 15 13q1 8 2 15.5t12 8.5q7 -7 7 -15zM55 375q-23 -1 -23 16v22q22 -11 23 -38zM396 55l-7 -26l-5 7q0 -6 -6 -5q0 3 -8 15q0 11 12 11q1 0 14 -2zM55 324 q-1 -10 -23 -31q0 32 23 31zM262 2l-25 30h25v-30zM60 125q-30 6 -30 20q0 3 2 11t2 12q0 2 -4 6l14 14q15 -10 15 -18q0 -6 -6 -15.5t-6 -11.5q0 -3 13 -18zM537 593v1h-1zM456 385l-2 2l-13 -7l9 1l3 -2zM431 379l-12 9q5 -13 9 -20l1 10zM420 350l-8 10l1 -2l-10 -23 l2 -1zM479 287q-4 -1 -9 -6q-2 0 8 0q1 1 1 4v2zM512 174q-3 4 -5 4l-1 -1zM541 129l-1 1q0 9 -6 12q2 -4 3 -17zM432 181q-1 2 -2 6l-1 -1q-1 1 -3 1v-8h5q1 1 1 2zM438 85q0 1 -3 7l-19 -26l8 41l-1 1l-10 -3l-8 -11l-1 -6q0 -1 1 -5q8 -1 8 -10q0 3 -2 -13l25 -18 q-2 4 -2 10t2 16.5t2 16.5zM440 32l-2 4l-6 -4h8zM74 251l-17 16v0l-15 -23l4 -17l9 -3q7 9 19 27zM122 89h-2l1 -3q1 2 1 3zM103 39l-4 10q-2 -2 -2 -4q0 -3 6 -6z" />
<glyph unicode="I" horiz-adv-x="286" d="M263 461q-11 -46 -10 -83l-26 -12l4 -4l24 5l4 -17l-8 -35l7 -17l-23 -15l-5 -39l-32 44l-3 -5q6 -12 15 -36l-10 -15l19 -12q7 -20 22 -33l7 -41l-22 17l2 8q-13 -15 -18 -35l15 -4l11 -19l-7 31h22l-11 -48l-3 14l-14 -30l-7 1q-7 -8 -23 -22q5 -21 5 -57l-15 8l21 -35 q-6 -16 -10 -23q-7 -12 -18 -17q-15 3 -33 19l-8 -3l-6 -11l-16 28l-42 22l50 -6l3 5l-1 14l6 7l-4 3l-13 -22q-1 0 -27 43q-16 28 -13 47q-15 25 -15 66l-1 82q14 15 20 32q-8 7 -16 20q-11 22 -12 23l29 5v102l-13 31v-2l-1 3l-8 6l4 9l-12 45h17v-36q5 10 13 31l-3 8 l-8 5l-4 -1q-20 14 -20 44q0 10 2.5 30t2.5 29l-3 21l-17 17l4 12l-8 29l6 16h17l-3 -30l3 -4q10 14 34 40l19 -21q12 5 37 11l17 -12l18 6l29 -8l22 -29l-11 -14l3 -5l11 3l11 -4v-42l-5 -2q0 -11 6 -25q8 -21 9 -24q-11 -8 -27 -27l5 -7l30 18l-4 -49zM219 -77 q-25 3 -25 16q0 6 7 12q18 0 18 -12v-16zM167 660v1q0 4 -6 4h1q1 -2 5 -5zM238 456q1 6 -9 12l-1 -2q7 -2 10 -11v1zM95 436q-1 1 -2 1v-2q0 -2 2 -2v3zM172 53v2v1h-3h-1q0 -2 3 -6q1 1 1 3z" />
<glyph unicode="J" horiz-adv-x="509" d="M490 208l-5 -46l-8 -10l10 -30l-11 -4l-8 2l-2 -4l18 -18l-1 -13l-19 -10l-2 -11q0 -11 8 -27q11 -24 12 -26l-27 -36l-3 25l-5 4l-9 -4l10 -16l-9 -13l-21 10l-9 -8l-54 -1q-48 -1 -146 30q-4 5 -18 29q-6 11 -20 11q-8 0 -21 -3q-9 4 -22.5 16t-21.5 16l-19 -6 q-5 6 -20 39l-1 -5l-10 -9q-27 8 -37 28q5 22 27 75q29 0 62 -28q57 -47 61 -50q41 -25 88 -20q13 -21 35 -21q17 0 17 22q0 11 -7 36l15 -7l9 6l2 9q0 12 -11.5 34.5t-8.5 38.5q-9 11 -8 30l1 19l15 11l16 -7l2 2q-29 58 -29 104q0 23 7 43q-14 26 -6 53l-12 21l6 14v-1 q1 45 34 44q0 -37 -29 -46l21 -14q18 30 18 54q0 12 -6 34.5t-6 34.5l14 -8l-6 28q11 7 30 26.5t32 26.5l11 -4l16 3l8 -6l17 16q24 -49 24 -105q0 -15 -5 -44.5t-5 -43.5q0 -9 4.5 -26t4.5 -26q0 -26 -18 -43q28 -55 28 -133q0 -9 -8 -23.5t-8 -23.5zM382 568q-4 9 -7 40 l-5 6l-24 -13q10 -7 15 -19q6 -17 9 -21zM405 517q-3 2 -7 6l-3 -8q1 -2 2 -2t8 4zM428 447q-10 2 -22 8l1 -5q9 -3 14 -3h3h4zM340 466l-13 4l-12 -16l12 -32q13 14 13 44zM432 348h-8q-1 -11 -9 -30q3 1 17 30zM453 273v3v4q-3 -4 -3 -7q1 -1 2 -3l-3 2q0 -1 4 -4v0v2.5 v2.5zM337 378q0 3 -2 6v0q-3 0 -4 -3zM457 198q-2 2 -12 21l-4 -16q5 -1 16 -5z" />
<glyph unicode="K" horiz-adv-x="711" d="M620 663h-17v15h17v-15zM334 496h-21v18h3q13 0 18 -7v-11zM689 655l-10 -25l-21 -12l-10 4l-4 -6l2 -12l-35 -49l-6 16l12 20l-2 4l-26 -18v-13l-5 -2l41 -20l-58 14l-13 -6l-12 -16l2 -18l-16 -28l-11 27q-15 -12 -47 -51q-28 -33 -51 -46l-6 -25l-26 7l-20 -21l-4 1 q-1 -16 -21 -27l-1 2l-18 -18l-19 9l-6 -21l16 -37l13 5q21 -11 45 -55q20 -35 30 -67l-5 -16l2 -2l21 9l-2 -19q0 -29 30 -58q11 -12 53 -43l-39 15l-6 -11l19 -3l-2 -7l4 -6l18 6q-8 -20 -21 -39l19 8l6 -25l-6 -10l-20 -12l-33 15l-3 9l-56 -31l15 40l-8 17l-6 -26 l-21 -20v16q-1 34 25 35l-8 28q-21 -19 -32 -42l11 -44l-28 40q5 16 19 45l-30 23l-22 -18l7 35l-13 13l10 13l-8 8q-10 21 -26 63l-3 -3l11 -33h-15l-6 10v1l-20 21l13 13l-26 15h-1q-14 19 -40 58q-3 -29 -7 -43l9 -12v-4l-3 -26l-16 8l-15 -28l14 -35l-1 -4 q17 -16 17 -42q0 -19 -15 -68l-26 8l-12 17v1l-2 1l-23 -4l-15 10l-10 30l-19 2l20 25q-14 7 -28.5 15t-20.5 21l15 15v65l18 -10l3 7l-9 4l-13 19l7 63l6 -21l7 19l-10 40l26 26l12 -26l3 7q-8 41 -8 45l-29 18q15 25 14 56l22 15l-10 5l-3 7q13 17 29 52q18 41 26 55 l40 16l-13 -32l29 -3q4 -50 4 -45l-3 -18l-12 -11q6 -13 7 -37q2 -29 4 -38l-13 -6l7 -12l26 24q17 13 33 13q17 24 20 28q13 15 28 20l43 -18l-14 -13l3 -12l21 28l-17 5q9 10 25 32l-26 30l25 -9l8 6l4 26l13 -10l67 68l17 -10q-2 17 14 30l18 -9l3 -12l11 7l-15 21l17 -5 q12 12 27 39q12 22 24 43l-20 -56l11 -13q7 7 15.5 23.5t16.5 22.5l-5 27l9 17l20 -17l18 11q-6 -26 -32 -39h-1l15 -7q-5 -34 -28 -56l4 -3l6 15l31 1l13 9l-9 17l11 33l37 16l-17 -39l3 -4l19 5l4 -11l-19 -16q15 -2 30 -9zM81 369l-2 -4q0 1 1 2l-6 -6q-15 0 -15 14l2 4 q0 -1 -1 -2l9 5q12 -7 12 -11v-2zM276 113l-10 -9l-18 15l10 10zM176 152v-15q-1 -10 -1 -15q-23 0 -23 26q0 19 17 28q7 -14 7 -24zM47 91q0 -11 -13 -14l-12 25h25v-5.5v-5.5zM504 549v6q0 8 -4 15q-1 -2 -2 -5q4 -4 4 -10q0 -1 -6 -18q8 1 8 12zM442 18l-5 4l-14 -14 l12 -19zM342 92q0 7 -4 11q-2 -5 -2 -9v-3q0 -2 1 -6l4 4q0 1 1 3zM66 261v1l-12 7l4 -14zM81 150v2q-9 -2 -9 -16v0q9 11 9 14z" />
<glyph unicode="L" horiz-adv-x="541" d="M97 533l-12 -2l-1 11l11 2zM528 130l-13 -24l7 -7q-13 -5 -39 -16l5 -18l-78 1q-30 0 -63 -7l7 -10l-26 -1l-16 -13l-4 14l-12 7q-13 -13 -21 -24l-11 2l-5 8l-15 -14l-9 9q-15 -7 -29 -13q-18 -9 -22 -23l-30 18h-2l-12 -11l-11 5l-13 22l-1 -7l-40 -19l-8 23l-8 5 q-19 -10 -32 -11l-3 10l-12 -13l25 47l-8 17l8 14l22 -11l2 4l-9 32l7 15q-18 12 -35 54q14 -10 36 -36l2 1l-3 8l2 15l7 -2l10 15l-6 12l-10 -11q-14 16 -40 50l38 -17l4 5l-7 16h8l-1 16l3 15h28l7 20l-16 -5l-17 8l8 8l-6 7l3 8l12 9l9 -10q13 17 30 17l1 3l-20 12 l-13 -13q-9 14 -26 41l8 8l21 -16q-15 77 -15 93l5 25l22 11l13 -13l-20 -6l-1 -3l2 -1l15 1l9 -10l1 31q0 5 -9 42l25 -10v8l6 27l19 -10l16 22v1l8 7l4 28l12 -22l-8 -21v-1q24 16 36 43q7 -45 7 -60v-64q0 -25 -12 -41l2 -50l-6 -9l2 -11l-12 -31l16 -16q-11 -9 -11 -24 q0 -6 2.5 -19t2.5 -19q0 -22 -27 -39l14 -15q-5 -16 -13 -48l-8 -8l14 -1q0 -31 -19 -50l6 -8q93 33 284 33q26 0 50 -11zM66 294q0 -12 -15 -23q-7 13 -7 23q0 7 2.5 19.5t2.5 19.5h12q0 -1 -1 -4v-3q0 -6 3 -16t3 -16zM56 249q0 -8 -15 -9l1 1l-10 6l12 30q11 -11 12 -24 v-4zM459 105v0q0 4 -3 4h-8l-1 -1v0q1 -2 4 -5h1zM156 311q0 3 -3 8l-3 -12zM120 170l-14 14v-3v-13q0 -3 1 -8q0 1 13 10zM107 47q-2 2 -4 3l-2 -7q-1 0 0 0q2 0 6 4zM51 65l-1 1l-17 -19zM108 231q-5 12 -7 12h-2q-4 0 -4 -4v-3l2.5 -2t7.5 -7q2 2 3 4z" />
<glyph unicode="M" horiz-adv-x="1024" d="M881 588q0 -11 -7 -18h-15q0 11 5.5 14.5t16.5 3.5zM900 419l-11 -1l-2 20l12 1zM740 431q0 -12 -14 -17v-2q0 -2 -1.5 -6.5t-1.5 -6.5q2 -1 9 -1v-24l-11 8q-10 -8 -20 -8q-6 17 -6 28q0 34 36 43q9 -7 9 -14zM797 300l-10 -6l-3 4l10 6zM445 472q0 -3 -1 -9v-9h-19v88 q20 -31 20 -70zM943 -6q0 -9 -13 -16l-10 21h22v-4zM458 441q-1 -11 -8 -19q-3 -2 -7 -7l-10 6q7 13 8 15q5 5 17 5zM987 12l-13 -17l-15 26l-8 -8l-15 7q-6 -12 -27 -26t-27 -23l-5 18l11 17l-31 5l29 12l3 7q-6 33 -21 59l-16 5l-1 -2l14 -19l-18 -28l-9 48l5 13 q-13 19 -25 73q-11 49 -31 69l28 -9l10 8l-19 2l-15 20l18 17l-19 30l2 6q-26 12 -30 72l4 5l-10 9l5 23q-17 8 -23 34q-7 32 -15 40l-22 -7l-2 -8l9 -13h10q-2 -5 -43 -64l1 -2h16v-18q0 -41 -38 -105l17 20l17 -46l-10 -16q4 -8 4 -14q0 -8 -9 -16q-13 -11 -16 -16l1 -5 l13 -9v-4q0 -24 -15 -56l20 -26l-13 -11l-22 17l8 14l-3 25h-2l-14 -22q13 -26 13 -85l-15 -22l-10 38l-11 8l6 -10l-18 -50q-16 17 -43 27l-8 -4l13 2q-4 -20 8 -65l-29 43q-21 -27 -41 -27l-14 9l-19 -4l1 11l-11 -8l-32 2l-7 26l-8 -2l-16 17l7 16l-10 8q3 7 3 14 q0 13 -12 31q-11 13 -21 27l3 6l-7 -2l-16 39l7 15q-34 46 -34 95q0 21 6 47l-19 8q-15 68 -16 69q-13 38 -45 49l-11 -19l3 -8l-24 -26l-21 8l-13 -18l15 -32h1v2l-1 17l3 17l24 9l1 -31h1l20 -23l-18 -23l1 -1l8 4l6 14l11 3q5 -14 1 -36.5t4 -42.5l-32 5l11 -19l-13 -13 l6 -10l-4 -21l12 -15l-8 -10h29v-17l-31 8l-12 -40h-19l-5 -10l33 -36l-8 -17l8 -6q15 9 37 38q-18 -35 -44 -107l-30 8l5 -13q-18 10 -36 30l3 -14l-31 -15l-15 19l-4 -5l-19 -6l-20 16l-9 -8l-14 35q11 56 7 85l19 -13l3 8l-17 5q12 9 16 29q3 17 6 33l7 1q-4 23 -15 67 q13 23 34 40l-24 28l3 14l16 7l-11 40q15 51 50 94l-7 32q0 57 30 84l36 -25l2 6l-7 24l-10 -3l-11 22l33 24l13 -33l8 7l17 53v-22l70 -48h16l-2 21l33 -18l10 4l9 -8l-17 -20l6 -6l18 9l6 31q30 -42 41 -77l-24 -71l-9 24l5 17l-4 4l-7 -42v-10l20 -6l11 -45l30 -21 l-13 -18l-27 4l-6 -5l8 -17l22 -4v-24l-23 -21q22 -9 34 -30h13l-11 -49l-14 -4l28 -11l28 11l11 -15q-2 -11 4.5 -31t6.5 -29q0 -4 -12 -53l-28 -28l10 -7l5 1l24 39l3 -34l12 -9q15 22 13.5 75t17.5 75l-9 18l28 40l-12 15q20 34 36 123l22 132l3 -4q2 69 0 80l13 9l5 33 l4 3l-17 16v40l18 -34l4 -1l7 26l30 -29l26 12l13 -4l-12 -13l3 -17l-27 -5q8 -11 34 -33l1 3l-10 24l21 26q5 -25 21 -48l16 10l-13 28l11 10l41 -18l-3 -6q43 -28 43 -57q0 -6 -1 -11q42 -24 42 -105h-11q-4 -4 -4 -11q0 -5 3 -15.5t3 -14.5l-1 -4l-13 -8q19 -15 41 -47 l-27 7l-3 -6q10 -22 24 -42l-7 -8l15 -4l5 17h-9v22h15q0 -7 4 5v-69l14 -4l-4 -36l-19 -11q16 -21 43 -67l-21 -32l9 -13l7 2l-9 21h18v-20l7 2l-4 -25q0 -6 3 -26q2 -16 0 -27l14 -11zM453 351l-12 -1l-1 9l12 1zM548 253l-36 29h24zM480 284q-6 -9 -12 -9t-28 25l13 38 q12 -16 16.5 -32t10.5 -22zM492 314l-11 -88q-14 14 -14 21t7 16l-3 -2q1 1 21 53zM276 366h-16v25h16v-25zM265 346h-18v22q7 -2 18 -10v-12zM257 240q0 -10 -11 -16q-13 3 -13 13q0 4 1.5 13.5t1.5 14.5q21 -11 21 -25zM236 111q0 -16 -14 -16q-11 0 -11 13v7q1 5 1 7 q15 3 16 3q8 0 8 -14zM760 531h-1v0h1zM866 108v37l-6 8q-6 -13 -13 -45q4 2 8 2q5 0 11 -2zM618 268l-2 1l1 -1h1zM265 607l-31 41v-36l7 -7l20 -1zM274 556l-3 1q0 -2 -1 -4q2 2 4 3zM396 418l-8 4l-11 -18l7 -6zM628 153l-2 3v-4q1 0 2 1zM240 498q-7 -10 -7 -15 q0 -3 7 -5v20zM189 514q-6 -4 -6 -11q0 -3 1 -5q5 8 5 16zM494 173l-34 24q-3 -2 -8 -5v1v-1q3 -8 3 -20l-13 -13l-17 20l-1 -2q10 -25 31 -26l5 6l-4 23l13 4l10 -7l7 -17l-8 -26l5 -8q5 13 11 47zM537 24l-24 4l-11 12l-12 1l16 -21zM182 266q0 5 -6 17v-3q0 -6 6 -15v1z M130 272q0 5 -3 12v-20q3 4 3 8zM186 192v3q-1 9 -4 13q-3 -10 -3 -12q0 -1 7 -4zM185 177q-1 -5 -3 -9l2 -2zM182 41h-1l-1 -7q1 3 2 7z" />
<glyph unicode="N" horiz-adv-x="713" d="M667 684q0 -8 -9 -18h-13v7q0 1 -1 3q0 7 11 15q0 -2 -1 -3l12 -1v1q1 -2 1 -4zM677 601l-22 56h22v-56zM279 567l-23 64l12 2q0 -3 5.5 -13t5.5 -41v-12zM688 490l-4 -13l-26 14l6 -27l-18 3l-7 -6l13 -35l21 9v-15h-18l-14 -27l2 -3l30 16l-10 -35l-23 -11l-12 4v-1 l3 -13l14 5l12 -6l-18 -23l16 -39l-23 -14l-3 -5l3 -16q-11 -15 -31 -46l3 -11l-21 -26q6 -15 -5 -49l3 -4q10 49 44 84v-34q0 -21 -7 -44q-41 -36 -41 -115q0 -13 1 -29l-38 27l-33 -16l-34 24l6 23l-9 11q-2 32 0 73q-22 6 -21 45l-3 3l-17 6q-16 56 -68 132 q-44 62 -87 123l-8 -8l6 -26q0 -43 -36 -67l-3 -17l4 -4l24 -2q-7 -16 -45 -70q-19 -28 -19 -86q0 -27 -14 -50q12 -32 18 -58l-8 -21l15 -5l-7 -37q-26 33 -31 58l6 15l-4 2l-10 -3q-9 -18 -18 -35q-10 -20 -24 -30l-33 6l1 17l-2 6l-17 -11l-13 -32l-14 24l24 42l-26 -21 h-10l-4 15l18 29l-16 16l12 17l7 -4l-8 21l27 77v0h1h-11l28 149l14 12l-4 4l18 15l-12 1v29l17 2l-9 22l8 41l14 15l-19 5q21 23 21 37q0 3 -2 15.5t-2 24.5l9 38l13 5l-3 6h-15q0 26 -8 47l6 10l-3 11h23l10 -12l35 20l-13 -29q11 -17 18 -38l-6 34l12 3l11 -4 q5 -19 20 -55l-2 -5l12 8q14 -19 22 -37l5 1l13 -1l21 15l20 -35l-7 -16l7 -7q25 1 35 -27q12 -35 22 -41l3 30q18 -13 21 -38l-13 -22l2 -2l16 15q1 -18 6 -52l5 -3l10 6l15 -7q-4 -53 -4 -62l3 -30q7 16 9 21q7 12 16 17v56q5 -20 7.5 -59t7.5 -58l12 13l9 71l14 -18 l-12 23l5 13q-4 13 -1 32l6 32l8 10l-3 105q-1 35 16 73q-9 14 -9 41q-1 31 -4 42l10 14q-1 7 -22 47q19 -15 46 -51l14 6q0 -20 3 -42l24 -10l13 51q6 -36 8 -43q7 -23 21 -36l-3 -35l-5 2l6 -17l19 9l12 -49l-11 5q9 -20 18 -34l-10 -12zM523 -44h-15v19h15v-19zM240 191 l-5 -15h-18l12 26zM172 -28l-23 26h23v-26zM645 500h-1h-1l-1 -1zM622 296v2v0q-3 1 -7 2q2 -2 7 -4zM622 294v1l-1 -1h1zM495 243l-7 18v0l-16 5l3 -23l16 -6h1zM259 436l-9 20l-4 -4q-1 -32 -8 -52l-11 -7l18 -17l5 3v5q0 13 5 26l-7 -8zM548 88l-4 -1l1 -1zM544 85 q-1 1 -1 2q-4 0 -4 -4q2 1 5 2zM189 347v0q-6 0 -10 -7q5 2 10 7zM215 280q-2 2 -3 5q0 -3 1 -5h2zM174 133q0 3 -1 16q-5 -6 -15 -14q21 -3 16 -3v1zM149 134q-2 0 -3 1v-1v-2v-1q1 2 3 3zM162 111q0 1 -1 1q-1 -1 -3 -1q-1 0 -2 1q1 -3 2 -5q4 0 4 4zM93 145q0 1 -2 3 l-1 -3h3z" />
<glyph unicode="O" horiz-adv-x="639" d="M624 360q0 -6 -3 -29q-3 -17 0 -28h-19l1 31q1 22 -14 38l-9 -34q0 -9 7 -22l11 -20l-3 -17v-1l13 11l6 -35l-24 -16l-11 19h-10l-6 -5l1 -1l15 1q0 -14 -12 -27t-23 -24l3 -11q8 22 31 20l6 26v-27l4 -1l-4 -29l18 -34l-21 5l-27 -44v54l14 6l6 27l-8 1v-3v-7h-16l6 -18 l-12 -14l8 -19l-15 -17l-15 2l-4 -5l2 -13l-13 3l-20 -17l-5 -26l-27 4l-7 -29l-32 -17l-48 17l-4 -1l-11 -24l-28 -17q-27 5 -80 18l18 -22l-17 -3q-14 8 -41 23l-11 -7l-22 6l-23 -15l3 14q-8 5 -38 13q-10 28 -14 35q-12 19 -31 17l-14 11l1 30q-22 12 -27 44 q-3 26 -6 53l13 7l8 -2q-17 29 -17 32t6 32l12 -1v-11l-2 -3l3 -3q9 9 9 26q0 9 -4 28t-3 27l1 35l9 -4l-6 14l8 17l22 -19l6 13q-10 31 -4 50l-25 19l20 -2l-5 17q13 11 34 36l-2 11q24 16 28 57q5 51 12 64l10 4l16 -9l2 2v15l18 -1l7 4v56q12 -39 26 -60l5 8l-7 16l21 -5 q27 16 43 23l42 -35l6 3l-3 21l14 7l14 -16l-12 -14v0l11 -4l13 7l-2 4l15 2q27 0 32 -46l1 14l11 14l21 -13l15 6q8 -16 26 -33l3 11h20l-5 -15l18 -31l-6 -11l7 -5l11 24l24 -22q0 -98 30 -145l-7 -11l15 -25l-11 -16h31zM68 416q0 -11 -10 -11h-9v42q19 -23 19 -31z M68 54v-6v-6h-16v32q16 -4 16 -20zM43 64l-27 27h27v-27zM546 530q-1 9 -6 28l-4 2q1 -4 1 -8q0 -7 -3 -21l4 -8l2 -1l2 1zM381 648l-4 11l1 -13zM543 485l-4 -23l4 3v20zM561 406q-1 8 -3 15l-2 -9q2 -4 5 -6zM414 498l-1 2l-6 -3zM478 274l-7 4q3 15 3 26q0 43 -27 105 t-59 86l16 1q-20 7 -20 26q0 5 1 8q-73 10 -95 32q-25 3 -32 3q-15 0 -25 -17q-34 -6 -48 -61q-1 -7 -15 -109q-8 -66 -29 -87q5 -14 17 -40q-1 -11 -10 -38q16 -18 16 -45q0 -16 -7 -29q50 -55 174 -55q62 0 97 70zM104 473v1l-8 5l-6 -14q2 0 11 3z" />
<glyph unicode="P" horiz-adv-x="730" d="M696 594q-8 -13 -21 -25v25h21zM713 554q0 -1 -1 -4q-6 -1 -9 -1q-4 0 -10 6q-9 8 -9 18q1 2 1 3q28 -4 28 -22zM716 484q0 -22 -18 -43q-4 -6 -35 -33l-17 1l-19 -31l-12 21l5 -17l-5 -12q-32 -12 -63 -24q-37 -15 -59 -32q-35 -4 -64 7l-18 -17l-32 19l-2 -1l-4 -19 l-15 12l-19 -4l-15 7l4 17l-1 1l-19 -23l-25 22l-11 -4l-13 16l15 7l-1 9l16 37l25 10l7 -7l36 27l2 -35l88 2q53 6 72 39l9 -8l-1 9l18 33l4 -1l2 2l6 26q-9 18 -19 37.5t-25 28.5l-14 -4l-16 14l-3 22h1l-11 -9h-6q-15 0 -40 9.5t-39 9.5q-9 0 -17 -2q-20 13 -33 17l-4 -8 q-30 7 -57 7q-44 0 -67 -19q2 -13 -2 -30l-6 -30q17 -26 17 -53q0 -67 -21 -107l8 -23l-14 -30v-2l23 -9q-13 -18 -14 -43q1 17 1 -46l-9 -32l5 -14q-8 -26 -9 -90q-1 -56 -18 -92l-4 12l-17 -22l2 -10h-20l-14 -10l-16 22l-33 -13l-17 6l-5 36l-9 10l7 24l12 -3v-1 q4 -22 20 -34q3 4 9 24q5 15 15 21l-2 9l-28 -2l5 -9l-11 -6l-16 23l25 18h-15v12h-3l3 3v6h5l29 34l-26 9v-2q-2 0 -6 4.5t-1 4.5q2 0 4 -1l-15 40h18v-37l17 16l-11 35l4 14l19 7l-3 10q-28 3 -41 18l18 10l2 8l-11 35l23 30l9 -19l-10 30l-20 -6l3 5l-11 -5l-39 71 l52 -61q6 12 7 34q2 26 4 34l23 -21v18l-13 17q3 18 5 26q4 14 11 23l-18 9l6 15l-9 -5v-38h-22q1 21 9 32l-6 18q12 18 25 31l-29 3l17 32l-7 9l14 18l-3 10l-14 10l26 15l25 -3q72 44 265 44q28 0 90 -15q57 -15 90 -11l18 -17l12 10l12 -1l-8 -21l-11 4l-12 -11l-6 2 q5 -3 36 -16l-4 19l35 -23l1 -3l37 -6v-31l-36 29q6 -17 46 -54q35 -31 35 -67zM85 451l-41 21h41v-21zM54 288h-14v18h14v-18zM676 447v0q-2 0 -2 -2v-3q2 1 2 5zM99 545v7l-6 5h-5v-3v-4q0 1 8 -15zM117 331l-23 -4q4 -3 19 -8zM103 139q-2 3 -6 5l6 -5v0zM93 110l-1 1 l-21 -3v-14q12 12 22 16z" />
<glyph unicode="Q" horiz-adv-x="963" d="M938 13h-15v19h15v-19zM915 26q-14 -10 -28 -32.5t-18 -39.5l-26 9l-3 -11l-17 -14h-4l-37 -6l11 -10l-12 -10l-11 2l-11 14v4l-6 1l-9 -18l-17 6l-3 -13q-90 24 -113 33q-71 27 -89 65q-24 17 -75 48q-28 -32 -51 -43q-2 0 -63 -21l-10 8q-19 -18 -44 -18l-33 19l-4 -3 l-9 -28l-24 34l-20 6l-20 -12q-6 28 -12 42l-10 -27q-14 7 -30 29.5t-25 29.5l-5 16l-6 4l-18 -10l6 28q-4 17 -9 34q-6 21 -18 30l1 8l-15 43q26 18 26 41q0 8 -3.5 26t-3.5 30q0 21 22 67h-21l5 50l18 -18l-4 -20l4 -9q15 32 13 56l83 140l23 -7l26 29h19l4 -4l7 15l25 -1 l21 3l6 12l-3 13h20l8 -10l31 29l40 -26l11 4l24 -7q14 0 14 5q-1 2 -6 4l21 13l27 -22l18 23l9 -3v26h14l16 -16l-9 -18h-1l14 -5l15 4q45 -54 85 -63q8 -28 21 -50l-2 -9l21 -53l-5 -15l8 -32l-8 -13l19 -16l8 11q11 -9 11 -51q0 -16 -17.5 -38.5t-17.5 -39.5q0 -5 2 -11 q-21 -32 -18 -51l-25 -4l5 -33l-7 2q-4 -13 -20 -28q-20 -19 -25 -26l16 -20v-9l13 4q16 -8 35 -33q22 -28 32 -36l-20 -6l6 -7l-2 -18l8 21l27 -18l16 19l19 -27l12 11l30 -14q25 9 85 53zM42 268h-12l-1 21l11 1q1 -5 2 -22zM60 141q0 -4 -5 -17l-19 18q-10 12 -11 23h12 q0 -4 11.5 -9.5t11.5 -14.5zM646 530l-4 8v-3v-9v-1q2 1 4 5zM710 367q-3 8 -10 24q-12 -24 -17 -41l9 -7zM564 410v2l-8 4zM663 309v-3v3zM588 291h-3v-3zM583 291h-3l-3 2q3 -3 3 -7q2 2 3 5zM553 418q-15 12 -19 37q-1 21 -3 42q-14 2 -32.5 22t-31.5 21 q-14 -11 -48.5 -13.5t-48.5 -12.5l-21 4q-13 -12 -28 -12q-5 0 -16.5 2t-19.5 2h-1l3 -10q-30 -17 -99 -46q-45 -62 -45 -194q0 -82 17 -107.5t92 -65.5l13 -7q21 0 50 11l48 18l5 -1l9 13l-12 29q-14 10 -25 13l-4 -1q-20 16 -24 31l10 14h-9q-12 13 -32 43l4 14l31 17 l10 -2l9 -18h1q2 8 2 33l6 19l9 3q12 -8 31 -12.5t28 -8.5q16 -8 40.5 -33.5t40.5 -33.5l24 37l12 -8q3 36 3 38q5 22 19 32l-11 7l-2 7q12 16 14 46l-15 21l15 11zM69 211l-3 4q-9 -7 -9 -12t3 -8q2 6 9 16z" />
<glyph unicode="R" horiz-adv-x="762" d="M726 378q0 -20 -18 -20q-23 0 -23 22q0 20 23 20q18 0 18 -13v-9zM694 434l-5 -15l-11 -7l3 -17l-6 -8l7 -16l-15 -31l-13 2l-3 15q0 2 7 27l-8 6q-7 -2 -17 -28q-10 -31 -14 -35l-16 7q-7 0 -20 -20q-9 -14 -17 -28l-4 33l-3 3q-14 -25 -45 -37q-16 -6 -59 -14l-11 -10 l-14 12l-14 -6h5v-15h-16v11l-10 -14l-18 -2q-21 0 -26 23l4 4q-26 2 -39 7l10 13l-7 19l8 10v25l24 -8q8 0 22 6.5t22 6.5l15 -4l8 -11l25 25l22 -9l11 32l16 -6q9 9 28 26l5 -2l-11 18l2 10l19 -1l8 1l4 4l-4 7l-24 -9l23 28q-6 9 -14 29l3 6l-4 3l-15 -15l5 27q0 5 -9 34 v0q-9 3 -29.5 17t-33.5 16q-10 12 -27 15l-4 -4l-12 -3l-8 7q-12 -15 -30 -24l-13 2l-14 18l-10 4q-11 -3 -31 -12l-4 12q-16 -6 -45 -47h-15l-5 18q0 11 10.5 32t8.5 34l19 13l13 -7q3 8 4 24l19 4q12 0 31 -14l3 8l-22 7l20 17l15 -9l6 15q15 -4 44 -17l13 21l12 -23 l-1 -11l3 -4q3 28 30 28l38 -12l-18 -13v-2l2 -1l8 5q14 -5 41 -15l13 3q4 -25 38 -50v17h15l-9 -21l17 -13l4 18q7 -14 23 -41l12 4q9 -20 17.5 -41t8.5 -40l-21 -3l-1 -2l14 -7l7 11l24 9l-9 -21q6 -11 15 -34zM370 549h-19v15h19v-15zM740 33q-15 17 -20 17h-4l10 -10 v-56l-3 13q-5 -3 -12 -3q-7 4 -7 10q0 8 11 19l-6 25q-7 -2 -11 -2q-5 0 -12 2l-8 46q27 -30 48 -30q4 0 14 3v-34zM688 16l-1 -20q-41 -24 -58 -24q-30 0 -75 32l-66 54q-15 13 -42 27q-41 22 -44 23q-4 12 -44 43q-45 33 -53 44l13 13l9 -2l-1 2l3 17q13 -14 24 -17l8 2 l10 13h5l9 -3l-3 -10l8 -9q12 7 29 6l5 -18l3 -3l9 4q6 -3 26 -20q15 -13 29 -14q-1 -15 20 -23q4 5 25 52q-3 -47 -3 -54q0 -17 10 -28q2 15 2 22q13 -10 43 -26l19 4l-17 -29q8 -6 27 -6q29 0 30 13l18 -10l14 7q-1 -26 -16 -24q1 -6 0 -14q-2 -12 -2 -14l3 -6l12 13z M311 243l-39 56l39 -31v-25zM315 219v-4q0 -8 -9 -16q-12 0 -14 10q4 10 23 10zM442 45l-9 -8l-18 13q15 7 20 7q7 0 7 -12zM241 253q-24 -47 -38 -159h-14l-1 11l-3 -22l6 -5q14 4 28 12q8 -69 8 -57q0 -17 -9 -29q-11 -2 -61 -16q-34 -9 -65 -9q2 5 13 16t12 20l-3 2 q-10 -8 -21 -15q-11 -10 -11 -21l-10 -3q-19 10 -16 47l-3 6l-14 -7l-9 7q8 11 12 25l-5 1l-9 15q0 10 10 20q17 16 17 17l-1 7q1 4 20 23l-10 13l11 7l-12 12l6 26l-1 5l-15 8q6 22 11 44q7 26 19 41l6 -6l5 18l-9 6l-12 -8v-25q-17 28 -14 48l-8 16l17 4l-2 7q12 10 19 25 l9 3l-4 7l-11 -2l-13 53q15 10 20 22l-6 11l2 10l15 2l-1 1l-16 -3q5 15 27 33l-36 21q18 20 15 80l37 2q8 0 22.5 -4t20.5 -5q7 -14 25 -28q13 -10 13 -25q0 -9 -4 -24l10 -10l-4 -11q0 -6 3.5 -18t3.5 -18q0 -7 -4.5 -21t-4.5 -21q0 -16 9 -38q7 -18 15 -37 q-7 -12 -20 -37q12 -15 12 -28l-17 -32l3 -4l25 7zM37 295h-15v22h15v-22zM237 -35l-22 26h22v-26zM631 506q-2 1 -4 3q-1 -4 -4 -10q4 4 8 7zM511 626l-3 2q-1 -3 -4 -8q0 -1 1 -2h3v3zM515 606l-6 9q-2 -1 -3 -1zM591 387q0 3 -5 11q-3 -7 -4 -12h8zM107 440 q-7 -5 -13 -20q2 5 11 13q2 3 2 7zM100 344v1q0 7 -10 9l-1 -2q4 -2 11 -8zM85 240l-4 -4q1 0 4 4zM100 138q-1 -3 -1 -7l1 -1v8zM125 72q-1 2 -2 2h-1q-1 -1 -1 -2t2 -3v1zM78 75v0l-2 4v-3h-1q1 0 2 -1h1z" />
<glyph unicode="S" horiz-adv-x="613" d="M585 655q0 -6 -10 -15l-14 20h19zM582 637v-19q0 -15 -10 -15h-15zM515 679q0 -8 -7 -14l-13 35q6 -6 19 -15q1 -3 1 -6zM601 579q-3 0 -22 10q0 15 11 15h2q9 0 9 -8v-17zM600 120l-10 -6l-5 8q-9 -24 -13 -31q-10 -16 -24 -24l-2 6q-33 -40 -127 -81l-18 19l2 3 q-11 -15 -38 -40l-27 13l-27 -15l-10 19l-5 2q-17 -11 -38 -21q-19 9 -56 26l-19 -6l-7 22q0 4 15 48l30 25q37 -10 74 -10q45 0 159 26l19 21l7 -3l1 8q-7 8 -16 38q-8 27 -20 34l-22 -42q-6 25 -29 32q-33 10 -42 18l-12 -9q-19 10 -58 25l-23 -22l4 27q-6 9 -37 16 q-27 6 -29 22l-7 3l-24 -4l-8 2q-13 18 -39 57l-7 -17l-11 -1l-16 3l-17 17l-3 52l-34 -3q-3 24 -19 83l3 12l17 -5l28 26l17 -14l2 10l-17 20l1 7l-18 -21l-9 28h28l5 34h23l3 -24h16l6 -7l11 42l32 -14l9 4l-2 20l24 20l-3 -19l8 -10l2 -1l6 8l-6 19l17 16l27 -6l4 -13 l-15 -12l-1 -5l28 4l12 14l-4 11l-13 9l-13 -3l-2 9l-4 -3l-2 12l32 6l17 21l11 -18l-7 -15l5 -4q9 1 23 22q18 27 19 28l13 -4l6 12l31 -40l5 22l19 19l6 -34l1 -1l27 32l14 -3l-8 -20l4 -4l12 11l30 2q7 0 20.5 -4.5t20.5 -4.5q5 0 10 1l8 -29l-2 -8l-8 -6v-5l35 -21 q-11 -3 -48 -2q-30 1 -45 -9l-9 12q-26 -23 -54 -27l-6 28l7 26l9 -8l3 9l-20 4l-12 -7q-3 -7 -1 -18q2 -17 2 -18l-5 -17l-24 -11l-14 17l-13 -24l-17 14l-8 -41l-13 29l-91 -78l-17 2q-11 -27 -11 -46q0 -33 39 -63t72 -26l9 -12l34 -6l6 -19l5 -1l21 10l18 -22l18 12 l18 -5q7 -13 18 -15h23l18 -6l7 -15q20 -4 59 -48v-9l5 -29l4 9l-3 24q20 -22 40 -77zM168 1q-19 -1 -19 16q0 14 19 16v-32zM160 531q-2 9 -2 14h-9v-2zM190 502l-18 -6q-4 8 -8 19v-42l10 4q8 12 16 25zM174 401q-1 9 -5 17q1 -11 5 -17zM53 445l-1 3l-6 4l-7 -1l-7 -8 v-10z" />
<glyph unicode="T" horiz-adv-x="676" d="M659 608q-23 -18 -60 -60l-22 1l-22 -17l-7 16q-10 -11 -27 -12q18 1 -31 1q-2 0 -16.5 -5t-21.5 -5l-10 2v12l-4 1q-8 0 -24.5 -11t-33.5 -8l4 -12q-3 -11 -1 -27q3 -23 3 -26l-15 -24q5 -24 25 -45l6 -93q-12 33 -14 38q-10 21 -22 34l-3 -9q17 -20 10 -41l18 -39 l-13 -14l-7 -80l20 -15l5 -40l-13 -3l-18 33l-5 -5q1 -20 25.5 -75.5t24.5 -106.5q-5 20 -10 39q-9 25 -22 35l-22 -33l6 -25l-25 24l-7 -3l-11 8l-19 -10q-14 4 -20 16q-10 21 -12 22l-5 -2v-33q-24 11 -36 39l7 15q-4 20 -6 25q-6 14 -18 18v-56h-19l10 49l-10 9l13 29 q0 9 -6 28t-6 29l12 28l-1 1l-25 -11l17 34q-1 6 -8 24q-6 15 -6 25q0 62 11 86q-7 22 -7 42q0 16 8 77l33 -4l4 8q-11 17 -47 17q-57 0 -110 -10q-36 17 -56 40q7 12 28.5 26.5t28.5 24.5l14 -6q23 5 29 7q16 7 24 17l31 -18q15 20 47 25q27 1 55 3l-7 20l21 12l13 -18l9 5 l16 -16l18 21q15 -19 30 -30l9 30l31 -21l19 3l-8 -24l5 -26l2 4l-4 10l15 39l14 -5q12 33 27 48l18 -13l6 13l22 13l13 -20l-1 -6l14 3l8 -2l20 -28l15 7q5 -16 23 -46l1 2q-11 17 -10 41l3 45q12 -16 23 -42q18 -39 20 -43zM402 114l-11 -5l-3 6l11 5zM415 71l-7 -9l-5 4 l8 8zM572 597q0 8 -9 10q2 -6 8 -12zM253 450v8v7q-4 -7 -4 -16q0 -6 3 -9q1 6 1 10z" />
<glyph unicode="U" horiz-adv-x="716" d="M689 517q0 -17 -1 -10q-8 -6 -22 -11v53q23 -16 23 -32zM650 257l-19 24l9 9l3 -3h2q3 -5 5 -7v-23zM593 216q0 -26 -9 -49h-30zM695 419l-16 -6l-23 8l-6 -5l-2 -37h18v-30l-18 27l-2 -22q-13 -11 -18 -37q-6 -31 -13 -40l14 -18l-4 -42l-29 35l-8 -2l9 -28l-21 -11 q-5 -19 -22 -33l4 -3q-28 -20 -38 -43l2 -9h-1v-17h-16v17h-8l1 22l-4 5q-15 -3 -23.5 -37.5t-33.5 -40.5l-6 37q-7 -23 -30 -64l-21 15l-10 -2l-5 -9l39 -17l-46 4l-2 -2l1 -12l-14 -19l-30 -11l-16 6l-6 18l-4 1l-16 -19l-8 -3l-25 34l13 11l-2 1l-22 -14l-1 -27 q-29 25 -55 32v17l-35 -2l-18 4l-11 17q0 18 -17 54q-23 48 -25 55h-15q3 17 0 36q-4 26 -4 33q0 17 7 36l-14 18l-1 22q-1 15 6 39.5t7 36.5q0 13 -5 26h22l2 1l-17 20l5 16l18 -5l8 3q-10 21 -15 44l7 16l7 -1q-1 11 5 35t6 35l14 -44q2 21 2 56l-3 -8l-14 10l8 18l9 -4 v11q0 23 8 49l31 -23v0l17 6l17 -9q8 -36 92 -35l-10 -36l-10 4l-12 -14l1 -7q0 -18 -5 -58.5t-4 -62.5l-6 11l5 -32l-18 -19l-6 8q-22 -34 -28 -88l7 -13l8 9l5 30l17 -27l-19 -51l-11 14l-7 -31l1 -8l23 31l27 -38l-26 4v0q17 -17 28 -24l-3 -23l-32 28h-3l-2 -3l11 -17 q-7 -8 -23 -60l2 -1l7 1l20 26q4 -12 8 -34l16 15l-14 31l10 5l11 -14l-1 -4q0 -18 13 -39.5t30 -25.5l-14 33q52 -4 56 -4q27 0 43 26q14 9 43 26q25 74 64 86l-19 17l6 17q12 4 32 19l-17 25q15 24 9 49q22 33 22 103q0 67 -26 95q0 21 -23 48q-27 32 -31 44l4 22l26 -12 l9 25q6 -19 22 -37v18l23 -9v-16l21 -11l15 16l11 -20l2 1l-11 31q36 -19 48 -47l-13 -8q22 -5 34 -13q-3 6 -15 59q18 -2 39 -40t21 -58l-17 -20l-14 7l-1 6l11 21l-19 16q-3 -7 -2.5 -24t-3.5 -26h-1l33 -27q-8 -12 -9 -35v-37q-1 -16 -6 -27l4 -5q17 19 21 23 q10 14 11 27h21l-14 -46zM82 568q-11 -11 -19 -11q-16 0 -16 13q0 2 1 5t1 4q0 6 -8.5 17t-8.5 19v4q20 0 27 -19q10 -24 23 -32zM233 366h-14l-5 23l12 1q4 -5 7 -24zM44 544l-8 -8q-15 6 -15 15q0 3 4 9t4 24q11 -11 13 -16.5t2 -23.5zM599 598v2h-1q-4 0 -9 -6h4q6 0 6 4 zM503 676h-2h1h1zM615 566l-7 -3v0zM547 601q-1 1 -1 2t-1 1q-2 0 -3 -5q2 1 5 2zM516 416q0 2 -3 2h-2q-1 0 -4 -1l1 -14zM530 187q-7 -3 -7 -7q0 -1 1 -3v-1q5 3 6 11zM211 477q-4 5 -9 8l-2 -5zM228 455q-9 14 -16 22q0 -2 -1 -7t-1 -8q0 -4 5 -12zM101 474l-4 13 q2 6 3 13q-7 -20 -7 -37zM153 353v13q-2 -2 -4.5 -3t-2.5 -2q0 -2 7 -8z" />
<glyph unicode="V" horiz-adv-x="792" d="M733 496q-11 -1 -7 -1h-2q-11 0 -11 18v9q20 0 20 -26zM701 426l-21 -29v29h21zM217 631q-16 -16 -23 -16q-10 0 -10 12q0 8 9 14h9q10 0 15 -10zM772 585l-5 -22l-14 4l4 -14l-17 -9l-3 -6l8 -34l-27 28l-14 -7l-3 -7l4 -24l-12 -13l9 -19v4l11 11l2 -1l6 -16h-18l2 -6 l-9 -25h-18l11 28l-10 3q-4 -13 -4 -38l-11 -9q-1 -12 2.5 -34t3.5 -31l-7 -28l-20 -2l-5 -7l12 -34l-14 -4l-11 9l6 -7l-7 -21l-23 -13l-2 1l19 -15q-2 -3 -13 -27q-8 -17 -19 -23v-10h-15l-2 -3l14 -17h-31l-1 -18l8 6l4 -17l10 9l-7 -19l2 -8l-4 2q-10 -25 -27 -47l-9 28 l-1 1l-6 -40l-17 -7l-21 2l14 18l-1 2l-10 -2l-8 -10l4 -12l-11 -10l-12 17l1 4l-11 5q-18 -35 -22 -55l-18 22l-1 -10l-22 12l-2 -4l16 -25l-52 -19l-15 5l5 -7l-16 -10l-9 1l13 19h3l14 16l-2 2l-12 -4l-13 17l-1 -1l3 -15l-11 -17q-23 23 -53 80l-7 -7q-10 23 -29 69 l4 13l-10 21l4 5l-8 5l-19 -16l6 24q0 11 -11 29.5t-10 30.5q-42 64 -82 184q-48 142 -72 190l21 -5l3 3v24l9 -6l-5 18l13 -4l2 4l33 15l21 -26l5 4l-9 19l7 19l14 -12l14 19l4 -33l24 26q1 -38 -5 -64l27 6l-8 -14l16 -19q-7 -14 -1 -38l-8 -13q9 -17 32 -18l12 -21 q-3 -17 -25 -56l10 -11l16 15l4 18l11 3v28q20 -44 25 -75l-28 11l-3 -3l13 -12l8 4l28 -27l-14 -14l-4 2v0l-29 -31l6 -4l21 17l15 -20l-11 -15l7 -4q11 14 36 39l-4 -26q0 -46 20 -82l-2 -14l8 -12v-39l-16 9l-2 -3l25 -13q12 26 22 66q3 -23 10 -71l10 -12l-7 -25l3 -11 l20 19l-2 -28l5 -7l11 12l-9 10q5 48 60 86l-8 14l-11 -11l7 56l18 -28l-12 -15l11 -12l9 6q6 15 4 60l16 22l-12 5q6 46 21 92q22 67 49 70l2 7l-18 12q32 34 28 70q20 -18 40 -17l5 -11l-16 -30l-7 13l-5 -22l10 -10q5 16 22 45l-17 30l6 20l23 9l-6 -24l3 -12l6 10 q-2 8 -2 16q0 21 12.5 41t25.5 40l9 -18l-21 -24l21 18l4 -4v1l2 19l35 -30l8 8q1 -5 4 -5q8 0 14 17q13 -55 13 -57zM416 -65l-62 30h31zM679 597l-9 10v8l-4 -4l-3 -17l5 -12zM636 392v4v3h-3q1 -5 2 -9h1v2zM589 434q-1 2 -3 4q-3 -1 -3 -7t4 -9q0 4 2 12zM645 366v1 q-3 -6 -4 -13q4 9 4 12zM588 365l-1 1h-1l-1 -1h3zM568 364l-2 2q-2 0 -8 -3.5t-8 -3.5q2 -1 4 -1q5 0 14 6zM524 260h-5v-1v-3q4 2 5 4zM168 605l-19 -4l-7 -8l5 -8l18 18q1 1 3 2zM198 491q-3 9 -4 9q-2 0 -5 -1q1 -3 9 -8zM553 108q-4 3 -6 7l-3 -9l2 -5zM200 446v0 l-2 -1l1 -1l1 1v1zM309 277v5q0 1 -1 5q-1 -2 -1 -4q0 -1 2 -7v1zM364 129v2q0 8 -3 12q-3 -3 -9 -10q3 -2 11 -4h1zM251 158h-2l-1 -1v-3q2 2 3 4zM250 154h-2v-1h1zM282 74l-1 2l-4 3l-19 -18l13 -6l-4 11l14 6z" />
<glyph unicode="W" horiz-adv-x="793" d="M759 552q0 -6 -7 -13q-13 4 -13 13q0 2 1 6.5t1 7.5h12q6 -10 6 -14zM745 536v-15q0 -8 -13 -12l-7 27h20zM661 247l-11 -31q-11 13 -11 18q0 4 5 9t6 7zM269 420q0 -7 -3 -22t-3 -23h-22q-5 6 -5 11t4 12.5t4 10.5q0 2 -10 7q1 1 11 18q6 11 15 11q9 -12 9 -25zM739 606 l-6 -12l-14 -4l-2 -3l9 -23q0 -11 -4.5 -36.5t-3.5 -39.5l-15 5l1 -29l-11 -21l-23 3l-13 -11l1 -2l12 -5l7 -17l-2 -6l18 -22l-5 -15l3 -9l29 -22l-51 5q-16 -25 -42 -79l-9 -6l27 -77l-42 33l-4 -6l1 -13l9 -11q-7 -26 -19 -79l-12 1v15l-28 17l-1 -2l16 -24l-6 -1l14 -9 l4 -10l-2 -37l-26 14l-3 -31l-15 18l-11 -36l-14 -9l-21 32l2 -14l-11 -18h-6l-10 13l24 20l-9 3l-42 -34l-22 17l-9 -1q-9 5 -20 23t-21 23q-2 15 -20 94t-19 79l-23 -7l23 -27l-24 -25l-18 3l-7 -5l10 -7l8 10l30 -22l-13 -8l7 -16l-13 -4l-17 17l6 -37l-8 -42l-11 2 l-8 46l-13 -6l3 -16l-7 -7l15 -29v10h14v-16h-14l-5 -25l-20 14q-1 -10 1 -26q2 -19 2 -26q0 -36 -36 -91l-26 7l11 -14l-29 -9l-16 -18l-15 15l-18 -2l-19 7l12 13q-43 34 -58 98q-9 41 -9 116q0 51 1 60q3 36 19 57l-9 6l-5 17l6 40l9 7l-11 6l7 16q0 20 -10 60t-10 61 q0 9 5 33q3 21 2 34q38 -19 56 -27q31 -13 58 -16q6 -28 5 -73l-8 -8l11 -19l-3 -7l11 -29l14 24q-7 -63 -26 -94l17 -9l-3 -3l12 -23l-19 -16v35l-13 -1l4 -21l-4 -8l14 -23l32 3l15 22h-15v32l15 -28l-5 34l16 11l11 25q-9 23 -9 60h19l-2 -11l12 -16l-10 23q37 35 33 60 h18l6 -47l11 11l-6 40l-30 16l-7 -2l-15 32l10 17l16 -17l28 7l1 3l-3 5l-12 -9l-11 28l10 27q24 -13 41 -30q-13 28 -13 46q31 -2 50 -27l-4 -12l4 -9l17 19l14 -3q8 -15 24 -33l10 3l11 -33q0 -12 -4.5 -34t-4.5 -33l-5 -8l25 -17l-8 -15l2 -15l-15 -9q-4 -26 -16 -49 l14 -18l-14 -13l5 -4l5 -21l18 -12l-20 -32l13 -19l-4 -32l3 -23l7 -8l2 3l-4 20l12 -1l25 27l-1 4q52 100 52 142q0 8 -2 13q16 15 22 62q5 44 28 57l-1 26q-2 18 23 38l2 11l-16 4q10 16 19 32q11 20 11 34q0 9 -3 16l6 23l-5 13l15 11l27 -8q5 24 11 37l11 -12v-4l-6 -23 h-12q19 -14 11 -36l2 -2q17 17 12 58h27zM469 161q0 -11 -10 -11h-9v26q11 0 19 -6v-9zM192 309l-11 -2l-1 4l12 2v-4zM214 -113v-5q-1 -3 -1 -4v-24q-20 27 -20 38q0 5 6 15q15 -6 15 -20zM577 342q0 3 -2 6v-3q1 -2 2 -3zM341 476q-1 6 -3 13q-4 -12 -4 -13q0 -2 1 -8z M334 403q-7 3 -10 14v-8q4 -4 10 -6zM273 344l-4 5l-9 -20zM307 284q0 3 -10 4q6 -7 10 -10v2v4zM414 162v12q0 3 -1 5q-9 -7 -9 -11q0 -6 10 -6zM168 332h-14l3 -7l8 1zM68 412v1l-2 -1h2zM70 403l-2 1v-1v-1zM257 168q0 2 -1 4q-9 0 -9 -11v-3q10 7 10 10zM152 255v3 l-1 -1zM188 171l-21 24q-2 -2 -26 -23q-17 -14 -18 -27q27 -38 35 -72l6 -2q-1 5 -1 8q0 15 8.5 42.5t8.5 41.5zM146 76l-7 8l-2 -8l2 -4l7 4v0zM203 -23v4q-4 -13 -7 -20q7 2 7 16zM108 60l-1 1v0v-1h1zM110 56l-2 2l1 -3v0v0zM144 25q-6 -28 -6 -24v-3q6 5 6 23v4z" />
<glyph unicode="X" horiz-adv-x="561" d="M549 28l-1 -12q-42 -15 -69 -31v-19l-18 13l-30 -14q-19 12 -30 28l-9 -1l-8 22l-4 -1l-12 4l-13 15l2 16q0 22 -15 35l-13 -22q-4 16 -9.5 32t-19.5 21l2 6l-8 13q-19 8 -28 24l8 14l-14 3l1 10l-20 23l-24 -19l3 -7q-26 -60 -56 -90l6 -11q-3 -8 -24 -44l-9 2l-30 -28 l7 -4h-11l-5 -4v4h-17l-5 -7l-21 8l8 10l-8 3l-23 -14v33l20 28l-41 -21l47 45l7 -6q0 33 28 81l8 -3l4 4l-4 13q14 15 20 31l6 -3l3 20l12 -4l7 6q0 24 6 40h8l3 17l12 5l-5 5l8 24l18 -17l4 14l-6 3l-9 -3q-17 53 -54 124q-32 60 -64 119l3 11l-17 19q36 5 45 5 q19 0 39 -16q19 14 33 17l2 -19l7 -6l8 1l10 -5q11 -17 7 -30q7 -5 30 -19l-6 -10l-2 1l-2 -1l-5 -8q14 -22 56 -48q1 1 54 72l-6 23l4 20q10 17 34 46v18l20 -16l8 30l12 -6l25 18l6 -15l-9 -19l6 -2l9 15l-3 11q14 13 49 35v-20l-9 -5l2 -1l3 -30l-11 -10v0l-29 -57 l-14 -2l4 -9q-11 -28 -36 -66q-41 -61 -41 -62l-8 6q-1 -13 -31 -82q17 -11 31 -27q2 -21 11 -34l2 2l11 -5l1 1q9 -28 69 -102l-2 -9q3 -6 23 -26q15 -15 16 -30q20 -12 30 -34l-2 -10q2 -1 26 -18q16 -11 16 -25zM512 -22q0 -10 -9 -10q-4 0 -14 10q0 8 8 15v0h3q1 1 2 1 q4 0 10 -7v-9zM402 -14l-11 -4l-2 4l11 4zM31 14l-11 -4l-2 4l11 4zM221 428q-1 1 -2 1h-2q2 -1 4 -1zM371 279l-10 -16l3 -4zM285 215q-2 -1 -4 -3h1zM433 45q0 1 -1 1q-6 0 -11 -5h2q10 5 10 4zM421 40h-1v-1zM321 155l-16 15l-23 -7l8 -17l17 15l3 -23l1 -1zM281 165v5 h-2zM96 18l-2 14q-1 0 -3 1q-7 0 -7 -11v-4v-2l8 4z" />
<glyph unicode="Y" horiz-adv-x="586" d="M572 623q-19 -9 -25 -33.5t-20 -30.5l2 -6q0 -10 -8 -22q-11 -19 -12 -20l3 -11q-14 -15 -36 -48l3 -15l-19 -2l1 -23q1 -19 -18 -57q-24 -45 -28 -57l-18 -17q-5 -22 -11 -44q-8 -25 -21 -40l-11 14q-5 -6 -5 -36l-3 -13q-23 -9 -29 -54q-7 -48 -24 -61q0 -28 -4 -45 q-16 -15 -40 -20l-16 26l-14 -7l6 -14l-10 -12l-30 28v1l-18 4l-19 -25l-14 16l5 21q25 9 42 18l1 10l-3 12l-13 7h-32l38 23q2 29 24 61t22 46q20 33 21 65l-11 7h-25q-9 15 -23 47l4 10l-20 9l-3 34q-56 59 -53 103l-11 13l4 17q-41 100 -87 173q39 -9 77 -18 q38 -12 64 -45l-6 -15q25 -12 46 -60q19 -44 19 -75l30 12l-6 -24q0 -14 14.5 -37.5t15.5 -37.5l-12 -12l8 -22q6 -14 15 -16q7 18 16 69l20 -35l11 -7l3 5q-9 11 -29 33l26 25h4l18 18h-20q7 15 21 33l-6 6q26 22 34 42l-7 19h25l-3 6l2 8q19 7 19 22q0 4 -6 29l7 15l13 2 l-13 31l19 -6q6 9 20 20t23 7zM158 30l-16 -8v34q15 -1 16 -26z" />
<glyph unicode="Z" horiz-adv-x="678" d="M664 57q1 -16 -9 -41q-13 -30 -15 -40l-27 31l1 -12l-11 -16q-11 14 -26 27l-28 -20h19l13 -26l-36 23l-17 -27l-4 29l14 24q-16 -16 -52 -31l-5 -11q-9 9 -37 52l-25 -15l-2 1v-31l-19 22q-14 -16 -31 -23l-8 16l-19 -3l-9 4l-15 -24l-19 26l-9 -8l-31 12l-16 -12 l-13 18l-7 3q-4 -2 -30 -17q-18 -10 -31 -10l-17 3v9l-10 36l-3 1l-24 -18l-6 12l-15 -10l-13 4l4 5l-19 8l17 32l-11 1q-19 0 -49 -19q7 15 23 28q15 10 30 21v9q25 10 37 47q10 30 7 62l20 -39l4 -2l5 32h44q16 33 34 55l-14 17l11 20l17 -11l26 22h-9v28l17 -13v5 q17 8 42 33q-5 20 -13 33l2 9l12 10l-4 18l24 16l-2 -27l3 -13q14 32 45 95l31 16l4 -6l-7 36l9 22l18 12l-5 9l-3 1l-5 -3v-12l-21 11q-22 -29 -69 -28l-14 1l-8 11l-18 7l-6 -5v-11l-13 -6l-16 6l-12 -11l-10 3l-17 28l-4 -21l-34 -8q-25 0 -53 38q-20 29 -40 59l43 18 l11 -11l3 8l37 13l10 -9l14 18l13 -17q43 0 129.5 10t130.5 10l29 -10q10 4 72 8l4 -18l-6 -18l29 -7l6 -11l-8 -24l-12 2l1 4l-5 7l-2 -6q-3 -10 -1 -28q3 -20 1 -28l-14 -10l1 -7q-12 -13 -34 -40l-10 -3l-22 6l9 -4l9 -12q-15 -21 -41 -65l-6 20q-5 -21 -20 -35l5 -8 l-44 -72l-8 1l-4 -1l-5 -8l2 -9l-16 -23l1 -5q-39 -43 -62 -83l-2 29l-5 5l-2 -2l2 -13q-22 -48 -71 -111l-6 7l-7 -9l1 -20q48 0 145 -6t147 -6q21 0 64 6.5t65 6.5l10 -2zM301 363v-6.5v-6.5l-27 -16q-7 10 -7 14q0 5 23 27q11 0 11 -12zM236 323q-3 -8 -4 -9q-3 -4 -9 -4 h-22l28 17zM202 251q0 -15 -11 -20l-15 17q12 12 17 12q9 0 9 -9zM177 227q0 -18 -10 -18h-10q-7 5 -7 11q0 3 3.5 11t3.5 13q20 0 20 -17zM139 -23l-12 -1l-5 27h17v-26zM445 604q0 8 -16 8q-2 0 -3 -4q21 -5 18 -5zM407 355l-13 1l4 5q4 -3 9 -6zM495 -4l-3 6l-6 -6l2 -12 zM413 8l-2 2q-3 -3 -6 -7q3 3 8 5zM211 179l-21 16l-1 -5l19 -17l2 1zM89 48l-3 11l-11 1l13 -17z" />
<glyph unicode="[" horiz-adv-x="448" d="M428 672q-8 -6 -9 -15q-2 -6 0 -17q2 -14 2 -18l-9 -21l5 -25v-5h-11l-1 6l-11 -30l1 -5l-11 -4l-13 31l-5 -29l-16 21q-16 -26 -90.5 -242t-76.5 -243l19 -5q15 6 78 6q44 0 104 -45q-12 -20 -26 -35l-13 4q-26 0 -57 -23l-23 11l-18 -1l-16 -13l-26 8l-15 -8 q-8 9 -23 9q-5 0 -13.5 -1t-12.5 -1q-11 0 -16 7l-13 -20q-11 13 -34 28l-2 -1l-13 -13l-20 23l-7 -7l-15 19l-1 18q17 0 24 22.5t19 26.5q-7 16 -7 36q0 13 6 51h15l7 5l-2 25l16 13l-4 9q9 51 17 103q12 62 35 96l-3 26q0 45 19 121h-3q0 3 12 58l1 -22q9 30 17 43 q13 27 30 31q15 -13 31 -18l17 25q15 -15 26 -37l8 5l3 -6l12 12l3 -7q4 16 4 35l14 2l11 -15q17 12 36 12q20 0 44 -16zM401 660l-3 3q0 -1 -1 -4v-3q0 -2 1 -4q3 6 3 8zM200 593l-5 2v-2v-1q0 -2 1 -5q2 4 4 6z" />
<glyph unicode="\" horiz-adv-x="614" d="M604 7l-5 -9l-33 5l3 -19l-21 -12l-17 24l1 -24l-18 5q-53 80 -159 239q-33 49 -178 240q-111 146 -167 246l11 25l38 -21l24 15l28 -28l6 -2l11 24q9 -15 63 -69l-3 -26q150 -148 167 -206l-11 -7l14 -28l10 8l12 -3l32 -54q17 -34 15 -58q21 -10 40 -33t22 -45l-8 -8 h-10l33 -21v-11q39 -38 76 -110l-2 -2l9 -7l-2 -2zM446 221q-7 16 -25 26l-1 -2q14 -20 24 -32z" />
<glyph unicode="]" horiz-adv-x="444" d="M426 614q-17 0 -23 -21q-7 -24 -19 -28q7 -16 7 -36q0 -13 -7 -51h-15l-7 -5l2 -25l-15 -13l3 -9q-8 -51 -17 -103q-12 -62 -35 -96l4 -26q0 -45 -19 -121h3q-1 -2 -13 -58l-1 22q-9 -30 -16 -43q-14 -27 -31 -31q-15 13 -31 18l-16 -25q-16 16 -26 37l-8 -5l-4 6 l-11 -12l-4 7q-4 -16 -4 -35l-14 -2l-11 15q-17 -12 -35 -12q-21 0 -45 16q8 6 10 15q1 6 -0.5 18.5t-1.5 16.5l8 21l-5 25v5l12 1l1 -7l11 30l-2 5l11 4l14 -31l4 29l16 -21q16 26 90.5 242t76.5 243l-19 5q-15 -6 -78 -6q-44 0 -104 45q12 20 26 35l13 -4q26 0 57 23 l24 -11l17 1l16 13l26 -8l15 8q8 -9 23 -9q5 0 13.5 1t12.5 1q12 0 16 -7l14 21q11 -14 33 -29l2 1l14 13l19 -23l7 7l15 -19zM252 57l-1 1v5q-3 -4 -5 -6l5 -2q0 1 1 2zM49 -6q0 2 -1 4q-2 -6 -2 -7q0 -2 2 -4q1 1 1 4v3z" />
<glyph unicode="^" horiz-adv-x="581" d="M546 372q-11 -14 -23.5 -27t-29.5 -18l2 -12q0 -11 -12.5 -20.5t-24.5 -17.5q1 -9 7 -27q-77 43 -103 116l-28 7l-10 14q21 15 20 45h-3l-7 -14l-7 33l-14 2l-8 24l-13 2l-38 56l-2 -2q2 -13 4 -37v-3q0 -1 -20 -16l10 -7l-2 -5q33 10 42 10l8 -10q-4 -15 -19 -15 q-4 0 -40 10l-17 -15l-1 -5q9 -11 21 -19l-25 -31l9 -6l-35 -26l11 -28l-36 -5l35 -42q-33 -3 -55 -28l45 -17q-17 1 -35.5 3t-32.5 13q-10 -13 -22 -13q-8 0 -21.5 5t-19.5 6q-8 -6 -19 -21l-2 35q-2 56 42 112l-11 27l7 16l24 -1l26 11l-2 2l-16 -2l25 24l-7 12l17 20 l-7 11q14 32 29.5 65.5t32.5 57.5l12 -8l-5 9l3 2l-7 11l6 16l2 -1q10 22 26 22q14 0 36 -15l-3 -1l5 -10l5 1q11 0 30 -15l-12 -16q14 -1 40 -8l-2 -17q12 -5 36 -19l2 -25l12 4q1 -12 5 -37l4 -3q14 1 28 5l12 -37l11 3l2 -42l30 -7l-16 -31l55 3q-8 -16 -8 -42l1 -17z M88 453q0 -8 -9 -15l-39 -31q6 20 12.5 41.5t20.5 32.5q15 -17 15 -28zM253 633l-4 4q-3 -2 -4 -4q2 -2 5 -6q1 3 3 6zM421 368q-3 -4 -7 -8l7 -7v15zM445 309q-3 2 -6 2q-10 0 -10 -13q0 -2 5.5 -5t8.5 -3v0q0 6 2 19zM102 323q1 8 0 16l13 -7zM76 281q-2 8 -9 8 q-11 0 -11 -5v-3q1 -10 2 -10q1 1 3 2q9 6 15 8z" />
<glyph unicode="_" horiz-adv-x="618" d="M635 -26q-1 -10 -7 -13.5t-17 -15.5q1 29 21 29h3zM572 -38l-14 -17l-20 4l-2 -19l-14 -1q-12 0 -22 22h7l-7 9l-8 -11l7 -17q-42 -7 -165 -12l-11 9q-10 -3 -30 -7l-12 8l-22 -7l-8 9q-22 -8 -33 -36h-19l-25 16q-37 -8 -71 -8q-53 0 -119 20q29 6 31.5 9t2.5 29 q0 16 24 20q-4 7 -6 21l11 29l3 -32l1 -1q19 2 47 24l-2 2l10 7l36 -39l19 27l28 -17l43 20l4 -9l48 11q-1 -12 11 -22h5q25 10 42 14l4 -10h2q8 4 25 11q15 -6 45 -15l14 9q12 -8 36 -22l9 16q35 -7 35 -25l-6 -15h8q12 0 22 5l-8 22q44 -10 44 -31zM131 -57q0 3 -3 4 l-1 -1q2 -2 4 -3zM66 -67q0 5 -11 8q-7 -4 -14 -10q4 -2 17 -6q8 5 8 8z" />
<glyph unicode="`" horiz-adv-x="234" d="M217 662q0 -6 -10 -18q-7 8 -12 11l-12 -5l-22 5l3 2q-5 0 -16.5 4t-17.5 4t-12 -10q-12 2 -23.5 16t-20.5 16l-12 12l-2 -1q-9 27 -9 46q-2 -5 -12 -65l-4 71l17 3l3 22q6 1 30 20q4 -6 15 -15l4 3q16 0 25 -25q5 -2 10 -6v2q5 7 12 7q13 0 13 -9q0 -6 -6 -12l-2 -1 q6 -3 14 -2q9 -11 26 -38q21 -31 21 -37zM141 751h-1v0h1zM75 707h-1v0h1z" />
<glyph unicode="a" d="M422 393q0 -17 -13 -23l-7 40q6 -6 20 -17zM597 -11l-26 -35l-14 34l-15 -24l-15 -4q-13 6 -28 23.5t-11 30.5q-6 15 -15 46q-10 8 -19.5 30.5t-19.5 30.5q0 21 -14 44q-1 1 -28 37h-5l-20 11q-17 -3 -49 -3q-35 1 -50 -1l-5 13q-23 -9 -32 -46q-5 -29 -9 -59l-26 51 l-7 -31l19 -30q-15 -42 -18 -47q-11 -26 -26 -43l-15 14l-28 -14l-12 7l-7 -10h-15v3l-8 -3q-18 19 -23 45l8 4l-17 26l11 27l19 11l10 -4l5 7l-14 33q5 23 9 45q7 27 24 35l-15 25l5 12l-19 29l2 13q18 5 47 31v16l25 -5l6 5l4 17q0 13 -9 33q-7 15 -14 31l19 -3l-4 12 l6 11l10 6l-21 13v10q0 8 8 22t16 13q5 32 1 59l19 3l10 -13l1 4q0 45 -2 58l-2 3l-23 -7q12 21 25 42q17 24 38 30l9 13l34 -6q14 -17 48 -11l-7 -19l14 -7q10 -41 -4 -72l2 -4l14 -8l17 -27l-3 -21q0 -34 12 -71l3 -3l19 12l-9 -31q0 -8 4 -32q3 -19 1 -31q5 -8 9.5 -26.5 t9.5 -26.5l22 9l2 -19l-16 -26q18 -2 28 -13.5t20 -22.5l17 17q4 -8 23 -32q15 -19 19 -36q-5 2 -41 29l-8 -6l14 -23l-13 -13h-3l14 -15l-7 -18l2 -2l4 8l12 2q7 -35 29 -67l-2 -2q9 -16 18 -33q11 -20 26 -26q7 -21 20 -64zM144 400q0 -4 -5 -14l-8 -4q-8 4 -8 10 q0 1 5 14q1 1 1 20q15 -22 15 -26zM78 186q-6 -9 -28 -10l20 24q8 -8 8 -14zM211 68q0 -27 -12 -41q-10 6 -10 12q0 14 22 29zM70 130l-1 -1v-5h-28l6 26h1v18h14v-23h-3q11 -4 11 -15zM54 57q0 -5 -5 -10t-6 -7q-17 0 -17 12q0 8 8 14q20 0 20 -9zM51 31q0 -14 -10 -14h-11 v20h21v-3v-3zM373 444l-1 11q-6 3 -10 9q4 -18 11 -20zM263 531v7q0 -2 -2 -7v0h2zM206 538l-21 -10l-7 4l-3 -9l5 -2q11 3 15 5q9 5 11 12zM200 497q0 2 -3 5v-5l2 1l1 -1v0zM342 314q0 21 -17 60q-22 52 -25 61q-3 17 -11 35q-12 -13 -12 -24q20 0 20 -23q0 -8 -15 -11 l5 -5q0 -15 -12 -16.5t-13 -4.5q16 -16 16 -19q0 -8 -10 -12q5 -3 11 -15q-10 0 -23 -11q1 -13 10 -20q52 0 74 -11q2 8 2 16zM216 414q0 12 -3 12t-3 -4v-2v-4q2 -2 6 -2v0zM161 336q-4 -6 -6 -13l2 -2q1 5 4 15zM179 242q0 1 -2.5 2t-3.5 2q1 -2 5 -6zM214 166 q-6 20 -18 40l16 15v1l-7 -2l-9 -13q4 -14 4 -19t-2 -12l14 -12zM118 203q0 8 -3 17q-3 -3 -3 -6t6 -11zM144 92q-1 4 -1 9q-2 -5 -2 -7v-2h3z" />
<glyph unicode="b" horiz-adv-x="536" d="M465 638q-10 -7 -16 -7q-9 0 -40 29h29q1 -7 10 -11q13 -6 17 -11zM474 339q0 -10 -17 -10v19h3q9 0 14 -7v-2zM517 558q1 0 -2 -7l-5 -16l-14 -4l5 -9q-10 -5 -22 -14l21 -22q-28 -15 -68 -52l-2 -6l17 -3l-50 -37l-9 19h-2h-1l-9 -12h11l1 -11q-7 -12 -21 -38l11 -17 q4 8 10 41h24q3 -25 17 -73l-2 -16l3 -4l1 26l19 18l33 -14l-20 -15l-3 -27l2 -13l8 -7l16 20l10 -14v-17l-19 4l-12 -21l7 1l12 11v-48l-14 8l6 -14q-17 -11 -19 -37h7q-3 -24 -15 -28l-10 28h8q-7 15 -3 44l-10 8l-11 -17l17 -10q-1 -5 -22 -49l8 -18l-24 -39v-25 q-22 0 -28 21l24 6l4 45l-4 3l-7 -13l-19 -13q-4 -23 -7 -34q-5 -18 -13 -32l-11 19l-9 -17l-8 8l-24 -28l-10 2q-6 -5 -27 -13q-16 -7 -24 -19l-10 14l2 13l-5 4l-32 -22l-5 35v1l-31 -10l-10 14l-24 -18l4 17l-20 22l-5 -5l3 -17l-15 -18q-8 14 -26 42l-6 -14l-19 -8 q-7 51 -7 48l4 13l12 9l-1 8l1 9l-7 12h-17l8 21l6 5q-3 20 -12 59l14 7l7 18l-16 43h17l-8 8l9 17l-15 35l5 9l-9 -11v30l11 6l3 8l-9 18l16 29l-9 13l-24 -7q9 19 27 42l-9 12q0 14 -2 43t-2 43q0 38 24 67q17 8 51 23l18 -11q12 12 28 24l14 -7q16 11 30 26l14 -4l6 6 l15 -6l20 5l33 -10l17 7v-25h2q2 1 32 26l19 -14q33 3 73 10l-52 -26l15 -6l14 5q10 -16 62 -42q44 -21 47 -54h2zM502 557q-21 10 -36 24l-1 -1q7 -15 10 -29l5 4zM339 655v4h-7q1 -3 7 -4zM424 560v9l-2 -10zM260 663l-15 11l-2 -7l5 -5q3 -1 7 -2h3zM370 395q-10 0 -10 5 q0 2 1 3q-3 0 -9 3l-1 -1l8 -17l5 -2zM350 518q1 24 -15 34q-27 16 -31 21l-6 -12q-7 30 -20 30l-11 -9q-17 7 -47 24q-2 -1 -11 -10q-5 -5 -12 -5q-9 0 -33 22q-6 -11 -22 -29l1 -9q0 2 -4 -22q12 13 12 35q16 -15 21 -27q-10 -6 -14 -15q0 -1 11 -19q6 -12 6 -19l-4 -9 q17 -18 10 -60q7 -4 13 -33q5 13 27 14t25 16l12 -3q4 0 16 15.5t29 15.5q0 -9 2 -24q1 -18 1 -24q4 4 11 7q1 2 2 5q0 7 -11 8q-4 14 -4 16q0 12 29 53q4 -7 16 -17zM303 365v30l-6 -30h6zM147 452q-1 2 -2 2q-2 0 -7 -8q5 4 9 6zM225 368q-2 -2 -4 -5q3 2 4 5zM139 431 q-1 3 -4 8v-2q2 -2 4 -6zM226 340v1q0 6 -6 13q1 -8 6 -17v3zM166 386h-1l-4 2q0 -1 -1 -3q1 -1 3 -1h1q2 0 2 2zM362 202q0 16 -10 40q-11 28 -13 39l-13 -1q-11 0 -25 10v9q-5 -4 -17 -12q-15 3 -24 20q-14 -6 -29 -9l-9 12l1 5l-17 -2q-6 -1 -11 -14q-11 14 -16 24l-4 -4 l6 -13q-8 -8 -21 -26q8 -2 29 -1v-16q0 -9 -10 -13q8 -7 8 -16q0 -5 -4 -15t-4 -16q0 -3 4 -9.5t4 -10.5q0 -1 -10 -23q4 -6 13 -11q-5 -4 -16 -14q13 -12 8 -44q11 -3 13 -14.5t4 -21.5q13 -2 18 -2q38 0 61 16q14 10 33 38q22 32 38 46l-1 5q0 8 7 22.5t7 21.5zM88 356v3 h-3l-3 -3h6zM82 355h-1v0h1zM94 239q0 -1 -1 13q-2 -8 -2 -13q0 -3 2 -7q1 4 1 7zM147 185q-1 0 -3 -1v-3zM52 256v6v-19v13zM93 134q0 6 -3 6q-7 -6 -7 -15l1 -1h8q1 4 1 10z" />
<glyph unicode="c" horiz-adv-x="767" d="M321 650q0 -19 -10 -19h-21q4 4 10 12t15 8l1 -1h5zM749 108q0 -22 -18 -52q-23 -37 -27 -51l-31 8l10 9l-6 3l-25 -13l6 -18l-29 1l-7 7l-26 -15l-11 3l-6 -22l-37 22l-28 -18q-25 5 -75 10l-13 13l-17 -28q-18 43 -84 43q-18 25 -34 40q-14 -5 -41 -9l-9 12 q-16 5 -37 17q-15 8 -30 8q-12 0 -29 -3l13 28l-8 11v-13h-16v22h9l-16 24l-7 -6l3 -19l-6 -19q-9 9 -18 30t-17 29l13 12l-27 5q-2 11 1 28q5 21 5 27l-3 12l-14 15l5 12l-2 13l-14 17l4 25q-9 -9 -25 -45l-7 30l21 43l-1 5l11 7l8 37l19 16l1 7l-5 3l-27 -6q16 22 47 65 l-5 21h18l2 -28l12 -14q18 22 18 32q0 8 -7 26l5 12l11 -3l-1 -5q6 -18 25 -29q18 16 24 40l-24 21l20 4l20 -15l17 20l3 -3l1 3l-3 20l21 20l4 -40l2 2l5 17l32 3l4 6l-3 12l37 24l9 -14h1l4 23l6 -2l9 7v9l34 -11l25 36l7 -31l7 3l28 -7h2q25 39 51 38l15 -14l2 -14l7 8 l46 -20q-7 -23 -16 -38l15 2l8 -16l-29 -22h-14l-10 12l-17 -11q-14 5 -28 11t-26 6q-74 0 -158 -58q-90 -62 -91 -131l-16 2q-13 -7 -13 -27q0 -6 1.5 -17.5t1.5 -16.5q0 -12 -7 -34.5t-7 -34.5q0 -9 9 -24t10 -24q23 -28 72 -80l13 3q11 -20 53.5 -36t52.5 -37l9 12 q35 -9 69 -18q41 -11 67 -25q22 20 58 20h6.5h6.5q26 0 37 13q16 19 21 74l16 -9q26 32 44 51q28 -61 28 -86zM69 232l-6 -6q-12 0 -22 33zM63 205h-16v15h16v-15zM710 118l-1 1q-4 -3 -4 -8q0 -1 1 -2q1 3 4 9z" />
<glyph unicode="d" horiz-adv-x="658" d="M648 280l-18 7l-10 -22l3 -8q-9 -4 -11 -9t-1 -12q1 -12 1 -14l-12 -41l-5 44l-11 -22l1 1l8 -16l-9 -27h-9q-39 1 -41 -43l-12 -17q-23 2 -44 10v-15q1 -28 -20 -47q-13 8 -26 26q-4 -17 -22 -49l-19 10l-6 -11l-17 -5l-29 6l-7 -2l-12 -20q-11 12 -34 14q-19 3 -38 5 l-9 -6l11 -31l-10 -24l-14 22l-8 -3v-28l-17 23h-2l-19 -27l-8 50l-25 -12l-12 1l-16 15l-4 -13l-12 8l-9 -10l-12 15l14 14l-16 30l3 9q-4 9 -4.5 27t-3.5 26l23 17l5 -4l1 4l-14 8l-21 -11l7 25l-5 15l6 12l-7 31l6 13l-4 12q7 10 9 25t3 29l17 9l-14 1q13 49 -3 101 l16 11h6l13 31q0 10 -9 22q-7 9 -15 18q8 20 28 58l-28 -16q-17 5 -23 24q0 1 -5 35h13l-13 7l-53 -15l-4 11q11 8 55 5l-16 12l19 24h-4v15h19v-15h-12l17 -16q9 17 24 53l22 -13q7 0 20 4t20 4q4 0 8 -1q20 9 36 12l13 -16l4 8l-2 20q45 -28 73 -28q11 0 27 1l21 -17l28 3 l16 -11l3 -17h13l-3 -10l12 -13l8 5l-5 23l30 -14l-3 -10l3 -7l10 -7l9 3q27 -8 47 -37l-3 -10l6 -9l22 12l-3 -22l18 -10l-2 -9l39 -64q-19 -19 -19 -48l3 -16l6 -6l1 24h16l-9 23q2 12 15 37q0 -26 10 -51l-9 -16l-4 4l-3 -23q0 -8 18 -48l10 -4zM63 526q-18 7 -18 14 q0 2 3 8.5t3 9.5l12 -1v-31zM599 292q-7 12 -7 18q-1 0 -2 -1v-12q0 -5 3 -10q6 3 6 5zM176 532q-4 5 -7 8q-4 -2 -4 -9v-3zM473 320q-15 16 -20 44q-3 25 -5 49q-2 9 -10 22q-11 17 -12 21l2 10q-4 5 -24 14q0 35 -59 75q-56 37 -93 37q-8 0 -21.5 -4.5t-20.5 -4.5l-18 6 q-4 -9 -13 -26l8 1l10 -12l-6 -19l2 -4q9 15 4 34h19l13 -5l-1 -14l1 1l12 -11l2 -9l-12 -10l11 -10q-4 -14 -4 -30q0 -17 8 -73l-11 -13l-2 -1l16 -10l1 -17l-1 -14l-12 -17l-4 3q7 -19 22 -56q-16 -66 -14 -109l-11 -10q10 -9 10 -44l4 -15l3 -2q29 5 58 11q36 7 58 6 q38 27 43 31q23 19 33 41l10 -6l6 20h-7v22h15v-4l2 5q-7 11 -19 18q11 7 24 27q-3 15 -9 46zM93 547v2h-2l-1 -1q2 -1 3 -1zM224 282v0h-1v0v0h1zM226 276v7l-2 -1v-1q0 -2 2 -5zM218 223q0 3 -2 5q0 -4 -2.5 -13t-2.5 -13q0 -2 1 -3q6 23 6 24zM115 267q-8 -2 -8 -8v-3 l2 -4t4 -2zM187 171l-3 -2l1 -1q1 2 2 3zM135 209q-2 4 -6 4h-2q-3 0 -3 -2v0zM211 117q-7 3 -9 3h-2l-2 -5q0 -4 3 -4q2 0 10 6zM152 67q-1 2 -3 3l-1 -3h4z" />
<glyph unicode="e" horiz-adv-x="615" d="M552 624h-21v21q21 0 21 -9v-12zM533 328q0 -10 -4.5 -14t-15.5 -25v10q0 29 20 29zM598 41l-17 -9q-8 10 -8 36l-6 1l-5 -19l-36 4l-33 -19l-26 17q-4 -11 -9.5 -23t-14.5 -17l-16 3l-4 20l-2 -14l-21 -25l-17 8l-8 -16l-19 7l-8 -2l3 -15l-7 -13h-19l14 27l-8 -2 q-34 -53 -75 -53l-81 20l-6 -2l-11 -17q-18 22 -41 29l-18 -21q-18 21 -33 28l-10 -8l-11 14l5 14l-33 41l48 -30l3 17l-22 25l-8 -1l-21 35l31 -12l2 2q-4 21 -11 62l11 25l-17 19q9 14 24 43l-2 4l-17 10q20 13 20 27q0 6 -2 21l7 17l12 5l-6 28l11 2l1 -8l1 4l1 7l-17 34 l24 24l-4 -1q1 3 37 68l-7 18l8 13l19 -19l7 21q0 5 -3 27q-2 17 0 28l-13 20l-15 -6l-21 4l-6 15l-10 -4l-17 42l2 14l23 11l-3 -14l8 -13l11 7v13q20 -4 40.5 -10t28.5 -25q13 24 32 30v23q18 -12 34 -47l1 31l35 9v-16v-1l32 16l12 -6l8 6q18 -11 30 -24l30 31l9 -14 l7 11q20 -25 39 -25l14 5l14 23l13 -14l25 8l14 -31l32 2l31 -42l-38 26h-9l-11 -25l13 -30l-37 30l-9 -24l-25 13l-8 -10l-156 2q-30 -25 -37.5 -101.5t-40.5 -103.5l27 13l15 -26h2l31 20l4 -12l20 15l35 -16l12 10q10 -6 27 -19l17 18l20 -30l-7 -17l23 6l-7 27 q31 -9 37 -38l-10 -16l-16 3v-17l-7 -6l11 -1q-22 0 -32 17l2 8l-5 6l-4 -10l6 -18q-34 -12 -128 -23l-8 8l-21 -8l-10 8l-19 -10l-5 8l-17 -18l3 -21q0 -15 -5.5 -45.5t-5.5 -45.5q0 -23 9 -41l-12 -21l21 -13l23 6q9 12 31 21q27 11 35 17l7 -2l40 20l9 -3q106 40 150 40 q15 0 35 -16l4 3q30 -21 30 -58v-10q0 -16 2 -28zM208 526q-4 4 -10 8q0 2 -1 5v-6q4 -2 9 -9q2 1 2 2zM193 545q-10 11 -21 11h-2q9 -16 12 -16q2 0 11 5zM113 396l-4 2l-15 -2l3 -31l8 -7q4 8 8 38zM144 265l-1 2v-1zM94 245v0q0 6 -3 10l-1 -2v-7q0 -3 2 -5l1 1v0 q0 1 1 3zM267 41l-3 1v0l1 -1h1h1zM121 149l-2 -2v0h1l1 2v0z" />
<glyph unicode="f" horiz-adv-x="656" d="M640 591l-12 -2l-2 9l12 2zM556 338q-15 1 -19 1q-9 0 -15 -15q-12 14 -12 19q0 7 10.5 12.5t10.5 13.5q25 0 25 -13v-18zM232 487q0 -8 -11 -27q-11 9 -11 16q0 2 11 27q11 -10 11 -16zM633 572l-22 -7l-20 11q-2 -26 -20 -43l-9 21q-19 -18 -19 -19q-12 -10 -23 -13 l-13 6l-24 -11l-11 5l-19 -7q-135 0 -148 12l-34 -14l-8 25h-1l-7 -3l-14 -19l-8 22l-1 1q-5 -30 -29 -49l-1 -11l5 -16q22 -3 48 -27l-5 -2v-39l-11 4q-4 -11 -11 -33l3 -8l16 15l26 -23l19 21l24 -15l20 1l3 7l31 -13l14 24l16 -4l-1 -19l3 -4l4 16l16 -5q7 2 45 24 l23 -23l13 4l5 -24q0 -2 -10 -54h-9l-21 23h-2l-8 -17l-43 -5l-4 -5l6 -19l-21 -15l4 28l-2 2q-32 -9 -43 -23l-19 6l-19 -14l-14 6l-7 -15q-16 6 -49 16q-5 -18 -5 -38q0 -34 28 -118l-14 16q0 -16 4 -49l7 -3l12 2l8 -35q0 -21 -14 -42l-14 8q-17 -4 -45 -22l-10 -3l-22 7 l-11 -9l-14 6l-18 -4l-9 -17q-14 13 -22 48q-6 29 -5 53v11l12 -1l-1 -10l3 -3l5 10l-13 33l6 24l-18 20l10 19q0 33 -10 86l-10 11l-28 -8l1 18l-18 -31v38l-13 -2l-13 39l9 15l14 -3l3 3v17q44 5 67 19l-3 28l18 -4l1 3l-13 28q0 35 12 105t12 106l22 -5l17 30l12 -6 l39 15q13 -25 21 -49l2 2l-6 36l31 -24l25 2l6 25q8 -12 23 -43q18 12 31 17l13 -2l13 -15l14 -3l20 24l12 -25l5 -2l35 24l15 -9l17 10l5 -26l12 5l7 -8l8 13l27 10q11 -11 36 -25.5t35 -23.5zM266 188l-12 -2l-1 11l11 2zM562 591q0 2 -1 2v0q0 -1 1 -2zM473.5 588.5 q-0.5 -0.5 0 0t0 0zM474 588v1v-1q0 6 -6 13q-3 -8 -7 -24h2q5 3 11 11v0zM240 431h-2l-2 -3zM382 299l-5 4q-9 -7 -21 -21q6 3 11 3h3q2 0 6 -3zM225 236q0 3 -4 6v-2q0 -3 -3 -16q2 5 7 12zM181 181v3q0 1 -1 2v-9zM253 117l-17 19l-10 -20q6 -5 10 -8zM67 293 q-2 -3 -2 -6q2 3 2 6zM222 121l-5 17l-6 -6q2 -3 11 -11zM246 45l-3 2q-10 -24 -10 -18q1 -1 1 -2h2q1 7 10 18z" />
<glyph unicode="g" horiz-adv-x="707" d="M483 572h-18v14h18v-14zM466 555q0 -5 -18 -15q-2 -1 -14 -20v34q10 0 14.5 7t15.5 6q2 -10 2 -12zM678 260l-35 -18l-9 2l-5 11l-17 -9l8 -15l-6 -11l-22 2l-7 -3l-10 -22q0 -10 8 -29t7 -29l-1 -26l-10 -3l-12 11v15l-2 3l-13 -6q1 -3 29 -44l-34 -27l6 13l-20 -19 l7 -18l-34 -35l14 37l-6 6q-8 -10 -16 -34q-50 -21 -74 -41l-4 16l-18 -21l-11 -4l-11 15l-12 -9v-10q-12 0 -34 2t-31 2q-21 0 -37 -7l-104 38q-65 26 -72 72q-24 25 -30 53q-16 17 -20 49q-4 40 -11 53l2 1v72l11 -8l4 4l-7 5l-5 14q7 24 30 28q14 16 24 46l-21 12v13 l28 5l11 -11l-9 26l2 19l17 -14l10 40q15 -16 36 -53v1q-5 13 -14 39l32 28l7 -5l2 2l-3 16l-13 8l-10 -2v51l20 -7l19 16l5 -6v2l-1 14l-10 -12l-11 16l8 11l8 -1q-7 10 -23 27l36 -7l12 5q5 -10 0 -42l2 -6l7 6l4 13q0 19 -17 41l8 39q8 -26 18 -47q5 14 2 50l21 -25 l26 10l8 -24h3l9 6l-5 11l15 31l20 -24l4 -2l30 9l20 -16l-7 -23l2 -3l12 5l-8 10l9 17l8 3l29 -27l15 8l16 -22q-9 -22 -24 -41l-23 -4l-9 -13l2 -7l-12 -20v-1l-11 -3l-8 22l2 5l-8 1l-6 -64l-11 68l6 15l17 5h-1l-15 5l-5 -1q-8 -11 -16.5 -23t-19.5 -17l-10 4 q-5 -29 -15 -42l1 -7q0 -13 -26.5 -48t-28.5 -52q-11 -4 -20 -21.5t-17 -22.5l2 -2l11 5l2 -17l-14 -32l-13 4h-2q9 -22 12 -74l-18 -1l-11 -14v0l45 -119l-10 -23l-22 24l-3 -4q13 -11 35 -36l10 6q32 -38 112 -38q30 0 75 28q49 31 49 61q0 5 -2 10l7 34q-10 10 -12 31 q-2 17 -4 35l-4 2l2 -11l-20 -18q-10 9 -29 11q-23 3 -30 6l-10 -6h-15l-6 11q-19 -12 -47 -13l-9 28l-23 -6l-28 2q16 15 20 36h26l3 2q4 25 43 33l10 -4l28 9l11 -7l13 6l-5 21q17 -5 35 -20l2 9l31 5l20 -21v0v11l16 11l17 -13v1q14 -2 34 0q27 2 33 2l23 -2 q3 -14 31.5 -26.5t37.5 -27.5zM161 487l-10 -16l-10 6q2 3 2 7q0 7 -5.5 21t-5.5 22q0 6 6 21q11 -21 23 -61zM88 432q-6 -9 -20 -9h-3v21h17q0 -7 6 -12zM79 364l-12 -1l-2 21l12 1zM64 350q-5 -14 -21 -14v24h5q6 0 16 -10zM280 618v2l-6 4v-1q1 -2 6 -5zM518 312l-7 -11 l3 -2zM507 213l-1 -1q-3 -3 -3 -6l1 -1q3 3 3 8zM559 87l-3 1l-8 -2v-1l9 -3zM122 390h-1l-1 -1q1 0 2 1zM172 310v1v0v-1zM169 313l-2 -1l2 -1v2zM88 252q-1 2 -10 4v-10q1 0 10 6zM200 120q-4 14 -13 26l9 -19l-1 -2zM46 234l-3 2l-10 -12z" />
<glyph unicode="h" horiz-adv-x="635" d="M465 586l-10 -5q-2 3 -19 19q-11 10 -11 25q21 1 29 -10q2 -3 11 -29zM457 559h-16v21h16v-21zM462 478q0 -7 -15 -25v18q0 1 1 3q0 5 -6.5 11.5t-10.5 6.5q-6 -6 -18 -21q8 43 26 43q12 0 17.5 -16.5t5.5 -19.5zM609 619q-8 -10 -10 -24q-2 -10 0 -26q1 -21 1 -26 q0 -34 -23 -54q0 -10 4.5 -29.5t4.5 -30.5l-2 -17l-11 -14l6 -28l-9 -14q4 -19 4 -36q0 -34 -16 -56l14 -21l-28 -2l-3 -4l4 -10l12 8l11 -22l-20 -28q14 -33 14 -68q0 -23 -7 -45l5 -2l12 2l2 -16l-5 -25l-20 -21l-39 25l-30 -12l-7 12l-15 -13l-16 6l-2 3v-19 q-19 2 -34 17h9q-7 5 -16 25q-7 17 -19 22l10 40l-1 3h-19l16 18l1 6l-11 37l10 19l-7 10l19 11l-2 3l-20 -3l-8 22l-16 -8l-11 3l-1 -1q-108 0 -76 0q-48 -1 -72 -12q27 -6 27 -77l-1 -17l-15 -7l-2 -9l14 9l8 -15l-9 -23l9 -13l-20 -4l15 -3q6 -16 14 -50l-8 -16l5 -6 l25 -2l-36 -23l-15 9l-6 -11l-14 16l-16 -19l-11 4l-5 15l-15 4l-23 -17q-13 8 -21 24q-12 24 -15 29l-3 -31q-21 33 -36 49l23 38l-1 3l-10 7l-4 13l5 10l16 6q0 9 -11 76l-10 3l-20 -13l5 70l11 8l-8 7l25 44q0 21 -14 46l20 15l-1 3l16 22q-10 1 -35 18q10 19 19 37 q11 22 12 40l-19 26l3 12l14 9l1 4l-10 -2l-2 14l12 1l1 -10l3 12l-16 14q11 15 20 44l-19 36q38 -4 67 -1q15 -16 56 -12l-2 -21q5 -20 6 -62l12 -19l-1 -17h-22l-3 -3q10 -10 26 -33l-3 -13l-8 4q5 -12 14 -36l-2 -6l9 -15l-3 -43l-25 24l-16 -22l4 -6l15 22l14 -16 l-11 -22l4 -25q4 -14 12 -21q53 8 74 6l3 8q38 2 72 10l20 -10l6 5v4q0 21 7 34h21l1 -5l-7 67l15 -40l16 17l14 -4l1 1l-15 11l-8 32q17 4 32 17l25 25l-25 4q9 16 17 52l-14 -31q-12 19 -35 31h28l6 6l2 21l14 -18q6 21 16 32l-14 -5l-13 6q2 35 29 58l-5 10l25 8l3 19 q13 -4 37 -14l10 9h16l17 -9l-5 -14zM215 335h-10q-9 0 -9 10q0 8 19 26v-36zM67 467q0 -14 -11 -22h-25q7 5 15 13q1 8 2 15.5t12 8.5q7 -7 7 -15zM55 375q-23 -1 -23 16v22q22 -12 23 -38zM396 55l-7 -26l-5 7q0 -6 -6 -5q0 3 -8 15q0 11 12 11q1 0 14 -2zM55 324 q-1 -10 -23 -31q0 32 23 31zM262 2l-25 30h25v-30zM60 125q-30 6 -30 20q0 3 2 11t2 12q0 2 -4 6l14 14q15 -10 15 -18q0 -6 -6 -15.5t-6 -11.5q0 -3 13 -18zM537 593v1h-1zM456 385l-2 2l-13 -7l9 1l3 -2zM431 379l-12 9q5 -13 9 -20l1 10zM420 350l-8 10l1 -2l-11 -23 l3 -1zM479 287q-4 -1 -9 -6q-2 0 8 0q1 1 1 4v2zM512 174q-3 4 -5 4l-1 -1zM541 129l-1 1q0 9 -6 12q2 -4 3 -17zM432 181q-1 2 -2 6l-1 -1q-1 1 -3 1v-8h5q1 1 1 2zM438 85q0 1 -3 7l-19 -26l8 41l-1 1l-10 -3l-8 -11l-1 -6q0 -1 1 -5q8 -1 8 -10q0 3 -2 -13l25 -18 q-2 4 -2 10t2 16.5t2 16.5zM440 32l-2 4l-6 -4h8zM74 251l-17 16v0l-15 -23l4 -17l9 -3q7 9 19 27zM122 89h-2l1 -3q1 2 1 3zM103 39l-4 10q-2 -2 -2 -4q0 -3 6 -6z" />
<glyph unicode="i" horiz-adv-x="286" d="M263 461q-11 -46 -10 -83l-26 -12l4 -4l24 5l4 -17l-8 -35l7 -17l-23 -15l-5 -39l-32 44l-3 -5q6 -12 15 -36l-10 -15l19 -12q7 -20 22 -33l7 -41l-22 17l2 8q-13 -15 -18 -35l15 -4l11 -19l-7 31h22l-11 -48l-3 14l-14 -30l-7 1q-7 -8 -23 -22q5 -21 5 -57l-15 8l21 -35 q-6 -16 -10 -23q-7 -12 -18 -17q-15 4 -33 19l-8 -3l-6 -11l-16 28l-42 22l50 -6l3 5l-1 14l6 7l-4 3l-13 -22q-1 0 -27 43q-16 28 -13 47q-15 25 -15 66l-1 82q14 15 20 32q-8 7 -16 20q-11 22 -12 23l29 5v102l-13 31v-2l-1 3l-8 6l4 9l-12 45h17v-36q5 10 13 31l-3 8 l-8 4h-4q-20 14 -20 44q0 10 2.5 30t2.5 29l-3 21l-17 17l4 12l-8 29l6 16h17l-3 -30l3 -5q10 15 34 41l19 -21q12 5 37 11l17 -12l17 6l30 -8l22 -29l-11 -14l3 -5l11 3l11 -4v-42l-5 -2q0 -11 6 -25q8 -21 9 -24q-11 -8 -27 -27l5 -7l30 18l-4 -49zM219 -77q-25 3 -25 16 q0 6 7 12q18 1 18 -12v-16zM167 660v1q0 4 -6 4h1q1 -2 5 -5zM238 456q1 6 -9 12l-1 -2q7 -2 10 -11v1zM95 436q-1 1 -2 1v-2q0 -2 2 -2v3zM172 53v2v1h-3h-1q0 -2 3 -6q1 1 1 3z" />
<glyph unicode="j" horiz-adv-x="509" d="M490 208l-5 -46l-8 -10l10 -30l-11 -4l-8 2l-2 -4l18 -18l-1 -13l-19 -10l-2 -11q0 -11 8 -27q11 -24 12 -26l-27 -36l-3 25l-5 4l-9 -4l10 -16l-9 -13l-21 10l-9 -8l-54 -1q-48 -1 -146 30q-4 5 -18 29q-6 11 -20 11q-8 0 -21 -3q-9 4 -22.5 16t-21.5 16l-19 -6 q-5 6 -20 39l-1 -5l-10 -9q-27 8 -37 28q5 22 27 75q29 0 62 -28q57 -47 61 -50q41 -25 88 -20q13 -21 35 -21q17 0 17 22q0 11 -7 36l15 -7l9 6l2 9q0 12 -11.5 34.5t-8.5 38.5q-9 11 -8 30l1 19l15 11l16 -7l2 2q-29 58 -29 104q0 23 7 43q-14 26 -6 53l-12 21l6 14v-1 q1 45 34 44q0 -37 -29 -46l21 -14q18 30 18 54q0 12 -6 34.5t-6 34.5l14 -8l-6 28q11 7 30 26.5t32 26.5l11 -4l16 3l8 -6l17 16q24 -49 24 -105q0 -15 -5 -44.5t-5 -43.5q0 -9 4.5 -26t4.5 -26q0 -26 -18 -43q28 -55 28 -133q0 -9 -8 -23.5t-8 -23.5zM382 568q-4 9 -7 40 l-5 6l-24 -13q10 -7 15 -19q6 -17 9 -21zM405 517q-3 2 -7 6l-3 -8q1 -2 2 -2t8 4zM428 447q-10 2 -22 8l1 -5q9 -3 14 -3h3h4zM340 466l-13 4l-12 -16l12 -32q13 14 13 44zM432 348h-8q-1 -11 -9 -30q3 1 17 30zM453 273v3v4q-3 -4 -3 -7q1 -1 2 -3l-3 2q0 -1 4 -4v0v2.5 v2.5zM337 378q0 3 -2 6v0q-3 0 -4 -3zM457 198q-2 2 -12 21l-4 -16q5 -1 16 -5z" />
<glyph unicode="k" horiz-adv-x="711" d="M620 663h-17v15h17v-15zM334 496h-21v18h3q13 0 18 -7v-11zM689 655l-10 -25l-21 -12l-10 4l-4 -6l2 -12l-35 -49l-6 16l12 20l-2 3l-26 -17v-13l-5 -2l41 -20l-58 14l-13 -6l-12 -16l2 -18l-16 -28l-11 27q-15 -12 -47 -51q-28 -33 -52 -46l-5 -25l-26 7l-20 -21l-4 1 q-1 -16 -21 -27l-1 2l-18 -18l-19 9l-6 -21l16 -37l13 5q21 -11 45 -55q20 -35 30 -67l-5 -16l2 -2l21 9l-2 -19q0 -29 29 -58q12 -12 54 -43l-39 15l-6 -11l19 -3l-2 -7l4 -6l18 6q-8 -20 -21 -39l19 8l6 -25l-6 -10l-20 -12l-33 15l-3 9l-56 -31l15 40l-8 17l-6 -26 l-21 -20v16q-1 34 25 35l-8 28q-21 -19 -32 -42l11 -44l-28 40q5 16 19 45l-30 23l-22 -18l7 35l-13 13l10 13l-9 8q-9 21 -25 63l-3 -3l11 -33h-15l-6 10v1l-20 21l13 13l-26 15h-1q-14 19 -40 58q-3 -29 -7 -43l9 -12v-4l-3 -26l-16 8l-15 -28l14 -35l-1 -4q17 -16 17 -42 q0 -19 -15 -68l-26 8l-12 17v1l-2 1l-23 -4l-15 10l-10 30l-19 2l20 25q-14 7 -28.5 15t-20.5 21l15 15v65l18 -10l3 7l-9 4l-13 19l7 63l6 -21l7 19l-10 40l26 26l12 -26l3 7q-8 41 -8 45l-29 18q15 25 14 56l22 15l-10 5l-3 7q13 17 29 52q18 41 26 55l40 16l-13 -32 l29 -3q4 -50 4 -45l-3 -19l-12 -10q6 -13 7 -37q2 -29 4 -38l-13 -6l7 -12l26 24q17 13 33 13q17 24 20 28q13 15 28 20l43 -18l-14 -13l3 -12l21 28l-17 5q9 10 25 32l-26 30l25 -9l8 6l4 26l13 -10l67 68l17 -10q-2 17 14 30l18 -9l3 -12l11 7l-15 21l17 -5q12 12 27 39 q12 22 24 43l-20 -56l11 -13q7 7 15.5 23.5t16.5 22.5l-5 27l9 17l20 -17l18 11q-6 -26 -32 -39h-1l15 -7q-5 -34 -28 -56l4 -3l6 15l31 1l13 9l-9 17l11 33l37 16l-17 -39l3 -4l19 5l4 -11l-19 -16q15 -2 30 -9zM81 369l-2 -4q0 1 1 2l-6 -6q-15 0 -15 14l2 4q0 -1 -1 -2 l9 5q12 -7 12 -11v-2zM276 113l-10 -9l-18 15l10 10zM176 152v-15q-1 -10 -1 -15q-23 0 -23 26q0 19 17 28q7 -14 7 -24zM47 91q0 -11 -13 -14l-12 25h25v-5.5v-5.5zM504 549v6q0 8 -4 15q-1 -2 -2 -5q4 -4 4 -10q0 -1 -6 -18q8 1 8 12zM442 18l-6 4l-13 -14l12 -19zM342 92 q0 7 -4 11q-2 -5 -2 -9v-3q0 -2 1 -6l4 4q0 1 1 3zM66 261v1l-12 7l4 -14zM81 150v2q-9 -2 -9 -16v0q9 11 9 14z" />
<glyph unicode="l" horiz-adv-x="540" d="M97 533l-12 -2l-1 11l11 2zM528 130l-13 -24l7 -7q-13 -5 -39 -16l5 -18l-78 1q-30 0 -63 -7l7 -10l-26 -1l-16 -13l-4 14l-12 7q-13 -13 -21 -24l-11 2l-5 8l-15 -14l-9 9q-15 -7 -29 -13q-18 -9 -22 -23l-30 18h-2l-12 -11l-11 5l-13 22l-1 -7l-40 -19l-8 23l-8 5 q-19 -10 -32 -11l-3 10l-12 -13l25 47l-8 17l8 14l22 -11l2 4l-9 32l7 15q-18 12 -35 54q14 -10 36 -36l2 1l-3 8l2 15l7 -2l10 15l-6 12l-10 -11q-14 16 -40 50l38 -17l4 5l-7 16h8l-1 16l3 14h28l7 21l-16 -5l-17 8l8 8l-6 7l3 8l12 9l9 -10q13 17 30 17l1 3l-20 12 l-13 -13q-9 14 -26 41l8 8l21 -16q-15 77 -15 93l5 25l22 11l13 -13l-20 -6l-1 -3l2 -1l15 1l9 -10l1 31q0 5 -9 42l25 -10v8l6 27l19 -10l16 22v1l8 7l4 28l12 -22l-8 -21v-1q24 16 36 43q7 -45 7 -60v-64q0 -25 -12 -41l2 -50l-6 -9l2 -11l-12 -31l16 -16q-11 -9 -11 -24 q0 -6 2.5 -19t2.5 -19q0 -23 -27 -39l14 -15q-5 -16 -13 -48l-8 -8l14 -1q0 -31 -19 -50l6 -8q93 33 284 33q26 0 50 -11zM66 294q0 -12 -15 -23q-7 13 -7 23q0 7 2.5 19.5t2.5 19.5h12q0 -1 -1 -4v-3q0 -6 3 -16t3 -16zM56 249q0 -8 -15 -9l1 1l-10 6l12 30q11 -11 12 -24 v-4zM459 105v0q0 4 -3 4h-8l-1 -1v0q1 -2 4 -5h1zM156 311q0 3 -3 8l-3 -12zM120 170l-14 14v-3v-13q0 -3 1 -8q0 1 13 10zM107 47q-2 2 -4 3l-2 -7q-1 0 0 0q2 0 6 4zM51 65l-1 1l-17 -19zM108 231q-5 12 -7 12h-2q-4 0 -4 -4v-3l2.5 -2t7.5 -7q2 2 3 4z" />
<glyph unicode="m" horiz-adv-x="1024" d="M881 588q0 -11 -7 -18h-15q0 11 5.5 14.5t16.5 3.5zM900 419l-11 -1l-2 20l12 1zM740 431q0 -12 -14 -17v-2q0 -2 -1.5 -6.5t-1.5 -6.5q2 -1 9 -1v-24l-11 8q-10 -8 -20 -8q-6 17 -6 28q0 34 36 43q9 -7 9 -14zM797 300l-10 -6l-3 4l10 6zM445 472q0 -3 -1 -9v-9h-19v88 q20 -31 20 -70zM943 -6q0 -9 -13 -16l-11 21h23v-4zM458 440q-1 -10 -8 -18q-3 -2 -7 -7l-10 6q7 13 8 15q5 5 17 4zM987 12l-13 -17l-15 26l-8 -8l-15 7q-6 -12 -27 -26t-27 -23l-5 18l11 17l-31 5l29 12l3 7q-6 33 -21 59l-16 5l-1 -2l14 -19l-18 -28l-9 48l5 13 q-13 19 -25 73q-11 49 -31 69l28 -9l10 8l-19 2l-15 20l18 17l-19 30l2 6q-26 12 -30 72l4 5l-10 9l5 23q-17 7 -23 34q-7 32 -15 40l-22 -7l-2 -8l9 -13h10q-2 -5 -43 -64l1 -2h16v-18q0 -41 -38 -105l17 20l17 -46l-10 -16q4 -8 4 -14q0 -8 -9 -16q-13 -11 -16 -16l1 -5 l13 -9v-4q0 -24 -15 -56l20 -26l-13 -11l-22 17l8 14l-3 25h-2l-14 -22q13 -26 13 -85l-15 -22l-10 38l-11 8l6 -10l-18 -50q-16 17 -43 27l-8 -4l13 2q-4 -20 8 -65l-29 43q-21 -27 -41 -27l-14 9l-19 -4l1 11l-12 -8l-31 2l-7 26l-8 -2l-16 17l7 16l-10 8q3 7 3 14 q0 13 -12 31q-11 13 -21 27l3 6l-7 -2l-16 39l7 15q-34 46 -34 95q0 21 6 47l-19 8q-15 68 -16 69q-13 38 -45 49l-11 -19l3 -8l-24 -26l-21 8l-13 -18l15 -32h1v2l-1 17l3 17l24 9l1 -31h1l20 -23l-18 -23l1 -1l8 4l6 14l11 3q5 -14 1 -36.5t4 -42.5l-32 5l11 -19l-13 -13 l6 -10l-4 -21l12 -15l-8 -10h29v-17l-31 8l-12 -40h-19l-5 -10l33 -36l-8 -17l8 -6q15 9 37 38q-18 -35 -44 -107l-30 8l5 -13q-18 10 -36 30l3 -14l-31 -15l-15 19l-4 -5l-19 -6l-20 16l-9 -8l-14 35q11 56 7 85l19 -13l3 8l-17 5q12 9 16 29q3 17 6 33l7 1q-4 23 -15 67 q13 23 34 40l-24 28l3 14l16 7l-11 40q15 51 50 94l-7 32q0 57 30 84l36 -25l2 6l-7 24l-10 -3l-11 22l33 24l13 -33l8 7l17 53v-22l70 -48h16l-2 21l33 -18l10 4l9 -8l-18 -20l7 -6l18 9l6 31q30 -42 41 -77l-24 -71l-9 24l5 17l-4 4l-7 -42v-10l20 -6l10 -45l31 -21 l-13 -18l-27 4l-6 -5l8 -17l22 -4v-24l-23 -21q22 -9 34 -30h13l-11 -49l-14 -4l28 -11l28 11l11 -15q-2 -11 4.5 -31t6.5 -29q0 -4 -12 -53l-28 -28l10 -7l5 1l24 39l3 -34l12 -9q15 22 13.5 75t17.5 75l-9 18l28 40l-12 15q20 34 36 123l22 132l2 -4q3 69 1 80l13 9l5 33 l4 3l-17 16v40l18 -34l4 -1l7 26l30 -29l26 12l13 -4l-12 -13l3 -17l-27 -5q8 -12 34 -33l1 3l-10 24l21 26q5 -25 21 -48l16 10l-13 28l11 10l41 -18l-3 -6q43 -28 43 -57q0 -6 -1 -11q42 -24 42 -105h-11q-4 -4 -4 -11q0 -5 3 -15.5t3 -14.5l-1 -4l-13 -8q19 -15 41 -47 l-27 7l-3 -6q10 -22 24 -42l-7 -8l15 -4l5 17h-9v22h15q0 -7 4 5v-69l14 -4l-4 -36l-19 -11q16 -21 43 -67l-21 -32l9 -13l7 2l-9 21h18v-20l7 2l-4 -25q0 -6 3 -26q2 -16 0 -27l14 -11zM453 351l-12 -1l-1 9l12 1zM548 253l-36 29h24zM480 284q-6 -9 -12 -9t-28 25l13 38 q12 -16 16.5 -32t10.5 -22zM492 314l-11 -88q-14 14 -14 21t7 16l-3 -2q1 1 21 53zM276 366h-16v25h16v-25zM265 346h-18v22q7 -2 18 -10v-12zM257 240q0 -10 -11 -16q-13 3 -13 13q0 4 1.5 13.5t1.5 14.5q21 -11 21 -25zM236 111q0 -16 -14 -16q-11 0 -11 13v7q1 5 1 7 q15 3 16 3q8 0 8 -14zM760 531h-1v0h1zM866 108v37l-6 8q-7 -13 -13 -45q4 2 8 2q5 0 11 -2zM618 268l-2 1l1 -1h1zM265 607l-31 41v-36l7 -7l20 -1zM274 556l-3 1q0 -2 -1 -4q2 2 4 3zM396 418l-8 4l-11 -18l7 -6zM628 153l-2 3v-4q1 0 2 1zM240 498q-7 -10 -7 -15 q0 -3 7 -5v10v10zM189 514q-6 -4 -6 -11q0 -3 1 -5q5 7 5 16zM494 173l-34 24q-3 -2 -8 -5v1v-1q3 -8 3 -20l-13 -13l-17 20l-1 -2q10 -25 31 -26l5 6l-4 23l13 4l10 -7l7 -17l-8 -26l4 -8q6 13 12 47zM537 24l-24 4l-11 12l-12 1l16 -21zM182 266q0 5 -6 17v-3q0 -6 6 -15 v1zM130 272q0 5 -3 12v-20q3 4 3 8zM186 192v3q-1 9 -4 13q-3 -10 -3 -12q0 -1 7 -4zM185 177q-1 -5 -3 -9l2 -2zM182 41h-1l-1 -7q1 3 2 7z" />
<glyph unicode="n" horiz-adv-x="713" d="M667 684q0 -8 -9 -18h-13v7q0 1 -1 3q0 7 11 15q0 -2 -1 -3l12 -1v1q1 -2 1 -4zM677 601l-22 56h22v-56zM279 567l-23 64l12 2q0 -3 5.5 -13t5.5 -41v-12zM688 490l-4 -13l-26 14l6 -27l-18 3l-7 -6l13 -35l21 9v-15h-18l-14 -27l2 -3l30 16l-10 -35l-23 -11l-12 4v-1 l3 -13l14 5l12 -6l-18 -23l16 -39l-23 -14l-3 -5l3 -16q-11 -15 -31 -46l3 -11l-21 -26q6 -15 -5 -49l3 -4q10 49 44 84v-34q0 -21 -7 -44q-42 -36 -42 -115q0 -13 2 -29l-39 27l-32 -16l-34 24l6 23l-9 11q-2 32 0 73q-23 6 -21 45l-3 3l-17 6q-16 56 -68 132 q-44 62 -87 123l-8 -8l6 -26q0 -43 -36 -67l-3 -17l4 -4l24 -2q-7 -16 -45 -70q-19 -28 -19 -86q0 -27 -14 -50q12 -32 18 -58l-8 -21l15 -5l-7 -37q-26 33 -31 58l6 15l-4 2l-10 -3q-9 -18 -18 -35q-10 -20 -24 -30l-33 6l1 17l-2 6l-17 -11l-13 -32l-14 24l24 42l-26 -21 h-10l-4 15l18 29l-16 16l12 17l7 -4l-8 21l27 77v0h1h-11l28 149l14 12l-4 4l18 15l-12 1v29l17 2l-9 22l8 41l14 15l-19 5q21 23 21 37q0 3 -2 15.5t-2 24.5l9 38l13 4l-3 7h-15q0 26 -8 47l6 10l-3 11h23l10 -12l35 20l-13 -29q11 -17 18 -38l-6 34l12 3l11 -4 q5 -19 20 -55l-2 -5l12 8q14 -19 22 -37l5 1l13 -1l21 15l20 -35l-7 -16l7 -7q25 1 35 -27q12 -35 22 -41l3 30q18 -13 21 -38l-13 -22l2 -2l16 15q1 -18 6 -52l5 -3l10 6l15 -7q-4 -53 -4 -62l3 -30q7 16 9 21q6 12 16 17v56q5 -20 7.5 -59t7.5 -58l12 13l9 71l14 -18 l-12 23l5 13q-4 13 -1 32l6 32l8 10l-3 105q-1 35 15 73q-8 14 -8 41q-1 31 -4 42l10 14q-1 7 -22 47q18 -15 46 -51l14 6q0 -20 3 -42l23 -10l14 51q6 -36 8 -43q7 -23 21 -36l-3 -35l-5 2l6 -17l19 9l12 -49l-11 5q8 -20 18 -34l-10 -12zM523 -44h-15v19h15v-19zM240 191 l-5 -15h-18l12 26zM172 -28l-23 26h23v-26zM645 500h-1h-1l-1 -1zM622 296v2v0q-3 1 -7 2q2 -2 7 -4zM622 294v1l-1 -1h1zM495 243l-7 18v0l-16 5l3 -23l16 -6h1zM259 436l-9 20l-4 -4q-1 -32 -8 -52l-11 -7l18 -17l5 3v5q0 13 5 26l-7 -8zM548 88l-4 -1l1 -1zM544 85 q-1 1 -1 2q-4 -1 -4 -4q2 1 5 2zM189 347v0q-6 0 -10 -7q5 2 10 7zM215 280q-2 2 -3 5q0 -3 1 -5h2zM174 133q0 3 -1 16q-5 -6 -15 -14q21 -3 16 -3v1zM149 134q-2 0 -3 1v-1v-2v-1q1 2 3 3zM162 111q0 1 -1 1q-1 -1 -3 -1q-1 0 -2 1q1 -3 2 -5q4 0 4 4zM93 145q0 1 -2 3 l-1 -3h3z" />
<glyph unicode="o" horiz-adv-x="639" d="M623 360q0 -6 -2 -29q-3 -17 0 -28h-19l1 31q1 22 -14 38l-9 -34q0 -9 7 -22l11 -20l-3 -17v-1l13 11l6 -35l-24 -16l-11 19h-10l-6 -5l1 -1l15 1q0 -14 -12 -27t-23 -24l3 -11q8 22 31 20l6 26v-27l4 -1l-4 -29l18 -34l-21 5l-27 -44v54l14 6l6 27l-8 1v-3v-7h-16l6 -18 l-12 -14l7 -19l-14 -17l-15 2l-4 -5l2 -13l-13 3l-20 -17l-5 -26l-27 4l-7 -29l-32 -17l-48 17l-4 -1l-11 -24l-28 -17q-27 5 -80 18l18 -22l-17 -3q-14 8 -41 23l-11 -7l-22 6l-23 -15l3 14q-8 5 -38 13q-10 28 -14 35q-12 19 -31 17l-14 11l1 30q-22 12 -27 44 q-3 26 -6 53l13 7l8 -2q-17 29 -17 32t6 32l12 -1v-11l-2 -3l3 -3q9 9 9 26q0 9 -4 28t-3 27l1 35l9 -4l-6 14l8 17l22 -19l6 13q-10 31 -4 50l-25 19l20 -2l-5 17q13 11 34 36l-2 11q24 16 28 57q5 51 12 64l10 3l16 -9l2 2v16l18 -1l7 4v56q12 -39 26 -60l5 8l-7 16l21 -5 q27 16 43 23l42 -35l6 3l-3 21l14 7l14 -16l-12 -14v0l11 -4l12 7l-1 4l15 2q27 0 32 -46l1 14l11 14l21 -13l15 6q8 -16 25 -33l4 11h20l-5 -15l18 -31l-6 -11l7 -5l11 24l24 -22q0 -98 30 -145l-7 -11l15 -25l-11 -16h31zM68 416q0 -11 -10 -11h-9v42q19 -23 19 -31z M68 54v-6v-6h-16v32q16 -4 16 -20zM43 64l-27 27h27v-27zM546 530q-1 9 -6 28l-4 2q1 -4 1 -8q0 -7 -3 -21l4 -8l2 -1l2 1zM381 648l-4 11l1 -13zM543 485l-4 -23l4 3v20zM561 406q-1 8 -3 15l-2 -9q2 -4 5 -6zM414 498l-1 2l-6 -3zM478 274l-7 4q3 15 3 26q0 43 -26 103 q-28 64 -60 88l16 1q-20 7 -20 26q0 4 1 8q-73 10 -95 32q-25 3 -32 3q-15 0 -25 -17q-34 -6 -48 -61q-1 -7 -15 -109q-8 -66 -29 -87q5 -14 17 -40q-1 -11 -10 -38q16 -18 16 -45q0 -16 -7 -29q50 -55 174 -55q62 0 97 70zM104 473v1l-8 5l-6 -14q2 0 11 3z" />
<glyph unicode="p" horiz-adv-x="730" d="M696 594q-8 -13 -21 -25v25h21zM713 554q0 -1 -1 -4q-6 -1 -9 -1q-4 0 -10 6q-9 8 -9 18q0 2 1 3q28 -4 28 -22zM716 484q0 -22 -18 -43q-4 -6 -35 -33l-17 1l-19 -31l-12 21l5 -17l-5 -12q-32 -12 -63 -24q-37 -15 -59 -32q-35 -4 -64 7l-18 -17l-32 19l-2 -1l-4 -19 l-15 12l-19 -4l-15 7l4 17l-1 1l-19 -23l-25 22l-11 -4l-13 16l15 7l-1 9l16 37l25 10l7 -7l36 27l2 -35l88 2q53 6 72 39l9 -8l-1 9l18 33l4 -1l2 2l6 26q-9 18 -19 37.5t-25 28.5l-14 -4l-16 14l-3 22h1l-12 -9h-5q-15 0 -40 9.5t-39 9.5q-9 0 -17 -2q-20 13 -33 17l-4 -8 q-30 7 -57 7q-44 0 -67 -19q2 -13 -2 -30l-6 -30q17 -26 17 -53q0 -67 -21 -107l8 -23l-14 -30v-2l23 -9q-13 -18 -14 -43q1 17 1 -46l-9 -32l5 -14q-8 -26 -9 -90q-1 -56 -18 -92l-4 12l-17 -22l2 -10h-20l-14 -10l-16 22l-33 -13l-17 6l-5 36l-9 10l7 24l12 -3v-1 q4 -22 20 -34q3 4 9 24q5 15 15 21l-2 9l-28 -2l5 -9l-11 -6l-16 23l25 18h-15v12h-3l3 3v6h5l29 34l-26 9v-2q-3 0 -6.5 4.5t-0.5 4.5q2 0 4 -1l-15 40h18v-37l17 16l-11 35l4 14l19 7l-3 10q-28 3 -41 18l18 10l2 8l-11 35l23 30l9 -19l-10 30l-20 -6l3 5l-11 -5l-39 71 l52 -61q6 12 7 34q2 26 4 34l23 -21v18l-13 17q3 18 5 26q4 14 11 23l-18 9l6 15l-9 -5v-38h-22q1 21 9 32l-6 18q12 18 25 30l-29 4l17 32l-7 9l14 18l-3 10l-14 10l26 15l25 -3q72 44 265 44q28 0 90 -15q57 -15 90 -11l18 -17l12 10l12 -1l-8 -21l-11 4l-12 -11l-6 2 q5 -3 36 -16l-4 19l35 -23l1 -3l37 -6v-31l-36 29q6 -17 46 -54q35 -31 35 -67zM85 451l-41 21h41v-21zM54 288h-14v18h14v-18zM676 447v0q-2 0 -2 -2v-3q2 1 2 5zM99 545v7l-6 5h-5v-3v-4q0 1 8 -15zM117 331l-23 -4q4 -3 19 -8zM103 139q-2 3 -6 5l6 -5v0zM93 110l-1 1 l-21 -3v-14q12 12 22 16z" />
<glyph unicode="q" horiz-adv-x="963" d="M938 13h-15v19h15v-19zM915 26q-14 -10 -28 -32.5t-18 -39.5l-26 9l-3 -11l-17 -14h-4l-37 -6l11 -10l-12 -10l-11 2l-11 14v4l-6 1l-9 -18l-17 6l-3 -13q-90 24 -113 33q-71 27 -89 65q-24 17 -75 48q-28 -32 -51 -43q-2 0 -64 -21l-9 8q-19 -18 -44 -18l-33 19l-4 -3 l-9 -28l-24 34l-20 6l-20 -12q-6 28 -12 42l-10 -27q-14 7 -30 29.5t-25 29.5l-5 16l-6 4l-18 -10l6 28q-4 17 -9 34q-6 21 -18 30l1 8l-15 43q26 18 26 41q0 8 -3.5 26t-3.5 30q0 21 22 67h-21l5 50l18 -18l-4 -20l3 -9q16 32 14 56l83 140l23 -7l26 29h19l4 -4l7 15l25 -1 l21 3l6 12l-3 13h20l8 -10l31 29l40 -26l11 4l24 -7q14 0 14 5q-1 2 -6 4l21 13l27 -22l18 23l9 -4v27h14l16 -16l-9 -18h-1l14 -5l15 4q45 -54 85 -63q8 -28 21 -50l-2 -9l21 -53l-5 -15l8 -32l-8 -13l19 -16l8 11q11 -9 11 -51q0 -16 -17.5 -38.5t-17.5 -39.5q0 -5 2 -11 q-21 -32 -18 -51l-25 -4l5 -33l-7 2q-4 -13 -20 -28q-20 -19 -25 -26l16 -20v-9l13 4q16 -8 35 -33q21 -28 32 -36l-20 -6l6 -7l-2 -18l8 21l27 -18l16 19l19 -27l12 11l30 -14q25 9 85 53zM42 268h-12l-1 21l11 1q1 -5 2 -22zM60 141q0 -4 -5 -17l-19 18q-10 12 -11 23h12 q0 -4 11.5 -9.5t11.5 -14.5zM646 530l-4 8v-3v-9v-1q2 1 4 5zM710 367q-3 8 -10 24q-12 -24 -17 -41l9 -7zM564 410v2l-8 4zM663 309v-3v3zM588 291h-3v-3zM583 291h-3l-3 2q3 -3 3 -7q2 2 3 5zM553 418q-15 12 -19 37q-1 21 -3 42q-14 2 -32.5 22t-31.5 21 q-14 -11 -48.5 -13.5t-48.5 -12.5l-21 4q-13 -12 -28 -12q-5 0 -16.5 2t-19.5 2h-1l3 -10q-30 -17 -99 -46q-45 -62 -45 -194q0 -82 17 -107.5t92 -65.5l13 -7q21 0 50 11l48 18l5 -1l9 13l-12 29q-14 10 -25 13l-4 -1q-21 16 -24 31l10 14h-9q-12 13 -32 43l4 14l31 17 l10 -2l9 -18h1q2 8 2 33l6 19l9 3q12 -8 31 -12.5t28 -8.5q16 -8 40.5 -33.5t40.5 -33.5l24 37l12 -8q3 36 3 38q5 22 19 32l-11 7l-2 7q12 15 14 46l-15 21l15 11zM69 211l-3 4q-9 -7 -9 -12t3 -8q2 6 9 16z" />
<glyph unicode="r" horiz-adv-x="762" d="M726 378q0 -20 -18 -20q-23 0 -23 22q0 20 23 20q18 0 18 -13v-9zM694 434l-5 -15l-11 -7l3 -17l-6 -8l7 -16l-15 -31l-13 2l-3 15q0 2 7 27l-8 6q-7 -2 -17 -28q-10 -31 -14 -35l-16 7q-7 0 -20 -20q-9 -14 -17 -28l-4 33l-3 3q-14 -25 -45 -37q-16 -6 -59 -14l-11 -10 l-14 12l-14 -6h5v-15h-16v11l-10 -14l-18 -2q-21 0 -26 23l4 4q-26 2 -39 7l10 13l-7 19l8 10v25l24 -8q8 0 22 6.5t22 6.5l15 -4l8 -11l25 25l22 -9l11 32l16 -6q9 9 28 26l5 -2l-11 18l2 10l19 -1l8 1l4 4l-4 7l-24 -9l23 28q-6 9 -14 29l3 6l-4 3l-15 -15l5 27q0 5 -9 34 v0q-10 3 -30 17t-33 16q-10 12 -27 15l-4 -4l-12 -3l-8 7q-12 -15 -30 -24l-13 2l-14 18l-10 4q-11 -3 -31 -12l-4 11q-16 -5 -45 -46h-15l-5 18q0 11 10.5 32t8.5 34l19 13l13 -7q3 8 4 24l19 4q12 0 31 -14l3 8l-22 7l20 17l15 -9l6 15q15 -4 44 -17l13 21l12 -23l-1 -11 l3 -4q3 28 30 28l38 -12l-18 -13v-2l2 -1l8 5q14 -5 41 -15l13 3q4 -25 38 -50v17h15l-9 -21l16 -13l5 18q7 -14 23 -41l12 4q9 -20 17 -40q9 -23 9 -41l-21 -3l-1 -2l14 -7l6 11l25 9l-9 -21q6 -11 15 -34zM370 549h-19v15h19v-15zM740 33q-15 17 -20 17h-4l10 -10v-56 l-3 13q-5 -3 -12 -3q-7 4 -7 10q0 8 11 19l-6 25q-7 -2 -11 -2q-5 0 -12 2l-8 46q27 -30 48 -30q4 0 14 3v-34zM688 16l-1 -20q-41 -24 -58 -24q-30 0 -75 32l-66 54q-15 13 -42 27q-41 22 -44 23q-4 12 -44 43q-45 33 -53 44l13 13l9 -2l-1 2l3 17q13 -14 24 -17l8 2l10 13 h5l9 -3l-3 -10l8 -9q12 7 29 6l5 -18l3 -3l9 4q6 -3 26 -20q15 -13 29 -14q-1 -15 20 -23q4 5 25 52q-3 -47 -3 -54q0 -17 10 -28q2 15 2 22q13 -10 43 -26l19 4l-17 -29q8 -6 27 -6q29 0 30 13l18 -10l14 7q-1 -26 -16 -24q1 -6 0 -14q-2 -12 -2 -14l3 -6l12 13zM311 243 l-39 56l39 -31v-25zM315 219v-4q0 -8 -9 -16q-12 0 -14 10q4 10 23 10zM442 45l-9 -8l-18 13q15 7 20 7q7 0 7 -12zM241 253q-24 -47 -38 -159h-14l-1 11l-3 -22l6 -5q14 4 28 12q8 -69 8 -57q0 -17 -9 -29q-11 -2 -61 -16q-34 -9 -65 -9q2 5 13 16t12 20l-3 2 q-10 -8 -21 -15q-11 -10 -11 -21l-10 -3q-19 10 -16 47l-3 6l-14 -7l-9 7q8 11 12 25l-5 1l-9 15q0 10 10 20q17 16 17 17l-1 7q1 4 20 23l-10 13l11 7l-12 12l6 26l-1 5l-15 8q6 22 11 44q7 26 19 41l6 -6l5 18l-9 6l-12 -8v-25q-17 28 -14 48l-8 16l17 4l-2 7q12 10 19 25 l9 3l-4 7l-11 -2l-13 53q15 10 20 22l-6 11l2 10l15 2l-1 1l-16 -3q5 15 27 33l-36 21q18 20 15 80l37 2q8 0 22.5 -4t20.5 -5q7 -14 25 -28q13 -10 13 -25q0 -9 -4 -24l10 -10l-4 -11q0 -6 3.5 -18t3.5 -18q0 -7 -4.5 -21t-4.5 -21q0 -16 9 -38q7 -18 15 -37 q-7 -12 -20 -37q12 -15 12 -28l-17 -32l3 -4l25 7zM37 295h-15v22h15v-22zM237 -35l-22 26h22v-26zM631 506q-2 1 -4 3q-1 -4 -4 -10q4 4 8 7zM511 626l-3 2q-1 -3 -4 -8q0 -1 1 -2h3v3zM515 606l-6 9q-2 -1 -3 -1zM591 387q0 3 -5 11q-3 -7 -4 -12h8zM107 440 q-7 -5 -13 -20q2 5 11 13q2 3 2 7zM100 344v1q0 7 -10 9l-1 -2q4 -2 11 -8zM85 240l-4 -4q1 0 4 4zM100 138q-1 -3 -1 -7l1 -1v8zM125 72q-1 2 -2 2h-1q-1 -1 -1 -2t2 -3v1zM78 75v0l-2 4v-3h-1q1 0 2 -1h1z" />
<glyph unicode="s" horiz-adv-x="613" d="M585 655q0 -6 -10 -15l-14 20h19zM582 637v-19q0 -15 -10 -15h-15zM515 679q0 -8 -7 -14l-13 35q6 -6 19 -15q1 -3 1 -6zM601 579q-3 0 -22 10q0 15 11 15h2q9 0 9 -8v-17zM600 120l-10 -6l-5 8q-9 -24 -13 -31q-10 -16 -24 -24l-2 6q-33 -40 -127 -81l-18 19l2 3 q-11 -15 -38 -40l-27 13l-27 -15l-10 19l-5 2q-17 -11 -38 -21q-19 9 -56 26l-19 -6l-7 22q0 4 15 48l30 25q37 -10 74 -10q45 0 159 26l19 21l7 -3l1 8q-7 8 -16 38q-8 27 -20 34l-22 -42q-6 25 -29 32q-33 10 -42 18l-12 -9q-19 10 -58 25l-23 -22l4 27q-6 9 -37 16 q-27 6 -29 22l-7 3l-24 -4l-8 2q-13 18 -39 57l-7 -17l-11 -1l-17 3l-16 17l-3 52l-34 -3q-3 24 -19 83l3 12l17 -5l28 26l17 -14l2 10l-17 20l1 7l-18 -21l-9 28h28l5 34h23l3 -24h16l6 -7l11 42l32 -14l9 3l-2 21l24 20l-3 -19l8 -10l2 -1l6 8l-6 19l17 16l27 -6l4 -13 l-15 -12l-1 -5l28 4l12 14l-5 11l-12 9l-13 -3l-2 9l-4 -3l-2 12l32 6l17 21l11 -18l-7 -15l5 -4q9 1 23 22q18 27 19 28l13 -4l6 12l31 -40l5 22l19 19l6 -34l1 -1l27 32l14 -3l-9 -20l5 -4l12 11l30 2q7 0 20.5 -4.5t20.5 -4.5q5 0 10 1l8 -29l-2 -8l-8 -6v-5l35 -21 q-11 -3 -48 -2q-30 1 -45 -9l-9 12q-26 -23 -54 -27l-6 28l7 25l9 -7l3 9l-20 4l-12 -7q-3 -7 -1 -18q2 -17 2 -18l-5 -17l-24 -11l-14 17l-13 -24l-17 14l-8 -41l-13 29l-91 -78l-17 2q-11 -27 -11 -46q0 -33 39 -63t72 -26l9 -12l34 -6l6 -19l5 -1l21 10l18 -22l18 11 l18 -4q7 -13 18 -15h23l18 -6l7 -15q20 -4 59 -48l-1 -9l6 -29l4 9l-3 24q20 -22 40 -77zM168 1q-19 -1 -19 16q0 14 19 16v-32zM160 531q-2 9 -2 14h-9v-2zM190 502l-18 -6q-4 8 -8 19v-42l10 4q8 12 16 25zM174 401q-1 9 -5 17q1 -11 5 -17zM53 445l-1 3l-6 4l-7 -1l-7 -8 v-10z" />
<glyph unicode="t" horiz-adv-x="676" d="M659 608q-23 -18 -60 -60l-22 1l-22 -17l-7 16q-10 -11 -27 -12q18 1 -31 1q-2 0 -16.5 -5t-21.5 -5l-10 2v12l-4 1q-8 0 -24.5 -11t-33.5 -8l4 -12q-3 -11 -1 -27q3 -23 3 -26l-15 -24q5 -24 25 -45l6 -93q-12 33 -14 38q-10 21 -22 34l-3 -9q17 -20 10 -41l18 -39 l-13 -14l-7 -80l20 -15l5 -40l-13 -3l-18 33l-5 -5q1 -20 25.5 -75.5t24.5 -106.5q-5 20 -10 39q-9 25 -22 35l-22 -33l6 -25l-25 24l-7 -3l-11 8l-19 -10q-14 4 -20 16q-10 21 -12 22l-5 -2v-33q-24 11 -36 39l7 15q-4 20 -6 25q-6 14 -18 18v-56h-19l10 49l-10 9l13 29 q0 9 -6 28t-6 29l12 28l-1 1l-25 -11l17 34q-1 6 -8 24q-6 15 -6 25q0 61 11 86q-7 22 -7 42q0 16 8 77l33 -4l4 8q-11 17 -47 17q-57 0 -110 -11q-36 18 -56 41q7 12 28.5 26.5t28.5 24.5l14 -6q23 5 29 7q16 7 24 17l31 -18q15 20 47 25q27 1 55 3l-7 20l21 12l13 -18l9 5 l16 -16l18 21q15 -20 30 -30l9 30l31 -21l19 3l-8 -24l5 -26l2 4l-4 10l15 39l14 -5q12 33 27 48l18 -13l6 13l22 13l13 -20l-1 -6l14 3l8 -2l20 -28l15 7q5 -16 23 -46l1 2q-11 17 -10 41l3 45q12 -16 23 -42q18 -39 20 -43zM402 114l-11 -5l-3 6l11 5zM415 71l-7 -9l-5 4 l8 8zM572 597q0 8 -9 10q2 -6 8 -12zM253 450v8v7q-4 -7 -4 -16q0 -6 3 -9q1 6 1 10z" />
<glyph unicode="u" horiz-adv-x="716" d="M689 517q0 -17 -1 -10q-8 -6 -22 -11v53q23 -16 23 -32zM650 257l-19 24l8 9l4 -3h1q4 -5 6 -7v-23zM593 216q0 -26 -9 -49h-30zM695 419l-16 -6l-23 8l-6 -5l-2 -37h18v-30l-18 27l-2 -22q-13 -11 -18 -37q-6 -31 -13 -40l14 -18l-4 -42l-29 35l-8 -2l8 -28l-20 -11 q-5 -19 -22 -33l4 -3q-28 -20 -38 -43l2 -9h-1v-17h-16v17h-8l1 22l-4 5q-15 -3 -23.5 -37.5t-33.5 -40.5l-6 37q-7 -23 -30 -64l-21 15l-10 -2l-5 -9l39 -17l-46 4l-2 -2l1 -12l-14 -19l-30 -11l-16 6l-6 18l-4 1l-16 -19l-8 -3l-25 34l13 11l-2 1l-22 -14l-1 -27 q-29 25 -55 32v17l-35 -2l-18 4l-11 17q0 18 -17 54q-23 48 -25 55h-15q3 17 0 36q-4 26 -4 33q0 17 7 36l-14 18l-1 22q-1 15 6 39.5t7 36.5q0 13 -5 26h22l2 1l-17 20l5 16l18 -5l8 3q-10 21 -15 44l7 16l7 -1q-1 11 5 35t6 35l14 -44q2 21 2 56l-3 -8l-14 10l8 18l9 -4 v11q0 23 8 49l31 -23v0l17 6l17 -9q8 -36 92 -35l-10 -36l-10 4l-12 -14l1 -7q0 -18 -5 -58.5t-4 -62.5l-6 11l5 -32l-18 -19l-6 8q-22 -34 -28 -88l7 -13l8 9l5 30l17 -27l-19 -51l-11 14l-7 -31l1 -8l23 31l27 -38l-26 4v0q17 -17 28 -24l-3 -23l-32 28h-3l-2 -3l11 -17 q-7 -8 -23 -60l2 -1l6 1l21 26q4 -12 8 -34l15 15l-13 31l10 5l11 -14l-1 -4q0 -18 13 -39.5t30 -25.5l-14 33q51 -4 56 -4q27 0 43 26q14 9 43 26q25 74 64 86l-19 17l6 17q12 4 32 19l-17 25q15 24 9 49q22 33 22 103q0 67 -26 94q0 22 -23 49q-27 32 -31 44l4 22l26 -12 l9 25q6 -19 22 -37v18l23 -9v-16l21 -12l15 17l11 -20l2 1l-11 31q36 -19 48 -47l-13 -8q22 -5 34 -13q-3 6 -15 59q18 -2 39 -40t21 -58l-17 -20l-14 7l-1 6l11 21l-19 16q-3 -7 -2.5 -24.5t-3.5 -25.5h-1l33 -27q-8 -12 -9 -35v-37q-1 -16 -6 -27l4 -5q17 19 21 23 q10 14 11 27h21l-14 -46zM82 568q-11 -11 -19 -11q-16 0 -16 13q0 2 1 5t1 4q0 6 -8.5 17t-8.5 19v4q20 0 27 -19q10 -24 23 -32zM233 366h-14l-5 23l12 1q4 -5 7 -24zM44 544l-8 -8q-15 6 -15 15q0 3 4 9t4 24q11 -11 13 -16.5t2 -23.5zM599 598v2h-1q-4 0 -9 -6h4q6 0 6 4 zM503 676h-2h1h1zM615 566l-7 -3v0zM547 601q-1 1 -1 2t-1 1q-2 0 -3 -5q2 1 5 2zM516 416q0 2 -3 2h-2q-1 0 -4 -1l1 -14zM530 187q-7 -3 -7 -7q0 -1 1 -3v-1q5 3 6 11zM211 477q-4 5 -9 8l-2 -5zM228 455q-9 14 -16 21q0 -1 -1 -6t-1 -8q0 -4 5 -12zM101 474l-4 13 q2 6 3 13q-7 -20 -7 -37zM153 352v14q-2 -2 -4.5 -3t-2.5 -2q0 -2 7 -9z" />
<glyph unicode="v" horiz-adv-x="792" d="M733 496q-11 -1 -7 -1h-2q-11 0 -11 18v5v4q20 0 20 -26zM701 426l-21 -30v30h21zM217 631q-16 -16 -23 -16q-10 0 -10 12q0 8 9 14h9q10 0 15 -10zM772 585l-5 -22l-14 4l4 -14l-17 -9l-3 -6l8 -34l-27 28l-14 -7l-3 -7l4 -24l-12 -13l9 -19v4l11 11l2 -1l6 -16h-18 l2 -6l-9 -25h-18l11 28l-10 3q-4 -13 -4 -38l-11 -9q-1 -12 2.5 -34t3.5 -31l-7 -28l-20 -2l-5 -7l12 -34l-14 -4l-11 9l6 -7l-7 -21l-23 -13l-2 1l19 -15q-2 -3 -13 -27q-8 -17 -19 -23v-10h-15l-2 -3l14 -17h-31l-1 -18l8 6l4 -17l10 9l-7 -19l2 -8l-4 2q-10 -25 -27 -47 l-9 28l-1 1l-6 -40l-17 -7l-21 2l14 18l-1 2l-10 -2l-8 -10l4 -12l-11 -10l-12 17l1 4l-11 5q-18 -35 -22 -55l-19 22v-10l-22 12l-2 -4l16 -25l-52 -19l-15 5l5 -7l-16 -10l-9 1l13 19h3l14 16l-2 2l-12 -4l-13 17l-1 -1l3 -15l-11 -17q-23 23 -53 80l-7 -7q-10 23 -29 69 l4 13l-10 21l4 5l-8 5l-19 -16l6 24q0 11 -11 29.5t-10 30.5q-42 64 -82 184q-48 142 -72 190l21 -5l3 3v24l9 -6l-5 18l13 -4l2 4l33 15l21 -26l5 4l-9 19l7 19l14 -12l14 19l4 -33l24 26q1 -38 -5 -64l27 6l-8 -14l16 -19q-7 -14 -1 -38l-8 -13q9 -17 32 -18l12 -21 q-3 -17 -25 -56l10 -11l16 15l4 18l11 3v28q20 -44 25 -75l-28 11l-3 -3l13 -12l8 4l28 -27l-14 -14l-4 2v0l-29 -31l6 -4l21 17l15 -20l-11 -15l7 -4q11 14 36 39l-4 -26q0 -46 20 -82l-2 -14l8 -12v-39l-16 9l-2 -3l25 -13q12 26 22 66q3 -23 10 -71l10 -12l-7 -25l3 -11 l20 19l-2 -28l5 -7l11 12l-9 10q5 48 60 86l-8 14l-11 -11l7 56l18 -28l-12 -15l11 -12l9 6q6 15 4 60l16 22l-12 5q6 46 21 92q22 67 49 70l2 7l-18 12q32 34 28 70q20 -18 40 -17l5 -11l-17 -30l-6 13l-5 -22l10 -10q5 16 22 45l-17 30l6 20l23 8l-6 -23l3 -12l6 10 q-2 8 -2 16q0 21 12.5 41t25.5 40l9 -18l-21 -25l21 19l4 -4v1l2 19l35 -30l8 8q1 -5 4 -5q8 0 14 17q13 -55 13 -57zM416 -65l-62 30h31zM679 597l-10 10v8l-3 -4l-3 -17l5 -12zM636 392v4v3h-3q1 -5 2 -9h1v2zM589 434q-1 2 -3 4q-3 -1 -3 -7t4 -9q0 4 2 12zM645 366v1 q-3 -6 -4 -13q4 9 4 12zM588 365l-1 1h-1l-1 -1h3zM568 364l-2 2q-2 0 -8 -3.5t-8 -3.5q2 -1 4 -1q5 0 14 6zM523 260h-4v-1v-3q4 2 4 4zM168 605l-19 -4l-7 -8l5 -8l18 18q1 1 3 2zM198 491q-3 9 -4 9q-2 0 -5 -1q1 -3 9 -8zM553 108q-5 3 -6 7l-3 -9l2 -5zM200 446v0 l-2 -1l1 -1l1 1v1zM309 277v5q0 1 -1 5q-1 -2 -1 -4q0 -1 2 -7v1zM364 129v2q0 8 -3 12q-3 -3 -9 -10q3 -2 11 -4h1zM251 157q-1 1 -2 1l-1 -1v-3zM250 154h-2v-1h1zM282 74l-1 2l-4 3l-19 -18l13 -6l-4 11l14 6z" />
<glyph unicode="w" horiz-adv-x="793" d="M759 552q0 -6 -7 -13q-13 4 -13 13q0 2 1 6.5t1 7.5h12q6 -10 6 -14zM745 536v-15q0 -8 -13 -12l-7 27h20zM661 247l-12 -31q-10 13 -10 18q0 4 5 9t6 7zM269 420q0 -7 -3 -22t-3 -23h-22q-5 6 -5 11t4 12.5t4 10.5q0 2 -10 7q1 1 11 18q6 11 15 11q9 -12 9 -25zM739 606 l-6 -12l-14 -4l-2 -3l8 -23q0 -11 -4 -36.5t-3 -39.5l-15 5l1 -29l-11 -21l-23 3l-13 -11l1 -2l12 -5l7 -17l-2 -6l18 -22l-5 -15l3 -9l29 -22l-51 5q-16 -25 -42 -79l-9 -6l27 -77l-42 33l-4 -6l1 -13l9 -11q-7 -26 -19 -79l-12 1v15l-28 17l-1 -2l16 -24l-6 -1l14 -9 l4 -10l-2 -37l-26 14l-3 -31l-15 18l-11 -36l-14 -9l-21 32l2 -14l-11 -18h-6l-10 13l24 20l-9 3l-42 -34l-22 17l-9 -1q-9 5 -20 23t-21 23q-2 15 -20 94t-19 79l-23 -7l23 -27l-24 -25l-18 3l-7 -5l10 -7l8 10l30 -22l-13 -8l7 -16l-13 -4l-17 17l6 -37l-8 -42l-11 2 l-8 46l-13 -6l3 -16l-7 -7l15 -29v10h14v-16h-14l-5 -25l-20 14q-1 -10 1 -26q2 -19 2 -26q0 -36 -36 -91l-26 7l11 -14l-29 -9l-16 -18l-15 15l-18 -2l-19 7l12 13q-43 34 -58 98q-9 41 -9 116q0 51 1 60q3 36 19 57l-9 6l-5 17l6 40l9 7l-11 6l7 16q0 20 -10 60t-10 60 q0 10 5 34q3 21 2 34q38 -19 56 -27q31 -13 58 -16q6 -28 5 -73l-8 -8l11 -19l-3 -7l11 -29l14 24q-7 -63 -26 -94l17 -9l-3 -3l12 -23l-19 -16v35l-13 -1l4 -21l-4 -8l14 -23l32 3l15 22h-15v32l15 -28l-5 34l16 11l11 25q-9 23 -9 60h19l-2 -11l12 -16l-10 23q37 35 33 60 h18l6 -47l10 11l-5 40l-30 16l-7 -2l-15 32l10 17l16 -17l28 7l1 3l-3 5l-12 -9l-11 28l10 27q24 -13 41 -30q-13 28 -13 46q31 -2 50 -27l-4 -12l4 -9l17 19l14 -3q8 -15 24 -34l10 4l11 -33q0 -12 -4.5 -34t-4.5 -33l-5 -8l25 -17l-8 -15l2 -15l-15 -9q-4 -26 -16 -49 l14 -18l-14 -13l5 -4l5 -21l18 -12l-20 -32l13 -19l-4 -32l3 -23l7 -8l2 3l-4 20l12 -1l25 27l-1 4q52 100 52 142q0 8 -2 13q16 15 22 62q5 44 28 57l-1 26q-2 18 23 37l2 12l-16 4q10 16 19 32q11 20 11 34q0 9 -3 16l6 23l-5 13l15 11l27 -8q5 24 11 37l11 -12v-4l-6 -23 h-13q20 -14 12 -36l2 -2q17 17 12 58h27zM469 161q0 -11 -10 -11h-9v26q11 0 19 -6v-9zM192 309l-11 -2l-1 4l12 2v-4zM214 -113v-5q-1 -3 -1 -4v-24q-20 27 -20 38q0 5 6 15q15 -6 15 -20zM577 342q0 3 -2 6v-3q1 -2 2 -3zM341 476q-1 6 -3 13q-4 -12 -4 -13q0 -2 1 -8z M334 403q-7 3 -10 14v-8q4 -4 10 -6zM273 344l-4 5l-9 -20zM307 284q0 3 -10 4q6 -7 10 -10v2v4zM414 162v12q0 3 -2 5q-8 -7 -8 -11q0 -6 10 -6zM168 332h-14l3 -7l8 1zM68 412v1l-2 -1h2zM70 403l-2 1v-1v-1zM257 168q0 2 -1 4q-9 0 -9 -11v-3q10 7 10 10zM152 255v3 l-1 -1zM188 171l-21 24q-2 -2 -26 -23q-17 -14 -18 -27q27 -38 35 -72l6 -2q-1 5 -1 8q0 15 8.5 42.5t8.5 41.5zM146 76l-7 8l-2 -8l2 -4l7 4v0zM203 -23v4q-4 -13 -7 -20q7 2 7 16zM108 60l-1 1v0v-1h1zM110 56l-2 2l1 -3v0v0zM144 25q-6 -28 -6 -24v-3q6 5 6 23v4z" />
<glyph unicode="x" horiz-adv-x="561" d="M549 28l-1 -12q-42 -15 -69 -31v-19l-18 13l-30 -14q-19 12 -30 28l-9 -1l-8 22l-4 -1l-12 4l-13 15l2 16q0 22 -15 35l-13 -22q-4 16 -9.5 32t-19.5 21l2 6l-8 13q-19 8 -28 24l8 14l-14 3l1 10l-20 23l-24 -19l3 -7q-26 -60 -56 -90l6 -11q-3 -8 -24 -44l-9 2l-30 -28 l7 -4h-11l-5 -4v4h-17l-5 -7l-21 8l8 10l-8 3l-23 -14v33l20 28l-41 -21l47 45l7 -6q0 33 28 81l8 -3l4 4l-4 13q14 15 20 31l6 -3l3 20l12 -4l7 6q0 24 6 40h8l3 17l12 5l-5 5l8 24l18 -17l4 14l-6 3l-9 -3q-17 53 -54 124q-32 60 -64 119l3 11l-17 19q36 5 45 5 q19 0 39 -16q19 14 33 17l2 -19l7 -6l8 1l10 -5q11 -17 7 -30q7 -5 29 -19l-5 -10l-2 1l-2 -1l-5 -8q14 -22 56 -48q1 1 53 72l-5 23l4 20q10 17 34 46v18l20 -16l8 30l12 -6l25 18l6 -15l-9 -19l6 -2l9 15l-3 11q14 13 49 35v-20l-9 -5l2 -1l3 -30l-11 -10v0l-29 -57 l-14 -2l4 -9q-11 -28 -36 -66q-41 -61 -41 -62l-8 6q-1 -13 -31 -82q17 -11 31 -27q2 -21 11 -34l2 2l11 -5l1 1q9 -28 69 -102l-2 -9q3 -6 23 -26q15 -15 16 -30q20 -12 30 -34l-2 -10q2 -1 26 -18q16 -11 16 -25zM512 -22q0 -10 -9 -10q-4 0 -14 10q0 8 7 15h1h2q2 1 3 1 q4 0 10 -7v-9zM402 -14l-11 -4l-2 4l11 4zM31 14l-11 -4l-2 4l11 4zM221 428q-1 1 -2 1h-2q2 -1 4 -1zM371 279l-10 -16l3 -4zM285 215q-2 -1 -4 -3h1zM433 45q0 1 -1 1q-6 0 -11 -5h2q10 5 10 4zM421 40h-1v-1zM321 155l-16 15l-23 -7l8 -17l17 15l3 -23l1 -1zM281 165v5 h-2zM96 18l-2 14q-1 0 -3 1q-7 0 -7 -11v-4v-2l8 4z" />
<glyph unicode="y" horiz-adv-x="586" d="M572 623q-19 -9 -25 -33.5t-20 -30.5l2 -6q0 -10 -8 -22q-11 -19 -12 -20l3 -11q-14 -15 -36 -48l3 -15l-19 -2l1 -23q1 -19 -18 -57q-24 -45 -28 -57l-18 -17q-5 -22 -11 -44q-8 -25 -21 -40l-11 14q-5 -6 -5 -36l-3 -13q-23 -9 -29 -54q-7 -48 -24 -61q0 -28 -4 -45 q-16 -15 -40 -20l-16 26l-14 -7l6 -14l-10 -12l-30 28v1l-18 4l-19 -25l-14 16l5 21q25 9 42 18l1 10l-3 12l-13 7h-32l38 23q2 29 24 61t22 46q20 33 21 65l-11 7h-25q-9 15 -23 47l4 10l-20 9l-3 34q-56 59 -53 103l-11 13l4 17q-41 100 -87 173q39 -9 77 -18 q38 -12 64 -45l-6 -15q25 -13 45 -58.5t20 -76.5l30 12l-6 -24q0 -14 14.5 -37.5t15.5 -37.5l-12 -12l8 -22q6 -14 15 -16q7 18 16 69l20 -35l11 -7l3 5q-9 11 -29 33l26 25h4l17 18h-19q7 15 21 33l-6 6q26 22 33 42l-6 18h25l-3 7l2 8q19 7 19 22q0 4 -6 29l7 15l13 2 l-13 31l19 -6q6 9 20 20t23 7zM158 30l-16 -8v34q15 -1 16 -26z" />
<glyph unicode="z" horiz-adv-x="678" d="M664 57q1 -16 -9 -41q-13 -30 -15 -40l-27 31l1 -12l-11 -16q-11 14 -26 27l-28 -20h18l14 -26l-36 23l-17 -27l-4 29l14 24q-16 -16 -52 -31l-5 -11q-9 9 -37 52l-25 -15l-2 1v-31l-19 22q-14 -16 -31 -23l-8 16l-19 -3l-9 4l-15 -24l-19 26l-9 -8l-31 12l-17 -12 l-12 18l-7 3q-4 -2 -30 -17q-18 -10 -31 -10l-17 3v9l-10 36l-3 1l-24 -18l-6 12l-15 -10l-13 4l4 5l-19 8l17 32l-11 1q-19 0 -49 -19q7 15 23 28q15 10 30 21v9q25 10 37 47q10 30 7 62l20 -39l4 -2l5 32h44q16 33 34 55l-14 17l11 20l17 -11l26 22h-9v28l17 -13v5 q17 8 42 33q-6 20 -13 33l2 9l12 10l-4 18l24 16l-2 -27l3 -13q14 32 45 95l31 16l4 -6l-7 36l9 22l18 12l-5 9l-4 1l-4 -3v-12l-21 11q-22 -29 -69 -28l-14 1l-8 11l-18 7l-6 -5v-11l-13 -6l-16 6l-12 -11l-10 3l-17 28l-4 -21l-34 -8q-25 0 -53 38q-20 29 -40 59l43 17 l11 -10l3 8l37 13l10 -9l14 18l13 -17q43 0 129.5 10t130.5 10l29 -10q10 4 72 8l4 -18l-6 -18l29 -7l6 -11l-8 -24l-12 2l1 4l-5 7l-2 -6q-3 -10 -1 -28q3 -20 1 -28l-14 -10l1 -7q-12 -13 -34 -40l-10 -3l-22 6l9 -4l9 -12q-15 -21 -41 -65l-7 20q-4 -21 -19 -35l5 -8 l-44 -72l-8 1l-4 -1l-5 -8l2 -9l-16 -23l1 -5q-39 -43 -62 -83l-2 29l-5 5l-2 -2l2 -13q-22 -48 -71 -111l-6 7l-7 -9l1 -20q48 0 145 -6t147 -6q21 0 64 6.5t65 6.5l10 -2zM301 363v-6.5v-6.5l-27 -16q-7 10 -7 14q0 5 23 27q11 0 11 -12zM236 323q-3 -8 -4 -9q-3 -4 -9 -4 h-22l27 17zM202 251q0 -15 -11 -20l-15 17q12 12 17 12q9 0 9 -9zM177 227q0 -18 -10 -18h-10q-7 5 -7 11q0 3 3.5 11t3.5 13q20 0 20 -17zM139 -23l-12 -1l-5 27h17v-26zM445 604q0 8 -16 8q-2 0 -3 -4q21 -5 18 -5zM407 355l-13 1l4 5q4 -3 9 -6zM495 -4l-3 6l-6 -6l2 -12 zM413 8l-2 2q-3 -3 -6 -7q3 3 8 5zM211 179l-21 16l-1 -5l19 -17l2 1zM89 48l-3 11l-11 1l13 -17z" />
<glyph unicode="{" horiz-adv-x="369" d="M367 693l-26 -20q25 -22 25 -58l-6 -9l-17 -1q-13 -1 -35.5 7.5t-34.5 8.5l-14 -3l-12 -14q-32 -5 -41 -61q-16 -104 -16 -105q-19 -61 -75 -78l5 -7q0 -7 24.5 -25t26.5 -21q-3 -13 -10 -38q16 -17 16 -43q0 -15 -6 -31q31 -31 85 -43q22 -5 97 -13l-11 -41 q7 -10 11 -32l-13 -17q-27 2 -80 16l17 -20l-16 -3q-10 0 -21 8t-21 15l-12 -7l-21 6l-23 -16l3 14l-39 14q-10 33 -12 36q-10 19 -32 16q-20 12 -15 42q-22 12 -24 29q1 -5 1 40l-9 26l15 9l9 -7l-13 23l-5 -14l2 19l-4 8q2 4 -18 14t-20 15l12 -1l43 -12l3 -2 q0 2 -16.5 13t-16.5 12q0 8 -5 24.5t-5 24.5q0 7 23 21.5t24 21.5l7 -4l-5 13l8 17l23 -19l5 12q0 6 -3 26q-3 15 -1 25l-26 19l21 -2l-5 17q2 4 21 22q13 12 12 25q23 16 27 57q4 50 12 64l11 3l15 -8l2 1v16l19 -1l6 4v47q7 -18 26 -50l4 7l-5 15l20 -4q13 8 41 23 q15 -7 44 -35l9 5zM81 472q0 -7 -7 -11h-11v51q18 -36 18 -40zM85 98h-18v33q13 -5 14 -17q0 -4 4 -16zM57 120l-27 27h27v-27zM116 531l-6 4l-6 -14q2 0 9 3z" />
<glyph unicode="|" horiz-adv-x="286" d="M263 461q-11 -46 -10 -83l-26 -12l4 -4l24 5l4 -17l-8 -35l7 -17l-23 -15l-5 -39l-32 44l-3 -5q6 -12 15 -36l-10 -15l19 -12q7 -20 22 -33l7 -41l-22 17l2 8q-13 -15 -18 -35l15 -4l11 -19l-7 31h22l-11 -48l-3 14l-14 -30l-7 1q-7 -8 -23 -22q5 -21 5 -57l-15 8l21 -35 q-6 -16 -10 -23q-7 -12 -18 -17q-15 4 -33 19l-8 -3l-6 -11l-16 28l-42 22l50 -6l3 5l-1 14l6 7l-4 3l-13 -22q-1 0 -27 43q-16 28 -13 47q-15 25 -15 66l-1 82q14 15 20 32q-8 7 -16 20q-11 22 -12 23l29 5v102l-13 31v-2l-1 3l-8 6l4 9l-12 45h17v-36q5 10 13 31l-3 8 l-8 4h-4q-20 14 -20 44q0 10 2.5 30t2.5 29l-3 21l-17 17l4 12l-8 29l6 16h17l-3 -30l3 -5q10 15 34 41l19 -21q12 5 37 11l17 -12l17 6l30 -8l22 -29l-11 -14l3 -5l11 3l11 -4v-42l-5 -2q0 -11 6 -25q8 -21 9 -24q-11 -8 -27 -27l5 -7l30 18l-4 -49zM219 -77q-25 3 -25 16 q0 6 7 12q18 1 18 -12v-16zM167 660v1q0 4 -6 4h1q1 -2 5 -5zM238 456q1 6 -9 12l-1 -2q7 -2 10 -11v1zM95 436q-1 1 -2 1v-2q0 -2 2 -2v3zM172 53v2v1h-3h-1q0 -2 3 -6q1 1 1 3z" />
<glyph unicode="}" horiz-adv-x="385" d="M343 310l-25 -16l-12 19h-9l-4 -6l14 1q0 -16 -12 -28t-24 -23l5 -13q4 24 30 22l6 26v-27l4 -1q-5 -10 -5 -28q0 -9 19 -35l-21 5l-14 -10h-12v20l13 6l6 27l-8 1l1 -10h-18l8 -18l-13 -14l7 -19l-14 -17l-15 2l-3 -10q-14 -2 -33 -22l-4 -26l-27 4q1 -10 -8 -29 l-32 -17q-4 1 -23.5 9t-22.5 8h-4q-9 -33 -41 -41l-19 7l-18 -6l19 31l-14 10q2 21 0 40q9 8 40 8q58 0 97 70q24 60 49 120l-7 4q1 5 26 18.5t24 19.5q0 6 -26.5 16t-27.5 16q-22 105 -79 147l14 1l-19 26l2 8q-21 3 -47 21q-12 -1 -35 -5l-17 11l6 20l-11 39l15 39 q-8 19 -10 39l6 10q14 -10 38 -36l5 2l-3 12l13 17l14 -16l-11 -14v0l11 -4l13 8l-1 2l14 3l12 -4q16 -14 20 -42l1 14l10 14l22 -13l15 6q7 -15 25 -33l5 11h20l-6 -15l18 -31l-7 -12l7 -6l12 27l17 -20q10 -75 10 -76q8 -44 26 -72l-6 -11l15 -25q-4 -5 -4 -10t6.5 -18 t6.5 -21.5t12 -12.5t15 -11l-4 -17l1 -1l14 11zM212 666v0h-2l-1 -2h1zM275 586q-9 12 -8 28l-8 4q6 -8 6 -18q0 -6 -3 -13l4 -8l2 -1l2 1zM109 704l-5 13l2 -15zM273 531v6q0 3 -1 7l-6 -26l6 3q1 14 1 10zM288 463q0 6 -1 13l-3 -8q3 -4 4 -5zM142 554l-2 2l-5 -3z" />
<glyph unicode="~" horiz-adv-x="0" />
<glyph unicode="&#xa1;" horiz-adv-x="253" d="M61 3h15v-17h-15v17zM7 93l35 -37l9 14l-11 2l-1 14q0 16 16 36l18 5l-1 4l3 8l-14 -15q-4 22 -4 24q0 27 15.5 77.5t15.5 77.5l-7 18l11 20l-14 9l15 21l13 -7l-14 15q-1 6 -9 60q5 7 19 13.5t19 19.5l9 -16l3 3l10 -16l17 10v7q8 -14 17 -43v4l27 -21l4 10h21l-5 -13 l4 -9q18 -4 18 -20q0 -2 -8 -38l-14 -10q3 -11 5 -22q10 -4 9 -34v-5l-13 11l-13 -1l15 -3l-3 -10h12v-21l-18 6v5l-6 -10l3 -4h14l3 -20q0 -29 -32 -103q-35 -79 -38 -107q-14 -8 -43 -23q-8 4 -17 12l-15 -6l4 23l-26 7v-5l-8 -7l-10 2q-17 49 -40 88zM194 522l12 3l2 -6 l-12 -3zM107 548q4 11 4 64l3 -1q-2 5 -2 8q0 5 14 31t20 33q2 -19 5 -19t8.5 1t7.5 1q8 0 13 -5q3 7 14 7h2q0 -11 9 -20.5t9 -13.5q0 -7 -12 -21q7 -6 7 -18q0 -2 -2 -12q-12 0 -12 -10q0 -2 1 -6v-7q6 -4 18 -13q3 2 14 15v-16q0 -13 -13 -15q-21 -3 -22 -3v-4 q1 -18 -13 -18q-49 0 -73 42zM50 48l10 -10l-3 8zM167 357v-2q1 3 3 6zM194 329h2h3h2l-1 4q-2 0 -6 -4zM171 380l3 -13q7 7 17 24q1 0 5 2q8 0 8 -6q0 2 -2 -4q0 -5 9 -11q-3 7 -9 23l1 1h-24q1 -5 5 -14h-11zM157 432l3 3v7z" />
<glyph unicode="&#xa2;" horiz-adv-x="578" d="M554 247q-16 -11 -21 -14q-13 -6 -24 -7l1 -19l-2 -7q-17 -16 -40 -28l-14 4v1l-7 -16l-9 2q-11 0 -26 -24.5t-34 -24.5l-15 -10l-10 1l-7 8h-7q-12 -11 -32 -37l13 -34q0 -13 -9 -39.5t-7 -41.5q-16 -8 -50 -22l-19 13l-1 11l9 17q-17 18 -16 41l1 13q13 15 19 51 q-54 38 -89 38q-7 0 -13 -1q-9 17 -65 63l-5 -1l-17 13l3 18l-6 5l-13 -2l6 16l-7 10l6 17l8 -1l3 1l8 12l-9 7l-24 -25q-9 68 -9 81q0 37 27 74l2 -9q8 16 30 43l15 -9l2 16l15 12v19h15v-22h-1l5 -5q24 14 31 39q14 2 81 22q-8 14 -2 44l-9 17q5 40 34 81q6 -6 29 -17 q19 -10 26 -22l-12 -29l13 -24q-9 -43 -9 -44l3 -11l8 -7l9 10q18 -4 23 -5q13 -4 21 -11l24 7l17 -8l6 -18q-8 -16 -19 -47l-33 -5l-3 21l-19 -9l-21 18q-21 -18 -21 -43q0 -6 2 -11l-9 -9q18 -61 16 -112l-1 -57l-9 -11l9 -19q34 10 47 17q26 13 32 36l16 10h18l3 -6 q33 13 50 17l16 -7q12 16 27 43q8 -26 26 -58zM113 131l-21 21l11 11q10 -7 10 -26v-6zM456 195l-6 12q3 -11 5 -19zM241 323q-15 24 -15 52q0 22 9 47l-7 -2q-19 -5 -36 -11t-21 -29q0 -21 -10 -60q5 -8 6 -24t4 -23q13 -25 25 -50q18 -31 38 -36q-1 7 -7 26q-6 16 -6 26 q0 5 3.5 14t3.5 13q0 8 -12 13l-6 15q0 15 31 29z" />
<glyph unicode="&#xa3;" horiz-adv-x="540" d="M375 485q0 -9 -6.5 -14.5t-17.5 -18.5v4v4v9q0 16 21 16h3zM529 103l-13 -24l6 -6q-13 -5 -39 -17l5 -18l-77 1q-31 1 -64 -7l8 -10l-27 26l-16 -13l-4 14l-12 7l-21 -24l-11 2l-5 8l-15 -14l-9 9q-15 -7 -30 -13q-17 -9 -21 -23l-30 18h-2l-12 -11l-11 5l-13 22l-1 -7 l-40 -19l-8 23l-8 5q-11 -5 -32 -11l-3 10l-12 -13l25 47l-8 17l8 14l22 -11l2 4l-9 32l7 15q-18 12 -35 54q14 -10 36 -36l2 1l-3 8l2 15l7 -2l10 15l-6 12l-10 -11q-14 16 -40 50l38 -17l4 5l-7 16h8l2 30h28l7 21l-16 -5l-17 8l8 8l-3 15l12 9l9 -10l13 12h-22 q-35 -1 -90 16l30 12l-1 33l22 23l-7 22l10 45l5 -46l27 14l-1 14l5 25l36 38l-4 14l12 -4l4 5l9 2l3 13l-8 18h16q17 -1 39 17l3 22l7 -13l16 21q28 1 53 7q3 16 15 40l15 1q31 26 39 30q16 8 52 7l-2 9l-24 16q9 5 24 5q42 0 39 0l3 -17l52 24l-9 -14l43 -37l-54 -46 l-3 -50q-7 3 -21 5t-20 5l-56 -11l-5 -12q-32 -27 -65 -53q-40 -35 -52 -64l31 11l16 -24q11 5 35 14l5 -6l-12 -20l7 19q-18 -13 -18 -32l52 -12l27 6l-12 26q34 -7 48 -37l-13 -16l-20 3v-21l-14 -1l-19 14l1 9l-6 8l-7 -11l8 -18q-13 -3 -38 -11q3 1 3 0l-9 -2l-17 -4 l-11 9l-36 -16l8 14l-2 2l-21 -20l4 -20q-11 -8 -11 -24q0 -6 2.5 -19t2.5 -19q0 -23 -27 -39l14 -15q-5 -16 -13 -48l-8 -8l14 -1q0 -30 -19 -50l6 -8q45 16 107 16q181 0 228 -21zM97 533l-12 -2l-1 11l11 2zM66 294q0 -12 -15 -23q-7 13 -7 23q0 7 2.5 19.5t2.5 19.5h12 q-1 -8 -1 -7q0 -6 3 -16t3 -16zM56 249q0 -8 -15 -9l1 1l-10 6l12 30q11 -11 12 -24v-4zM126 485q-6 0 -24 4h-1l-1 -3l2 -1l15 1l9 -10v9zM460 78v1q0 3 -4 3h-8h-1v-1q1 -2 4 -5h2zM156 311q0 3 -3 8q-3 -8 -3 -12zM72 370q0 4 -7 8q-3 -3 -17 -14q3 -6 16 -6q8 0 8 12z M108 231q-5 12 -7 12h-2q-4 0 -4 -4v-3l2.5 -2t7.5 -7q2 2 3 4zM120 170l-14 14v-2v-14q0 -3 1 -8q1 1 13 10zM107 47q-2 2 -4 3l-2 -7v0q2 0 6 4zM51 65l-1 1l-17 -19z" />
<glyph unicode="&#xa4;" horiz-adv-x="553" d="M142 399q0 -7 -7 -7h-7v30q14 -16 14 -23zM486 482q-1 7 -4 20l-3 1q1 -3 1 -6q0 -5 -3 -15l3 -6h2l2 1zM367 567l-3 7l1 -9zM484 449l-3 -16l3 2v14zM497 393l-2 10l-2 -6q2 -3 4 -4zM168 441v0l-6 4l-4 -10q1 0 8 2zM490 228q4 -3 11 -9l1 1l4 19l-6 1l1 -2v-5h-12z M588 122l-1 -10q-40 -11 -65 -24v-15l-18 10l-28 -12q-18 10 -29 23l-8 -1l-8 17h-4l-11 3l-9 8l-15 -8l-34 13l-3 -1l-8 -18l-20 -12q-20 3 -58 13l13 -16l-12 -2q-10 6 -29 17l-8 -5l-16 4l-17 -11l2 10q-6 4 -26 9l-8 -6l6 -4h-11l-4 -3l-1 3h-16l-5 -6l-19 7l7 8l-7 3 l-22 -12v27l19 22l-39 -17l32 26l-4 3h8l8 7l7 -5q0 8 2 17q-12 9 -15 31l-4 36l9 5l6 -1q-12 20 -12 23q0 2 4 23l8 -1v-8l-1 -2l2 -2q7 7 7 18q0 7 -3 21t-3 19l1 26l7 -3l-5 10l6 12l16 -13l5 8q-8 23 -4 37l-18 14l15 -2l-4 12q10 8 25 26l-1 8l2 2q-13 21 -40 64l3 8 l-16 15q34 4 43 4q16 0 34 -11q1 3 2 5l8 3l4 -3l8 4v5l13 -1l5 3v40q9 -28 19 -43l4 6l-6 11l15 -4q20 12 31 17l31 -25l4 2l-2 15l10 5l10 -11l-8 -10h-1l9 -3l8 5v3l10 1q16 0 22 -23q5 9 20 24v14l19 -13l8 24l11 -5l23 15l7 -12l-9 -15l6 -2l8 12l-3 8q14 11 46 29v-16 l-8 -4l2 -1l3 -24l-11 -8h1l-28 -45l-14 -2l4 -7q-3 -6 -6 -13l1 -3l-4 -8l5 -3l8 17l17 -15q0 -71 22 -105l-5 -8l11 -18l-8 -12h22l2 -10q0 -4 -2 -20q-2 -13 0 -21h-14l1 23q1 15 -10 27l-7 -24q0 -7 5 -16l9 -15l-3 -12l1 -1l9 8l4 -25l-17 -12l-8 14h-7l-5 -4h1l11 1 q0 -11 -8.5 -20t-16.5 -17v-2h1v-1l1 -5q5 16 22 14l5 19v-19l2 -1l-3 -21l14 -24l-13 2q7 -7 7 -16q19 -10 28 -27l-1 -8q1 -1 25 -14q15 -9 15 -20zM477 136h-1q-5 0 -10 -3l2 -1q9 5 9 4zM466 131h-1v-1zM157 114l-3 11h-2q-7 0 -7 -8v-3v-2l8 4zM553 82q0 -8 -9 -8 q-4 0 -13 8q0 6 7 12h1h2q1 1 2 1q4 0 10 -6v-7zM448 88l-11 -3l-2 3l11 4zM95 111l-11 -4l-2 4l11 3zM437 297l-5 4q3 10 3 18q0 31 -19.5 75.5t-43.5 61.5l12 1q-21 7 -14 25q-53 7 -68 22q-18 3 -23 3q-11 0 -18 -12q-32 -6 -41 -82q-10 -88 -25 -103q3 -10 12 -29 q-1 -8 -8 -28q12 -12 12 -32q0 -11 -5 -21q36 -40 125 -40q45 0 70 51z" />
<glyph unicode="&#xa5;" horiz-adv-x="586" d="M561 329q0 -10 -8 -16v1h-11l1 -2q-3 2 -3 6q0 11 21 11zM561 182q0 -9 -8 -16v1l-11 1l1 -2l-3 2q0 14 21 14zM572 623l-46 -18l2 -6q0 -10 -7 -21.5t-13 -21.5l3 -10q-14 -15 -36 -48l3 -15l-19 -2l2 -34q0 -21 -17 -50q-24 -38 -27 -46l13 -11l14 16q16 -4 19 -16 q1 -7 -2 -27l22 6l-8 27q36 -11 37 -34l1 -1l-11 -19l-15 4l-1 -17l-7 -6l-21 17l3 7l-6 7l-4 -11l6 -17q-32 -13 -91 -20l-5 -9l-10 8l-8 -1l12 -34q12 -7 36 -18l9 12q4 -2 31 -21l4 17l22 -4q10 -11 4 -39l22 6l-8 25q26 -6 38 -36l-11 -17l-16 4v-17l-6 -5l6 -1h1l-8 1 h1l-23 20l4 2l-6 8l-4 -11l6 -17q-28 -10 -108 -21q4 -28 -5 -56q10 -28 12 -45q-10 -16 -32 -21l-25 26l-12 -6l11 -15l-5 -12l-41 29l-19 5l-9 -26l-20 17l-3 21q21 8 35 17q-8 22 -22 28q-9 3 -36 2l14 10q-27 -8 -51 -8q-34 0 -81 17q18 7 22 17q3 7 1 29l19 22 q-6 9 -6 23q0 12 8 42q-20 4 -44 13q18 7 21.5 16t1.5 30l19 23l-6 21q0 3 9 52l4 -53q20 9 33 31l-1 3l10 5l21 -29l11 36l-20 8l-2 34q-56 60 -54 104l-11 12l4 17q-41 101 -87 174q39 -10 77 -20q42 -14 64 -43l-6 -15q26 -14 47 -60q18 -42 18 -75l30 12l-6 -24 q0 -15 14.5 -38.5t15.5 -36.5l-12 -12q4 -11 8.5 -23.5t14.5 -14.5q7 18 17 69l19 -36l11 -6l3 4q-9 11 -29 33l26 25h4l18 19h-20q8 15 21 33l-6 5q26 22 34 43l-7 18h25l-3 6l2 8q18 7 18 24q0 5 -5 28l7 14l13 3l-13 31l19 -6q13 14 18 18q11 10 22 10zM490 126h-4h4z M216 34l-13 -7l-12 34q15 -2 25 -27zM216 226l-9 8q-35 -13 -69 -13q-17 0 -33 3l4 -44q19 9 33 30l-1 4l10 5l28 -39l13 31l20 -17q4 21 4 32zM121 252q0 5 -6 8q-5 -5 -10 -11l12 -6q4 5 4 9zM121 106q0 4 -6 7q-5 -5 -10 -11q3 -2 12 -6q4 5 4 10z" />
<glyph unicode="&#xa6;" horiz-adv-x="279" d="M199 749l-44 -3q8 -24 27 -39l3 3l6 -10l-40 -29l30 -17l-18 -24l22 -36l-9 -4l12 -38q-16 -6 -24 -13q13 -23 13 -31q0 -5 -4 -5q-7 0 -21 11l18 -7q-6 9 -30 18q-6 -23 -13 -46q-1 -16 5 -24l25 10q-6 -21 -11 -27t-26 -14q-10 5 -15 12l3 17q-5 2 -19 1l-2 13 q1 6 5.5 9.5t9.5 6.5l8 -2l8 6l-10 6l-18 -7l-9 32v0v0q0 2 -1 3l1 -2q0 1 -1 2q-1 5 -5 20l9 10l-14 32l13 -8l3 2q-2 4 -19 19h-6q-7 3 -16 7v17l17 24q-12 37 -11 72q2 40 20 86q5 -17 10 -27h32q16 -1 22 -21q15 6 21 6q1 0 43 -11zM184 463q-4 0 -31 23q4 0 11 -1h5 q16 0 15 -22zM118 271q-4 1 -12 1h-5q-15 1 -15 22q4 0 32 -23zM226 137l-17 -23q11 -38 10 -73q-2 -40 -19 -86q-6 17 -11 27h-31q-17 1 -22 21q-15 -6 -22 -6q-1 0 -43 11l45 3q-9 24 -28 39l-3 -2l-6 9l40 30l-29 16l18 24l-23 36l10 4l-13 38q16 6 24 13q-12 23 -12 31 q0 5 4 5q6 0 20 -11l-17 7q5 -9 29 -18q6 23 14 46q0 16 -5 24l-25 -10q5 21 10.5 27t25.5 14q10 -5 15 -12l-3 -17q5 -1 20 -1l1 -13q0 -6 -5 -9.5t-10 -6.5l-8 2l-8 -6l11 -6l17 7l9 -32v0v0q1 -2 1 -3q0 2 -1 2q1 -1 1 -2q1 -5 5 -20l-9 -10l14 -32l-13 8l-2 -2 q1 -4 18 -19h6l16 -6zM90 741q-2 1 -13 14q-5 -1 -6 -14q0 -6 11 -7q4 0 8 7zM99 680l-2 1l-1 -2q2 0 3 1zM175 78q-2 0 -4 -1l2 -1zM199 16q0 6 -11 7q-4 0 -8 -6q3 -2 13 -15q5 1 6 14z" />
<glyph unicode="&#xa7;" horiz-adv-x="298" d="M258 620q0 -3 -4 -8l-6 10h8zM257 611v-6q0 -11 -4 -11h-6zM230 632q0 -4 -2 -8l-6 17q3 -2 8 -7v-2zM264 583q-1 0 -8 4q0 8 4 8h1q3 0 3 -4v-8zM91 559q-1 4 -1 7h-4v-1zM102 545l-7 -3q-1 4 -3 9v-20l4 2zM96 496q0 4 -2 8q1 -5 2 -8zM49 517l-1 2l-2 2l-3 -1l-2 -4 v-5zM133 339v1l-1 -1h1zM217 362l-4 1q-9 0 -14 -6l-4 7q-9 -13 -20 -15q-2 15 -2 16t3 14l3 -5l1 5l-7 3l-5 -4q-1 -3 -1 -6t1 -7v-7t-1 -10l-9 -6l-6 10l-5 -13l-6 7l-1 -8h6q15 0 60 13l8 10l2 -1zM172 398v-1l1 -1v1zM157 400l4 -7l1 5q-3 1 -5 2zM243 106l-6 1 q-2 -11 -14 -30v3q-13 -22 -48 -45l-7 11l1 1q-4 -8 -14 -22l-11 7l-10 -8l-4 11l-2 1l-14 -12q-7 5 -21 14l-7 -3l-3 12q0 23 17 41q14 -6 28 -6q18 0 60 15l7 11l3 -1v4q-1 15 -13 40l-9 -23q-1 10 -11 16q-13 8 -15 12l-5 -5q-7 5 -22 14l-8 -13l1 16q-3 7 -27 22 q-10 -2 -12 -1q-5 10 -15 32q-1 -5 -7 -11l-6 2l-6 10l-1 29l-13 -2q-1 6 -4 23q-3 14 -3 23l1 7l6 -3l11 14l6 -7l1 6l-6 10v4l-7 -11l-3 15h10l2 19h9l1 -13l8 -4q4 22 6 22l10 -7l4 2q-1 5 17 30l10 -3l2 -8q-3 -3 -6 -9q9 2 10 2.5t5 7.5q-1 3 -7 11q-4 -1 -5 4 q-1 0 -2 -2l-1 6l13 4l6 12l4 -11l-3 -8l2 -2l15 26l-2 1l-9 -11l1 14q-2 3 -13.5 7t-12.5 11q-4 -1 -15 0q-5 10 -15 28l-3 -8q-5 -1 -11 1l-6 8l-2 26l-13 -2q-1 5 -4 19t-3 21l1 6l6 -2l11 12l7 -6l1 5l-7 9l1 4l-7 -10l-4 13h11l2 17h9l1 -12l9 -3l4 20l13 -7l3 2 q-1 14 3 14q3 0 9 -9l2 4q-1 6 2 12t6 6q4 0 4 -7q0 -4 -2 -12q10 2 11 2.5t5 7.5q-16 11 -16 13q0 1 7.5 5t12.5 12l5 -9l-3 -8l2 -1l24 28l12 -20l2 11l8 9l2 -16v0l11 15l5 -2l-3 -9l2 -2l5 5l11 1l20 -4q4 -11 -1 -23l14 -10q-13 1 -36 -6l-4 6q-10 -11 -21 -13l-3 14 l3 12l4 -4l1 5l-8 2l-4 -4v-17l-2 -9l-9 -5l-6 8l-5 -11l-7 7l-3 -21l-5 15l-36 -39l-7 2l-4 -23q0 -16 14 -31t30 -12l3 -6l14 -3l2 -9q2 -1 6 1l4 3l7 -10l8 5l30 -12l3 -8q8 -2 23 -23l-1 -5l3 -14v17q8 -12 16 -38l-6 1q-3 -11 -15 -27l-1 3q-13 -20 -49 -39l-8 9l1 1 l-15 -19l-10 6l-11 -7l-4 9l-2 1l-15 -10q-7 4 -22 12l-8 -3l-7 2q-4 -15 -4 -26q0 -17 13.5 -34.5t28.5 -15.5l4 -6l12 -3q1 -6 4 -12l8 6l7 -12l7 6q9 -5 29 -14l3 -9q8 -2 21 -26v-5l2 -17l1 19q7 -13 15 -43zM77 335v7h-4v0zM89 318l-7 -3q-2 5 -3 10v-22l4 2q3 6 6 13z M83 262l-2 10q0 -6 2 -10zM37 287q-1 4 -5 3l-3 -4v-6zM80 40v0q-7 0 -7 9q0 8 7 9v-18z" />
<glyph unicode="&#xa8;" horiz-adv-x="388" d="M343 673q0 -2 -2 -6t-2 -7q0 -15 -1 -17q-2 -5 -12 -20t-13 -15q-10 10 -24 21l-26 -11l-12 3q-4 -4 -9 -15q-8 7 -16.5 23.5t-5.5 24.5v7t5 15v-1q2 6 17 6q2 7 13 19q1 10 7 11t13 2l4 -2q6 3 17 11q14 -7 28 -7l8 -21l7 -2q0 -3 2 -9.5t2 -9.5zM179 682l-11 -3 q-4 9 -8 14q4 -15 4 -27q0 -5 -1 -24q-3 2 -5 2q-4 0 -13 -7t-19 -7q-2 0 -14 2q-2 1 -24 -8l-12 2q-4 -4 -9 -14q-22 19 -22 46l1 2q7 0 13 5h-2q-5 4 -8 9v4q0 1 2 3h-1q2 6 12 6h6l5 -6q4 5 8 8q3 27 20 30l3 -2q4 6 13 17q29 -13 32 -13l8 -21h17zM315 674l-5 7l-2 -11z M150 651l-3 1l-4 -5z" />
<glyph unicode="&#xa9;" horiz-adv-x="996" d="M940 370q0 -8 -3 -26t-2 -27l-18 -2l19 -54l-13 10l-42 -39l-40 59l-49 9q3 13 14 39q-1 19 -4 57l-12 6l1 24q1 18 -22 50q-20 29 -16 50l-14 -4l-51 59l31 105q17 -19 53 -55l2 -18l30 11l-2 -17q0 -37 41 -69l-1 -28q0 -9 2 -25q16 -5 38 -19l-1 -15q30 -43 30 -67 q0 -10 -2 -27h9l19 22zM462 608q0 -13 -7 -13h-15q3 2 7.5 8t10.5 6v-1h4zM875 128q0 -26 -22 -62q-27 -44 -32 -59l-37 9l12 10l-7 5l-29 -17l6 -21l-33 2l-9 8l-31 -18l-12 4l-8 -26l-43 26l-34 -21q-29 5 -88 11l-16 15l-20 -32q-21 51 -99 51q-21 28 -41 46 q-19 -7 -49 -10l-11 14q-27 9 -54 19q-30 8 -58 7l14 33l-9 12v-15h-18v26h10l-19 29l-8 -7l3 -23l-7 -22q-10 10 -21 35t-20 35l15 14l-32 5q-1 6 -1 12q0 9 4 27t4 27l-3 14l-17 17l6 15l-2 14l-17 20l5 29q-13 -12 -30 -52l-8 35l25 50l-1 7l12 8l10 44l23 18l1 8l-6 5 l-32 -7q19 25 55 76l-6 24h22l2 -33l15 -16q13 15 14 32q-1 -11 -1 36l5 15l14 -4l-2 -6q8 -21 30 -35q21 19 28 48l-28 25l24 4l24 -17l20 23l2 -3l2 3l-4 24l25 24l5 -48l3 3l6 20l37 4l5 6l-4 15l44 28l11 -17h1l5 27l7 -2l11 9v10l40 -14l29 43l9 -36l8 4l33 -9h3 q28 45 60 44l18 -15l2 -17l9 9l54 -23q-8 -26 -19 -45l18 2l9 -19l-34 -25h-17l-11 13l-21 -13q-54 21 -64 21q-89 0 -187 -66q-106 -72 -107 -157l-20 3q-15 -9 -15 -31q0 -8 2 -21.5t2 -19.5q0 -14 -8 -41t-8 -41q0 -11 10 -29t11 -27q28 -33 86 -94l15 3q14 -23 63.5 -42 t62.5 -44l11 14q41 -11 82 -21q48 -13 78 -29q29 26 89 26q37 0 51 31q9 18 13 65l-21 17l-19 -36l-22 5l7 6l-4 3l-17 -10l4 -12l-20 1l-6 4l-18 -10l-7 2l-5 -15l-25 15l-20 -12q-17 3 -52 6l-10 9l-11 -19q-14 31 -59 30l-24 28l-29 -6l-6 8q-48 16 -56 16q-6 0 -11 -1 l9 20l-6 8l-11 -9v15h6l-11 17l-5 -4l2 -14l-4 -13q-7 14 -24 42l9 8l-19 3l4 39l-2 9l-10 10l2 17l-10 12l4 17l-18 -31l-5 21l14 30v4l7 4l6 27l14 11v4l-3 3l-19 -4q11 15 32 45l-3 15h13l1 -20l9 -10l8 41l3 9l8 -3l-1 -3l17 -21l17 28l-16 15l13 3l15 -11l11 14l2 -1 l1 1l-2 14l14 14l3 -28l2 2l4 12l22 2v13l26 16l7 -10l3 16l4 -1l7 12l23 -9l18 26l5 -22l5 2l19 -5l37 27l11 -10l1 -10l5 6l33 -14l-12 -27l11 2l5 -12l-20 -15h-10l-7 8l-12 -7l-38 12q-56 0 -112 -38q-61 -41 -62 -95l-11 2q-17 -37 -17 -91q0 -24 23 -50q4 -5 41 -40 l9 3q8 -14 37.5 -25.5t36.5 -26.5l7 8q32 -6 94 -29q17 15 42.5 17t31.5 6q14 11 17 51l11 -6l31 36q9 -18 20 -55l5 1l1 -7l-7 -28l10 -21l19 -10l51 60q34 -70 34 -101zM285 316q-2 -3 -4 -4q-8 -1 -15 22zM281 296h-11v11h11v-11zM69 274l-7 -7q-19 0 -31 36zM62 242 l-15 4l-3 13l12 -1zM735 236h-1q-3 -2 -3 -5v-2q1 2 4 7z" />
<glyph unicode="&#xaa;" horiz-adv-x="445" d="M301 557q0 -12 -8 -17l-6 29q5 -4 14 -12zM427 266l-18 -26l-10 26l-11 -18l-11 -3q-9 4 -20 17t-8 22q-4 11 -11 33q-7 6 -14 22t-14 22q0 18 -30 59l-3 -1l-15 8q-24 0 -71 -3l-4 9q-16 -6 -23 -32q-3 -22 -6 -43l-19 36l-5 -22l13 -21q-11 -30 -12 -34q-8 -19 -19 -31 l-11 10l-20 -10l-9 5l-5 -7h-11v2l-5 -2q-13 13 -17 32l6 3l-12 19l8 19l13 8l7 -3l4 5l-10 25q3 15 7 31q4 20 16 26l-10 18l3 9l-13 21l1 9q13 3 34 22v11l18 -3l5 3l2 12q0 4 -16 47l14 -2l-3 8l4 8l7 4l-15 10v7q0 6 6 16t11 10q4 23 1 41l14 3l7 -9l1 2q0 33 -2 42 l-2 2l-16 -5q9 15 19.5 31.5t26.5 20.5l6 9l24 -4q10 -12 35 -8l-5 -14l10 -5q8 -29 -3 -51l2 -3l10 -6l12 -20l-2 -15q0 -24 8 -51l3 -2l13 9l-6 -23q0 -5 2.5 -20.5t1.5 -24.5q2 -13 13 -38l16 7l1 -14l-11 -19q13 -1 20 -9.5t15 -16.5l11 13q13 -14 31 -50q-4 2 -29 22 l-7 -5l10 -16l-9 -10h-2l10 -10l-5 -14l2 -1l3 5l8 2q5 -25 21 -48l-2 -1q7 -12 13 -24q8 -15 19 -19q6 -15 14 -46zM102 562q0 -3 -4 -10l-6 -3q-5 2 -5 7l3 10q0 1 1 15q11 -16 11 -19zM54 407q-4 -6 -20 -6l14 16q6 -5 6 -10zM149 323q0 -20 -8 -30q-7 4 -7 9q0 10 15 21 zM48 367h-1v-4h-20l4 19h1v13h11v-17h-3q8 -3 8 -11zM37 315q0 -3 -4 -7t-4 -5q-13 0 -13 8q0 6 7 11q14 -1 14 -7zM34 296q0 -10 -7 -10h-7v15h14v-2.5v-2.5zM267 594l-1 7q-5 3 -8 7q4 -13 9 -14zM187 656v5q0 -1 -1 -5v0h1zM146 661l-15 -7l-5 3l-2 -6l3 -2q9 2 19 12z M142 632q-1 2 -2 3v-3h1v0h1zM244 500q0 15 -12 43q-16 38 -18 44q-2 12 -8 26q-8 -10 -9 -18q15 0 15 -17q0 -5 -11 -7l3 -4q1 -11 -8 -12t-10 -3q12 -11 12 -14q0 -6 -7 -9q3 -1 8 -10q-8 0 -17 -8q1 -10 7 -14q37 0 54 -9q1 6 1 12zM153 572q0 8 -2 8t-2 -2v-2v-3 q2 -1 4 -1v0zM114 515q-3 -3 -4 -8q0 -1 1 -2q1 3 3 10zM127 448q0 1 -2 1.5t-2 1.5q0 -2 3 -4zM152 393q-4 15 -13 29l12 11h-1l-4 -1l-7 -9q3 -10 3 -14t-2 -9l10 -8zM83 420l-2 12q-2 -2 -2 -4t4 -8zM102 340q-1 3 -1 6q-1 -3 -1 -5v-1h2z" />
<glyph unicode="&#xab;" horiz-adv-x="805" d="M467 569q-6 -9 -8 -18q-10 2 -10 11q0 8 8 8h6q3 0 4 -1zM781 168l-25 4h-3q-4 -4 -18 -25q-9 -15 -22 -15q-4 0 -9 2q-4 -20 -41 -56l23 42h-16q-23 1 -45 -13l-2 53l-31 -19l-11 29l-44 -3l2 11l-40 7l3 23l-4 8h-26h-12l2 13l-17 -2l-8 1q-8 11 -25 33l-16 -4 q-2 3 -13 36l-16 -12q-19 18 -18 31l-10 4l-1 -2q-20 20 -20 35l5 15l15 10l-1 1q13 9 28 2l3 3l9 -3l-10 10q26 22 121 72l13 -5l19 17l13 -4l23 26l-1 -16l2 -1q12 19 6 49l16 7l28 -7q59 52 149 54q-13 -12 -20 -21q1 -6 8.5 -18.5t7.5 -20.5l-11 -21q14 -14 24 -64 l-23 42q-23 -23 -24 -55l-46 28l-2 -34l-30 7l-23 -36l-8 8l-29 -27q-10 10 -23 18l-4 -1l-14 -19q15 -34 15 -39q0 -11 -23 -20l-4 14q0 -3 12 44l-9 -10l-9 9l-14 -21q-8 1 -25 0h-17l-2 -3l29 -13v1l8 -5h-1l27 -13l2 -12l26 -5l4 -13l35 -3l-14 -8l1 -3q30 2 44 24 l16 -8l10 -27q78 -16 131 -86zM738 105v-1q-11 -1 -20 -4q-2 4 -2 6q0 10 13 10q1 0 5 -5t4 -6zM262 567l-29 -40q-6 -10 -16 -10q-11 0 -30 12q12 15 29 20q2 1 46 18zM469 178l-25 4h-4q-3 -3 -17 -25q-9 -14 -22 -14q-4 0 -9 1q-4 -20 -41 -56l23 42l-17 1q-22 1 -44 -14 l-3 53l-30 -18l-11 28l-44 -3l2 11l-40 7l3 24l-4 7h-26l-13 1l3 12l-17 -1h-8q-8 12 -25 33l-16 -4q-3 4 -13 37l-16 -12q-19 17 -18 31l-11 4v-3q-20 20 -20 35l4 15l16 10l-1 2q13 9 28 1l2 4l9 -4l-9 10q26 22 121 72l13 -5l18 18l14 -5l23 26l-2 -15l3 -2q12 19 5 49 l16 8l29 -7q59 51 149 53q-14 -11 -20 -20q1 -7 8.5 -19.5t7.5 -20.5l-11 -20q14 -15 24 -64l-23 42q-23 -24 -24 -56l-47 29l-1 -35l-31 8l-22 -36l-8 8l-29 -28q-10 11 -23 18l-5 -1l-13 -18q15 -34 15 -39q0 -12 -23 -20l-4 14q0 -3 11 44l-8 -11l-9 9l-14 -20h-25 l-17 -1l-2 -2l62 -30l3 -13l26 -4l3 -14l36 -3l-14 -8v-3q31 2 45 24l16 -8l10 -27q78 -16 131 -86zM404 564q-1 1 -4 1h-6q-8 0 -8 -7v-3q0 -7 10 -9q2 9 8 18zM345 514v2l-2 1q1 -2 2 -3zM499 322l-7 4q-2 -2 -2 -4l3 -3q3 1 6 3zM425 196q0 1 -4 6t-5 5q-13 0 -13 -10 q0 -2 2 -6q10 -1 20 5zM350 214l-1 2q-1 -2 -1 -3zM55 344q-4 3 -8 5q-1 -2 -2 -5l3 -3q3 2 7 3z" />
<glyph unicode="&#xac;" horiz-adv-x="1200" d="M1162 -83h-1123v765h1123v-765zM1067 255v18q-32 0 -38 2q-15 5 -15 30v250q0 56 3 63q7 15 50 15v18h-160v-18q42 0 49 -12q4 -7 4 -56v-258q0 -25 -15 -31q-7 -3 -38 -3v-18h160zM1141 27q0 40 -40 56q-38 9 -77 19.5t-39 40.5q0 21 15.5 33.5t37.5 12.5q33 0 58 -29 q5 -20 5 -35l16 -1q1 23 7 69q-42 13 -80 13q-103 0 -103 -82q0 -42 40 -58q37 -9 75 -18q40 -12 40 -43q0 -24 -18.5 -38t-43.5 -14q-42 0 -57 15.5t-15 55.5h-16q0 -11 -2 -33t-2 -34q0 -23 82 -23q46 0 79 23q38 26 38 70zM941 184h-86q1 33 5 95q60 49 60 102 q0 71 -60 89q-55 8 -110 15q-60 12 -60 68q0 38 29 60q26 20 65 20q53 0 82 -26q5 -11 5 -54h18q0 47 9 80q-52 21 -111 21q-62 0 -102 -29q-45 -34 -45 -93q0 -70 60 -88q55 -8 111 -17q60 -12 60 -68q0 -41 -32.5 -63.5t-75.5 -22.5q-25 0 -53 8q-34 11 -41 29q-1 3 -1 48 h-19q0 -65 -3 -87q51 -21 106 -21q27 0 51 6q5 -40 5 -72q-19 -11 -45 -19v-12h45v-157q0 -62 64 -62q12 0 36 6l27 34l-8 11q-13 -15 -32 -15q-28 0 -36 28q-4 13 -4 52v108q75 0 80 -1zM802 -60v17q-37 0 -43 12q-1 3 -1 49v92q0 96 -93 96q-52 0 -93 -53q0 44 -4 53 q-42 -19 -93 -22v-17h29q18 -3 18 -16v-172q0 -19 -16 -22h-31v-17h144l-1 17q-30 0 -39.5 9t-9.5 30q0 6 1 24t1 30q0 66 6 82q13 38 67 38q65 0 65 -85q0 -107 -4 -145h97zM680 633v18h-119v-18q50 0 50 -13q0 -24 -39 -155q-19 -64 -39 -129l-116 318h-14 q-40 -105 -122 -315q-41 172 -60 269q-4 6 -3 10q0 15 49 15v18h-143v-18q26 0 32 -6.5t13 -35.5q15 -60 31 -119q19 -76 23 -118q-23 0 -58.5 -32.5t-46.5 -57.5q-7 -15 -7 -81q-6 -3 -19.5 -9.5t-20.5 -10.5v-10l40 4l1 -153q0 -32 -8.5 -39.5t-41.5 -7.5v-17h155v17 q-37 0 -43 3q-15 6 -15 38q0 26 1 80v80q24 1 71 -1l5 25l-2 2h-74v36q0 49 3 61q8 32 41 32q17 0 29 -9l11 -54h29q44 131 122 311q41 -103 112 -311h30q16 65 54 198q46 161 60 181q7 4 29 4zM487 80q0 57 -36 91.5t-93 34.5q-61 0 -102 -36.5t-41 -96.5q0 -59 34 -99 t92 -40q64 0 105 41t41 105zM434 56q0 -42 -16 -70q-20 -33 -59 -33q-46 0 -70 49q-19 39 -19 90q0 39 18 66q21 31 57 31q47 0 71 -45q18 -36 18 -88z" />
<glyph unicode="&#xae;" horiz-adv-x="996" d="M940 370q0 -8 -3 -26t-2 -27l-18 -2l19 -54l-13 10l-42 -39l-40 59l-49 9q4 5 7 19t7 20q-1 19 -4 57l-12 6l1 16q1 19 -19 49.5t-20 48.5q0 5 1 10l-14 -4l-51 59l31 105q17 -19 53 -55l2 -18l30 11l-2 -17q0 -37 41 -69l-1 -28q0 -8 2 -25q15 -5 38 -19l-1 -15l24 -34 q7 -12 7 -26q0 -10 -3 -34h9l19 22zM766 406q0 -14 -12 -14q-17 0 -17 16q0 14 17 14q12 0 12 -9v-7zM743 445l-3 -10l-8 -5l3 -12l-5 -6l5 -11l-10 -22l-9 2l-3 10q0 3 6 19l-6 5q-6 -3 -12 -20q-7 -21 -10 -25l-11 5q-4 0 -26 -33l-3 23l-2 2q-13 -25 -73 -36l-7 -7l-10 8 l-10 -3h4v-11h-12v7l-7 -9l-12 -2q-15 0 -19 17l3 3q-17 1 -27 4l7 9l-5 13l6 8v17l16 -5q6 0 16 4t15 4l11 -2l6 -8l17 18l16 -6l7 22l11 -5q7 7 20 19l3 -2l-7 13l1 7l13 -1l6 1l3 3l-3 5l-17 -7l16 20q-4 6 -9 20l1 4l-2 2l-11 -10l4 19q0 4 -6 24h-1q-13 10 -44 23 q-7 8 -19 10l-2 -3l-9 -2l-5 5q-9 -10 -22 -17l-8 2l-10 13l-7 2q-8 -2 -22 -8l-2 8q-13 -4 -32 -33h-11l-3 13q0 8 7 22.5t6 23.5l13 9l10 -5q1 6 2 17l13 3q9 0 22 -10l2 6l-15 5l14 12l10 -7l5 10q10 -2 31 -11l9 15l8 -17l-1 -7l2 -3q3 19 21 19l27 -8l-13 -9v-1l2 -1 l6 4q9 -4 28 -11l9 2q3 -18 27 -35v12h11l-7 -15l11 -9l4 13q5 -10 16 -29l8 3q9 -19 18 -57l-14 -2l-1 -1l9 -5l5 8l17 6l-6 -15q4 -8 10 -24zM517 526h-13v10h13v-10zM875 128q0 -26 -22 -62q-27 -43 -32 -59l-37 9l12 10l-7 5l-29 -17l6 -21l-33 2l-9 8l-31 -18l-12 4 l-8 -26l-43 26l-34 -21q-29 5 -88 11l-16 15l-20 -32q-21 51 -99 51q-21 28 -41 46q-18 -6 -49 -10l-11 14q-17 5 -46 19q-16 8 -38 8q-11 0 -28 -1l14 33l-9 12v-15h-18v26h10l-19 29l-8 -7l3 -23l-7 -22q-10 10 -21 35t-20 35l15 14l-32 5q-1 6 -1 13q0 9 4 26.5t4 26.5 l-3 14l-17 17l6 15l-2 14l-17 20l5 29q-11 -10 -30 -52l-8 35l25 50l-1 7l12 8l10 44l23 18l1 8l-6 5l-32 -7q19 25 55 76l-6 24h22l2 -33l15 -16q18 22 18 32q0 2 -2.5 13t-2.5 23l5 15l14 -4l-2 -6q8 -21 30 -35q21 19 28 48l-28 25l24 4l24 -17l20 23l2 -3l2 3l-4 24 l25 24l5 -48l3 3l6 20l37 4l5 6l-4 15l44 28l11 -17h1l5 27l7 -2l11 9v10l40 -14l29 43l9 -36l8 4l33 -9h3q29 45 60 44l18 -15l2 -17l9 9l54 -23q-9 -26 -19 -45l18 2l9 -19l-34 -25h-17l-11 13l-21 -13q-16 7 -31 13q-19 8 -33 8q-87 0 -186 -67q-107 -73 -108 -156l-20 3 q-15 -9 -15 -32q0 -7 2 -21t2 -19q0 -14 -8 -41t-8 -41q0 -11 10.5 -28.5t10.5 -27.5q20 -23 60 -68l18 18l-2 6l15 16l-7 9q0 1 3.5 2.5t3.5 2.5l-8 8l4 19l-11 9q4 21 21 59l4 -5l3 13l-6 4l-8 -5v-18q-6 31 -15 45l12 3l-2 5l13 17l7 3l-11 3l-9 37l14 15l-3 15h-1l19 24 l-25 14q13 15 10 56l26 1l30 -6q5 -10 18 -22q6 -6 6 -32q0 -67 19 -121l-14 -26l9 -20l-12 -22l2 -4l18 5l7 -9q-17 -33 -27 -111l-11 8l-2 -16l5 -3l19 9l6 -41l-7 -20l-32 -8q27 -10 39 -17q21 -12 29 -29l11 14q41 -11 82 -21q48 -13 78 -29q16 14 58 20q48 7 61 13 q28 14 28 50h-8l-5 7l8 13l-5 18l-7 -2l-9 2l-5 32l17 -16l-1 20l-10 11l28 13l-6 -35l6 -14l9 2v-11l14 -8l51 60q34 -71 34 -101zM739 153v-14q-28 -17 -41 -17q-22 0 -53 22l-46 38q-20 12 -60 35q-4 11 -31 31q-30 22 -37 30l10 9l6 -1l-1 1l2 12q9 -10 17 -12l5 2l7 9 h4l7 -2l-3 -8l6 -6q9 5 20 5l3 -13l3 -3l6 3q11 -11 38 -23q0 -11 15 -17q2 5 17 37q-2 -32 -2 -38q0 -11 7 -20q1 10 1 16q10 -7 30 -19l14 3l-12 -20q6 -4 24 -4q16 0 16 9l13 -7l9 5q-1 -18 -11 -17q-2 5 -2 -19q1 -2 2 -5l9 10zM476 311l-27 40l27 -22v-18zM478 295v-3 q0 -6 -6 -11q-8 -1 -10 7q3 7 16 7zM567 173l-6 -6l-13 9q11 5 14 5q5 0 5 -8zM284 348h-11v16h11v-16zM424 117l-16 18h16v-18zM69 274l-7 -7q-8 0 -17.5 13t-13.5 23zM62 242l-15 4l-3 13l12 -1zM700 495q-2 1 -3 3q-1 -3 -3 -7q3 3 6 4zM616 580q-1 0 -3 1q0 -2 -2 -6v-1 h2v2zM619 565q-2 3 -5 7q-1 0 -2 -1zM671 413q0 2 -3 7q-2 -5 -2 -8h5v1zM770 171q-5 5 -8 5h-3l7 -7v-22q2 11 4 24zM333 450q-5 -4 -9 -14q1 3 7 8q2 3 2 6zM328 382v1q0 5 -7 6l-1 -1q3 -2 8 -6zM328 238q0 -2 -1 -4v-1l1 -1v6zM345 192l-1 1h-1l-1 -1l2 -2v0zM312 194v0 q0 1 -1 3v-2h-1q1 -1 2 -1v0z" />
<glyph unicode="&#xaf;" horiz-adv-x="401" d="M342 785q0 -4 -21 -32v5.5v6.5v4q0 16 21 16zM383 723q-5 -11 -11 -16l-17 3q-2 -6 -1 -20l-12 -2q-7 0 -10.5 5t-6.5 9l1 8l-5 8l-6 -10l7 -18l-31 -10v0h-1.5t0.5 0q-5 -1 -22 -6l-10 8l-32 -15l8 14l-2 2q-4 -2 -19 -20l1 -5l-6 -17l-18 -1l-24 16q-37 -12 -72 -12 q-40 0 -87 16q17 6 27 11q-1 -2 -1 32q0 16 20 22q-7 15 -7 22q0 1 10 43l4 -44q24 9 38 29l-2 3l9 6l31 -39l15 30l25 -17l35 24l5 -10l37 14q7 -16 14 -23q23 13 31 13q4 0 4 -4q0 -7 -10 -21l6 18q-16 -13 -16 -30q0 -1 23 -6t23 -6q16 0 24 6l-11 25q22 -5 27.5 -10 t14.5 -25zM129 689q0 2 -1 3v-2zM75 674q0 4 -7 7q-2 -2 -14 -13q1 -5 14 -5q7 0 7 11z" />
<glyph unicode="&#xb0;" horiz-adv-x="199" d="M189 615q0 -22 -22 -42h-8l-1 -7l-9 -8l-7 2q-25 -10 -51 -21l-8 -1q-2 1 -13 12q-5 -4 -11 -5l-9 6l-3 -1q-10 2 -24 13q-12 7 -12 33q0 88 18 82q0 5 13 17q3 6 3 13q8 1 14 6.5t22 7.5l3 -6l-2 -5l1 1q1 6 17.5 14.5t25.5 8.5l8 -2q2 -5 12.5 -9t12.5 -8l4 1 q2 -5 9 -17l7 2q-4 -12 4 -33q-3 -5 -7 -16l8 -6q5 -20 5 -32zM143 656q0 23 -8 39q-22 -4 -51 -12v-4q0 -5 -10 -13q-4 -4 -6.5 -12.5t-10 -15t-9.5 -19.5q-1 -3 3 -14.5t4 -16.5q0 -2 -1 -4q8 -1 20 -9q39 15 52 28q17 18 17 53z" />
<glyph unicode="&#xb1;" horiz-adv-x="524" d="M497 442q0 -10 -7 -17v2h-11l1 -3q-3 3 -3 6q0 12 20 12zM451 421q0 -10 -11 -19l-15 3q-1 -3 -1 -17l-7 -5q-17 4 -21 16l3 7q-4 3 -11 16h10q16 0 23 7l-8 27q36 -11 37 -34zM258 584q0 -11 -18 -17l-7 3q-4 -4 -18 -11l1 9q0 16 -7 22l-28 -7q12 37 39 37q7 0 17 -11 l-3 -15q2 -1 20 -1q4 -4 4 -9zM391 442q0 -7 -6.5 -18.5t-4.5 -28.5q-5 -2 -119 -21q26 -16 44 -19v-5l-5 -5l7 -9h-16l-7 -7q18 -35 16 -83l3 -2q-6 -13 -9 -30l-6 5l-5 -2q-7 5 -18 4q-23 -2 -18 -2l-9 4l-8 17q-16 -4 -16 -7q-5 -5 -20 -12l3 10l17 3q-5 20 -35 38l47 30 l-38 15l16 17l-25 27l-7 -22h-1h-1l-7 6l-9 -7v15l-8 7q-35 -17 -86 -16l-4 -4q-5 4 -30 11l5 6l-1 4q6 10 2 34l4 9l18 7l-6 17l-6 -2l-7 8l-1 12h11l-1 -5l4 -13q21 8 38 33l32 -45l16 35l17 -14l29 23l-6 9q6 11 16 35l-11 11q9 8 22 26q-3 5 -18 15l15 7q7 0 19 -6.5 t31 -4.5q6 -19 11 -50q7 -49 8 -51q19 6 27 14q12 -5 35 -15l12 10q8 -7 27 -21q5 3 16 18zM91 474l-10 -6l-3 5l10 5zM171 266l-5 -2l-6 9l5 3zM296 346l-8 8q-1 0 -4 -1h-4q-4 -3 -14 -12q3 -2 5 -4h17zM278 303h-5.5h-3.5q-1 1 -2 1q-19 0 -22 -18l21 -8q12 12 12 25z M172 355q0 6 -12 24q-2 -3 -5 -6v-17l9 -8q8 6 8 7zM296 251q-11 9 -20 9q-14 0 -23 -20q5 -5 17 -14q8 1 14 -3q3 5 10 13q1 7 2 15zM161 387q-3 8 -8 8q-6 0 -11 -7q-8 -10 -23 -30q17 1 34 19v13l5 -7zM120 376q0 18 -19 22l-7 -21q12 -12 26 -12q-1 5 -1 7q0 1 1 2v2z M73 365q0 13 -21 22q-5 -5 -14 -16q-1 -7 -4 -13q10 -11 29 -13q10 11 10 20zM519 151q0 -9 -4.5 -13t-15.5 -23v8q0 29 20 28zM472 132q-6 -12 -12 -16l-15 3q-2 -5 -1 -20l-11 -1l-17 16l3 6l-5 8l-4 -11l6 -17q-33 -11 -129 -23l-9 9q-7 -3 -22 -9l-10 8l-17 -9l-6 9 q-12 -8 -15 -18l-7 -22l-17 -1l-20 16q-33 -13 -65 -13q-36 0 -80 16q24 9 24 20q0 2 -1 10t-1 14q0 17 18 22q-6 15 -6 21q0 1 9 44l5 -45q15 5 33 30l-1 3l10 5l27 -38l13 30l24 -18l32 25l5 -10l36 15q0 -15 10 -25h2q18 12 33 18l4 -10q6 5 19 13q11 -6 35 -14l9 11 q5 -2 30 -23q7 7 5 19l22 -7q9 -11 9 -21l-5 -15q15 0 22 6l-7 24q20 -5 24 -9.5t14 -25.5zM129 93v1h-1zM80 77q0 5 -8 9q-9 -11 -9 -12q3 -2 11 -6q6 5 6 9z" />
<glyph unicode="&#xb2;" horiz-adv-x="354" d="M342 388q-7 -19 -36 -22q7 1 -48 1q-35 0 -102 -17t-102 -17l-3 4l-18 -7l-13 8l2 5l-10 14q11 15 34 31q19 13 39 27h-1q34 36 68 71q40 46 44 80q8 7 11 15q2 5 1 14q-2 14 -2 17q0 11 10 20l-13 10l3 5q-13 9 -24 12q-7 -3 -21.5 -20.5t-25.5 -18.5l-16 -28l2 -10 q-40 -10 -52 -10l-14 2q-10 4 -26 16q10 32 46 51q2 7 18.5 16t20.5 17q51 14 63 14q2 0 60 -5q0 -7 11 -11l16 -6l11 3q7 -9 7 -13q-2 -21 -2 -14l2 -9l6 -1l4 4l13 1l5 -12l-5 -20l-10 -7l-5 2h-1l8 -18l-19 2q6 -21 6 -27l-3 -15l-8 1l-12 -3q15 -2 20 -14 q-13 -3 -37 -14l1 -8l-6 -3q7 -3 15 -11q0 -6 -27 -15l6 -11q0 -10 -17 -24l-19 -3l-6 -6l2 -8l-10 -2l6 -6l-7 -18v-1q16 3 47 6l-1 2q0 7 49 23q46 14 59 14l-3 -9q0 2 6 -21q-7 -11 -24 -7q10 -4 27 -16z" />
<glyph unicode="&#xb3;" horiz-adv-x="307" d="M304 629l-6 -17l-4 1l-7 -12l1 -6q0 -9 -21 -33l-8 2v-10l-3 -8l-7 -3q-9 -11 -25 -25q8 -2 13.5 -14.5t9.5 -15.5q-5 8 -5 20v3q47 -24 47 -82l-2 -1l3 -6q-4 -9 -9 -18.5t-18 -9.5l-1 4q-7 -11 -27 -27l-9 3l-12 -12q-6 -3 -29 -5l-5 -5q-9 2 -23 0q-18 -2 -24 -2 l-12 5l-11 -7h-7l-5 6q-37 8 -43 24l-10 42l8 9l10 -11l6 18q13 -9 20 -16l1 18l13 -8q1 -4 1 -24q0 -8 13.5 -14.5t23.5 -6.5q31 0 51 17.5t20 43.5q0 35 -28 35q-6 0 -16 -4.5t-16 -4.5h-8l-4 5q-4 -2 -17 -13l-8 8l-13 2l-4 12l5 15q36 13 56 38q11 0 19 14t18 15 q28 58 28 76q0 17 -12 30q2 1 -31 1q-26 0 -63 -16q-47 -21 -59 -24q-8 -14 -24 -14l-11 3q-8 8 -21 27l8 11q32 5 65 9q37 8 56 26v8h16l-3 -9q17 9 39 9q20 0 40 -8l9 4q9 -6 29 -15l-1 -6q13 -9 20 -16l-11 -7q5 -4 14 -12l10 32q1 -6 5.5 -22.5t4.5 -25.5zM91 486l-1 -3 q1 0 -9 -8v17q10 -5 10 -6z" />
<glyph unicode="&#xb4;" horiz-adv-x="200" d="M183 744v-6q0 -13 -8 -36v0l-1 -4l-2 1l-12 -12q-9 -2 -20.5 -16t-23.5 -16q-6 10 -13 10q-6 0 -17 -4t-16 -4l3 -2l-22 -5l-12 5q-4 -2 -12 -11q-10 12 -10 18t21 37q17 27 26 38h5q5 0 10 2l-3 1q-6 6 -6 12q0 9 13 9l8 -1l4 -8q5 4 10 6q9 25 25 25l4 -3q3 2 15 15 q9 -9 30 -20l3 -22q3 0 1 -9zM162 701l-2 7l-8 -7h10zM101 742h-15l10 -8z" />
<glyph unicode="&#xb5;" horiz-adv-x="716" d="M694 503q0 -7 -12.5 -17t-12.5 -20q0 -13 -18 -13q-7 0 -15 10q10 4 27 25q14 16 31 16v-1zM689 476q-3 -11 -3 -15q0 -2 1 -5.5t1 -4.5q0 -9 -17 -14l-5 6q5 21 23 33zM473 316l-9 -19h-14q5 7 13 20zM637 345q-11 -16 -13 -60q0 -37 -26 -56l1 -13q1 -14 -10 -38 t-12 -35h-14q-4 -6 -35 -43q-22 -25 -28 -46q-13 -15 -29 -17q-7 -1 -34 1l-4 -13q-26 -6 -58 -26l5 22l-17 11l-2 -1l9 -8l-31 -28l-7 2l-10 16l-4 -2l-10 -14l-16 -5l-25 9l-9 16l4 9l-2 2l-43 -3l40 13l-11 10l-23 -12q-7 9 -9 25q-2 13 -4 27l-14 -30l-20 16 q0 -1 -8 -47q-5 -30 -21 -42q0 -27 -5 -45q-15 -15 -40 -20l-16 26l-14 -6l6 -15l-9 -12l-31 28v1l-18 4l-18 -25l-14 17l5 21q25 8 41 17l2 10q0 22 -49 19l38 23q2 29 26 74q28 53 34 73l2 -4l2 5l-7 4l15 23l-7 1l-35 -28l6 34l17 15q-6 9 -6.5 31t-5.5 31l4 19l-23 -22 l7 24h17l6 30l-4 5l-23 -7l-14 5l18 17l-1 38h19l-1 -4q0 -14 19 -37l5 4l-1 11q0 9 6 27.5t6 27.5q0 8 -3 15l37 22h-1q-2 8 2 20.5t4 16.5v4l-22 -13l6 -17l-2 -6l-14 -5l-12 16q5 19 32.5 49t45.5 31q-8 -17 -28 -48q14 7 35 11l-10 6q17 23 55 39l-17 -26l1 -1l15 16 l9 -13l23 10l4 13l23 7l-4 -15q18 15 29 30l2 -20l27 10l-1 -18q-7 -9 -39 -35q-26 -20 -32 -40q-53 -39 -53 -124q0 -20 4 -38q-7 -14 -2 -40l-22 -20l25 -16l2 -14l-21 -14q33 -9 39 -70q11 -9 34 -21q10 -22 46 -22q10 0 40 4l-20 -27q19 4 35 20.5t20 35.5l13 12l8 -4 l-20 -26l11 -12l15 28l13 -22h6l2 1v25q-1 15 -7 24l14 13l-4 3l-36 -23l3 19l31 19l-1 1l-25 -4l35 31l13 -25l4 6v26l-14 -12l-6 42l22 22l-2 -25l6 -7l9 11l2 35q1 16 -8 37l-8 -7l-12 15l12 27l-8 -9q4 12 9 54q5 38 13 50l-8 12l-10 -3l-2 29h13q65 -1 81 28l17 8 l14 -5h1l33 19q2 -22 -6 -49l10 3l3 -15l-15 -8l-1 7q-8 -28 -11 -46l22 36q-1 -3 -5 -57l6 1l4 -14q-11 -18 -25 -35l7 -3l18 4l1 -13l-20 -16l1 -1h21zM92 447l-12 -43q-11 4 -18 9q1 2 2 8q3 13 28 26zM64 228l-23 -20l5 19q3 2 7 6h1l4 2zM605 391v5q0 4 -1 11v-11 l-7 -10l6 -9q2 9 2 14zM507 391v4q-6 -3 -11 -7zM495 388q-8 -6 -19 -18l11 -4q6 7 8 22zM274 551h-3h2h1zM530 293v2q-3 1 -5 3q-1 -1 -4 -11q9 5 9 6zM218 489v1q0 2 -1 2h-2q0 -2 -1 -3l4 -1v1zM174 484q-3 5 -7 5l-0.5 -0.5l-1.5 -1.5v0q0 -2 4 -3h5zM149 459l-6 2l6 -3 v1zM210 339q-1 1 -4 1h-3q-1 0 -2 -2l4 -10zM141 146q0 3 -5 6v-2v-2q0 -3 3 -6v1q1 1 2 3zM109 135l-22 36q-2 -9 -5 -16q-1 -1 -2 -3q0 -6 2 -17h27zM104 24q-1 25 -15 26v-33z" />
<glyph unicode="&#xb6;" horiz-adv-x="716" d="M343 394l-29 23l-6 -35q-34 -1 -99 4q-42 8 -56 37l-10 -8l2 9l-14 33l-4 -1l-2 2l-3 26q11 18 23 38t28 28l14 -3l18 13l4 22v0l10 -8h6q14 0 41.5 9t41.5 9q8 0 15 -2q21 13 35 18v-26q0 -7 1.5 -21.5t1.5 -20.5q-25 -33 -25 -93q0 -30 7 -53zM522 413l12 13l-12 -19v6 zM518 464q4 -29 4 -51l-47 -48q-3 10 -2 27v28l-1 13l-25 -21l2 18l15 17q-1 17 -2 25q-3 15 -9 24l19 9l-4 15l8 -5l-4 -38h22l-5 32l8 18l-21 30l29 4l-14 32l8 9l-11 18l4 10l15 10q-24 18 -45.5 34t-60.5 16q-41 0 -132 -19q-85 -17 -132 -14l-19 -17l-12 10l-12 -1 l6 -21l12 5l10 -12l6 2q-7 -4 -37 -16l6 19l-38 -22q-5 -29 -35 -94q-26 -58 -26 -96l7 -19l18 1l15 -31l15 21l-7 -16l4 -12l60 -24q35 -15 55 -32q35 -5 65 6l16 -16l34 19l2 -2l2 -19l16 12l18 -4l11 5l4 -23q0 -8 -2 -43q-1 -26 1 -42l-7 -14q4 -24 1 -62q-4 -54 -4 -62 q0 -32 9 -58l5 12l15 -22l-3 -10h20l13 -10l19 22l31 -13l18 6l8 36q21 20 21 24q0 1 -1 1q-10 0 -50 -29q-2 3 -6 24q-3 15 -13 21l3 9q18 -2 23 2.5t5 21.5h15l2 12h2l-32 43l27 9v-2l8 9l-4 -1l19 40h-18l-4 -37l-15 16l15 35l-3 14l-18 7l4 10q29 3 43 18l-16 10l-1 8 l14 35l-19 30l-11 -19l13 30l20 -6l-3 5l11 -5l34 52l-2 -27l18 -12l-4 -4l-16 6q-5 -11 -1.5 -35t-5.5 -35l15 -15l1 -40l26 44l2 -5l-13 -36l6 -15l-14 -12q-11 -24 -26 -73l17 16l-1 8l10 -35l-10 -4l-9 -19l7 31l-16 1l5 -49l3 14l7 -30l6 1l14 -23q-5 -21 -7 -56l11 7 l-17 -34q3 -17 5 -23q4 -12 12 -18l25 18l5 -3l4 -11q6 34 44 49l-36 -5l-2 5l2 14l-4 8l4 2l7 -22q55 148 55 238l-12 33q1 1 23 42l-21 6q0 103 19 133v-2l16 63h-12l-3 -36l-7 31q24 24 28 49v57q0 33 18 47q-7 15 5 42l-3 16h-12v-31l-2 -4q-7 14 -22 41l-14 -21l-26 12 l-13 -12l-11 6l-22 -8l-17 -28l7 -14l-3 -6q-1 0 -4 2t-4 2l-7 -4l-3 -42l3 -3q-5 -16 -14 -49l18 -27l-4 -7l-20 18l1 -27q2 -29 -13 -43zM600 662q0 5 4 5h-1q-1 -2 -3 -5zM536 458q0 6 7 12v-2q-4 -2 -7 -11v1zM636 436q0 1 1 1q0 -2 -2 -4zM556 54v2h2h1q-1 -2 -3 -7v4 v1zM465 451l44 21h-41zM478 288h14l2 18h-14zM514 -77q19 3 19 17q0 5 -4 11q-13 1 -15 -28z" />
<glyph unicode="&#xb7;" horiz-adv-x="207" d="M173 376q4 -17 4 -25q0 -5 -1 -23l-2 1l-8 -14q-9 -3 -17 -19.5t-19 -21.5l-12 8q-12 -6 -33 -15l3 -1l-20 -9l-13 2q-4 -4 -9 -14q-14 12 -14 20q0 5 12 39q11 31 15 41q8 0 14 5h-3q-4 3 -8 10v4q0 8 18 8l6 -6q4 5 8 7q3 27 18 30l5 -1q3 2 11 17q28 -13 34 -13l8 -21 h17zM161 335h-1l-1 -1zM85 364h-1h1v0z" />
<glyph unicode="&#xb8;" horiz-adv-x="206" d="M177 -104q-2 -9 -14 -20q-4 8 -10 14l-2 -1q-5 -31 -15.5 -41.5t-43.5 -23.5q-11 5 -21 15q-5 -7 -17 -20l-9 6l-1 6h-4q-11 0 -11 11q0 21 18 31.5t35 19.5l1 7l-2 8l-4 -3q-10 6 -18 22.5t-16 19.5l-8 14q-3 -1 103 22h-2l14 -5q8 -28 27 -82zM51 -21l-14 -3l11 -8z " />
<glyph unicode="&#xb9;" horiz-adv-x="158" d="M135 713q0 -58 -18 -151q-7 -37 -11 -102q-4 -72 -8 -101l-10 -4q-4 6 -10 12l-2 -12q-18 5 -24 18l-23 -3l-3 7l3 9l-6 9h4q2 45 0 51l8 10l-5 9q9 5 15 13l-15 2l-4 7q0 12 3 35l10 5q-6 9 -15 27q6 10 2 38l6 3l10 -4q0 5 -2 16l-11 3l-5 14q0 14 15 31v6q-3 0 9 2 q-3 7 -12 14q1 4 10 20q6 11 5 22l18 -14q5 1 10 18q14 -6 24 -9h1l16 11zM76 611q0 2 -7 7l-6 -7h13zM55 511l-3 3q-4 -6 -9 -13q0 -3 8 -11q2 8 4 21z" />
<glyph unicode="&#xba;" horiz-adv-x="468" d="M449 531q0 -4 -2 -21q-2 -12 0 -20h-14l1 22q1 16 -10 28l-6 -24q0 -7 5 -16l8 -15l-3 -12l1 -1l9 8l4 -25l-17 -12l-8 14h-7l-4 -4v0l11 1q0 -11 -8.5 -20t-16.5 -17l2 -8q6 15 22 14l5 19v-20h2l-3 -21l14 -25l-15 4l-20 -32v39l10 5l4 19h-6l1 -1v-6h-12l4 -13l-8 -9 l5 -14l-10 -13l-11 2l-3 -4l2 -9l-10 2l-14 -12l-4 -19l-19 3l-5 -21l-24 -12l-34 12h-3l-8 -18l-20 -12q-20 3 -57 13l12 -16l-12 -2q-10 6 -29 16l-8 -4l-16 3l-17 -10l2 10q-5 4 -27 9q-13 40 -32 38l-10 8v22q-15 8 -19 31l-4 38l9 5l6 -2q-12 21 -12 24q0 2 4 22h9v-8 l-2 -2l2 -2q7 6 7 18q0 7 -3 20.5t-2 19.5v26l7 -3l-5 9l6 13l17 -14l4 9q-7 23 -4 37l-18 13l15 -1l-4 12q10 8 25 26l-1 8q16 11 19 41q4 37 9 46l8 2l11 -6l2 1v12l13 -1l4 2v41q9 -28 19 -43l4 5l-6 12l16 -4q19 12 31 17l30 -25l5 2l-3 15l10 5l10 -11l-8 -11h-1l9 -2 l9 5l-1 2l10 2q19 0 24 -33v10l8 10l15 -9l11 4q6 -11 18 -23l3 7h14l-4 -11l14 -22l-5 -8l5 -4l8 18l17 -16q0 -70 22 -105l-5 -7l11 -18l-8 -12h22zM49 571q0 -8 -7 -8h-7v31q14 -17 14 -23zM49 311v-4v-5h-11v23q11 -3 11 -14zM31 318l-20 19h20v-19zM393 654q0 6 -4 19 l-3 2q1 -3 1 -6q0 -5 -3 -15l3 -6h2l2 1zM274 738l-3 8l1 -9zM391 621l-3 -16l3 2v14zM404 565q0 5 -2 10l-2 -7q2 -2 4 -3zM298 630l-1 2l-4 -2h5zM344 469l-5 3q3 11 3 19q0 31 -19.5 75.5t-42.5 61.5l11 1q-20 7 -14 25q-53 7 -68 22q-18 3 -23 3q-11 0 -18 -13 q-32 -5 -41 -82q-10 -87 -25 -103q3 -9 12 -28q-1 -8 -8 -28q12 -13 12 -32q0 -12 -5 -21q36 -40 126 -40q44 0 70 51q17 43 35 86zM75 613v0l-6 4l-4 -10q1 0 8 2z" />
<glyph unicode="&#xbb;" horiz-adv-x="805" d="M610 529q-19 -12 -30 -12q-10 0 -17 10l-28 40q15 -6 46 -18q17 -5 29 -20zM348 562q0 -9 -10 -11q-2 9 -8 18q1 1 4 1h6q8 0 8 -8zM791 359q0 -15 -20 -35v3l-11 -4q1 -14 -18 -31l-16 12q-3 -13 -13 -37l-16 4q-8 -12 -25 -33h-8l-17 1l3 -12l-13 -1h-26l-4 -7l3 -24 l-40 -7l2 -11l-44 3l-11 -28l-30 18l-3 -53q-22 15 -45 14l-16 -1l23 -42l-25 25q-12 15 -16 31q-5 -1 -9 -1q-13 0 -22 14q-14 22 -17 25h-4l-25 -4q53 70 131 86l10 27l16 8q14 -22 44 -24l1 3l-14 8l35 3l4 14l26 4l3 13l62 30l-2 2l-17 1q-8 -1 -25 0l-14 20l-9 -9 l-9 11q12 -47 12 -44l-4 -14q-23 8 -23 20q0 5 15 39l-14 18l-4 1q-13 -7 -23 -18l-29 28l-8 -8l-23 36l-30 -8l-2 35l-46 -29q-1 32 -24 56l-23 -42q6 29 7 34q6 18 17 30l-11 20q0 8 7.5 20.5t8.5 19.5q-6 9 -20 20q90 -2 149 -53l29 7l15 -8q-6 -30 6 -49l3 2l-2 15 l23 -26l14 5l18 -18l13 5q31 -16 62 -33q36 -19 59 -39l-9 -10l1 1l8 3l2 -4q15 8 28 -1l-1 -2l15 -10zM479 349q0 -15 -20 -35l-1 2l-10 -4q1 -13 -18 -31l-16 12q-3 -12 -13 -36l-17 4q-7 -12 -24 -33l-8 -1l-17 2l2 -13h-12h-26l-4 -8l2 -23l-40 -7l3 -11l-44 3l-11 -29 l-31 19l-2 -53q-22 14 -45 13h-16l23 -42q-23 22 -25 25q-13 15 -16 31q-5 -2 -9 -2q-13 0 -22 15q-14 21 -18 25h-3l-25 -4q53 70 131 86l10 27l15 8q15 -22 45 -24l1 3l-14 8l35 3l4 13l26 5l2 12l26 13v0l8 5v-1l29 13l-2 3h-17h-25l-14 21l-9 -9l-9 10q11 -47 11 -44 l-3 -14q-23 9 -23 20q0 5 15 39l-14 19l-4 1q-13 -8 -23 -18l-29 27l-8 -8l-23 36l-30 -7l-2 34l-47 -28q0 32 -24 55l-22 -42q6 30 7 34q6 19 17 30l-11 21q0 8 7.5 20.5t8.5 18.5q-7 9 -20 21q90 -2 149 -54l28 7l16 -7q-6 -30 5 -49l3 1l-1 16l23 -26l13 4l19 -17l13 5 q31 -17 62 -33q36 -20 59 -39l-10 -10h2l7 3l3 -3q15 7 28 -2l-1 -1l15 -10zM81 106q0 -2 -3 -6q-5 2 -20 5q0 1 4 6t6 5q13 0 13 -10zM752 344q-1 3 -3 5q-3 -2 -7 -5q4 -1 7 -3zM454 517l-2 -1v-2q1 1 2 3zM411 558q0 7 -8 7h-7q-2 0 -3 -1q6 -9 8 -18q10 2 10 9v3z M449 213q-1 2 -1 3l-1 -2zM307 322l-2 4l-8 -4q4 -2 7 -3zM394 197q0 10 -13 10q-1 0 -5 -5t-4 -6v-1q11 -1 20 -4q2 4 2 6z" />
<glyph unicode="&#xbc;" horiz-adv-x="725" d="M702 249l-21 -23q-10 9 -20 14q-10 -4 -29 -10q-3 -8 -1 -21q3 -17 3 -20q0 -8 -8 -17q-11 -13 -12 -16l2 -6q5 10 12 18q0 6 -2 -105l-9 -4q-4 -6 4 -19l-9 -9l-13 -3l-5 6l1 1q-9 -11 -20 -11q-4 6 -17 14l-3 -11l-9 -4h-10q-5 20 -5 33q0 55 21 157l-8 1 q-36 -7 -107 -25l-14 6l-16 -6q-7 0 -35 9l-12 22l3 8q18 6 14 15l11 17l3 -7q5 24 46 57q4 16 17 37q20 31 22 34l16 -6l18 2l11 -3l3 -7l7 8l14 -6l4 -7q-2 -8 -29 -58l-10 3q-8 -43 -38 -59l1 -8h1q7 0 19.5 3.5t16.5 4.5q9 6 29 8.5t28 6.5q1 15 6.5 43.5t5.5 42.5l15 8 l8 -3l3 -4h15q14 -7 35 -26l-8 -14l4 -15l-3 -7l-8 -1l3 -12l3 -2l11 1l4 3l16 -6l9 7zM175 705q0 -58 -18 -152q-7 -36 -11 -101q-5 -72 -9 -102l-10 -4q-3 6 -10 13l-2 -13q-18 6 -24 18l-23 -2l-3 6l4 10l-7 8h5q1 45 -1 52l8 10l-5 8q10 6 15 14l-15 1l-4 7q0 12 3 36 l10 4q-6 9 -15 27q6 10 2 38l7 4l10 -5q-1 6 -2 16l-12 4l-5 14q0 13 16 30v6q-4 1 9 3q-3 7 -13 14q1 4 10 20q6 11 6 22l17 -15q6 2 11 19q13 -7 23 -10h1l16 12zM116 603q-1 2 -7 7l-7 -7h14zM94 502l-2 3l-10 -12q0 -3 8 -11q3 7 4 20zM616 727q-55 -101 -166 -247 q-145 -191 -178 -240q-52 -80 -160 -238l-18 -6l1 24l-16 -24l-21 12l2 19l-33 -5l-4 9l19 26l-2 3l10 7l1 -1q21 65 72 112v11l33 21l-11 1l-8 8q4 21 23 44t40 33q-3 24 15 59q16 27 31 54l12 3l10 -8l14 27l-11 7q17 58 167 207l-3 25q23 21 64 69l10 -24l7 2l27 29 l24 -16l38 22zM207 269l-1 3q-19 -11 -26 -26l3 -9q10 12 24 32z" />
<glyph unicode="&#xbd;" horiz-adv-x="713" d="M711 58q-8 -18 -36 -21q6 1 -48 1q-36 0 -103 -17t-102 -17l-2 4l-18 -7l-14 7l2 6l-9 14q11 14 33 31q20 13 39 26v1q34 36 68 71q40 45 44 80q8 7 10 15q2 5 1 14q-1 14 -1 17q0 11 10 20l-13 10l2 5q-13 8 -24 12q-7 -4 -21.5 -21t-25.5 -18l-16 -28l3 -10 q-40 -10 -53 -10l-14 1q-9 5 -25 17q10 32 45 50q3 8 19 17t21 16q50 15 63 15q1 0 59 -5q1 -7 10 -10.5t18 -7.5l11 4q6 -9 6 -13q-2 -22 -2 -14l3 -9l5 -1l4 4l13 1l6 -12l-5 -20l-10 -7l-6 2h-1l9 -18l-19 2q5 -21 5 -28l-3 -14l-8 1l-12 -3q16 -2 20 -14q-13 -4 -37 -15 l1 -7l-6 -3q7 -3 15 -11q0 -6 -26 -15l6 -11q0 -10 -18 -24l-18 -4l-6 -5l1 -8l-9 -2l6 -7l-8 -17l1 -2q15 3 46 7v2q0 7 47 22t61 15l-3 -9q0 2 5 -21q-6 -11 -24 -8q11 -3 28 -16zM115 704q0 -58 -18 -151q-7 -37 -11 -102q-5 -72 -9 -101l-9 -4q-4 6 -10 12l-3 -12 q-18 5 -24 18l-23 -3l-3 7l4 9l-7 9h5q2 45 0 51l8 10l-6 9q10 5 15 13l-15 2l-4 7q0 12 3 35l10 5l-15 27q6 10 2 38l7 3l10 -4q-1 5 -2 16l-11 3l-5 14q0 14 15 31v6q-4 0 9 2q-3 7 -13 14l10 20q6 11 6 22l17 -14q6 1 11 18q14 -6 23 -9h1l17 11zM56 602q-1 2 -7 7l-7 -7 h14zM35 502l-3 3q-5 -6 -10 -13q0 -3 8 -11q3 8 5 21zM602 730q-56 -101 -167 -247q-144 -191 -178 -240q-51 -80 -159 -238l-18 -6l1 24l-17 -24l-21 12l3 19l-33 -5l-5 9l19 26l-1 3l9 7l2 -1q21 64 71 112v11l33 21l-10 1l-8 7q3 22 22 45t40 33q-2 24 16 59q15 27 31 53 l12 4l10 -8l14 27l-11 7q17 58 167 206l-3 26q23 21 63 69l11 -24l6 2l28 29l24 -16l38 22zM192 272v2q-19 -10 -26 -25l2 -9q11 12 24 32z" />
<glyph unicode="&#xbe;" horiz-adv-x="742" d="M728 229l-21 -23q-10 8 -21 14q-9 -4 -28 -11q-3 -8 -1 -20q3 -18 3 -21q0 -7 -8 -17q-11 -12 -12 -16l2 -5q5 9 12 18q0 6 -2 -105l-9 -4q-4 -7 4 -20l-9 -9l-13 -3l-5 6l1 1q-9 -11 -20 -11q-4 7 -17 14l-3 -10l-9 -5h-10q-5 21 -5 34q0 55 21 156l-8 2 q-36 -8 -107 -26l-14 6l-16 -5q-7 0 -35 9l-12 21l3 8q18 7 14 16l11 16l3 -6q5 24 46 57q4 15 17 36q20 31 22 35l16 -6l18 2l11 -3l3 -7l7 8l14 -6l4 -8q-2 -7 -29 -57l-10 3q-8 -43 -38 -59l1 -8h1q7 0 19.5 3.5t16.5 3.5q9 7 29 9.5t28 6.5q1 14 6.5 42.5t5.5 43.5l15 8 l8 -3l3 -4l15 -1q14 -6 35 -25l-8 -15l4 -14l-3 -7l-8 -1l3 -13l3 -2l11 2l4 3l16 -7l9 8zM315 620l-6 -16l-4 1l-7 -12l1 -6q0 -9 -21 -33l-8 2v-10l-3 -9l-7 -3q-9 -11 -25 -24q8 -3 13.5 -15t9.5 -15q-5 8 -5 20v3q47 -24 47 -82l-2 -2l3 -5q-4 -9 -9 -19t-18 -9l-1 3 q-7 -10 -27 -26l-9 3l-12 -13q-6 -2 -29 -4l-5 -5q-9 1 -23 0q-18 -2 -24 -2l-12 4l-11 -7h-7l-5 7q-37 8 -43 23q-5 22 -10 43l8 9l10 -11l6 17q13 -9 20 -16l1 19l13 -8q1 -4 1 -24q0 -8 13.5 -14.5t23.5 -6.5q31 0 51 17.5t20 43.5q0 35 -28 35q-6 0 -16 -5t-16 -5l-8 1 l-4 5q-4 -2 -17 -14l-8 9l-13 2l-4 11l5 16q36 13 56 37q11 0 19 14.5t18 15.5q28 58 28 75q0 18 -12 31q2 0 -31 0q-26 0 -63 -15q-47 -21 -59 -24q-8 -15 -24 -15l-11 3q-8 9 -21 28l8 11q32 4 65 9q37 7 56 26v8h16l-3 -10q17 10 39 10q20 0 40 -8l9 3q9 -5 29 -14l-1 -7 q13 -8 20 -15l-11 -7q5 -4 14 -12l10 31q1 -5 6 -24q4 -14 4 -24zM102 478l-1 -3q1 -1 -9 -8v17q10 -5 10 -6zM690 724q-56 -101 -167 -247q-144 -190 -178 -239q-51 -81 -159 -239l-18 -6l1 24l-17 -23l-21 11l3 19l-33 -4l-5 8l19 26l-1 3l9 7l2 -1q21 65 71 112v11l33 21 l-10 1l-8 8q3 21 22 44t40 34q-2 23 16 58q15 27 31 54l12 3l10 -8l14 27l-11 7q17 59 167 207l-3 25q23 22 64 69l10 -24l6 2l28 29l24 -16l38 22zM280 266v3q-19 -10 -26 -26l2 -9q11 12 24 32z" />
<glyph unicode="&#xbf;" horiz-adv-x="369" d="M20 196l11 29l11 -4l1 1l-4 7h-15v1l-1 -1q-2 0 -2 4q1 6 1 7l1 1v23h22l-5 -9l7 1l7 17l-10 13l8 18l-5 5q3 14 20 25q26 16 28 19l6 -3l-8 10q6 27 26 34l8 -5l3 2l8 16l-2 5h4q10 21 24 23l6 4l7 -2l8 4l-4 11l15 10v14q8 3 21 21q-1 17 -26 37q-20 14 -39 29l15 23h5 q10 0 29 -10.5t31 -8.5q10 -3 27 -13q21 -3 71 -52q-2 -13 -11 -38l-11 5q-10 -6 -22 -20l1 -1l11 10l51 5q-35 -17 -39 -29q-8 -23 -17 -33q-11 0 -34 -8l3 -7q-6 -11 -6 -27h-9q-10 -22 -23 -28l-6 5q-32 -51 -34 -90l-12 22l-1 -18l-13 -13v-12l-14 6q-5 -16 -16 -29 l5 -15l-8 -14l-9 2l-9 -12h23l-5 -8l9 -8l10 7l6 -11l9 10l7 -2l2 19l19 -10q9 7 31 17l8 -4l7 12q33 -16 55 -49l12 12v-26l-7 -16l-13 4l-34 -13q-18 -26 -64 -26q-50 0 -75 11q-28 12 -60 50l-8 -2q-2 7 -11 33q-8 20 -8 33zM201 497l11 2l1 -6l-12 -1v5zM156 712 q10 0 12.5 4t4.5 10q12 0 32 -12.5t32 -12.5q11 0 23 14q9 -10 9 -16q0 -4 -11 -18l5 3q4 -1 19 0q-2 -10 -2 -13q10 -2 10 -10q0 -9 -34 -22l-9 10v5q-12 -3 -24 -3q-19 0 -35 8q-21 10 -21 26q0 3 2 6zM100 152l15 -3l2 -3l1 1q-7 6 -12 16q-2 -4 -6 -11zM102 350l3 -2 l3 6zM176 325v-2l1 -1l3 9zM235 367l4 -2l-2 3zM207 438v-1v0q1 0 1 2z" />
<glyph unicode="&#xc0;" d="M422 393q0 -17 -13 -23l-7 40q6 -6 20 -17zM597 -11l-26 -35l-14 34l-15 -24l-15 -4q-13 6 -28 23.5t-11 30.5q-6 15 -15 46q-10 8 -19.5 30.5t-19.5 30.5q0 21 -14 44q-1 1 -28 37h-5l-20 11q-17 -3 -49 -3q-35 1 -50 -1l-5 13q-23 -9 -32 -46q-5 -29 -9 -59l-26 51 l-7 -31l19 -30q-15 -42 -18 -47q-11 -26 -26 -43l-15 14l-28 -14l-12 7l-7 -10h-15v3l-8 -3q-18 19 -23 45l8 4l-17 26l11 27l19 11l10 -4l5 7l-14 33q5 23 9 45q7 27 24 35l-15 25l5 12l-19 29l2 13q18 5 47 31v16l25 -5l6 5l4 17q0 13 -9 33q-7 15 -14 31l19 -3l-4 12 l6 11l10 6l-21 13v10q0 8 8 22t16 13q5 32 1 59l19 3l10 -13l1 4q0 45 -2 58l-2 3l-23 -7q12 21 25 42q17 24 38 30l9 13l34 -6q14 -17 48 -11l-7 -19l14 -7q10 -41 -4 -72l2 -4l14 -8l17 -27l-3 -21q0 -34 12 -71l3 -3l19 12l-9 -31q0 -8 4 -32q3 -19 1 -31q5 -8 9.5 -26.5 t9.5 -26.5l22 9l2 -19l-16 -26q18 -2 28 -13.5t20 -22.5l17 17q4 -8 23 -32q15 -19 19 -36q-5 2 -41 29l-8 -6l14 -23l-13 -13h-3l14 -15l-7 -18l2 -2l4 8l12 2q7 -35 29 -67l-2 -2q9 -16 18 -33q11 -20 26 -26q7 -21 20 -64zM144 400q0 -4 -5 -14l-8 -4q-8 4 -8 10 q0 1 5 14q1 1 1 20q15 -22 15 -26zM78 186q-6 -9 -28 -10l20 24q8 -8 8 -14zM211 68q0 -27 -12 -41q-10 6 -10 12q0 14 22 29zM70 130l-1 -1v-5h-28l6 26h1v18h14v-23h-3q11 -4 11 -15zM54 57q0 -5 -5 -10t-6 -7q-17 0 -17 12q0 8 8 14q20 0 20 -9zM51 31q0 -14 -10 -14h-11 v20h21v-3v-3zM373 444l-1 11q-6 3 -10 9q4 -18 11 -20zM263 531v7q0 -2 -2 -7v0h2zM206 538l-21 -10l-7 4l-3 -9l5 -2q11 3 15 5q9 5 11 12zM200 497q0 2 -3 5v-5l2 1l1 -1v0zM342 314q0 21 -17 60q-22 52 -25 61q-3 17 -11 35q-12 -13 -12 -24q20 0 20 -23q0 -8 -15 -11 l5 -5q0 -15 -12 -16.5t-13 -4.5q16 -16 16 -19q0 -8 -10 -12q5 -3 11 -15q-10 0 -23 -11q1 -13 10 -20q52 0 74 -11q2 8 2 16zM216 414q0 12 -3 12t-3 -4v-2v-4q2 -2 6 -2v0zM161 336q-4 -6 -6 -13l2 -2q1 5 4 15zM179 242q0 1 -2.5 2t-3.5 2q1 -2 5 -6zM214 166 q-6 20 -18 40l16 15v1l-7 -2l-9 -13q4 -14 4 -19t-2 -12l14 -12zM118 203q0 8 -3 17q-3 -3 -3 -6t6 -11zM144 92q-1 4 -1 9q-2 -5 -2 -7v-2h3zM305 758q0 -5 -10 -18q-7 9 -12 12l-12 -5l-22 5l3 1q-5 1 -16.5 4.5t-17.5 3.5t-12 -10q-12 2 -23.5 16.5t-20.5 15.5l-12 12 l-1 -1q-10 27 -10 46q-2 -5 -12 -64l-4 70l17 4l3 21q6 2 30 21q4 -6 15 -15l4 3q16 0 25 -26q5 -1 10 -5v1q6 8 12 8q13 0 13 -10q0 -5 -6 -12h-2q6 -4 14 -2q9 -11 26 -38q21 -31 21 -38zM229 848h-1v-1zM163 803l-1 1v-1h1z" />
<glyph unicode="&#xc1;" d="M422 393q0 -17 -13 -23l-7 40q6 -6 20 -17zM597 -11l-26 -35l-14 34l-15 -24l-15 -4q-13 6 -28 23.5t-11 30.5q-6 15 -15 46q-10 8 -19.5 30.5t-19.5 30.5q0 21 -14 44q-1 1 -28 37h-5l-20 11q-17 -3 -49 -3q-35 1 -50 -1l-5 13q-23 -9 -32 -46q-5 -29 -9 -59l-26 51 l-7 -31l19 -30q-15 -42 -18 -47q-11 -26 -26 -43l-15 14l-28 -14l-12 7l-7 -10h-15v3l-8 -3q-18 19 -23 45l8 4l-17 26l11 27l19 11l10 -4l5 7l-14 33q5 23 9 45q7 27 24 35l-15 25l5 12l-19 29l2 13q18 5 47 31v16l25 -5l6 5l4 17q0 13 -9 33q-7 15 -14 31l19 -3l-4 12 l6 11l10 6l-21 13v10q0 8 8 22t16 13q5 32 1 59l19 3l10 -13l1 4q0 45 -2 58l-2 3l-23 -7q12 21 25 42q17 24 38 30l9 13l34 -6q14 -17 48 -11l-7 -19l14 -7q10 -41 -4 -72l2 -4l14 -8l17 -27l-3 -21q0 -34 12 -71l3 -3l19 12l-9 -31q0 -8 4 -32q3 -19 1 -31q5 -8 9.5 -26.5 t9.5 -26.5l22 9l2 -19l-16 -26q18 -2 28 -13.5t20 -22.5l17 17q4 -8 23 -32q15 -19 19 -36q-5 2 -41 29l-8 -6l14 -23l-13 -13h-3l14 -15l-7 -18l2 -2l4 8l12 2q7 -35 29 -67l-2 -2q9 -16 18 -33q11 -20 26 -26q7 -21 20 -64zM144 400q0 -4 -5 -14l-8 -4q-8 4 -8 10 q0 1 5 14q1 1 1 20q15 -22 15 -26zM78 186q-6 -9 -28 -10l20 24q8 -8 8 -14zM211 68q0 -27 -12 -41q-10 6 -10 12q0 14 22 29zM70 130l-1 -1v-5h-28l6 26h1v18h14v-23h-3q11 -4 11 -15zM54 57q0 -5 -5 -10t-6 -7q-17 0 -17 12q0 8 8 14q20 0 20 -9zM51 31q0 -14 -10 -14h-11 v20h21v-3v-3zM373 444l-1 11q-6 3 -10 9q4 -18 11 -20zM263 531v7q0 -2 -2 -7v0h2zM206 538l-21 -10l-7 4l-3 -9l5 -2q11 3 15 5q9 5 11 12zM200 497q0 2 -3 5v-5l2 1l1 -1v0zM342 314q0 21 -17 60q-22 52 -25 61q-3 17 -11 35q-12 -13 -12 -24q20 0 20 -23q0 -8 -15 -11 l5 -5q0 -15 -12 -16.5t-13 -4.5q16 -16 16 -19q0 -8 -10 -12q5 -3 11 -15q-10 0 -23 -11q1 -13 10 -20q52 0 74 -11q2 8 2 16zM216 414q0 12 -3 12t-3 -4v-2v-4q2 -2 6 -2v0zM161 336q-4 -6 -6 -13l2 -2q1 5 4 15zM179 242q0 1 -2.5 2t-3.5 2q1 -2 5 -6zM214 166 q-6 20 -18 40l16 15v1l-7 -2l-9 -13q4 -14 4 -19t-2 -12l14 -12zM118 203q0 8 -3 17q-3 -3 -3 -6t6 -11zM144 92q-1 4 -1 9q-2 -5 -2 -7v-2h3zM488 822v-5q0 -14 -8 -36h1l-2 -5l-2 1l-11 -12q-10 -1 -21 -15.5t-24 -16.5q-6 10 -13 10q-6 0 -17 -3.5t-16 -4.5l3 -1l-22 -5 l-12 5q-4 -3 -12 -12q-9 13 -9 19t20 37q18 27 26 38l5 -1q5 0 10 3h-3q-5 7 -5 12q0 10 12 10l8 -2l5 -7q5 4 9 5q9 26 25 26l4 -3q3 2 16 15q8 -9 29 -21l3 -21q3 -1 1 -10zM467 780l-2 6l-8 -6h10zM406 820h-15l10 -7z" />
<glyph unicode="&#xc2;" d="M422 393q0 -17 -13 -23l-7 40q6 -6 20 -17zM597 -11l-26 -35l-14 34l-15 -24l-15 -4q-13 6 -28 23.5t-11 30.5q-6 15 -15 46q-10 8 -19.5 30.5t-19.5 30.5q0 21 -14 44q-1 1 -28 37h-5l-20 11q-17 -3 -49 -3q-35 1 -50 -1l-5 13q-23 -9 -32 -46q-5 -29 -9 -59l-26 51 l-7 -31l19 -30q-15 -42 -18 -47q-11 -26 -26 -43l-15 14l-28 -14l-12 7l-7 -10h-15v3l-8 -3q-18 19 -23 45l8 4l-17 26l11 27l19 11l10 -4l5 7l-14 33q5 23 9 45q7 27 24 35l-15 25l5 12l-19 29l2 13q18 5 47 31v16l25 -5l6 5l4 17q0 13 -9 33q-7 15 -14 31l19 -3l-4 12 l6 11l10 6l-21 13v10q0 8 8 22t16 13q5 32 1 59l19 3l10 -13l1 4q0 45 -2 58l-2 3l-23 -7q12 21 25 42q17 24 38 30l9 13l34 -6q14 -17 48 -11l-7 -19l14 -7q10 -41 -4 -72l2 -4l14 -8l17 -27l-3 -21q0 -34 12 -71l3 -3l19 12l-9 -31q0 -8 4 -32q3 -19 1 -31q5 -8 9.5 -26.5 t9.5 -26.5l22 9l2 -19l-16 -26q18 -2 28 -13.5t20 -22.5l17 17q4 -8 23 -32q15 -19 19 -36q-5 2 -41 29l-8 -6l14 -23l-13 -13h-3l14 -15l-7 -18l2 -2l4 8l12 2q7 -35 29 -67l-2 -2q9 -16 18 -33q11 -20 26 -26q7 -21 20 -64zM144 400q0 -4 -5 -14l-8 -4q-8 4 -8 10 q0 1 5 14q1 1 1 20q15 -22 15 -26zM78 186q-6 -9 -28 -10l20 24q8 -8 8 -14zM211 68q0 -27 -12 -41q-10 6 -10 12q0 14 22 29zM70 130l-1 -1v-5h-28l6 26h1v18h14v-23h-3q11 -4 11 -15zM54 57q0 -5 -5 -10t-6 -7q-17 0 -17 12q0 8 8 14q20 0 20 -9zM51 31q0 -14 -10 -14h-11 v20h21v-3v-3zM373 444l-1 11q-6 3 -10 9q4 -18 11 -20zM263 531v7q0 -2 -2 -7v0h2zM206 538l-21 -10l-7 4l-3 -9l5 -2q11 3 15 5q9 5 11 12zM200 497q0 2 -3 5v-5l2 1l1 -1v0zM342 314q0 21 -17 60q-22 52 -25 61q-3 17 -11 35q-12 -13 -12 -24q20 0 20 -23q0 -8 -15 -11 l5 -5q0 -15 -12 -16.5t-13 -4.5q16 -16 16 -19q0 -8 -10 -12q5 -3 11 -15q-10 0 -23 -11q1 -13 10 -20q52 0 74 -11q2 8 2 16zM216 414q0 12 -3 12t-3 -4v-2v-4q2 -2 6 -2v0zM161 336q-4 -6 -6 -13l2 -2q1 5 4 15zM179 242q0 1 -2.5 2t-3.5 2q1 -2 5 -6zM214 166 q-6 20 -18 40l16 15v1l-7 -2l-9 -13q4 -14 4 -19t-2 -12l14 -12zM118 203q0 8 -3 17q-3 -3 -3 -6t6 -11zM144 92q-1 4 -1 9q-2 -5 -2 -7v-2h3zM295 757q-4 -2 -15 -15t-23 -15q-6 11 -12 11t-17 -4t-17 -4l3 -2l-22 -5l-12 5q-4 -3 -12 -12q-9 13 -9 19t20 37q18 27 27 38 l4 -1q5 0 10 3h-2q-6 7 -6 12q0 10 13 10l7 -2l5 -7q5 4 9 6q9 25 25 25l4 -3q4 2 16 15l4 -4l4 4q4 -6 16 -15l3 3q16 0 22 -20t32 -24q5 -1 12 -2q9 -11 27 -38q20 -31 20 -37q0 -4 -3.5 -6.5t-4.5 -4.5q-5 1 -14 4l-20 4q-26 5 -45 5q-3 0 -8.5 6t-6.5 4q-10 1 -34 10z M235 824h-1h1v0z" />
<glyph unicode="&#xc3;" d="M422 393q0 -17 -13 -23l-7 40q6 -6 20 -17zM597 -11l-26 -35l-14 34l-15 -24l-15 -4q-13 6 -28 23.5t-11 30.5q-6 15 -15 46q-10 8 -19.5 30.5t-19.5 30.5q0 21 -14 44q-1 1 -28 37h-5l-20 11q-17 -3 -49 -3q-35 1 -50 -1l-5 13q-23 -9 -32 -46q-5 -29 -9 -59l-26 51 l-7 -31l19 -30q-15 -42 -18 -47q-11 -26 -26 -43l-15 14l-28 -14l-12 7l-7 -10h-15v3l-8 -3q-18 19 -23 45l8 4l-17 26l11 27l19 11l10 -4l5 7l-14 33q5 23 9 45q7 27 24 35l-15 25l5 12l-19 29l2 13q18 5 47 31v16l25 -5l6 5l4 17q0 13 -9 33q-7 15 -14 31l19 -3l-4 12 l6 11l10 6l-21 13v10q0 8 8 22t16 13q5 32 1 59l19 3l10 -13l1 4q0 45 -2 58l-2 3l-23 -7q12 21 25 42q17 24 38 30l9 13l34 -6q14 -17 48 -11l-7 -19l14 -7q10 -41 -4 -72l2 -4l14 -8l17 -27l-3 -21q0 -34 12 -71l3 -3l19 12l-9 -31q0 -8 4 -32q3 -19 1 -31q5 -8 9.5 -26.5 t9.5 -26.5l22 9l2 -19l-16 -26q18 -2 28 -13.5t20 -22.5l17 17q4 -8 23 -32q15 -19 19 -36q-5 2 -41 29l-8 -6l14 -23l-13 -13h-3l14 -15l-7 -18l2 -2l4 8l12 2q7 -35 29 -67l-2 -2q9 -16 18 -33q11 -20 26 -26q7 -21 20 -64zM144 400q0 -4 -5 -14l-8 -4q-8 4 -8 10 q0 1 5 14q1 1 1 20q15 -22 15 -26zM78 186q-6 -9 -28 -10l20 24q8 -8 8 -14zM211 68q0 -27 -12 -41q-10 6 -10 12q0 14 22 29zM70 130l-1 -1v-5h-28l6 26h1v18h14v-23h-3q11 -4 11 -15zM54 57q0 -5 -5 -10t-6 -7q-17 0 -17 12q0 8 8 14q20 0 20 -9zM51 31q0 -14 -10 -14h-11 v20h21v-3v-3zM373 444l-1 11q-6 3 -10 9q4 -18 11 -20zM263 531v7q0 -2 -2 -7v0h2zM206 538l-21 -10l-7 4l-3 -9l5 -2q11 3 15 5q9 5 11 12zM200 497q0 2 -3 5v-5l2 1l1 -1v0zM342 314q0 21 -17 60q-22 52 -25 61q-3 17 -11 35q-12 -13 -12 -24q20 0 20 -23q0 -8 -15 -11 l5 -5q0 -15 -12 -16.5t-13 -4.5q16 -16 16 -19q0 -8 -10 -12q5 -3 11 -15q-10 0 -23 -11q1 -13 10 -20q52 0 74 -11q2 8 2 16zM216 414q0 12 -3 12t-3 -4v-2v-4q2 -2 6 -2v0zM161 336q-4 -6 -6 -13l2 -2q1 5 4 15zM179 242q0 1 -2.5 2t-3.5 2q1 -2 5 -6zM214 166 q-6 20 -18 40l16 15v1l-7 -2l-9 -13q4 -14 4 -19t-2 -12l14 -12zM118 203q0 8 -3 17q-3 -3 -3 -6t6 -11zM144 92q-1 4 -1 9q-2 -5 -2 -7v-2h3zM362 727q0 1 -9 -10q-3 4 -25 6q-21 2 -27 0l-14 12q-5 -3 -13 -11q-10 13 -9 19q-14 4 -42 14q-5 -2 -15 -14.5t-23 -14.5 q-5 10 -12 10q-6 0 -17 -4t-16 -4l3 -2l-22 -4l-12 4q-5 -3 -12 -11q-10 12 -10 18q0 18 47 75h5l9 2l-2 1l-6 12q0 9 13 9l7 -1l5 -8l10 6q8 25 25 25l3 -3q4 2 16 15l4 -3l4 3q5 -6 16 -15l4 3q15 0 21.5 -20t32.5 -23q-2 1 -3 -1q0 -1 9 -2l5 7h5l9 2l-2 1l-6 11 q0 10 13 10l7 -1l5 -8l10 6q8 25 25 25l3 -3q4 2 16 15q9 -9 30 -20q2 -20 3.5 -21t15.5 -4l-3 -71q-4 15 -7 34q-2 13 -3 13t-10 -24v0l-2 -5l-1 2l-12 -13q-9 -1 -19.5 -19t-22.5 -20l-7 8zM408 787v0l-2 -1zM341 831h-1h1v0zM163 824v0v0v0z" />
<glyph unicode="&#xc4;" d="M422 393q0 -17 -13 -23l-7 40q6 -6 20 -17zM597 -11l-26 -35l-14 34l-15 -24l-15 -4q-13 6 -28 23.5t-11 30.5q-6 15 -15 46q-10 8 -19.5 30.5t-19.5 30.5q0 21 -14 44q-1 1 -28 37h-5l-20 11q-17 -3 -49 -3q-35 1 -50 -1l-5 13q-23 -9 -32 -46q-5 -29 -9 -59l-26 51 l-7 -31l19 -30q-15 -42 -18 -47q-11 -26 -26 -43l-15 14l-28 -14l-12 7l-7 -10h-15v3l-8 -3q-18 19 -23 45l8 4l-17 26l11 27l19 11l10 -4l5 7l-14 33q5 23 9 45q7 27 24 35l-15 25l5 12l-19 29l2 13q18 5 47 31v16l25 -5l6 5l4 17q0 13 -9 33q-7 15 -14 31l19 -3l-4 12 l6 11l10 6l-21 13v10q0 8 8 22t16 13q5 32 1 59l19 3l10 -13l1 4q0 45 -2 58l-2 3l-23 -7q12 21 25 42q17 24 38 30l9 13l34 -6q14 -17 48 -11l-7 -19l14 -7q10 -41 -4 -72l2 -4l14 -8l17 -27l-3 -21q0 -34 12 -71l3 -3l19 12l-9 -31q0 -8 4 -32q3 -19 1 -31q5 -8 9.5 -26.5 t9.5 -26.5l22 9l2 -19l-16 -26q18 -2 28 -13.5t20 -22.5l17 17q4 -8 23 -32q15 -19 19 -36q-5 2 -41 29l-8 -6l14 -23l-13 -13h-3l14 -15l-7 -18l2 -2l4 8l12 2q7 -35 29 -67l-2 -2q9 -16 18 -33q11 -20 26 -26q7 -21 20 -64zM144 400q0 -4 -5 -14l-8 -4q-8 4 -8 10 q0 1 5 14q1 1 1 20q15 -22 15 -26zM78 186q-6 -9 -28 -10l20 24q8 -8 8 -14zM211 68q0 -27 -12 -41q-10 6 -10 12q0 14 22 29zM70 130l-1 -1v-5h-28l6 26h1v18h14v-23h-3q11 -4 11 -15zM54 57q0 -5 -5 -10t-6 -7q-17 0 -17 12q0 8 8 14q20 0 20 -9zM51 31q0 -14 -10 -14h-11 v20h21v-3v-3zM373 444l-1 11q-6 3 -10 9q4 -18 11 -20zM263 531v7q0 -2 -2 -7v0h2zM206 538l-21 -10l-7 4l-3 -9l5 -2q11 3 15 5q9 5 11 12zM200 497q0 2 -3 5v-5l2 1l1 -1v0zM342 314q0 21 -17 60q-22 52 -25 61q-3 17 -11 35q-12 -13 -12 -24q20 0 20 -23q0 -8 -15 -11 l5 -5q0 -15 -12 -16.5t-13 -4.5q16 -16 16 -19q0 -8 -10 -12q5 -3 11 -15q-10 0 -23 -11q1 -13 10 -20q52 0 74 -11q2 8 2 16zM216 414q0 12 -3 12t-3 -4v-2v-4q2 -2 6 -2v0zM161 336q-4 -6 -6 -13l2 -2q1 5 4 15zM179 242q0 1 -2.5 2t-3.5 2q1 -2 5 -6zM214 166 q-6 20 -18 40l16 15v1l-7 -2l-9 -13q4 -14 4 -19t-2 -12l14 -12zM118 203q0 8 -3 17q-3 -3 -3 -6t6 -11zM144 92q-1 4 -1 9q-2 -5 -2 -7v-2h3zM394 803q0 -3 -1.5 -7t-1.5 -6q0 -15 -2 -19t-11.5 -18.5t-13.5 -14.5q-9 9 -24 20q1 0 -26 -10l-12 2q-3 -4 -9 -14 q-7 7 -15.5 23.5t-5.5 24.5q-1 4 -1 6q0 3 6 15h-1q2 6 18 5q2 7 12 20q1 9 7.5 10.5t13.5 2.5l3 -2q7 2 17 10q15 -6 28 -6l9 -21l6 -3q0 -3 2 -9t2 -9zM230 812l-11 -3q-4 8 -8 14q5 -15 5 -28q0 -5 -2 -23q-3 1 -5 1q-4 0 -13 -7t-18 -7q-3 0 -14 3q-2 0 -25 -9l-11 3 q-4 -4 -9 -14q-22 18 -22 45v2q7 0 13 5h-2q-4 5 -8 9v4q1 1 2 4v-1q1 6 11 6h6l5 -5q4 4 9 7q2 27 19 30l3 -2q4 6 13 18q29 -14 33 -14l8 -21h17zM367 803l-5 7l-2 -11zM201 780l-3 1l-4 -5z" />
<glyph unicode="&#xc5;" d="M422 393q0 -17 -13 -23l-7 40q6 -6 20 -17zM597 -11l-26 -35l-14 34l-15 -24l-15 -4q-13 6 -28 23.5t-11 30.5q-6 15 -15 46q-10 8 -19.5 30.5t-19.5 30.5q0 21 -14 44q-1 1 -28 37h-5l-20 11q-17 -3 -49 -3q-35 1 -50 -1l-5 13q-23 -9 -32 -46q-5 -29 -9 -59l-26 51 l-7 -31l19 -30q-15 -42 -18 -47q-11 -26 -26 -43l-15 14l-28 -14l-12 7l-7 -10h-15v3l-8 -3q-18 19 -23 45l8 4l-17 26l11 27l19 11l10 -4l5 7l-14 33q5 23 9 45q7 27 24 35l-15 25l5 12l-19 29l2 13q18 5 47 31v16l25 -5l6 5l4 17q0 13 -9 33q-7 15 -14 31l19 -3l-4 12 l6 11l10 6l-21 13v10q0 8 8 22t16 13q5 32 1 59l19 3l10 -13l1 4q0 45 -2 58l-2 3l-23 -7q12 21 25 42q17 24 38 30l9 13l34 -6q14 -17 48 -11l-7 -19l14 -7q10 -41 -4 -72l2 -4l14 -8l17 -27l-3 -21q0 -34 12 -71l3 -3l19 12l-9 -31q0 -8 4 -32q3 -19 1 -31q5 -8 9.5 -26.5 t9.5 -26.5l22 9l2 -19l-16 -26q18 -2 28 -13.5t20 -22.5l17 17q4 -8 23 -32q15 -19 19 -36q-5 2 -41 29l-8 -6l14 -23l-13 -13h-3l14 -15l-7 -18l2 -2l4 8l12 2q7 -35 29 -67l-2 -2q9 -16 18 -33q11 -20 26 -26q7 -21 20 -64zM144 400q0 -4 -5 -14l-8 -4q-8 4 -8 10 q0 1 5 14q1 1 1 20q15 -22 15 -26zM78 186q-6 -9 -28 -10l20 24q8 -8 8 -14zM211 68q0 -27 -12 -41q-10 6 -10 12q0 14 22 29zM70 130l-1 -1v-5h-28l6 26h1v18h14v-23h-3q11 -4 11 -15zM54 57q0 -5 -5 -10t-6 -7q-17 0 -17 12q0 8 8 14q20 0 20 -9zM51 31q0 -14 -10 -14h-11 v20h21v-3v-3zM373 444l-1 11q-6 3 -10 9q4 -18 11 -20zM263 531v7q0 -2 -2 -7v0h2zM206 538l-21 -10l-7 4l-3 -9l5 -2q11 3 15 5q9 5 11 12zM200 497q0 2 -3 5v-5l2 1l1 -1v0zM342 314q0 21 -17 60q-22 52 -25 61q-3 17 -11 35q-12 -13 -12 -24q20 0 20 -23q0 -8 -15 -11 l5 -5q0 -15 -12 -16.5t-13 -4.5q16 -16 16 -19q0 -8 -10 -12q5 -3 11 -15q-10 0 -23 -11q1 -13 10 -20q52 0 74 -11q2 8 2 16zM216 414q0 12 -3 12t-3 -4v-2v-4q2 -2 6 -2v0zM161 336q-4 -6 -6 -13l2 -2q1 5 4 15zM179 242q0 1 -2.5 2t-3.5 2q1 -2 5 -6zM214 166 q-6 20 -18 40l16 15v1l-7 -2l-9 -13q4 -14 4 -19t-2 -12l14 -12zM118 203q0 8 -3 17q-3 -3 -3 -6t6 -11zM144 92q-1 4 -1 9q-2 -5 -2 -7v-2h3zM384 814q0 -23 -22 -43h-8l-1 -6l-9 -8l-7 1q-25 -9 -51 -20l-8 -2l-13 13q-5 -4 -11 -5l-9 5l-3 -1q-10 3 -24 14q-12 6 -12 33 q0 88 18 82q0 4 13 16q3 6 3 13q8 1 14 6.5t22 7.5l3 -6l-2 -5l1 1q1 6 17.5 15t25.5 9l8 -3q2 -5 12.5 -8.5t12.5 -8.5l4 2q2 -6 9 -17l6 1q-3 -12 5 -32q-3 -6 -7 -17l8 -6q5 -19 5 -31zM338 854q0 23 -8 39q-22 -4 -51 -12v-3q0 -6 -10 -14q-4 -3 -6.5 -12t-10 -15.5 t-9.5 -19.5q-1 -3 3 -14.5t4 -15.5q0 -3 -1 -5q8 -1 20 -9q39 15 52 29q17 17 17 52z" />
<glyph unicode="&#xc6;" horiz-adv-x="939" d="M199 400q-1 -4 -8 -14l-9 -4q-7 4 -6 10q1 1 8 14q1 1 5 20q11 -22 10 -26zM88 186q-8 -9 -30 -10l25 24q6 -8 5 -14zM196 68q-5 -27 -21 -41q-8 6 -7 12q3 14 28 29zM68 130l-1 -1l-1 -5h-28l11 26h1l4 18h15l-5 -23h-3q9 -4 7 -15zM37 57q-5 -5 -15 -17q-7 0 -11 2.5 t-3 9.5q2 8 12 14q19 0 17 -9zM28 31q-2 -14 -12 -14h-11l5 20h20zM289 538l-23 -10l-6 4l-4 -9l4 -2q12 3 17 5q9 5 12 12zM275 497q0 2 -2 5l-1 -5l2 1l1 -1v0zM381 330q0 18 -8 53q-10 39 -11 52q1 17 -3 35q-15 -13 -18 -24q20 0 16 -23q-2 -8 -18 -11l4 -5 q-2 -15 -14.5 -16.5t-14.5 -4.5q13 -16 12 -19q-2 -8 -13 -12q5 -3 8 -15q-10 0 -25 -11q-2 -13 6 -20q51 0 72 -11q7 15 7 32zM274 414q2 12 -1 12t-4 -4v-2v-4q1 -2 5 -2v0zM202 336q-5 -6 -8 -13q1 -1 1 -2q3 5 7 15zM201 242q0 1 -2.5 2t-2.5 2q0 -2 3 -6zM220 166 q-2 20 -9 40l19 15v1l-7 -2l-13 -13q1 -14 0 -19t-4 -12l12 -12zM132 203q1 8 1 17q-4 -3 -5 -6q0 -3 4 -11zM135 92q0 4 1 9q-2 -3 -4 -7v-2h3zM450 516l4 7l19 -19l7 21q0 5 -3 27q-2 17 0 28l-13 20l-11 -5l9 -23l-8 -21q-3 -17 -4 -35zM451 488l2 4l-3 8q0 -6 1 -12z M431 455l3 4q-2 2 -4 5q0 -5 1 -9zM928 71l-17 -9q-8 10 -8 36l-6 1l-5 -19l-36 4l-33 -19l-26 17q-4 -11 -9.5 -23t-14.5 -17l-16 3l-4 20l-2 -14l-21 -25l-17 8l-8 -16l-19 7l-8 -2l3 -15l-7 -13h-19l14 27l-8 -2q-34 -53 -75 -53q-4 0 -34 7l-20 -20l-5 27l-6 2l-15 -19 l-16 -4q-17 8 -27 30q-7 5 -16 7l-18 -21q-18 21 -33 28l-10 -8l-11 14l5 14l-33 41l48 -30l3 17l-22 25l-8 -1l-21 35l31 -12l2 2q-4 21 -11 62l11 25l-17 19l2 4q-27 1 -82 -2l-2 13q-25 -9 -42 -46q-11 -29 -21 -59l-16 51l-13 -31l12 -30q-23 -42 -27 -47 q-16 -26 -35 -43l-12 14l-31 -14l-11 7l-8 -10h-16l1 3l-8 -3q-15 19 -14 45l9 4l-12 26l16 27l22 11l9 -4l6 7l-6 33q9 23 18 45q12 27 31 35l-9 25l7 12l-13 29l4 13q19 5 54 31l4 16l23 -5l7 5q4 6 8 17q1 5 1 11q0 11 -4 27q-6 22 -7 26l19 -3l-2 12l8 11l12 6l-18 13 l2 10q1 8 12 22t19 13q12 32 13 59l20 3l8 -13l1 4q5 19 10 58l-2 3l-24 -7l34 42q22 24 45 30l10 13l34 -6q10 -17 45 -11l-11 -19l13 -7q0 -9 -1 -18q21 -4 29 -9q15 -7 21 -22q13 24 32 30v23q18 -12 34 -47l1 31l35 9v-16v-1l32 16l12 -6l8 6q18 -11 30 -24l30 31l9 -14 l7 11q20 -25 39 -25l14 5l14 23l13 -14l25 8l14 -31l32 2l31 -42l-38 26h-9l-11 -25l13 -30l-37 30l-9 -24l-25 13l-8 -10l-156 2q-30 -25 -37.5 -101.5t-40.5 -103.5l27 13l15 -26h2l31 20l4 -12l20 15l35 -16l12 10q10 -6 27 -19l17 18l20 -30l-7 -17l23 6l-7 27 q31 -9 37 -38l-10 -16l-16 3v-17l-7 -6l11 -1q-22 0 -32 17l2 8l-5 6l-4 -10l6 -18q-34 -12 -128 -23l-8 8l-21 -8l-10 8l-19 -10l-5 8l-17 -18l3 -21q0 -15 -5.5 -45.5t-5.5 -45.5q0 -23 9 -41l-12 -21l21 -13l23 6q9 12 31 21q27 11 35 17l7 -2l40 20l9 -3q106 40 150 40 q15 0 35 -16l4 3q30 -21 30 -58v-10q0 -16 2 -28zM523 575q-10 11 -21 11h-2q9 -16 12 -16q2 0 11 5zM597 71l-3 1l1 -1h1h1zM882 654h-21v21q21 0 21 -9v-12zM863 358q0 -10 -4.5 -14t-15.5 -25v10q0 29 20 29zM475 393q-4 -17 -17 -23l1 40q5 -6 16 -17zM346 531l1 7 q-1 -2 -4 -7h1h2zM538 556q-4 4 -10 8q0 2 -1 5v-6q4 -2 9 -9q2 1 2 2zM430 268l-1 -1q0 24 -14 38v-9v-25q0 -11 8 -20l2 2v1q0 4 5 14zM453 182l-7 -8h1h2l4 7v1z" />
<glyph unicode="&#xc7;" horiz-adv-x="767" d="M321 650q0 -19 -10 -19h-21q4 4 10 12t15 8l1 -1h5zM749 108q0 -22 -18 -52q-23 -37 -27 -51l-31 8l10 9l-6 3l-25 -13l6 -18l-29 1l-7 7l-26 -15l-11 3l-6 -22l-37 22l-28 -18q-25 5 -75 10l-13 13l-17 -28q-18 43 -84 43q-18 25 -34 40q-14 -5 -41 -9l-9 12 q-16 5 -37 17q-15 8 -30 8q-12 0 -29 -3l13 28l-8 11v-13h-16v22h9l-16 24l-7 -6l3 -19l-6 -19q-9 9 -18 30t-17 29l13 12l-27 5q-2 11 1 28q5 21 5 27l-3 12l-14 15l5 12l-2 13l-14 17l4 25q-9 -9 -25 -45l-7 30l21 43l-1 5l11 7l8 37l19 16l1 7l-5 3l-27 -6q16 22 47 65 l-5 21h18l2 -28l12 -14q18 22 18 32q0 8 -7 26l5 12l11 -3l-1 -5q6 -18 25 -29q18 16 24 40l-24 21l20 4l20 -15l17 20l3 -3l1 3l-3 20l21 20l4 -40l2 2l5 17l32 3l4 6l-3 12l37 24l9 -14h1l4 23l6 -2l9 7v9l34 -11l25 36l7 -31l7 3l28 -7h2q25 39 51 38l15 -14l2 -14l7 8 l46 -20q-7 -23 -16 -38l15 2l8 -16l-29 -22h-14l-10 12l-17 -11q-14 5 -28 11t-26 6q-74 0 -158 -58q-90 -62 -91 -131l-16 2q-13 -7 -13 -27q0 -6 1.5 -17.5t1.5 -16.5q0 -12 -7 -34.5t-7 -34.5q0 -9 9 -24t10 -24q23 -28 72 -80l13 3q11 -20 53.5 -36t52.5 -37l9 12 q35 -9 69 -18q41 -11 67 -25q22 20 58 20h6.5h6.5q26 0 37 13q16 19 21 74l16 -9q26 32 44 51q28 -61 28 -86zM69 232l-6 -6q-12 0 -22 33zM63 205h-16v15h16v-15zM710 118l-1 1q-4 -3 -4 -8q0 -1 1 -2q1 3 4 9zM471 -118q-2 -9 -14 -20q-5 8 -10 13h-2q-5 -31 -18 -43 q-8 -9 -42 -22q-10 5 -21 15q-4 -7 -17 -20l-9 6l-1 6l-3 -1q-12 0 -12 12q0 21 18 31l36 20l1 7l-3 8l-4 -3q-10 6 -18 22t-15 20l-9 14q-2 -1 103 22h-2l14 -5q8 -28 28 -82zM344 -36l-13 -2l10 -8z" />
<glyph unicode="&#xc8;" horiz-adv-x="615" d="M552 624h-21v21q21 0 21 -9v-12zM533 328q0 -10 -4.5 -14t-15.5 -25v10q0 29 20 29zM598 41l-17 -9q-8 10 -8 36l-6 1l-5 -19l-36 4l-33 -19l-26 17q-4 -11 -9.5 -23t-14.5 -17l-16 3l-4 20l-2 -14l-21 -25l-17 8l-8 -16l-19 7l-8 -2l3 -15l-7 -13h-19l14 27l-8 -2 q-34 -53 -75 -53l-81 20l-6 -2l-11 -17q-18 22 -41 29l-18 -21q-18 21 -33 28l-10 -8l-11 14l5 14l-33 41l48 -30l3 17l-22 25l-8 -1l-21 35l31 -12l2 2q-4 21 -11 62l11 25l-17 19q9 14 24 43l-2 4l-17 10q20 13 20 27q0 6 -2 21l7 17l12 5l-6 28l11 2l1 -8l1 4l1 7l-17 34 l24 24l-4 -1q1 3 37 68l-7 18l8 13l19 -19l7 21q0 5 -3 27q-2 17 0 28l-13 20l-15 -6l-21 4l-6 15l-10 -4l-17 42l2 14l23 11l-3 -14l8 -13l11 7v13q20 -4 40.5 -10t28.5 -25q13 24 32 30v23q18 -12 34 -47l1 31l35 9v-16v-1l32 16l12 -6l8 6q18 -11 30 -24l30 31l9 -14 l7 11q20 -25 39 -25l14 5l14 23l13 -14l25 8l14 -31l32 2l31 -42l-38 26h-9l-11 -25l13 -30l-37 30l-9 -24l-25 13l-8 -10l-156 2q-30 -25 -37.5 -101.5t-40.5 -103.5l27 13l15 -26h2l31 20l4 -12l20 15l35 -16l12 10q10 -6 27 -19l17 18l20 -30l-7 -17l23 6l-7 27 q31 -9 37 -38l-10 -16l-16 3v-17l-7 -6l11 -1q-22 0 -32 17l2 8l-5 6l-4 -10l6 -18q-34 -12 -128 -23l-8 8l-21 -8l-10 8l-19 -10l-5 8l-17 -18l3 -21q0 -15 -5.5 -45.5t-5.5 -45.5q0 -23 9 -41l-12 -21l21 -13l23 6q9 12 31 21q27 11 35 17l7 -2l40 20l9 -3q106 40 150 40 q15 0 35 -16l4 3q30 -21 30 -58v-10q0 -16 2 -28zM208 526q-4 4 -10 8q0 2 -1 5v-6q4 -2 9 -9q2 1 2 2zM193 545q-10 11 -21 11h-2q9 -16 12 -16q2 0 11 5zM113 396l-4 2l-15 -2l3 -31l8 -7q4 8 8 38zM144 265l-1 2v-1zM94 245v0q0 6 -3 10l-1 -2v-7q0 -3 2 -5l1 1v0 q0 1 1 3zM267 41l-3 1v0l1 -1h1h1zM121 149l-2 -2v0h1l1 2v0zM400 704q0 -6 -10 -18q-7 8 -12 12l-12 -5l-22 5l3 1q-5 1 -16.5 4.5t-17.5 3.5t-11 -10q-13 2 -24.5 16.5t-20.5 15.5l-12 12l-1 -1q-10 27 -10 46q-2 -5 -12 -65l-4 71l17 3l3 22q6 1 30 20q4 -5 15 -14l4 2 q16 0 25 -25q5 -2 10 -5v1q6 7 12 7q13 0 13 -9q0 -5 -6 -12h-2q7 -4 14 -3q9 -11 26 -37q21 -32 21 -38zM324 793h-1h1v0zM259 749l-2 1v-1h2z" />
<glyph unicode="&#xc9;" horiz-adv-x="615" d="M552 624h-21v21q21 0 21 -9v-12zM533 328q0 -10 -4.5 -14t-15.5 -25v10q0 29 20 29zM598 41l-17 -9q-8 10 -8 36l-6 1l-5 -19l-36 4l-33 -19l-26 17q-4 -11 -9.5 -23t-14.5 -17l-16 3l-4 20l-2 -14l-21 -25l-17 8l-8 -16l-19 7l-8 -2l3 -15l-7 -13h-19l14 27l-8 -2 q-34 -53 -75 -53l-81 20l-6 -2l-11 -17q-18 22 -41 29l-18 -21q-18 21 -33 28l-10 -8l-11 14l5 14l-33 41l48 -30l3 17l-22 25l-8 -1l-21 35l31 -12l2 2q-4 21 -11 62l11 25l-17 19q9 14 24 43l-2 4l-17 10q20 13 20 27q0 6 -2 21l7 17l12 5l-6 28l11 2l1 -8l1 4l1 7l-17 34 l24 24l-4 -1q1 3 37 68l-7 18l8 13l19 -19l7 21q0 5 -3 27q-2 17 0 28l-13 20l-15 -6l-21 4l-6 15l-10 -4l-17 42l2 14l23 11l-3 -14l8 -13l11 7v13q20 -4 40.5 -10t28.5 -25q13 24 32 30v23q18 -12 34 -47l1 31l35 9v-16v-1l32 16l12 -6l8 6q18 -11 30 -24l30 31l9 -14 l7 11q20 -25 39 -25l14 5l14 23l13 -14l25 8l14 -31l32 2l31 -42l-38 26h-9l-11 -25l13 -30l-37 30l-9 -24l-25 13l-8 -10l-156 2q-30 -25 -37.5 -101.5t-40.5 -103.5l27 13l15 -26h2l31 20l4 -12l20 15l35 -16l12 10q10 -6 27 -19l17 18l20 -30l-7 -17l23 6l-7 27 q31 -9 37 -38l-10 -16l-16 3v-17l-7 -6l11 -1q-22 0 -32 17l2 8l-5 6l-4 -10l6 -18q-34 -12 -128 -23l-8 8l-21 -8l-10 8l-19 -10l-5 8l-17 -18l3 -21q0 -15 -5.5 -45.5t-5.5 -45.5q0 -23 9 -41l-12 -21l21 -13l23 6q9 12 31 21q27 11 35 17l7 -2l40 20l9 -3q106 40 150 40 q15 0 35 -16l4 3q30 -21 30 -58v-10q0 -16 2 -28zM208 526q-4 4 -10 8q0 2 -1 5v-6q4 -2 9 -9q2 1 2 2zM193 545q-10 11 -21 11h-2q9 -16 12 -16q2 0 11 5zM113 396l-4 2l-15 -2l3 -31l8 -7q4 8 8 38zM144 265l-1 2v-1zM94 245v0q0 6 -3 10l-1 -2v-7q0 -3 2 -5l1 1v0 q0 1 1 3zM267 41l-3 1v0l1 -1h1h1zM121 149l-2 -2v0h1l1 2v0zM481 807v-6q1 -13 -7 -36v0l-2 -4l-2 1l-11 -12q-9 -1 -20.5 -15.5t-24.5 -16.5q-6 10 -12 10q-7 0 -17.5 -3.5t-16.5 -4.5l3 -1l-22 -5l-12 5q-4 -3 -12 -12q-9 12 -9 18t20 38q18 27 27 37h4q5 0 10 3h-3 q-5 7 -5 12q0 9 12 9l8 -1l5 -7q5 3 9 5q9 26 25 25l4 -2q4 1 16 14q8 -8 29 -20l3 -22q3 0 1 -9zM460 764l-1 7l-9 -7h10zM399 805h-15l10 -8z" />
</font>
</defs>
</svg>
